<?xml version="1.0" standalone="no"?>
<!DOCTYPE svg PUBLIC "-//W3C//DTD SVG 1.1//EN" "http://www.w3.org/Graphics/SVG/1.1/DTD/svg11.dtd" >
<svg xmlns="http://www.w3.org/2000/svg" xmlns:xlink="http://www.w3.org/1999/xlink" version="1.1">
<metadata>
Created by FontForge 20201107 at Thu Jul 21 13:01:46 2022
 By 
Copyright 2022 The PinyonScript Project Authors (https://github.com/SorkinType/Black-Ops)
</metadata>
<defs>
<font id="BlackOpsOne-Regular" horiz-adv-x="0" >
  <font-face 
    font-family="Black Ops One"
    font-weight="400"
    font-stretch="normal"
    units-per-em="2048"
    panose-1="0 0 0 0 0 0 0 0 0 0"
    ascent="1638"
    descent="-410"
    x-height="1062"
    cap-height="1327"
    bbox="-388 -638 2887 2232"
    underline-thickness="185"
    underline-position="-291"
    unicode-range="U+000D-FB02"
  />
<missing-glyph horiz-adv-x="1837" 
d="M162 -168v1611h1512v-1611h-1512zM604 142l313 315l312 -315l167 170l-315 311l313 310l-165 168l-311 -315l-311 316l-165 -170l313 -311l-315 -311z" />
    <glyph glyph-name="fi" unicode="fi" horiz-adv-x="1560" 
d="M1012 1194v282h443v-282h-443zM143 0v797h-105v265h105v157l267 248h496v-265h-320v-1202h-443zM1012 0v797h-356v265h799v-1062h-443z" />
    <glyph glyph-name="fl" unicode="fl" horiz-adv-x="1660" 
d="M143 0v797h-105v265h105v157l267 248h1043v-1202h198v-265h-392l-248 248v954h-425v-1202h-443zM656 797v265h250v-265h-250z" />
    <glyph glyph-name="f_f" unicode="ff" horiz-adv-x="1814" 
d="M1050 0v797h-394v265h394v157l267 248h496v-265h-320v-1202h-443zM143 0v797h-105v265h105v157l267 248h496v-265h-320v-1202h-443zM1563 797v265h250v-265h-250z" />
    <glyph glyph-name=".notdef" horiz-adv-x="1837" 
d="M162 -168v1611h1512v-1611h-1512zM604 142l313 315l312 -315l167 170l-315 311l313 310l-165 168l-311 -315l-311 316l-165 -170l313 -311l-315 -311z" />
    <glyph glyph-name=".null" 
 />
    <glyph glyph-name="nonmarkingreturn" horiz-adv-x="682" 
 />
    <glyph glyph-name="CR" unicode="&#xd;" 
 />
    <glyph glyph-name="space" unicode=" " horiz-adv-x="530" 
 />
    <glyph glyph-name="exclam" unicode="!" horiz-adv-x="753" 
d="M169 442l-27 885h470l-28 -885h-415zM156 0v309h442v-309h-442z" />
    <glyph glyph-name="quotedbl" unicode="&#x22;" horiz-adv-x="1359" 
d="M227 664l-46 663h411l-47 -663h-318zM812 664l-46 663h411l-47 -663h-318z" />
    <glyph glyph-name="numbersign" unicode="#" horiz-adv-x="1699" 
d="M412 0l25 285h-251l20 237h250l25 283h-249l21 237h249l25 285h237l-24 -285h214l-22 -237h-214l-22 -283h211l-21 -237h-212l-25 -285h-237zM932 0l115 1327h238l-25 -285h253l-22 -237h-251l-24 -283h251l-22 -237h-251l-25 -285h-237z" />
    <glyph glyph-name="dollar" unicode="$" horiz-adv-x="1743" 
d="M1070 929v133h-330v414h299v-149h209l265 -265v-133h-443zM1070 0v530h-575l-265 267v265l265 265h177v-530h576l265 -267v-265l-265 -265h-178zM701 -157v157h-206l-265 265v133h442v-133h331v-422h-302z" />
    <glyph glyph-name="percent" unicode="%" horiz-adv-x="2392" 
d="M746 -196l613 1654h250l-613 -1654h-250zM364 582l-200 201v346l200 198h197v-198h-64v-349h64v-198h-197zM631 582v198h65v349h-65v198h198l200 -198v-346l-200 -201h-198zM1562 0l-199 200v347l199 198h197v-198h-64v-349h64v-198h-197zM1829 0v198h66v349h-66v198h199
l199 -198v-347l-199 -200h-199z" />
    <glyph glyph-name="ampersand" unicode="&#x26;" horiz-adv-x="1666" 
d="M1066 0l-781 905v198l226 224h199v-347l350 -406l301 234l218 -252l-296 -241l272 -315h-489zM950 929v133h-170v265h363l222 -222v-176h-415zM374 0l-223 219v320l191 197l206 -240v-241h211l174 -206l-57 -49h-502z" />
    <glyph glyph-name="quotesingle" unicode="'" horiz-adv-x="773" 
d="M227 664l-46 663h411l-47 -663h-318z" />
    <glyph glyph-name="parenleft" unicode="(" horiz-adv-x="978" 
d="M495 -142l-257 266v1080l257 265h341v-265h-164v-1080h164v-266h-341z" />
    <glyph glyph-name="parenright" unicode=")" horiz-adv-x="978" 
d="M143 -142v266h164v1080h-164v265h341l257 -265v-1080l-257 -266h-341z" />
    <glyph glyph-name="asterisk" unicode="*" horiz-adv-x="1392" 
d="M480 461l-191 139l140 271l-268 137l71 222l299 -46l47 297h233l46 -297l302 49l72 -225l-271 -137l142 -273l-190 -137l-216 217z" />
    <glyph glyph-name="plus" unicode="+" horiz-adv-x="1439" 
d="M601 86v415h-415v239h415v413h241v-413h411v-239h-411v-415h-241z" />
    <glyph glyph-name="comma" unicode="," horiz-adv-x="736" 
d="M147 -265l123 265h-123v309h442v-309l-177 -265h-265z" />
    <glyph glyph-name="hyphen" unicode="-" horiz-adv-x="1255" 
d="M186 501v239h883v-239h-883z" />
    <glyph glyph-name="period" unicode="." horiz-adv-x="736" 
d="M147 0v309h442v-309h-442z" />
    <glyph glyph-name="slash" unicode="/" horiz-adv-x="746" 
d="M-80 -196l612 1614h250l-613 -1614h-249z" />
    <glyph glyph-name="zero" unicode="0" horiz-adv-x="1499" 
d="M618 0v265h331v1062h177l265 -265v-797l-265 -265h-508zM374 0l-266 265v797l266 265h507v-265h-331v-1062h-176z" />
    <glyph glyph-name="one" unicode="1" horiz-adv-x="1167" 
d="M363 326v736h-221v132l132 133h531v-1001h-442zM142 0v265h884v-265h-884z" />
    <glyph glyph-name="two" unicode="2" horiz-adv-x="1464" 
d="M108 0v476l283 266h523v585h177l265 -265v-328l-265 -265h-541v-469h-442zM108 895v167l266 265h470v-239h-294v-193h-442zM620 0v239h736v-239h-736z" />
    <glyph glyph-name="three" unicode="3" horiz-adv-x="1495" 
d="M944 0v560h-308v231h308v536h177l266 -265v-261l-157 -133l157 -135v-269l-266 -264h-177zM104 851v211l265 265h505v-282h-328v-194h-442zM369 0l-265 265v205h442v-187h328v-283h-505z" />
    <glyph glyph-name="four" unicode="4" horiz-adv-x="1392" 
d="M762 0v1327h425v-883h150v-259h-150v-185h-425zM118 185l-105 246l679 806v-525l-241 -268h241v-259h-574z" />
    <glyph glyph-name="five" unicode="5" horiz-adv-x="1498" 
d="M107 594v733h1196v-265h-797v-468h-399zM922 0v594h-346v248h523l265 -266v-311l-265 -265h-177zM373 0l-266 265v149h443v-149h302v-265h-479z" />
    <glyph glyph-name="six" unicode="6" horiz-adv-x="1499" 
d="M374 0l-266 265v797l266 265h343v-265h-167v-797h167v-265h-343zM949 965v97h-162v265h339l265 -265v-97h-442zM787 0v265h179v311h-348v248h513l260 -243v-316l-265 -265h-339z" />
    <glyph glyph-name="seven" unicode="7" horiz-adv-x="1299" 
d="M52 860v334l131 133h1064v-265h-762v-202h-433zM346 0l445 994h424l-401 -994h-468z" />
    <glyph glyph-name="eight" unicode="8" horiz-adv-x="1541" 
d="M374 0l-266 265v276l159 131l-159 130v260l266 265h364v-265h-192v-266h192v-248h-192v-283h192v-265h-364zM808 0v265h205v283h-205v248h205v266h-205v265h360l265 -265v-258l-158 -133l158 -133v-274l-265 -264h-360z" />
    <glyph glyph-name="nine" unicode="9" horiz-adv-x="1499" 
d="M783 0v265h166v797h-166v265h343l265 -265v-797l-265 -265h-343zM374 496l-266 266v300l266 265h341v-265h-165v-300h331v-266h-507zM374 0l-266 265v89h442v-89h165v-265h-341z" />
    <glyph glyph-name="colon" unicode=":" horiz-adv-x="736" 
d="M147 753v309h442v-309h-442zM147 0v309h442v-309h-442z" />
    <glyph glyph-name="semicolon" unicode=";" horiz-adv-x="736" 
d="M147 753v309h442v-309h-442zM147 -265l123 265h-123v309h442v-309l-177 -265h-265z" />
    <glyph glyph-name="less" unicode="&#x3c;" horiz-adv-x="1439" 
d="M186 524v235l1067 292v-249zM1253 186l-1013 280l452 116l561 -148v-248z" />
    <glyph glyph-name="equal" unicode="=" horiz-adv-x="1439" 
d="M186 761v239h1067v-239h-1067zM186 204v238h1067v-238h-1067z" />
    <glyph glyph-name="greater" unicode="&#x3e;" horiz-adv-x="1439" 
d="M1253 713v-235l-1067 -292v249zM186 1051l1013 -280l-452 -116l-561 148v248z" />
    <glyph glyph-name="question" unicode="?" horiz-adv-x="1407" 
d="M428 442v124l266 266h191v230h-363v-133h-443v133l266 265h717l265 -265v-230l-265 -266h-190v-124h-444zM428 0v309h444v-309h-444z" />
    <glyph glyph-name="at" unicode="@" horiz-adv-x="1585" 
d="M400 0l-305 307v709l307 311h363v-222h-232l-218 -218v-449l218 -216h252v-222h-385zM1270 441v443l-222 221h-229v222h363l308 -311v-575h-220zM839 0v441h-152v443h212v-520l144 -142h316l-177 -222h-343z" />
    <glyph glyph-name="A" unicode="A" horiz-adv-x="1500" 
d="M1044 0l-56 145h-434l92 263h240l-355 919h431l529 -1327h-447zM9 0l474 1267l196 -527l-243 -740h-427z" />
    <glyph glyph-name="B" unicode="B" horiz-adv-x="1495" 
d="M629 0v265h328v283h-328v231h328v283h-328v265h513l266 -265v-270l-133 -133l133 -133v-261l-266 -265h-513zM117 0v1327h442v-1327h-442z" />
    <glyph glyph-name="C" unicode="C" horiz-adv-x="1440" 
d="M363 0l-266 265v797l266 265h176v-1327h-176zM903 795v267h-294v265h471l265 -265v-267h-442zM609 0v265h294v194h442v-194l-265 -265h-471z" />
    <glyph glyph-name="D" unicode="D" horiz-adv-x="1486" 
d="M629 0v265h328v797h-328v265h505l266 -265v-797l-266 -265h-505zM117 0v1327h442v-1327h-442z" />
    <glyph glyph-name="E" unicode="E" horiz-adv-x="1415" 
d="M117 0v1327h442v-526h423v-256h-423v-545h-442zM904 943v127h-275v257h691v-384h-416zM629 0v265h249v133h442v-398h-691z" />
    <glyph glyph-name="F" unicode="F" horiz-adv-x="1329" 
d="M117 0v1327h442v-593h408v-261h-408v-473h-442zM861 887v175h-232v265h674v-440h-442z" />
    <glyph glyph-name="G" unicode="G" horiz-adv-x="1495" 
d="M380 0l-265 265v797l265 265h177v-1062h379v-265h-556zM956 929v133h-329v265h539l232 -265v-133h-442zM1006 0v473h-215v263h607v-736h-392z" />
    <glyph glyph-name="H" unicode="H" horiz-adv-x="1516" 
d="M957 0v539h-328v266h325v522h446v-1327h-443zM117 0v1327h442v-1327h-442z" />
    <glyph glyph-name="I" unicode="I" horiz-adv-x="902" 
d="M97 0v283h133v762h-133v282h708v-282h-133v-762h133v-283h-708z" />
    <glyph glyph-name="J" unicode="J" horiz-adv-x="1369" 
d="M823 0v1038h-610v289h1052v-1062l-265 -265h-177zM318 0l-266 265v291h459v-291h242v-265h-435z" />
    <glyph glyph-name="K" unicode="K" horiz-adv-x="1370" 
d="M627 188v645l310 494h460zM117 0v1327h442v-1327h-442zM940 0l-150 309l262 393l366 -702h-478z" />
    <glyph glyph-name="L" unicode="L" horiz-adv-x="1273" 
d="M117 0v1327h442v-1327h-442zM629 0v265h219v168h401v-433h-620z" />
    <glyph glyph-name="M" unicode="M" horiz-adv-x="1848" 
d="M905 0l-787 1327h470l356 -590l280 480v-668zM1289 0v1327h442v-1327h-442zM117 0v1204l413 -693v-511h-413z" />
    <glyph glyph-name="N" unicode="N" horiz-adv-x="1508" 
d="M921 0l-804 1327h467l807 -1327h-470zM1391 126l-385 634v567h385v-1201zM117 0v1201l385 -631v-570h-385z" />
    <glyph glyph-name="O" unicode="O" horiz-adv-x="1463" 
d="M765 0v270h169v788h-169v269h343l268 -265v-797l-268 -265h-343zM355 0l-269 265v797l269 265h340v-269h-166v-788h166v-270h-340z" />
    <glyph glyph-name="P" unicode="P" horiz-adv-x="1460" 
d="M621 341v266h321v455h-321v265h496l265 -265v-455l-265 -266h-496zM117 0v1327h434v-1327h-434z" />
    <glyph glyph-name="Q" unicode="Q" horiz-adv-x="1456" 
d="M1072 -372l-389 372h-331l-266 265v797l266 265h341v-265h-165v-797h350l431 -407zM1178 72l-251 232v758h-166v265h343l265 -265v-797z" />
    <glyph glyph-name="R" unicode="R" horiz-adv-x="1486" 
d="M629 398v257h332v407h-332v265h505l266 -265v-398l-206 -206l251 -458h-472l-188 398h-156zM117 0v1327h442v-1327h-442z" />
    <glyph glyph-name="S" unicode="S" horiz-adv-x="1477" 
d="M937 0v497h-574l-266 266v299l266 265h150v-471h610l257 -266v-325l-265 -265h-178zM937 955v133h-354v239h531l230 -231v-141h-407zM320 0l-223 265v133h442v-158h328v-240h-547z" />
    <glyph glyph-name="T" unicode="T" horiz-adv-x="1256" 
d="M52 1038v289h1152v-289h-1152zM398 0v969h460v-969h-460z" />
    <glyph glyph-name="U" unicode="U" horiz-adv-x="1494" 
d="M782 0v265h164v1062h442v-1062l-265 -265h-341zM372 0l-266 265v1062h443v-1062h163v-265h-340z" />
    <glyph glyph-name="V" unicode="V" horiz-adv-x="1371" 
d="M454 0l-480 1327h451l459 -1327h-430zM938 40l-199 584l214 703h444z" />
    <glyph glyph-name="W" unicode="W" horiz-adv-x="1928" 
d="M371 0l-397 1327h440l195 -729l133 557l173 -630l-143 -525h-401zM1125 0l-364 1327h446l340 -1327h-422zM1594 69l-180 707l137 551h403z" />
    <glyph glyph-name="X" unicode="X" horiz-adv-x="1342" 
d="M886 0l-885 1327h477l890 -1327h-482zM956 727l-236 345l155 255h474zM-26 0l423 618l237 -360l-155 -258h-505z" />
    <glyph glyph-name="Y" unicode="Y" horiz-adv-x="1297" 
d="M424 0v422l-450 905h434l459 -936v-391h-443zM895 484l-215 436l218 407h425z" />
    <glyph glyph-name="Z" unicode="Z" horiz-adv-x="1271" 
d="M52 0v248l867 1079h300v-257l-876 -1070h-291zM79 1037v290h753l-251 -290h-502zM432 0l252 291h517v-291h-769z" />
    <glyph glyph-name="bracketleft" unicode="[" horiz-adv-x="978" 
d="M274 -142v1611h562v-265h-164v-1080h164v-266h-562z" />
    <glyph glyph-name="backslash" unicode="\" horiz-adv-x="746" 
d="M578 -196l-613 1614h250l612 -1614h-249z" />
    <glyph glyph-name="bracketright" unicode="]" horiz-adv-x="978" 
d="M142 -142v266h164v1080h-164v265h562v-1611h-562z" />
    <glyph glyph-name="asciicircum" unicode="^" horiz-adv-x="1290" 
d="M850 100l-316 1067h236l346 -1067h-266zM174 100l302 1013l122 -432l-158 -581h-266z" />
    <glyph glyph-name="underscore" unicode="_" horiz-adv-x="1331" 
d="M-86 -393v193h1503v-193h-1503z" />
    <glyph glyph-name="grave" unicode="`" horiz-adv-x="1098" 
d="M730 1144l-555 167l-54 211l184 85l486 -316z" />
    <glyph glyph-name="a" unicode="a" horiz-adv-x="1331" 
d="M804 0v797h-629v132l133 133h663l265 -265v-797h-432zM264 0l-178 175v266l178 177h470v-184h-228v-186h228v-117l-132 -131h-338z" />
    <glyph glyph-name="b" unicode="b" horiz-adv-x="1349" 
d="M104 0v1467h442v-1467h-442zM616 0v248h198v549h-198v134l130 131h242l266 -265v-532l-266 -265h-372z" />
    <glyph glyph-name="c" unicode="c" horiz-adv-x="1323" 
d="M360 0l-265 265v532l265 265h177v-1062h-177zM803 638v159h-196v265h373l265 -265v-159h-442zM607 0v248h196v133h442v-116l-265 -265h-373z" />
    <glyph glyph-name="d" unicode="d" horiz-adv-x="1366" 
d="M820 0v1467h442v-1467h-442zM334 0l-239 239v584l239 239h416v-265h-213v-549h213v-143l-105 -105h-311z" />
    <glyph glyph-name="e" unicode="e" horiz-adv-x="1331" 
d="M360 0l-265 265v532l265 265h177v-1062h-177zM607 426v185h233v186h-233v265h375l265 -265v-371h-640zM607 0v248h594v-115l-132 -133h-462z" />
    <glyph glyph-name="f" unicode="f" horiz-adv-x="907" 
d="M143 0v797h-105v265h105v157l267 248h496v-265h-320v-1202h-443zM653 797l3 265h250v-265h-253z" />
    <glyph glyph-name="g" unicode="g" horiz-adv-x="1340" 
d="M397 -372l-133 134v98h539v937h-196v265h373l265 -265v-902l-265 -267h-583zM360 0l-265 265v532l265 265h177v-814h196v-117l-132 -131h-241z" />
    <glyph glyph-name="h" unicode="h" horiz-adv-x="1355" 
d="M104 0v1467h442v-1467h-442zM811 0v797h-195v134l130 131h242l266 -265v-797h-443z" />
    <glyph glyph-name="i" unicode="i" horiz-adv-x="653" 
d="M105 1194v282h443v-282h-443zM105 0v1062h443v-1062h-443z" />
    <glyph glyph-name="j" unicode="j" horiz-adv-x="653" 
d="M105 1194v282h442v-282h-442zM-100 -354v266h205v1150h443v-1150l-266 -266h-382z" />
    <glyph glyph-name="k" unicode="k" horiz-adv-x="1312" 
d="M104 0v1467h442v-1467h-442zM615 150v606l204 306h457zM819 0l-73 214l261 352l292 -566h-480z" />
    <glyph glyph-name="l" unicode="l" horiz-adv-x="753" 
d="M352 0l-248 248v1219h442v-1202h198v-265h-392z" />
    <glyph glyph-name="m" unicode="m" horiz-adv-x="2033" 
d="M797 0v797h-180v125l139 140h342l142 -142v-920h-443zM104 0v1062h443v-1062h-443zM1490 0v797h-180v123l136 142h270l216 -218v-844h-442z" />
    <glyph glyph-name="n" unicode="n" horiz-adv-x="1356" 
d="M812 0v797h-190v116l148 149h246l239 -239v-823h-443zM104 0v1062h446v-1062h-446z" />
    <glyph glyph-name="o" unicode="o" horiz-adv-x="1383" 
d="M360 0l-265 265v532l265 265h297v-265h-115v-549h115v-248h-297zM727 0v248h110v549h-110v265h296l265 -265v-532l-265 -265h-296z" />
    <glyph glyph-name="p" unicode="p" horiz-adv-x="1349" 
d="M616 0v248h195v549h-195v134l130 131h242l266 -265v-532l-266 -265h-372zM104 -354v1416h442v-1416h-442z" />
    <glyph glyph-name="q" unicode="q" horiz-adv-x="1350" 
d="M934 -354l-130 133v1018h-197v265h373l266 -265v-1151h-312zM361 0l-266 265v532l266 265h176v-814h197v-117l-132 -131h-241z" />
    <glyph glyph-name="r" unicode="r" horiz-adv-x="1260" 
d="M104 0v1062h442v-1062h-442zM805 539v258h-188v116l148 149h268l215 -248v-275h-443z" />
    <glyph glyph-name="s" unicode="s" horiz-adv-x="1315" 
d="M804 0v401h-478l-230 221v202l239 238h177v-375h504l230 -232v-207l-247 -248h-195zM804 784v83h-222v195h470l158 -158v-120h-406zM279 0l-184 219v85h443v-109h196v-195h-455z" />
    <glyph glyph-name="t" unicode="t" horiz-adv-x="931" 
d="M392 0l-266 265v532h-88v265h88v115l442 150v-1062h292v-265h-468zM638 797v265h238v-265h-238z" />
    <glyph glyph-name="u" unicode="u" horiz-adv-x="1350" 
d="M361 0l-266 265v797h442v-797h197v-132l-128 -133h-245zM804 0v1062h442v-1062h-442z" />
    <glyph glyph-name="v" unicode="v" horiz-adv-x="1192" 
d="M383 0l-397 1062h439l378 -1062h-420zM848 59l-198 562l143 441h413z" />
    <glyph glyph-name="w" unicode="w" horiz-adv-x="1846" 
d="M367 0l-381 1062h422l173 -553l123 383l159 -489l-126 -403h-370zM1068 0l-358 1062h417l342 -1062h-401zM1513 66l-186 572l119 424h414z" />
    <glyph glyph-name="x" unicode="x" horiz-adv-x="1140" 
d="M694 0l-708 1062h460l707 -1062h-459zM847 572l-228 343l75 147h459zM-14 0l295 506l237 -357l-72 -149h-460z" />
    <glyph glyph-name="y" unicode="y" horiz-adv-x="1221" 
d="M272 -370l538 1432h425l-539 -1432h-424zM378 89l-392 973h441l149 -432z" />
    <glyph glyph-name="z" unicode="z" horiz-adv-x="1171" 
d="M90 0v257l690 805h305v-265l-699 -797h-296zM100 797v265h597l-229 -265h-368zM468 0l235 265h383v-265h-618z" />
    <glyph glyph-name="braceleft" unicode="{" horiz-adv-x="978" 
d="M495 -142l-265 266v386l-143 154l143 153v387l265 265h333v-265h-164v-387l-144 -133l144 -174v-386h164v-266h-333z" />
    <glyph glyph-name="bar" unicode="|" horiz-adv-x="700" 
d="M230 -196v1614h240v-1614h-240z" />
    <glyph glyph-name="braceright" unicode="}" horiz-adv-x="978" 
d="M149 -142v266h164v386l144 174l-144 133v387h-164v265h333l265 -265v-387l143 -153l-143 -154v-386l-265 -266h-333z" />
    <glyph glyph-name="asciitilde" unicode="~" horiz-adv-x="1491" 
d="M750 336l-233 233h-108l-209 -144l-87 88l237 294h400l238 -238h103l208 149l88 -90l-234 -292h-403z" />
    <glyph glyph-name="uni00A0" unicode="&#xa0;" horiz-adv-x="530" 
 />
    <glyph glyph-name="exclamdown" unicode="&#xa1;" horiz-adv-x="753" 
d="M585 781l27 -885h-470l28 885h415zM598 1223v-309h-442v309h442z" />
    <glyph glyph-name="cent" unicode="&#xa2;" horiz-adv-x="1610" 
d="M937 797v132h-197v415h265v-150h110l265 -265v-132h-443zM605 -17v150h-110l-265 265v531l265 265h177v-796h198v-415h-265zM937 133v397h443v-132l-265 -265h-178z" />
    <glyph glyph-name="sterling" unicode="&#xa3;" horiz-adv-x="1743" 
d="M230 0v265h177v255h-177v188h177v443l265 265h177v-708h307v-188h-307v-520h-619zM1105 1020v131h-188v265h322l265 -265v-131h-399zM917 0v265h596v-265h-596z" />
    <glyph glyph-name="currency" unicode="&#xa4;" horiz-adv-x="1461" 
d="M244 709v152l85 84l-219 223l115 117l224 -220l94 94h153v-253h-211v-197h-241zM994 709v197h-216v253h158l84 -87l215 213l116 -117l-211 -214l95 -93v-152h-241zM225 42l-115 115l219 225l-85 84v162h241v-211h211v-249h-153l-94 94zM1235 42l-215 213l-84 -87h-158
v249h216v211h241v-162l-95 -93l211 -216z" />
    <glyph glyph-name="yen" unicode="&#xa5;" horiz-adv-x="1739" 
d="M645 0v182h-274v132h274v109h-274v133h244l-420 771h425l422 -771h320v-133h-274v-109h274v-132h-274v-182h-443zM1091 616l-196 348l224 363h425l-396 -711h-57z" />
    <glyph glyph-name="brokenbar" unicode="&#xa6;" horiz-adv-x="698" 
d="M230 697v721h238v-721h-238zM230 -196v708h238v-708h-238z" />
    <glyph glyph-name="section" unicode="&#xa7;" horiz-adv-x="1573" 
d="M956 540v356l-586 1l-189 188v215l190 190h380v-190h-133v-215h559l192 -189v-356h-413zM955 1187v113h-133v190h380l190 -190v-113h-437zM823 -121v189h133v215h-547l-193 190v356h402v-356h584l190 -190v-215l-189 -189h-380zM372 -121l-191 189v113h438v-113h133v-189
h-380z" />
    <glyph glyph-name="dieresis" unicode="&#xa8;" horiz-adv-x="1414" 
d="M804 1189v281h336v-281h-336zM274 1189v281h336v-281h-336z" />
    <glyph glyph-name="copyright" unicode="&#xa9;" horiz-adv-x="1586" 
d="M839 -43v220h207l190 191v162h-337v-132h-212v443h212v-133h337v159l-191 195h-223v220h361l308 -309v-708l-308 -308h-344zM404 -43l-309 308v708l309 309h364v-220h-223l-194 -195v-497l192 -193h243v-220h-382z" />
    <glyph glyph-name="ordfeminine" unicode="&#xaa;" horiz-adv-x="1145" 
d="M670 530v598h-464v100l100 99h498l199 -199v-598h-333zM274 530l-132 132v207l132 132h329v-145h-130v-127h130v-101l-99 -98h-230zM483 -81l-133 133v176l133 133h177l132 -133v-176l-132 -133h-177z" />
    <glyph glyph-name="guillemotleft" unicode="&#xab;" horiz-adv-x="1722" 
d="M1254 27l-420 432v154l420 432h265l-281 -509l281 -509h-265zM622 27l-420 432v154l420 432h265l-281 -509l281 -509h-265z" />
    <glyph glyph-name="logicalnot" unicode="&#xac;" horiz-adv-x="1623" 
d="M1198 270v461h-1012v238h1251v-699h-239z" />
    <glyph glyph-name="uni00AD" unicode="&#xad;" 
 />
    <glyph glyph-name="registered" unicode="&#xae;" horiz-adv-x="1586" 
d="M1085 -43v220h182l-164 306l134 135v267l-177 177h-240v220h363l308 -309v-708l-308 -308h-98zM404 -43l-309 308v708l309 309h362v-220h-419v-885h154v-220h-97zM696 655v194h195v-194h-195zM555 -43v220h141v265h76l133 -265h127v-220h-477z" />
    <glyph glyph-name="macron" unicode="&#xaf;" horiz-adv-x="1238" 
d="M251 1223v170h729v-170h-729z" />
    <glyph glyph-name="degree" unicode="&#xb0;" horiz-adv-x="1173" 
d="M620 481v237h147v363h-147v246h172l243 -243v-360l-243 -243h-172zM380 481l-242 243v360l242 243h173v-246h-147v-363h147v-237h-173z" />
    <glyph glyph-name="plusminus" unicode="&#xb1;" horiz-adv-x="1439" 
d="M601 442v228h-415v240h415v230h241v-230h411v-240h-411v-228h-241zM186 74v239h1067v-239h-1067z" />
    <glyph glyph-name="uni00B2" unicode="&#xb2;" horiz-adv-x="1083" 
d="M97 398v340l186 186h384v403h124l203 -186v-217l-185 -186h-385v-340h-327zM97 1047v94l186 186h314v-186h-190v-94h-310zM485 398v186h527v-186h-527z" />
    <glyph glyph-name="uni00B3" unicode="&#xb3;" horiz-adv-x="1076" 
d="M665 398v374h-306v184h306v371h127l186 -182v-189l-92 -95l92 -89v-190l-186 -184h-127zM79 1047v94l186 186h333v-186h-209v-94h-310zM265 398l-186 184v95h310v-95h209v-184h-333z" />
    <glyph glyph-name="acute" unicode="&#xb4;" horiz-adv-x="1098" 
d="M336 1144l-62 147l486 316l184 -85l-54 -211z" />
    <glyph glyph-name="uni00B5" unicode="&#xb5;" horiz-adv-x="1350" 
d="M95 -490v1552h442v-797h197v-118l-89 -100l-108 86v-623h-442zM804 0v1062h442v-1062h-442z" />
    <glyph glyph-name="paragraph" unicode="&#xb6;" horiz-adv-x="1610" 
d="M442 177l-266 267v618l266 265h475v-265h-132v-618h132v-267h-475zM983 -191v1518h441v-1253l-265 -265h-176z" />
    <glyph glyph-name="periodcentered" unicode="&#xb7;" horiz-adv-x="725" 
d="M273 464l-132 132v177l132 133h177l133 -133v-177l-133 -132h-177z" />
    <glyph glyph-name="cedilla" unicode="&#xb8;" horiz-adv-x="1008" 
d="M285 -507v282h285v163h202v-245l-175 -200h-312z" />
    <glyph glyph-name="uni00B9" unicode="&#xb9;" horiz-adv-x="902" 
d="M297 651v490h-155v186h490v-676h-335zM142 398v186h636v-186h-636z" />
    <glyph glyph-name="ordmasculine" unicode="&#xba;" horiz-adv-x="1148" 
d="M607 528v201h67v398h-67v200h200l200 -200v-398l-200 -201h-200zM341 528l-199 201v398l199 200h198v-200h-65v-398h65v-201h-198zM486 -81l-133 133v176l133 133h178l132 -133v-176l-132 -133h-178z" />
    <glyph glyph-name="guillemotright" unicode="&#xbb;" horiz-adv-x="1720" 
d="M833 26l281 509l-281 509h265l420 -432v-154l-420 -432h-265zM203 26l281 509l-281 509h265l420 -432v-154l-420 -432h-265z" />
    <glyph glyph-name="onequarter" unicode="&#xbc;" horiz-adv-x="2398" 
d="M789 0l479 1327h248l-479 -1327h-248zM341 651v490h-155v186h463v-676h-308zM1836 0v929h309v-620h145v-170h-145v-139h-309zM1314 139v170l455 530v-368l-158 -162h158v-170h-455zM186 398v186h619v-186h-619z" />
    <glyph glyph-name="onehalf" unicode="&#xbd;" horiz-adv-x="2550" 
d="M787 0l480 1327h249l-479 -1327h-250zM340 651v490h-154v186h463v-676h-309zM1486 0v340l186 186h384v403h124l203 -186v-217l-185 -186h-385v-340h-327zM1486 649v94l186 186h314v-186h-190v-94h-310zM186 398v186h619v-186h-619zM1874 0v186h527v-186h-527z" />
    <glyph glyph-name="threequarters" unicode="&#xbe;" horiz-adv-x="2692" 
d="M1023 0l479 1327h250l-479 -1327h-250zM186 1047v94l186 186h333v-186h-209v-94h-310zM772 398v374h-306v184h306v371h127l186 -182v-189l-92 -95l92 -89v-190l-186 -184h-127zM2089 0v929h309v-620h145v-170h-145v-139h-309zM1567 139v170l455 530v-368l-158 -162h158
v-170h-455zM372 398l-186 184v95h310v-95h209v-184h-333z" />
    <glyph glyph-name="questiondown" unicode="&#xbf;" horiz-adv-x="1407" 
d="M978 781v-124l-266 -266h-191v-230h363v133h443v-133l-266 -265h-717l-265 265v230l265 266h190v124h444zM978 1223v-309h-444v309h444z" />
    <glyph glyph-name="Agrave" unicode="&#xc0;" horiz-adv-x="1500" 
d="M1044 0l-56 145h-434l92 263h240l-355 919h431l529 -1327h-447zM9 0l474 1267l196 -527l-243 -740h-427zM854 1405l-502 115l-47 169l155 78l446 -240z" />
    <glyph glyph-name="Aacute" unicode="&#xc1;" horiz-adv-x="1500" 
d="M1044 0l-56 145h-434l92 263h240l-355 919h431l529 -1327h-447zM9 0l474 1267l196 -527l-243 -740h-427zM637 1407l-51 122l446 240l155 -78l-47 -169z" />
    <glyph glyph-name="Acircumflex" unicode="&#xc2;" horiz-adv-x="1500" 
d="M1044 0l-56 145h-434l92 263h240l-355 919h431l529 -1327h-447zM9 0l474 1267l196 -527l-243 -740h-427zM446 1393l-77 80l256 259h252l254 -260l-76 -79l-303 159z" />
    <glyph glyph-name="Atilde" unicode="&#xc3;" horiz-adv-x="1500" 
d="M1044 0l-56 145h-434l92 263h240l-355 919h431l529 -1327h-447zM9 0l474 1267l196 -527l-243 -740h-427zM764 1425l-160 116h-41l-181 -106l-64 78l207 214h205l160 -117h41l181 107l64 -78l-207 -214h-205z" />
    <glyph glyph-name="Adieresis" unicode="&#xc4;" horiz-adv-x="1500" 
d="M1044 0l-56 145h-434l92 263h240l-355 919h431l529 -1327h-447zM9 0l474 1267l196 -527l-243 -740h-427zM843 1431v221h336v-221h-336zM313 1431v221h336v-221h-336z" />
    <glyph glyph-name="Aring" unicode="&#xc5;" horiz-adv-x="1500" 
d="M1044 0l-56 145h-434l92 263h240l-355 919h431l529 -1327h-447zM9 0l474 1267l196 -527l-243 -740h-427zM779 1364v156h78v171h-78v155h117l139 -137v-208l-139 -137h-117zM591 1364l-137 137v208l137 137h119v-155h-77v-171h77v-156h-119z" />
    <glyph glyph-name="AE" unicode="&#xc6;" horiz-adv-x="2305" 
d="M9 0l633 1327h297v-276l-261 -577h261v-263h-379l-95 -211h-456zM1007 0v1327h442v-530h442v-267h-442v-530h-442zM1803 929v133h-287v265h730v-398h-443zM1516 0v265h287v133h443v-398h-730z" />
    <glyph glyph-name="Ccedilla" unicode="&#xc7;" horiz-adv-x="1440" 
d="M363 0l-266 265v797l266 265h176v-1327h-176zM903 795v267h-294v265h471l265 -265v-267h-442zM609 0v265h294v194h442v-194l-265 -265h-471zM476 -507v282h285v163h202v-245l-175 -200h-312z" />
    <glyph glyph-name="Egrave" unicode="&#xc8;" horiz-adv-x="1415" 
d="M117 0v1327h442v-526h423v-256h-423v-545h-442zM904 943v127h-275v257h691v-384h-416zM629 0v265h249v133h442v-398h-691zM843 1405l-502 115l-47 169l155 78l446 -240z" />
    <glyph glyph-name="Eacute" unicode="&#xc9;" horiz-adv-x="1415" 
d="M117 0v1327h442v-526h423v-256h-423v-545h-442zM904 943v127h-275v257h691v-384h-416zM629 0v265h249v133h442v-398h-691zM626 1407l-51 122l446 240l155 -78l-47 -169z" />
    <glyph glyph-name="Ecircumflex" unicode="&#xca;" horiz-adv-x="1415" 
d="M117 0v1327h442v-526h423v-256h-423v-545h-442zM904 943v127h-275v257h691v-384h-416zM629 0v265h249v133h442v-398h-691zM435 1393l-77 80l256 259h252l254 -260l-76 -79l-303 159z" />
    <glyph glyph-name="Edieresis" unicode="&#xcb;" horiz-adv-x="1415" 
d="M117 0v1327h442v-526h423v-256h-423v-545h-442zM904 943v127h-275v257h691v-384h-416zM629 0v265h249v133h442v-398h-691zM832 1431v221h336v-221h-336zM302 1431v221h336v-221h-336z" />
    <glyph glyph-name="Igrave" unicode="&#xcc;" horiz-adv-x="902" 
d="M97 0v283h133v762h-133v282h708v-282h-133v-762h133v-283h-708zM559 1404l-502 115l-47 169l155 78l446 -240z" />
    <glyph glyph-name="Iacute" unicode="&#xcd;" horiz-adv-x="902" 
d="M97 0v283h133v762h-133v282h708v-282h-133v-762h133v-283h-708zM342 1406l-51 122l446 240l155 -78l-47 -169z" />
    <glyph glyph-name="Icircumflex" unicode="&#xce;" horiz-adv-x="902" 
d="M97 0v283h133v762h-133v282h708v-282h-133v-762h133v-283h-708zM151 1392l-77 80l256 259h252l254 -260l-76 -79l-303 159z" />
    <glyph glyph-name="Idieresis" unicode="&#xcf;" horiz-adv-x="902" 
d="M97 0v283h133v762h-133v282h708v-282h-133v-762h133v-283h-708zM548 1430v221h336v-221h-336zM18 1430v221h336v-221h-336z" />
    <glyph glyph-name="Eth" unicode="&#xd0;" horiz-adv-x="1496" 
d="M629 0v265h328v797h-328v265h505l266 -265v-797l-266 -265h-505zM117 0v570h-88v187h88v570h442v-570h215v-187h-215v-570h-442z" />
    <glyph glyph-name="Ntilde" unicode="&#xd1;" horiz-adv-x="1508" 
d="M921 0l-804 1327h467l807 -1327h-470zM1391 126l-385 634v567h385v-1201zM117 0v1201l385 -631v-570h-385zM762 1424l-160 116h-41l-181 -106l-64 78l207 214h205l160 -117h41l181 107l64 -78l-207 -214h-205z" />
    <glyph glyph-name="Ograve" unicode="&#xd2;" horiz-adv-x="1463" 
d="M765 0v270h169v788h-169v269h343l268 -265v-797l-268 -265h-343zM355 0l-269 265v797l269 265h340v-269h-166v-788h166v-270h-340zM839 1405l-502 115l-47 169l155 78l446 -240z" />
    <glyph glyph-name="Oacute" unicode="&#xd3;" horiz-adv-x="1463" 
d="M765 0v270h169v788h-169v269h343l268 -265v-797l-268 -265h-343zM355 0l-269 265v797l269 265h340v-269h-166v-788h166v-270h-340zM622 1407l-51 122l446 240l155 -78l-47 -169z" />
    <glyph glyph-name="Ocircumflex" unicode="&#xd4;" horiz-adv-x="1463" 
d="M765 0v270h169v788h-169v269h343l268 -265v-797l-268 -265h-343zM355 0l-269 265v797l269 265h340v-269h-166v-788h166v-270h-340zM431 1393l-77 80l256 259h252l254 -260l-76 -79l-303 159z" />
    <glyph glyph-name="Otilde" unicode="&#xd5;" horiz-adv-x="1463" 
d="M765 0v270h169v788h-169v269h343l268 -265v-797l-268 -265h-343zM355 0l-269 265v797l269 265h340v-269h-166v-788h166v-270h-340zM749 1425l-160 116h-41l-181 -106l-64 78l207 214h205l160 -117h41l181 107l64 -78l-207 -214h-205z" />
    <glyph glyph-name="Odieresis" unicode="&#xd6;" horiz-adv-x="1463" 
d="M765 0v270h169v788h-169v269h343l268 -265v-797l-268 -265h-343zM355 0l-269 265v797l269 265h340v-269h-166v-788h166v-270h-340zM828 1431v221h336v-221h-336zM298 1431v221h336v-221h-336z" />
    <glyph glyph-name="multiply" unicode="&#xd7;" horiz-adv-x="1331" 
d="M352 142l-165 168l316 311l-314 311l166 170l311 -316l311 315l165 -168l-313 -310l315 -311l-167 -170l-313 315z" />
    <glyph glyph-name="Oslash" unicode="&#xd8;" horiz-adv-x="1455" 
d="M646 0l69 265h212v797h-113l109 437l348 -84l-54 -202l152 -151v-797l-265 -265h-458zM534 -172l-347 84l53 199l-154 154v797l267 265h461l-73 -265h-212v-797h116z" />
    <glyph glyph-name="Ugrave" unicode="&#xd9;" horiz-adv-x="1494" 
d="M782 0v265h164v1062h442v-1062l-265 -265h-341zM372 0l-266 265v1062h443v-1062h163v-265h-340zM855 1404l-502 115l-47 169l155 78l446 -240z" />
    <glyph glyph-name="Uacute" unicode="&#xda;" horiz-adv-x="1494" 
d="M782 0v265h164v1062h442v-1062l-265 -265h-341zM372 0l-266 265v1062h443v-1062h163v-265h-340zM638 1406l-51 122l446 240l155 -78l-47 -169z" />
    <glyph glyph-name="Ucircumflex" unicode="&#xdb;" horiz-adv-x="1494" 
d="M782 0v265h164v1062h442v-1062l-265 -265h-341zM372 0l-266 265v1062h443v-1062h163v-265h-340zM447 1392l-77 80l256 259h252l254 -260l-76 -79l-303 159z" />
    <glyph glyph-name="Udieresis" unicode="&#xdc;" horiz-adv-x="1494" 
d="M782 0v265h164v1062h442v-1062l-265 -265h-341zM372 0l-266 265v1062h443v-1062h163v-265h-340zM844 1430v221h336v-221h-336zM314 1430v221h336v-221h-336z" />
    <glyph glyph-name="Yacute" unicode="&#xdd;" horiz-adv-x="1297" 
d="M424 0v422l-450 905h434l459 -936v-391h-443zM895 484l-215 436l218 407h425zM539 1406l-51 122l446 240l155 -78l-47 -169z" />
    <glyph glyph-name="Thorn" unicode="&#xde;" horiz-adv-x="1464" 
d="M104 0v1327h433v-1327h-433zM607 209v265h328v399h-328v265h496l266 -265v-399l-266 -265h-496z" />
    <glyph glyph-name="germandbls" unicode="&#xdf;" horiz-adv-x="1443" 
d="M666 0v265h258v429h-229v214h150v295h-231v264h402l221 -220v-345l-71 -68l199 -203v-378l-253 -253h-446zM104 0v1203l265 264h177v-1467h-442z" />
    <glyph glyph-name="agrave" unicode="&#xe0;" horiz-adv-x="1331" 
d="M804 0v797h-629v132l133 133h663l265 -265v-797h-432zM264 0l-178 175v266l178 177h470v-184h-228v-186h228v-117l-132 -131h-338zM898 1144l-555 167l-54 211l184 85l486 -316z" />
    <glyph glyph-name="aacute" unicode="&#xe1;" horiz-adv-x="1331" 
d="M804 0v797h-629v132l133 133h663l265 -265v-797h-432zM264 0l-178 175v266l178 177h470v-184h-228v-186h228v-117l-132 -131h-338zM479 1123l-98 138l486 316l184 -85l-54 -211z" />
    <glyph glyph-name="acircumflex" unicode="&#xe2;" horiz-adv-x="1331" 
d="M804 0v797h-629v132l133 133h663l265 -265v-797h-432zM264 0l-178 175v266l178 177h470v-184h-228v-186h228v-117l-132 -131h-338zM313 1112l-94 97l295 335h304l295 -335l-93 -97l-354 210z" />
    <glyph glyph-name="atilde" unicode="&#xe3;" horiz-adv-x="1331" 
d="M804 0v797h-629v132l133 133h663l265 -265v-797h-432zM264 0l-178 175v266l178 177h470v-184h-228v-186h228v-117l-132 -131h-338zM667 1181l-108 150h-67l-138 -114l-87 87l195 214h283l108 -151h67l138 115l87 -87l-195 -214h-283z" />
    <glyph glyph-name="adieresis" unicode="&#xe4;" horiz-adv-x="1331" 
d="M804 0v797h-629v132l133 133h663l265 -265v-797h-432zM264 0l-178 175v266l178 177h470v-184h-228v-186h228v-117l-132 -131h-338zM761 1198v281h336v-281h-336zM231 1198v281h336v-281h-336z" />
    <glyph glyph-name="aring" unicode="&#xe5;" horiz-adv-x="1331" 
d="M804 0v797h-629v132l133 133h663l265 -265v-797h-432zM264 0l-178 175v266l178 177h470v-184h-228v-186h228v-117l-132 -131h-338zM699 1143v156h78v171h-78v155h117l139 -137v-208l-139 -137h-117zM511 1143l-137 137v208l137 137h119v-155h-77v-171h77v-156h-119z" />
    <glyph glyph-name="ae" unicode="&#xe6;" horiz-adv-x="2029" 
d="M696 0v265h98v532h-619v132l133 133h617l92 -89l87 89h232v-265h-100v-532h100v-265h-232l-89 88l-90 -88h-229zM1309 434v194h193v169h-96v265h273l266 -265v-363h-636zM264 0l-178 175v276l178 177h460v-194h-195v-169h97v-265h-362zM1406 0v265h494v-132l-132 -133
h-362z" />
    <glyph glyph-name="ccedilla" unicode="&#xe7;" horiz-adv-x="1323" 
d="M360 0l-265 265v532l265 265h177v-1062h-177zM803 638v159h-196v265h373l265 -265v-159h-442zM607 0v248h196v133h442v-116l-265 -265h-373zM362 -507v282h285v163h202v-245l-175 -200h-312z" />
    <glyph glyph-name="egrave" unicode="&#xe8;" horiz-adv-x="1331" 
d="M360 0l-265 265v532l265 265h177v-1062h-177zM607 426v185h233v186h-233v265h375l265 -265v-371h-640zM607 0v248h594v-115l-132 -133h-462zM900 1144l-555 167l-54 211l184 85l486 -316z" />
    <glyph glyph-name="eacute" unicode="&#xe9;" horiz-adv-x="1331" 
d="M360 0l-265 265v532l265 265h177v-1062h-177zM607 426v185h233v186h-233v265h375l265 -265v-371h-640zM607 0v248h594v-115l-132 -133h-462zM481 1123l-98 138l486 316l184 -85l-54 -211z" />
    <glyph glyph-name="ecircumflex" unicode="&#xea;" horiz-adv-x="1331" 
d="M360 0l-265 265v532l265 265h177v-1062h-177zM607 426v185h233v186h-233v265h375l265 -265v-371h-640zM607 0v248h594v-115l-132 -133h-462zM315 1112l-94 97l295 335h304l295 -335l-93 -97l-354 210z" />
    <glyph glyph-name="edieresis" unicode="&#xeb;" horiz-adv-x="1331" 
d="M360 0l-265 265v532l265 265h177v-1062h-177zM607 426v185h233v186h-233v265h375l265 -265v-371h-640zM607 0v248h594v-115l-132 -133h-462zM763 1198v281h336v-281h-336zM233 1198v281h336v-281h-336z" />
    <glyph glyph-name="igrave" unicode="&#xec;" horiz-adv-x="653" 
d="M105 0v1062h443v-1062h-443zM559 1144l-555 167l-54 211l184 85l486 -316z" />
    <glyph glyph-name="iacute" unicode="&#xed;" horiz-adv-x="653" 
d="M105 0v1062h443v-1062h-443zM140 1123l-98 138l486 316l184 -85l-54 -211z" />
    <glyph glyph-name="icircumflex" unicode="&#xee;" horiz-adv-x="653" 
d="M105 0v1062h443v-1062h-443zM-26 1112l-94 97l295 335h304l295 -335l-93 -97l-354 210z" />
    <glyph glyph-name="idieresis" unicode="&#xef;" horiz-adv-x="653" 
d="M105 0v1062h443v-1062h-443zM422 1198v281h336v-281h-336zM-108 1198v281h336v-281h-336z" />
    <glyph glyph-name="eth" unicode="&#xf0;" horiz-adv-x="1353" 
d="M805 0v962l-97 131l-166 -78l-96 163l162 81l-102 118l311 162l113 -117l180 97l88 -172l-147 -90l197 -291v-701l-266 -265h-177zM363 0l-266 265v437l266 239h372v-239h-196v-437h196v-265h-372z" />
    <glyph glyph-name="ntilde" unicode="&#xf1;" horiz-adv-x="1356" 
d="M812 0v797h-190v116l148 149h246l239 -239v-823h-443zM104 0v1062h446v-1062h-446zM679 1181l-108 150h-67l-138 -114l-87 87l195 214h283l108 -151h67l138 115l87 -87l-195 -214h-283z" />
    <glyph glyph-name="ograve" unicode="&#xf2;" horiz-adv-x="1383" 
d="M360 0l-265 265v532l265 265h297v-265h-115v-549h115v-248h-297zM727 0v248h110v549h-110v265h296l265 -265v-532l-265 -265h-296zM910 1144l-555 167l-54 211l184 85l486 -316z" />
    <glyph glyph-name="oacute" unicode="&#xf3;" horiz-adv-x="1383" 
d="M360 0l-265 265v532l265 265h297v-265h-115v-549h115v-248h-297zM727 0v248h110v549h-110v265h296l265 -265v-532l-265 -265h-296zM491 1123l-98 138l486 316l184 -85l-54 -211z" />
    <glyph glyph-name="ocircumflex" unicode="&#xf4;" horiz-adv-x="1383" 
d="M360 0l-265 265v532l265 265h297v-265h-115v-549h115v-248h-297zM727 0v248h110v549h-110v265h296l265 -265v-532l-265 -265h-296zM325 1112l-94 97l295 335h304l295 -335l-93 -97l-354 210z" />
    <glyph glyph-name="otilde" unicode="&#xf5;" horiz-adv-x="1383" 
d="M360 0l-265 265v532l265 265h297v-265h-115v-549h115v-248h-297zM727 0v248h110v549h-110v265h296l265 -265v-532l-265 -265h-296zM679 1181l-108 150h-67l-138 -114l-87 87l195 214h283l108 -151h67l138 115l87 -87l-195 -214h-283z" />
    <glyph glyph-name="odieresis" unicode="&#xf6;" horiz-adv-x="1383" 
d="M360 0l-265 265v532l265 265h297v-265h-115v-549h115v-248h-297zM727 0v248h110v549h-110v265h296l265 -265v-532l-265 -265h-296zM773 1198v281h336v-281h-336zM243 1198v281h336v-281h-336z" />
    <glyph glyph-name="divide" unicode="&#xf7;" horiz-adv-x="1439" 
d="M554 915v238h331v-238h-331zM186 501v239h1067v-239h-1067zM554 86v240h331v-240h-331z" />
    <glyph glyph-name="oslash" unicode="&#xf8;" horiz-adv-x="1357" 
d="M663 0l69 264l79 1v532h-96l126 479l323 -84l-62 -240l160 -155v-532l-274 -265h-325zM516 -221l-323 84l64 244l-162 158v532l274 265h329l-72 -265h-80v-532l99 -1z" />
    <glyph glyph-name="ugrave" unicode="&#xf9;" horiz-adv-x="1350" 
d="M361 0l-266 265v797h442v-797h197v-132l-128 -133h-245zM804 0v1062h442v-1062h-442zM902 1144l-555 167l-54 211l184 85l486 -316z" />
    <glyph glyph-name="uacute" unicode="&#xfa;" horiz-adv-x="1350" 
d="M361 0l-266 265v797h442v-797h197v-132l-128 -133h-245zM804 0v1062h442v-1062h-442zM483 1123l-98 138l486 316l184 -85l-54 -211z" />
    <glyph glyph-name="ucircumflex" unicode="&#xfb;" horiz-adv-x="1350" 
d="M361 0l-266 265v797h442v-797h197v-132l-128 -133h-245zM804 0v1062h442v-1062h-442zM317 1112l-94 97l295 335h304l295 -335l-93 -97l-354 210z" />
    <glyph glyph-name="udieresis" unicode="&#xfc;" horiz-adv-x="1350" 
d="M361 0l-266 265v797h442v-797h197v-132l-128 -133h-245zM804 0v1062h442v-1062h-442zM765 1198v281h336v-281h-336zM235 1198v281h336v-281h-336z" />
    <glyph glyph-name="yacute" unicode="&#xfd;" horiz-adv-x="1221" 
d="M272 -370l538 1432h425l-539 -1432h-424zM378 89l-392 973h441l149 -432zM397 1144l-62 147l486 316l184 -85l-54 -211z" />
    <glyph glyph-name="thorn" unicode="&#xfe;" horiz-adv-x="1349" 
d="M104 -354v1804h442v-1804h-442zM613 0v265h198v532h-198v134l131 131h244l266 -265v-532l-266 -265h-375z" />
    <glyph glyph-name="ydieresis" unicode="&#xff;" horiz-adv-x="1221" 
d="M272 -370l538 1432h425l-539 -1432h-424zM378 89l-392 973h441l149 -432zM715 1189v281h336v-281h-336zM185 1189v281h336v-281h-336z" />
    <glyph glyph-name="Amacron" unicode="&#x100;" horiz-adv-x="1500" 
d="M1044 0l-56 145h-434l92 263h240l-355 919h431l529 -1327h-447zM9 0l474 1267l196 -527l-243 -740h-427zM381 1454v170h729v-170h-729z" />
    <glyph glyph-name="amacron" unicode="&#x101;" horiz-adv-x="1331" 
d="M804 0v797h-629v132l133 133h663l265 -265v-797h-432zM264 0l-178 175v266l178 177h470v-184h-228v-186h228v-117l-132 -131h-338zM282 1203v197h769v-197h-769z" />
    <glyph glyph-name="Abreve" unicode="&#x102;" horiz-adv-x="1500" 
d="M1044 0l-56 145h-434l92 263h240l-355 919h431l529 -1327h-447zM9 0l474 1267l196 -527l-243 -740h-427zM564 1403l-146 144l-56 231l138 39l82 -182h325l82 182l138 -39l-56 -231l-146 -144h-361z" />
    <glyph glyph-name="abreve" unicode="&#x103;" horiz-adv-x="1331" 
d="M804 0v797h-629v132l133 133h663l265 -265v-797h-432zM264 0l-178 175v266l178 177h470v-184h-228v-186h228v-117l-132 -131h-338zM485 1155l-146 144l-56 231l138 39l82 -182h325l82 182l138 -39l-56 -231l-146 -144h-361z" />
    <glyph glyph-name="Aogonek" unicode="&#x104;" horiz-adv-x="1500" 
d="M1044 0l-56 145h-434l92 263h240l-355 919h431l529 -1327h-447zM9 0l474 1267l196 -527l-243 -740h-427zM1038 -497l-175 200v245h202v-163h285v-282h-312z" />
    <glyph glyph-name="aogonek" unicode="&#x105;" horiz-adv-x="1331" 
d="M804 0v797h-629v132l133 133h663l265 -265v-797h-432zM264 0l-178 175v266l178 177h470v-184h-228v-186h228v-117l-132 -131h-338zM886 -497l-175 200v245h202v-163h285v-282h-312z" />
    <glyph glyph-name="Cacute" unicode="&#x106;" horiz-adv-x="1440" 
d="M363 0l-266 265v797l266 265h176v-1327h-176zM903 795v267h-294v265h471l265 -265v-267h-442zM609 0v265h294v194h442v-194l-265 -265h-471zM608 1407l-51 122l446 240l155 -78l-47 -169z" />
    <glyph glyph-name="cacute" unicode="&#x107;" horiz-adv-x="1323" 
d="M360 0l-265 265v532l265 265h177v-1062h-177zM803 638v159h-196v265h373l265 -265v-159h-442zM607 0v248h196v133h442v-116l-265 -265h-373zM457 1144l-62 147l486 316l184 -85l-54 -211z" />
    <glyph glyph-name="Ccircumflex" unicode="&#x108;" horiz-adv-x="1440" 
d="M363 0l-266 265v797l266 265h176v-1327h-176zM903 795v267h-294v265h471l265 -265v-267h-442zM609 0v265h294v194h442v-194l-265 -265h-471zM417 1393l-77 80l256 259h252l254 -260l-76 -79l-303 159z" />
    <glyph glyph-name="ccircumflex" unicode="&#x109;" horiz-adv-x="1323" 
d="M360 0l-265 265v532l265 265h177v-1062h-177zM803 638v159h-196v265h373l265 -265v-159h-442zM607 0v248h196v133h442v-116l-265 -265h-373zM327 1153l-94 97l295 335h304l295 -335l-93 -97l-354 210z" />
    <glyph glyph-name="Cdotaccent" unicode="&#x10a;" horiz-adv-x="1440" 
d="M363 0l-266 265v797l266 265h176v-1327h-176zM903 795v267h-294v265h471l265 -265v-267h-442zM609 0v265h294v194h442v-194l-265 -265h-471zM494 1421v282h443v-282h-443z" />
    <glyph glyph-name="cdotaccent" unicode="&#x10b;" horiz-adv-x="1323" 
d="M360 0l-265 265v532l265 265h177v-1062h-177zM803 638v159h-196v265h373l265 -265v-159h-442zM607 0v248h196v133h442v-116l-265 -265h-373zM454 1194v282h443v-282h-443z" />
    <glyph glyph-name="Ccaron" unicode="&#x10c;" horiz-adv-x="1440" 
d="M363 0l-266 265v797l266 265h176v-1327h-176zM903 795v267h-294v265h471l265 -265v-267h-442zM609 0v265h294v194h442v-194l-265 -265h-471zM592 1423l-254 261l77 78l302 -158l306 158l78 -79l-257 -260h-252z" />
    <glyph glyph-name="ccaron" unicode="&#x10d;" horiz-adv-x="1323" 
d="M360 0l-265 265v532l265 265h177v-1062h-177zM803 638v159h-196v265h373l265 -265v-159h-442zM607 0v248h196v133h442v-116l-265 -265h-373zM536 1153l-295 334l93 97l353 -210l354 210l94 -97l-295 -334h-304z" />
    <glyph glyph-name="Dcaron" unicode="&#x10e;" horiz-adv-x="1486" 
d="M629 0v265h328v797h-328v265h505l266 -265v-797l-266 -265h-505zM117 0v1327h442v-1327h-442zM602 1423l-254 261l77 78l302 -158l306 158l78 -79l-257 -260h-252z" />
    <glyph glyph-name="dcaron" unicode="&#x10f;" horiz-adv-x="1823" 
d="M820 0v1467h442v-1467h-442zM334 0l-239 239v584l239 239h416v-265h-213v-549h213v-143l-105 -105h-311zM1332 1102l24 365h309l-47 -365h-286z" />
    <glyph glyph-name="Dcroat" unicode="&#x110;" horiz-adv-x="1496" 
d="M629 0v265h328v797h-328v265h505l266 -265v-797l-266 -265h-505zM117 0v570h-88v187h88v570h442v-570h215v-187h-215v-570h-442z" />
    <glyph glyph-name="dcroat" unicode="&#x111;" horiz-adv-x="1366" 
d="M820 0v1179h-189v179h189v109h442v-109h140v-179h-140v-1179h-442zM334 0l-239 239v584l239 239h416v-265h-213v-549h213v-143l-105 -105h-311z" />
    <glyph glyph-name="Emacron" unicode="&#x112;" horiz-adv-x="1415" 
d="M117 0v1327h442v-526h423v-256h-423v-545h-442zM904 943v127h-275v257h691v-384h-416zM629 0v265h249v133h442v-398h-691zM370 1454v170h729v-170h-729z" />
    <glyph glyph-name="emacron" unicode="&#x113;" horiz-adv-x="1331" 
d="M360 0l-265 265v532l265 265h177v-1062h-177zM607 426v185h233v186h-233v265h375l265 -265v-371h-640zM607 0v248h594v-115l-132 -133h-462zM284 1203v197h769v-197h-769z" />
    <glyph glyph-name="Ebreve" unicode="&#x114;" horiz-adv-x="1415" 
d="M117 0v1327h442v-526h423v-256h-423v-545h-442zM904 943v127h-275v257h691v-384h-416zM629 0v265h249v133h442v-398h-691zM553 1403l-146 144l-56 231l138 39l82 -182h325l82 182l138 -39l-56 -231l-146 -144h-361z" />
    <glyph glyph-name="ebreve" unicode="&#x115;" horiz-adv-x="1331" 
d="M360 0l-265 265v532l265 265h177v-1062h-177zM607 426v185h233v186h-233v265h375l265 -265v-371h-640zM607 0v248h594v-115l-132 -133h-462zM487 1155l-146 144l-56 231l138 39l82 -182h325l82 182l138 -39l-56 -231l-146 -144h-361z" />
    <glyph glyph-name="Edotaccent" unicode="&#x116;" horiz-adv-x="1415" 
d="M117 0v1327h442v-526h423v-256h-423v-545h-442zM904 943v127h-275v257h691v-384h-416zM629 0v265h249v133h442v-398h-691zM512 1421v282h443v-282h-443z" />
    <glyph glyph-name="edotaccent" unicode="&#x117;" horiz-adv-x="1331" 
d="M360 0l-265 265v532l265 265h177v-1062h-177zM607 426v185h233v186h-233v265h375l265 -265v-371h-640zM607 0v248h594v-115l-132 -133h-462zM435 1194v282h443v-282h-443z" />
    <glyph glyph-name="Eogonek" unicode="&#x118;" horiz-adv-x="1415" 
d="M117 0v1327h442v-526h423v-256h-423v-545h-442zM904 943v127h-275v257h691v-384h-416zM629 0v265h249v133h442v-398h-691zM962 -497l-175 200v245h202v-163h285v-282h-312z" />
    <glyph glyph-name="eogonek" unicode="&#x119;" horiz-adv-x="1331" 
d="M360 0l-265 265v532l265 265h177v-1062h-177zM607 426v185h233v186h-233v265h375l265 -265v-371h-640zM607 0v248h594v-115l-132 -133h-462zM886 -497l-175 200v245h202v-163h285v-282h-312z" />
    <glyph glyph-name="Ecaron" unicode="&#x11a;" horiz-adv-x="1415" 
d="M117 0v1327h442v-526h423v-256h-423v-545h-442zM904 943v127h-275v257h691v-384h-416zM629 0v265h249v133h442v-398h-691zM610 1423l-254 261l77 78l302 -158l306 158l78 -79l-257 -260h-252z" />
    <glyph glyph-name="ecaron" unicode="&#x11b;" horiz-adv-x="1331" 
d="M360 0l-265 265v532l265 265h177v-1062h-177zM607 426v185h233v186h-233v265h375l265 -265v-371h-640zM607 0v248h594v-115l-132 -133h-462zM517 1153l-295 334l93 97l353 -210l354 210l94 -97l-295 -334h-304z" />
    <glyph glyph-name="Gcircumflex" unicode="&#x11c;" horiz-adv-x="1495" 
d="M380 0l-265 265v797l265 265h177v-1062h379v-265h-556zM956 929v133h-329v265h539l232 -265v-133h-442zM1006 0v473h-215v263h607v-736h-392zM491 1393l-77 80l256 259h252l254 -260l-76 -79l-303 159z" />
    <glyph glyph-name="gcircumflex" unicode="&#x11d;" horiz-adv-x="1340" 
d="M397 -372l-133 134v98h539v937h-196v265h373l265 -265v-902l-265 -267h-583zM360 0l-265 265v532l265 265h177v-814h196v-117l-132 -131h-241zM346 1112l-94 97l295 335h304l295 -335l-93 -97l-354 210z" />
    <glyph glyph-name="Gbreve" unicode="&#x11e;" horiz-adv-x="1495" 
d="M380 0l-265 265v797l265 265h177v-1062h379v-265h-556zM956 929v133h-329v265h539l232 -265v-133h-442zM1006 0v473h-215v263h607v-736h-392zM609 1403l-146 144l-56 231l138 39l82 -182h325l82 182l138 -39l-56 -231l-146 -144h-361z" />
    <glyph glyph-name="gbreve" unicode="&#x11f;" horiz-adv-x="1340" 
d="M397 -372l-133 134v98h539v937h-196v265h373l265 -265v-902l-265 -267h-583zM360 0l-265 265v532l265 265h177v-814h196v-117l-132 -131h-241zM518 1155l-146 144l-56 231l138 39l82 -182h325l82 182l138 -39l-56 -231l-146 -144h-361z" />
    <glyph glyph-name="Gdotaccent" unicode="&#x120;" horiz-adv-x="1495" 
d="M380 0l-265 265v797l265 265h177v-1062h379v-265h-556zM956 929v133h-329v265h539l232 -265v-133h-442zM1006 0v473h-215v263h607v-736h-392zM568 1421v282h443v-282h-443z" />
    <glyph glyph-name="gdotaccent" unicode="&#x121;" horiz-adv-x="1340" 
d="M397 -372l-133 134v98h539v937h-196v265h373l265 -265v-902l-265 -267h-583zM360 0l-265 265v532l265 265h177v-814h196v-117l-132 -131h-241zM466 1194v282h443v-282h-443z" />
    <glyph glyph-name="uni0122" unicode="&#x122;" horiz-adv-x="1495" 
d="M380 0l-265 265v797l265 265h177v-1062h379v-265h-556zM956 929v133h-329v265h539l232 -265v-133h-442zM1006 0v473h-215v263h607v-736h-392zM664 -638l61 228h-158v292h442v-247l-167 -273h-178z" />
    <glyph glyph-name="uni0123" unicode="&#x123;" horiz-adv-x="1340" 
d="M397 -372l-133 134v98h539v937h-196v265h373l265 -265v-902l-265 -267h-583zM360 0l-265 265v532l265 265h177v-814h196v-117l-132 -131h-241zM477 1218v247l167 273h178l-61 -228h158v-292h-442z" />
    <glyph glyph-name="Hcircumflex" unicode="&#x124;" horiz-adv-x="1516" 
d="M957 0v539h-328v266h325v522h446v-1327h-443zM117 0v1327h442v-1327h-442zM459 1393l-77 80l256 259h252l254 -260l-76 -79l-303 159z" />
    <glyph glyph-name="hcircumflex" unicode="&#x125;" horiz-adv-x="1355" 
d="M104 0v1467h442v-1467h-442zM811 0v797h-195v134l130 131h242l266 -265v-797h-443zM15 1535l-77 80l256 259h252l254 -260l-76 -79l-303 159z" />
    <glyph glyph-name="Hbar" unicode="&#x126;" horiz-adv-x="1516" 
d="M957 0v539h-328v266h325v150h-325v189h325v183h446v-183h116v-189h-116v-955h-443zM117 0v955h-117v189h117v183h442v-1327h-442z" />
    <glyph glyph-name="hbar" unicode="&#x127;" horiz-adv-x="1349" 
d="M104 0v1150h-140v177h140v133h442v-133h303v-177h-303v-1150h-442zM811 0v797h-198v134l131 131h244l266 -265v-797h-443z" />
    <glyph glyph-name="Itilde" unicode="&#x128;" horiz-adv-x="902" 
d="M97 0v283h133v762h-133v282h708v-282h-133v-762h133v-283h-708zM469 1424l-160 116h-41l-181 -106l-64 78l207 214h205l160 -117h41l181 107l64 -78l-207 -214h-205z" />
    <glyph glyph-name="itilde" unicode="&#x129;" horiz-adv-x="653" 
d="M105 0v1062h443v-1062h-443zM328 1181l-108 150h-67l-138 -114l-87 87l195 214h283l108 -151h67l138 115l87 -87l-195 -214h-283z" />
    <glyph glyph-name="Imacron" unicode="&#x12a;" horiz-adv-x="902" 
d="M97 0v283h133v762h-133v282h708v-282h-133v-762h133v-283h-708zM86 1453v170h729v-170h-729z" />
    <glyph glyph-name="imacron" unicode="&#x12b;" horiz-adv-x="653" 
d="M105 0v1062h443v-1062h-443zM-57 1203v197h769v-197h-769z" />
    <glyph glyph-name="Ibreve" unicode="&#x12c;" horiz-adv-x="902" 
d="M97 0v283h133v762h-133v282h708v-282h-133v-762h133v-283h-708zM269 1402l-146 144l-56 231l138 39l82 -182h325l82 182l138 -39l-56 -231l-146 -144h-361z" />
    <glyph glyph-name="ibreve" unicode="&#x12d;" horiz-adv-x="653" 
d="M105 0v1062h443v-1062h-443zM146 1155l-146 144l-56 231l138 39l82 -182h325l82 182l138 -39l-56 -231l-146 -144h-361z" />
    <glyph glyph-name="Iogonek" unicode="&#x12e;" horiz-adv-x="902" 
d="M97 0v283h133v762h-133v282h708v-282h-133v-762h133v-283h-708zM500 -497l-175 200v245h202v-163h285v-282h-312z" />
    <glyph glyph-name="iogonek" unicode="&#x12f;" horiz-adv-x="653" 
d="M105 0v1062h443v-1062h-443zM94 1194v282h443v-282h-443zM276 -497l-175 200v245h202v-163h285v-282h-312z" />
    <glyph glyph-name="Idotaccent" unicode="&#x130;" horiz-adv-x="902" 
d="M97 0v283h133v762h-133v282h708v-282h-133v-762h133v-283h-708zM228 1420v282h443v-282h-443z" />
    <glyph glyph-name="dotlessi" unicode="&#x131;" horiz-adv-x="653" 
d="M105 0v1062h443v-1062h-443z" />
    <glyph glyph-name="IJ" unicode="&#x132;" horiz-adv-x="1468" 
d="M117 0v265h805v1062h442v-1062l-265 -265h-982zM117 432v895h459v-895h-459z" />
    <glyph glyph-name="ij" unicode="&#x133;" horiz-adv-x="1336" 
d="M105 1194v282h443v-282h-443zM786 1194v282h443v-282h-443zM107 -389v266h681v1185h442v-1185l-266 -266h-857zM345 0l-240 239v823h443v-1062h-203z" />
    <glyph glyph-name="Jcircumflex" unicode="&#x134;" horiz-adv-x="1369" 
d="M823 0v1038h-610v289h1052v-1062l-265 -265h-177zM318 0l-266 265v291h459v-291h242v-265h-435zM465 1392l-77 80l256 259h252l254 -260l-76 -79l-303 159z" />
    <glyph glyph-name="jcircumflex" unicode="&#x135;" horiz-adv-x="653" 
d="M-100 -354v266h205v1150h443v-1150l-266 -266h-382zM-26 1112l-94 97l295 335h304l295 -335l-93 -97l-354 210z" />
    <glyph glyph-name="uni0136" unicode="&#x136;" horiz-adv-x="1370" 
d="M627 188v645l310 494h460zM117 0v1327h442v-1327h-442zM940 0l-150 309l262 393l366 -702h-478zM561 -638l61 228h-158v292h442v-247l-167 -273h-178z" />
    <glyph glyph-name="uni0137" unicode="&#x137;" horiz-adv-x="1312" 
d="M104 0v1467h442v-1467h-442zM615 150v606l204 306h457zM819 0l-73 214l261 352l292 -566h-480zM537 -637l61 228h-158v292h442v-247l-167 -273h-178z" />
    <glyph glyph-name="kgreenlandic" unicode="&#x138;" horiz-adv-x="1307" 
d="M613 150v606l206 306h457zM104 0v1062h442v-1062h-442zM819 0l-74 214l257 352l297 -566h-480z" />
    <glyph glyph-name="Lacute" unicode="&#x139;" horiz-adv-x="1273" 
d="M117 0v1327h442v-1327h-442zM629 0v265h219v168h401v-433h-620zM229 1407l-51 122l446 240l155 -78l-47 -169z" />
    <glyph glyph-name="lacute" unicode="&#x13a;" horiz-adv-x="753" 
d="M352 0l-248 248v1219h442v-1202h198v-265h-392zM206 1549l-51 122l446 240l155 -78l-47 -169z" />
    <glyph glyph-name="uni013B" unicode="&#x13b;" horiz-adv-x="1273" 
d="M117 0v1327h442v-1327h-442zM629 0v265h219v168h401v-433h-620zM510 -638l61 228h-158v292h442v-247l-167 -273h-178z" />
    <glyph glyph-name="uni013C" unicode="&#x13c;" horiz-adv-x="753" 
d="M352 0l-248 248v1219h442v-1202h198v-265h-392zM253 -638l61 228h-158v292h442v-247l-167 -273h-178z" />
    <glyph glyph-name="Lcaron" unicode="&#x13d;" horiz-adv-x="1273" 
d="M117 0v1327h442v-1327h-442zM629 0v265h219v168h401v-433h-620zM767 964l24 365h309l-47 -365h-286z" />
    <glyph glyph-name="lcaron" unicode="&#x13e;" horiz-adv-x="1138" 
d="M352 0l-248 248v1219h442v-1202h198v-265h-392zM663 1102l24 365h309l-47 -365h-286z" />
    <glyph glyph-name="Ldot" unicode="&#x13f;" horiz-adv-x="1273" 
d="M117 0v1327h442v-1327h-442zM629 0v265h219v168h401v-433h-620zM798 557l-132 132v177l132 133h177l133 -133v-177l-133 -132h-177z" />
    <glyph glyph-name="ldot" unicode="&#x140;" horiz-adv-x="1096" 
d="M352 0l-248 248v1219h442v-1202h198v-265h-392zM778 464l-133 132v177l133 133h176l133 -133v-177l-133 -132h-176z" />
    <glyph glyph-name="Lslash" unicode="&#x141;" horiz-adv-x="1327" 
d="M177 0v444l-116 -48l-90 198l206 85v648h442v-464l356 148l90 -198l-446 -186v-627h-442zM689 0v265h219v168h401v-433h-620z" />
    <glyph glyph-name="lslash" unicode="&#x142;" horiz-adv-x="753" 
d="M352 0l-248 248v398l-117 -40v177l117 40v644h442v-492l181 62v-177l-181 -62v-533h198v-265h-392z" />
    <glyph glyph-name="Nacute" unicode="&#x143;" horiz-adv-x="1508" 
d="M921 0l-804 1327h467l807 -1327h-470zM1391 126l-385 634v567h385v-1201zM117 0v1201l385 -631v-570h-385zM635 1406l-51 122l446 240l155 -78l-47 -169z" />
    <glyph glyph-name="nacute" unicode="&#x144;" horiz-adv-x="1356" 
d="M812 0v797h-190v116l148 149h246l239 -239v-823h-443zM104 0v1062h446v-1062h-446zM491 1123l-98 138l486 316l184 -85l-54 -211z" />
    <glyph glyph-name="uni0145" unicode="&#x145;" horiz-adv-x="1508" 
d="M921 0l-804 1327h467l807 -1327h-470zM1391 126l-385 634v567h385v-1201zM117 0v1201l385 -631v-570h-385zM630 -638l61 228h-158v292h442v-247l-167 -273h-178z" />
    <glyph glyph-name="uni0146" unicode="&#x146;" horiz-adv-x="1356" 
d="M812 0v797h-190v116l148 149h246l239 -239v-823h-443zM104 0v1062h446v-1062h-446zM554 -638l61 228h-158v292h442v-247l-167 -273h-178z" />
    <glyph glyph-name="Ncaron" unicode="&#x147;" horiz-adv-x="1508" 
d="M921 0l-804 1327h467l807 -1327h-470zM1391 126l-385 634v567h385v-1201zM117 0v1201l385 -631v-570h-385zM619 1422l-254 261l77 78l302 -158l306 158l78 -79l-257 -260h-252z" />
    <glyph glyph-name="ncaron" unicode="&#x148;" horiz-adv-x="1356" 
d="M812 0v797h-190v116l148 149h246l239 -239v-823h-443zM104 0v1062h446v-1062h-446zM527 1153l-295 334l93 97l353 -210l354 210l94 -97l-295 -334h-304z" />
    <glyph glyph-name="Eng" unicode="&#x14a;" horiz-adv-x="1508" 
d="M680 -444v265h326v1506h385v-1436l-265 -335h-446zM939 0l-822 1327h467l355 -585v-742zM117 0v1201l385 -623v-578h-385z" />
    <glyph glyph-name="eng" unicode="&#x14b;" horiz-adv-x="1356" 
d="M607 -446v266h205v977h-190v116l148 149h246l239 -239v-1003l-266 -266h-382zM104 0v1062h446v-1062h-446z" />
    <glyph glyph-name="Omacron" unicode="&#x14c;" horiz-adv-x="1463" 
d="M765 0v270h169v788h-169v269h343l268 -265v-797l-268 -265h-343zM355 0l-269 265v797l269 265h340v-269h-166v-788h166v-270h-340zM366 1454v170h729v-170h-729z" />
    <glyph glyph-name="omacron" unicode="&#x14d;" horiz-adv-x="1383" 
d="M360 0l-265 265v532l265 265h297v-265h-115v-549h115v-248h-297zM727 0v248h110v549h-110v265h296l265 -265v-532l-265 -265h-296zM294 1203v197h769v-197h-769z" />
    <glyph glyph-name="Obreve" unicode="&#x14e;" horiz-adv-x="1463" 
d="M765 0v270h169v788h-169v269h343l268 -265v-797l-268 -265h-343zM355 0l-269 265v797l269 265h340v-269h-166v-788h166v-270h-340zM549 1403l-146 144l-56 231l138 39l82 -182h325l82 182l138 -39l-56 -231l-146 -144h-361z" />
    <glyph glyph-name="obreve" unicode="&#x14f;" horiz-adv-x="1383" 
d="M360 0l-265 265v532l265 265h297v-265h-115v-549h115v-248h-297zM727 0v248h110v549h-110v265h296l265 -265v-532l-265 -265h-296zM497 1155l-146 144l-56 231l138 39l82 -182h325l82 182l138 -39l-56 -231l-146 -144h-361z" />
    <glyph glyph-name="Ohungarumlaut" unicode="&#x150;" horiz-adv-x="1463" 
d="M765 0v270h169v788h-169v269h343l268 -265v-797l-268 -265h-343zM355 0l-269 265v797l269 265h340v-269h-166v-788h166v-270h-340zM1031 1415l-89 112l283 240l148 -48l2 -139zM507 1415l-89 112l283 240l148 -48l2 -139z" />
    <glyph glyph-name="ohungarumlaut" unicode="&#x151;" horiz-adv-x="1383" 
d="M360 0l-265 265v532l265 265h297v-265h-115v-549h115v-248h-297zM727 0v248h110v549h-110v265h296l265 -265v-532l-265 -265h-296zM973 1144l-102 127l338 336l184 -55l-14 -181zM425 1144l-102 127l338 336l184 -55l-14 -181z" />
    <glyph glyph-name="OE" unicode="&#x152;" horiz-adv-x="2261" 
d="M761 0v265h166v797h-166v265h294l92 -88l87 88h135v-542h443v-232h-443v-553h-135l-89 88l-90 -88h-294zM353 0l-267 265v797l267 265h341v-265h-165v-797h165v-265h-341zM1724 929v133h-287v265h729v-398h-442zM1437 0v265h287v133h442v-398h-729z" />
    <glyph glyph-name="oe" unicode="&#x153;" horiz-adv-x="2042" 
d="M704 0v265h99v532h-99v265h230l92 -89l87 89h231v-265h-99v-532h99v-265h-231l-89 88l-90 -88h-230zM360 0l-265 265v532l265 265h274v-265h-97v-532h97v-265h-274zM1315 434v194h196v169h-97v265h273l267 -265v-363h-639zM1414 0v265h495v-132l-133 -133h-362z" />
    <glyph glyph-name="Racute" unicode="&#x154;" horiz-adv-x="1486" 
d="M629 398v257h332v407h-332v265h505l266 -265v-398l-206 -206l251 -458h-472l-188 398h-156zM117 0v1327h442v-1327h-442zM671 1406l-51 122l446 240l155 -78l-47 -169z" />
    <glyph glyph-name="racute" unicode="&#x155;" horiz-adv-x="1260" 
d="M104 0v1062h442v-1062h-442zM805 539v258h-188v116l148 149h268l215 -248v-275h-443zM466 1123l-98 138l486 316l184 -85l-54 -211z" />
    <glyph glyph-name="uni0156" unicode="&#x156;" horiz-adv-x="1486" 
d="M629 398v257h332v407h-332v265h505l266 -265v-398l-206 -206l251 -458h-472l-188 398h-156zM117 0v1327h442v-1327h-442zM619 -638l61 228h-158v292h442v-247l-167 -273h-178z" />
    <glyph glyph-name="uni0157" unicode="&#x157;" horiz-adv-x="1260" 
d="M104 0v1062h442v-1062h-442zM805 539v258h-188v116l148 149h268l215 -248v-275h-443zM201 -638l61 228h-158v292h442v-247l-167 -273h-178z" />
    <glyph glyph-name="Rcaron" unicode="&#x158;" horiz-adv-x="1486" 
d="M629 398v257h332v407h-332v265h505l266 -265v-398l-206 -206l251 -458h-472l-188 398h-156zM117 0v1327h442v-1327h-442zM655 1422l-254 261l77 78l302 -158l306 158l78 -79l-257 -260h-252z" />
    <glyph glyph-name="rcaron" unicode="&#x159;" horiz-adv-x="1260" 
d="M104 0v1062h442v-1062h-442zM805 539v258h-188v116l148 149h268l215 -248v-275h-443zM502 1153l-295 334l93 97l353 -210l354 210l94 -97l-295 -334h-304z" />
    <glyph glyph-name="Sacute" unicode="&#x15a;" horiz-adv-x="1477" 
d="M937 0v497h-574l-266 266v299l266 265h150v-471h610l257 -266v-325l-265 -265h-178zM937 955v133h-354v239h531l230 -231v-141h-407zM320 0l-223 265v133h442v-158h328v-240h-547zM658 1413l-51 122l446 240l155 -78l-47 -169z" />
    <glyph glyph-name="sacute" unicode="&#x15b;" horiz-adv-x="1315" 
d="M804 0v401h-478l-230 221v202l239 238h177v-375h504l230 -232v-207l-247 -248h-195zM804 784v83h-222v195h470l158 -158v-120h-406zM279 0l-184 219v85h443v-109h196v-195h-455zM493 1123l-98 138l486 316l184 -85l-54 -211z" />
    <glyph glyph-name="Scircumflex" unicode="&#x15c;" horiz-adv-x="1477" 
d="M937 0v497h-574l-266 266v299l266 265h150v-471h610l257 -266v-325l-265 -265h-178zM937 955v133h-354v239h531l230 -231v-141h-407zM320 0l-223 265v133h442v-158h328v-240h-547zM467 1399l-77 80l256 259h252l254 -260l-76 -79l-303 159z" />
    <glyph glyph-name="scircumflex" unicode="&#x15d;" horiz-adv-x="1315" 
d="M804 0v401h-478l-230 221v202l239 238h177v-375h504l230 -232v-207l-247 -248h-195zM804 784v83h-222v195h470l158 -158v-120h-406zM279 0l-184 219v85h443v-109h196v-195h-455zM327 1112l-94 97l295 335h304l295 -335l-93 -97l-354 210z" />
    <glyph glyph-name="Scedilla" unicode="&#x15e;" horiz-adv-x="1477" 
d="M937 0v497h-574l-266 266v299l266 265h150v-471h610l257 -266v-325l-265 -265h-178zM937 955v133h-354v239h531l230 -231v-141h-407zM320 0l-223 265v133h442v-158h328v-240h-547zM456 -507v282h285v163h202v-245l-175 -200h-312z" />
    <glyph glyph-name="scedilla" unicode="&#x15f;" horiz-adv-x="1315" 
d="M804 0v401h-478l-230 221v202l239 238h177v-375h504l230 -232v-207l-247 -248h-195zM804 784v83h-222v195h470l158 -158v-120h-406zM279 0l-184 219v85h443v-109h196v-195h-455zM368 -507v282h285v163h202v-245l-175 -200h-312z" />
    <glyph glyph-name="Scaron" unicode="&#x160;" horiz-adv-x="1477" 
d="M937 0v497h-574l-266 266v299l266 265h150v-471h610l257 -266v-325l-265 -265h-178zM937 955v133h-354v239h531l230 -231v-141h-407zM320 0l-223 265v133h442v-158h328v-240h-547zM642 1429l-254 261l77 78l302 -158l306 158l78 -79l-257 -260h-252z" />
    <glyph glyph-name="scaron" unicode="&#x161;" horiz-adv-x="1315" 
d="M804 0v401h-478l-230 221v202l239 238h177v-375h504l230 -232v-207l-247 -248h-195zM804 784v83h-222v195h470l158 -158v-120h-406zM279 0l-184 219v85h443v-109h196v-195h-455zM529 1153l-295 334l93 97l353 -210l354 210l94 -97l-295 -334h-304z" />
    <glyph glyph-name="uni0162" unicode="&#x162;" horiz-adv-x="1256" 
d="M52 1038v289h1152v-289h-1152zM398 0v969h460v-969h-460zM384 -507v282h285v163h202v-245l-175 -200h-312z" />
    <glyph glyph-name="uni0163" unicode="&#x163;" horiz-adv-x="931" 
d="M392 0l-266 265v532h-88v265h88v115l442 150v-1062h292v-265h-468zM638 797v265h238v-265h-238zM224 -507v282h285v163h202v-245l-175 -200h-312z" />
    <glyph glyph-name="Tcaron" unicode="&#x164;" horiz-adv-x="1256" 
d="M52 1038v289h1152v-289h-1152zM398 0v969h460v-969h-460zM499 1422l-254 261l77 78l302 -158l306 158l78 -79l-257 -260h-252z" />
    <glyph glyph-name="tcaron" unicode="&#x165;" horiz-adv-x="931" 
d="M392 0l-266 265v532h-88v265h88v115l442 150v-1062h292v-265h-468zM638 797v265h238v-265h-238zM746 1102l24 365h309l-47 -365h-286z" />
    <glyph glyph-name="Tbar" unicode="&#x166;" horiz-adv-x="1256" 
d="M52 1038v289h1152v-289h-1152zM398 0v486h-217v189h217v294h460v-294h210v-189h-210v-486h-460z" />
    <glyph glyph-name="tbar" unicode="&#x167;" horiz-adv-x="915" 
d="M382 0l-266 265v181h-89v189h89v162h-88v265h88v115l442 150v-692h138v-189h-138v-181h292v-265h-468zM628 797v265h238v-265h-238z" />
    <glyph glyph-name="Utilde" unicode="&#x168;" horiz-adv-x="1494" 
d="M782 0v265h164v1062h442v-1062l-265 -265h-341zM372 0l-266 265v1062h443v-1062h163v-265h-340zM765 1424l-160 116h-41l-181 -106l-64 78l207 214h205l160 -117h41l181 107l64 -78l-207 -214h-205z" />
    <glyph glyph-name="utilde" unicode="&#x169;" horiz-adv-x="1350" 
d="M361 0l-266 265v797h442v-797h197v-132l-128 -133h-245zM804 0v1062h442v-1062h-442zM671 1181l-108 150h-67l-138 -114l-87 87l195 214h283l108 -151h67l138 115l87 -87l-195 -214h-283z" />
    <glyph glyph-name="Umacron" unicode="&#x16a;" horiz-adv-x="1494" 
d="M782 0v265h164v1062h442v-1062l-265 -265h-341zM372 0l-266 265v1062h443v-1062h163v-265h-340zM382 1453v170h729v-170h-729z" />
    <glyph glyph-name="umacron" unicode="&#x16b;" horiz-adv-x="1350" 
d="M361 0l-266 265v797h442v-797h197v-132l-128 -133h-245zM804 0v1062h442v-1062h-442zM286 1203v197h769v-197h-769z" />
    <glyph glyph-name="Ubreve" unicode="&#x16c;" horiz-adv-x="1494" 
d="M782 0v265h164v1062h442v-1062l-265 -265h-341zM372 0l-266 265v1062h443v-1062h163v-265h-340zM565 1402l-146 144l-56 231l138 39l82 -182h325l82 182l138 -39l-56 -231l-146 -144h-361z" />
    <glyph glyph-name="ubreve" unicode="&#x16d;" horiz-adv-x="1350" 
d="M361 0l-266 265v797h442v-797h197v-132l-128 -133h-245zM804 0v1062h442v-1062h-442zM489 1155l-146 144l-56 231l138 39l82 -182h325l82 182l138 -39l-56 -231l-146 -144h-361z" />
    <glyph glyph-name="Uring" unicode="&#x16e;" horiz-adv-x="1494" 
d="M782 0v265h164v1062h442v-1062l-265 -265h-341zM372 0l-266 265v1062h443v-1062h163v-265h-340zM780 1363v156h78v171h-78v155h117l139 -137v-208l-139 -137h-117zM592 1363l-137 137v208l137 137h119v-155h-77v-171h77v-156h-119z" />
    <glyph glyph-name="uring" unicode="&#x16f;" horiz-adv-x="1350" 
d="M361 0l-266 265v797h442v-797h197v-132l-128 -133h-245zM804 0v1062h442v-1062h-442zM703 1200v156h78v171h-78v155h97l139 -137v-208l-139 -137h-97zM535 1200l-137 137v208l137 137h99v-155h-77v-171h77v-156h-99z" />
    <glyph glyph-name="Uhungarumlaut" unicode="&#x170;" horiz-adv-x="1494" 
d="M782 0v265h164v1062h442v-1062l-265 -265h-341zM372 0l-266 265v1062h443v-1062h163v-265h-340zM1047 1414l-89 112l283 240l148 -48l2 -139zM523 1414l-89 112l283 240l148 -48l2 -139z" />
    <glyph glyph-name="uhungarumlaut" unicode="&#x171;" horiz-adv-x="1350" 
d="M361 0l-266 265v797h442v-797h197v-132l-128 -133h-245zM804 0v1062h442v-1062h-442zM965 1144l-102 127l338 336l184 -55l-14 -181zM417 1144l-102 127l338 336l184 -55l-14 -181z" />
    <glyph glyph-name="Uogonek" unicode="&#x172;" horiz-adv-x="1494" 
d="M782 0v265h164v1062h442v-1062l-265 -265h-341zM372 0l-266 265v1062h443v-1062h163v-265h-340zM1034 -497l-175 200v245h202v-163h285v-282h-312z" />
    <glyph glyph-name="uogonek" unicode="&#x173;" horiz-adv-x="1350" 
d="M361 0l-266 265v797h442v-797h197v-132l-128 -133h-245zM804 0v1062h442v-1062h-442zM964 -445l-175 200v183h202v-113h255v-270h-282z" />
    <glyph glyph-name="Wcircumflex" unicode="&#x174;" horiz-adv-x="1928" 
d="M371 0l-397 1327h440l195 -729l133 557l173 -630l-143 -525h-401zM1125 0l-364 1327h446l340 -1327h-422zM1594 69l-180 707l137 551h403zM709 1393l-77 80l256 259h252l254 -260l-76 -79l-303 159z" />
    <glyph glyph-name="wcircumflex" unicode="&#x175;" horiz-adv-x="1846" 
d="M367 0l-381 1062h422l173 -553l123 383l159 -489l-126 -403h-370zM1068 0l-358 1062h417l342 -1062h-401zM1513 66l-186 572l119 424h414zM568 1112l-94 97l295 335h304l295 -335l-93 -97l-354 210z" />
    <glyph glyph-name="Ycircumflex" unicode="&#x176;" horiz-adv-x="1297" 
d="M424 0v422l-450 905h434l459 -936v-391h-443zM895 484l-215 436l218 407h425zM348 1392l-77 80l256 259h252l254 -260l-76 -79l-303 159z" />
    <glyph glyph-name="ycircumflex" unicode="&#x177;" horiz-adv-x="1221" 
d="M272 -370l538 1432h425l-539 -1432h-424zM378 89l-392 973h441l149 -432zM267 1153l-94 97l295 335h304l295 -335l-93 -97l-354 210z" />
    <glyph glyph-name="Ydieresis" unicode="&#x178;" horiz-adv-x="1297" 
d="M424 0v422l-450 905h434l459 -936v-391h-443zM895 484l-215 436l218 407h425zM745 1430v221h336v-221h-336zM215 1430v221h336v-221h-336z" />
    <glyph glyph-name="Zacute" unicode="&#x179;" horiz-adv-x="1271" 
d="M52 0v248l867 1079h300v-257l-876 -1070h-291zM79 1037v290h753l-251 -290h-502zM432 0l252 291h517v-291h-769zM539 1407l-51 122l446 240l155 -78l-47 -169z" />
    <glyph glyph-name="zacute" unicode="&#x17a;" horiz-adv-x="1171" 
d="M90 0v257l690 805h305v-265l-699 -797h-296zM100 797v265h597l-229 -265h-368zM468 0l235 265h383v-265h-618zM406 1144l-62 147l486 316l184 -85l-54 -211z" />
    <glyph glyph-name="Zdotaccent" unicode="&#x17b;" horiz-adv-x="1271" 
d="M52 0v248l867 1079h300v-257l-876 -1070h-291zM79 1037v290h753l-251 -290h-502zM432 0l252 291h517v-291h-769zM425 1421v282h443v-282h-443z" />
    <glyph glyph-name="zdotaccent" unicode="&#x17c;" horiz-adv-x="1171" 
d="M90 0v257l690 805h305v-265l-699 -797h-296zM100 797v265h597l-229 -265h-368zM468 0l235 265h383v-265h-618zM403 1194v282h443v-282h-443z" />
    <glyph glyph-name="Zcaron" unicode="&#x17d;" horiz-adv-x="1271" 
d="M52 0v248l867 1079h300v-257l-876 -1070h-291zM79 1037v290h753l-251 -290h-502zM432 0l252 291h517v-291h-769zM523 1423l-254 261l77 78l302 -158l306 158l78 -79l-257 -260h-252z" />
    <glyph glyph-name="zcaron" unicode="&#x17e;" horiz-adv-x="1171" 
d="M90 0v257l690 805h305v-265l-699 -797h-296zM100 797v265h597l-229 -265h-368zM468 0l235 265h383v-265h-618zM485 1153l-295 334l93 97l353 -210l354 210l94 -97l-295 -334h-304z" />
    <glyph glyph-name="uni0186" unicode="&#x186;" horiz-adv-x="1440" 
d="M901 0v1327h176l266 -265v-797l-266 -265h-176zM95 868v194l265 265h471v-265h-294v-194h-442zM360 0l-265 265v267h442v-267h294v-265h-471z" />
    <glyph glyph-name="uni0189" unicode="&#x189;" horiz-adv-x="1496" 
d="M629 0v265h328v797h-328v265h505l266 -265v-797l-266 -265h-505zM117 0v570h-88v187h88v570h442v-570h215v-187h-215v-570h-442z" />
    <glyph glyph-name="uni0189" unicode="&#x256;" horiz-adv-x="1496" 
d="M629 0v265h328v797h-328v265h505l266 -265v-797l-266 -265h-505zM117 0v570h-88v187h88v570h442v-570h215v-187h-215v-570h-442z" />
    <glyph glyph-name="uni018E" unicode="&#x18e;" horiz-adv-x="1415" 
d="M856 0v545h-423v256h423v526h442v-1327h-442zM95 943v384h691v-257h-275v-127h-416zM95 0v398h442v-133h249v-265h-691z" />
    <glyph glyph-name="uni018F" unicode="&#x18f;" horiz-adv-x="1495" 
d="M938 0v1062h-379v265h556l265 -265v-797l-265 -265h-177zM97 591v471l208 265h184v-473h378v-263h-770zM329 0l-232 265v133h442v-133h329v-265h-539z" />
    <glyph glyph-name="uni0190" unicode="&#x190;" horiz-adv-x="1495" 
d="M370 0l-266 264v269l157 135l-157 133v261l266 265h177v-536h308v-231h-308v-560h-177zM945 851v194h-328v282h505l265 -265v-211h-442zM617 0v283h328v187h442v-205l-265 -265h-505z" />
    <glyph glyph-name="florin" unicode="&#x192;" horiz-adv-x="1194" 
d="M168 -340l127 918h-105l34 265h105l43 376l299 248h496l-34 -265h-320l-202 -1542h-443zM805 578l37 265h250l-34 -265h-253z" />
    <glyph glyph-name="uni0197" unicode="&#x197;" horiz-adv-x="902" 
d="M97 0v283h133v762h-133v282h708v-282h-133v-762h133v-283h-708zM86 581v170h729v-170h-729z" />
    <glyph glyph-name="Ohorn" unicode="&#x1a0;" horiz-adv-x="1463" 
d="M765 0v270h169v788h-169v269h455v285h282v-312l-195 -170l69 -68v-797l-268 -265h-343zM355 0l-269 265v797l269 265h340v-269h-166v-788h166v-270h-340z" />
    <glyph glyph-name="ohorn" unicode="&#x1a1;" horiz-adv-x="1383" 
d="M727 0v248h110v549h-110v265h607v285h282v-312l-200 -175h-191l63 -63v-532l-265 -265h-296zM360 0l-265 265v532l265 265h297v-265h-115v-549h115v-248h-297z" />
    <glyph glyph-name="Uhorn" unicode="&#x1af;" horiz-adv-x="1632" 
d="M793 0v265h164v1062h493v285h282v-312l-200 -175h-133v-860l-265 -265h-341zM383 0l-266 265v1062h443v-1062h163v-265h-340z" />
    <glyph glyph-name="uhorn" unicode="&#x1b0;" horiz-adv-x="1350" 
d="M804 0v1062h521v285h282v-312l-200 -175h-161v-860h-442zM361 0l-266 265v797h442v-797h197v-132l-128 -133h-245z" />
    <glyph glyph-name="uni01C4" unicode="&#x1c4;" horiz-adv-x="2761" 
d="M629 0v265h328v797h-328v265h505l266 -265v-797l-266 -265h-505zM117 0v1327h442v-1327h-442zM1542 0v248l867 1079h300v-257l-876 -1070h-291zM1569 1037v290h753l-251 -290h-502zM1922 0l252 291h517v-291h-769zM2013 1423l-254 261l77 78l302 -158l306 158l78 -79
l-257 -260h-252z" />
    <glyph glyph-name="uni01C5" unicode="&#x1c5;" horiz-adv-x="2654" 
d="M629 0v265h328v797h-328v265h505l266 -265v-797l-266 -265h-505zM117 0v1327h442v-1327h-442zM1573 0v257l690 805h305v-265l-699 -797h-296zM1583 797v265h597l-229 -265h-368zM1951 0l235 265h383v-265h-618zM1968 1153l-295 334l93 97l353 -210l354 210l94 -97
l-295 -334h-304z" />
    <glyph glyph-name="uni01C6" unicode="&#x1c6;" horiz-adv-x="2534" 
d="M820 0v1467h442v-1467h-442zM334 0l-239 239v584l239 239h416v-265h-213v-549h213v-143l-105 -105h-311zM1453 0v257l690 805h305v-265l-699 -797h-296zM1463 797v265h597l-229 -265h-368zM1831 0l235 265h383v-265h-618zM1848 1153l-295 334l93 97l353 -210l354 210
l94 -97l-295 -334h-304z" />
    <glyph glyph-name="uni01C7" unicode="&#x1c7;" horiz-adv-x="2699" 
d="M117 0v1327h442v-1327h-442zM629 0v265h219v168h401v-433h-620zM2153 0v1038h-610v289h1052v-1062l-265 -265h-177zM1648 0l-266 265v291h459v-291h242v-265h-435z" />
    <glyph glyph-name="uni01C8" unicode="&#x1c8;" horiz-adv-x="1969" 
d="M117 0v1327h442v-1327h-442zM629 0v265h219v168h401v-433h-620zM1421 1194v282h442v-282h-442zM1216 -354v266h205v1150h443v-1150l-266 -266h-382z" />
    <glyph glyph-name="uni01C9" unicode="&#x1c9;" horiz-adv-x="1420" 
d="M352 0l-248 248v1219h442v-1202h198v-265h-392zM872 1194v282h442v-282h-442zM667 -354v266h205v1150h443v-1150l-266 -266h-382z" />
    <glyph glyph-name="uni01CA" unicode="&#x1ca;" horiz-adv-x="2877" 
d="M921 0l-804 1327h467l807 -1327h-470zM1391 126l-385 634v567h385v-1201zM117 0v1201l385 -631v-570h-385zM2331 0v1038h-610v289h1052v-1062l-265 -265h-177zM1826 0l-266 265v291h459v-291h242v-265h-435z" />
    <glyph glyph-name="uni01CB" unicode="&#x1cb;" horiz-adv-x="2161" 
d="M921 0l-804 1327h467l807 -1327h-470zM1391 126l-385 634v567h385v-1201zM117 0v1201l385 -631v-570h-385zM1613 1194v282h442v-282h-442zM1408 -354v266h205v1150h443v-1150l-266 -266h-382z" />
    <glyph glyph-name="uni01CC" unicode="&#x1cc;" horiz-adv-x="2055" 
d="M812 0v797h-190v116l148 149h246l239 -239v-823h-443zM104 0v1062h446v-1062h-446zM1507 1194v282h442v-282h-442zM1302 -354v266h205v1150h443v-1150l-266 -266h-382z" />
    <glyph glyph-name="uni01CD" unicode="&#x1cd;" horiz-adv-x="1500" 
d="M1044 0l-56 145h-434l92 263h240l-355 919h431l529 -1327h-447zM9 0l474 1267l196 -527l-243 -740h-427zM621 1423l-254 261l77 78l302 -158l306 158l78 -79l-257 -260h-252z" />
    <glyph glyph-name="uni01CE" unicode="&#x1ce;" horiz-adv-x="1331" 
d="M804 0v797h-629v132l133 133h663l265 -265v-797h-432zM264 0l-178 175v266l178 177h470v-184h-228v-186h228v-117l-132 -131h-338zM515 1153l-295 334l93 97l353 -210l354 210l94 -97l-295 -334h-304z" />
    <glyph glyph-name="uni01CF" unicode="&#x1cf;" horiz-adv-x="902" 
d="M97 0v283h133v762h-133v282h708v-282h-133v-762h133v-283h-708zM326 1422l-254 261l77 78l302 -158l306 158l78 -79l-257 -260h-252z" />
    <glyph glyph-name="uni01D0" unicode="&#x1d0;" horiz-adv-x="653" 
d="M105 0v1062h443v-1062h-443zM176 1153l-295 334l93 97l353 -210l354 210l94 -97l-295 -334h-304z" />
    <glyph glyph-name="uni01D1" unicode="&#x1d1;" horiz-adv-x="1463" 
d="M765 0v270h169v788h-169v269h343l268 -265v-797l-268 -265h-343zM355 0l-269 265v797l269 265h340v-269h-166v-788h166v-270h-340zM606 1423l-254 261l77 78l302 -158l306 158l78 -79l-257 -260h-252z" />
    <glyph glyph-name="uni01D2" unicode="&#x1d2;" horiz-adv-x="1383" 
d="M360 0l-265 265v532l265 265h297v-265h-115v-549h115v-248h-297zM727 0v248h110v549h-110v265h296l265 -265v-532l-265 -265h-296zM527 1153l-295 334l93 97l353 -210l354 210l94 -97l-295 -334h-304z" />
    <glyph glyph-name="uni01DD" unicode="&#x1dd;" horiz-adv-x="1331" 
d="M794 0v1062h177l265 -265v-532l-265 -265h-177zM130 814v115l132 133h462v-248h-594zM349 0l-265 265v371h640v-185h-233v-186h233v-265h-375z" />
    <glyph glyph-name="uni01DE" unicode="&#x1de;" horiz-adv-x="1500" 
d="M1044 0l-56 145h-434l92 263h240l-355 919h431l529 -1327h-447zM9 0l474 1267l196 -527l-243 -740h-427zM843 1431v221h336v-221h-336zM313 1431v221h336v-221h-336zM381 1796v170h729v-170h-729z" />
    <glyph glyph-name="uni01DF" unicode="&#x1df;" horiz-adv-x="1331" 
d="M804 0v797h-629v132l133 133h663l265 -265v-797h-432zM264 0l-178 175v266l178 177h470v-184h-228v-186h228v-117l-132 -131h-338zM761 1198v281h336v-281h-336zM231 1198v281h336v-281h-336zM280 1556v197h769v-197h-769z" />
    <glyph glyph-name="Gcaron" unicode="&#x1e6;" horiz-adv-x="1495" 
d="M380 0l-265 265v797l265 265h177v-1062h379v-265h-556zM956 929v133h-329v265h539l232 -265v-133h-442zM1006 0v473h-215v263h607v-736h-392zM666 1423l-254 261l77 78l302 -158l306 158l78 -79l-257 -260h-252z" />
    <glyph glyph-name="gcaron" unicode="&#x1e7;" horiz-adv-x="1340" 
d="M397 -372l-133 134v98h539v937h-196v265h373l265 -265v-902l-265 -267h-583zM360 0l-265 265v532l265 265h177v-814h196v-117l-132 -131h-241zM548 1153l-295 334l93 97l353 -210l354 210l94 -97l-295 -334h-304z" />
    <glyph glyph-name="uni01EA" unicode="&#x1ea;" horiz-adv-x="1463" 
d="M765 0v270h169v788h-169v269h343l268 -265v-797l-268 -265h-343zM355 0l-269 265v797l269 265h340v-269h-166v-788h166v-270h-340zM1005 -497l-175 200v245h202v-163h285v-282h-312z" />
    <glyph glyph-name="uni01EB" unicode="&#x1eb;" horiz-adv-x="1383" 
d="M360 0l-265 265v532l265 265h297v-265h-115v-549h115v-248h-297zM727 0v248h110v549h-110v265h296l265 -265v-532l-265 -265h-296zM933 -497l-175 200v245h202v-163h285v-282h-312z" />
    <glyph glyph-name="Aringacute" unicode="&#x1fa;" horiz-adv-x="1500" 
d="M1044 0l-56 145h-434l92 263h240l-355 919h431l529 -1327h-447zM9 0l474 1267l196 -527l-243 -740h-427zM775 1283v156h78v171h-78v155h104l129 159l126 -42l26 -117l-155 -111l26 -26v-208l-139 -137h-117zM587 1283l-137 137v208l137 137h119v-155h-77v-171h77v-156
h-119z" />
    <glyph glyph-name="aringacute" unicode="&#x1fb;" horiz-adv-x="1331" 
d="M804 0v797h-629v132l133 133h663l265 -265v-797h-432zM264 0l-178 175v266l178 177h470v-184h-228v-186h228v-117l-132 -131h-338zM705 1143v156h78v171h-78v155h104l129 159l126 -42l26 -117l-155 -111l26 -26v-208l-139 -137h-117zM517 1143l-137 137v208l137 137h119
v-155h-77v-171h77v-156h-119z" />
    <glyph glyph-name="AEacute" unicode="&#x1fc;" horiz-adv-x="2305" 
d="M9 0l633 1327h297v-276l-261 -577h261v-263h-379l-95 -211h-456zM1007 0v1327h442v-530h442v-267h-442v-530h-442zM1803 929v133h-287v265h730v-398h-443zM1516 0v265h287v133h443v-398h-730zM1127 1407l-51 122l446 240l155 -78l-47 -169z" />
    <glyph glyph-name="aeacute" unicode="&#x1fd;" horiz-adv-x="2029" 
d="M696 0v265h98v532h-619v132l133 133h617l92 -89l87 89h232v-265h-100v-532h100v-265h-232l-89 88l-90 -88h-229zM1309 434v194h193v169h-96v265h273l266 -265v-363h-636zM264 0l-178 175v276l178 177h460v-194h-195v-169h97v-265h-362zM1406 0v265h494v-132l-132 -133
h-362zM797 1144l-62 147l486 316l184 -85l-54 -211z" />
    <glyph glyph-name="Oslashacute" unicode="&#x1fe;" horiz-adv-x="1455" 
d="M646 0l69 265h212v797h-113l109 437l348 -84l-54 -202l152 -151v-797l-265 -265h-458zM534 -172l-347 84l53 199l-154 154v797l267 265h461l-73 -265h-212v-797h116zM619 1459l-51 122l446 240l155 -78l-47 -169z" />
    <glyph glyph-name="oslashacute" unicode="&#x1ff;" horiz-adv-x="1357" 
d="M663 0l69 264l79 1v532h-96l126 479l323 -84l-62 -240l160 -155v-532l-274 -265h-325zM516 -221l-323 84l64 244l-162 158v532l274 265h329l-72 -265h-80v-532l99 -1zM372 1123l-98 138l486 316l184 -85l-54 -211z" />
    <glyph glyph-name="uni0200" unicode="&#x200;" horiz-adv-x="1500" 
d="M1044 0l-56 145h-434l92 263h240l-355 919h431l529 -1327h-447zM9 0l474 1267l196 -527l-243 -740h-427zM985 1434l-344 165l10 143l140 44l283 -240zM461 1434l-344 165l7 139l143 48l283 -240z" />
    <glyph glyph-name="uni0201" unicode="&#x201;" horiz-adv-x="1331" 
d="M804 0v797h-629v132l133 133h663l265 -265v-797h-432zM264 0l-178 175v266l178 177h470v-184h-228v-186h228v-117l-132 -131h-338zM919 1144l-406 227l-14 181l184 55l338 -336zM371 1144l-406 227l-14 181l184 55l338 -336z" />
    <glyph glyph-name="uni0202" unicode="&#x202;" horiz-adv-x="1500" 
d="M1044 0l-56 145h-434l92 263h240l-355 919h431l529 -1327h-447zM9 0l474 1267l196 -527l-243 -740h-427zM501 1445l-138 39l56 231l146 144h361l146 -144l56 -231l-138 -39l-82 182h-325z" />
    <glyph glyph-name="uni0203" unicode="&#x203;" horiz-adv-x="1331" 
d="M804 0v797h-629v132l133 133h663l265 -265v-797h-432zM264 0l-178 175v266l178 177h470v-184h-228v-186h228v-117l-132 -131h-338zM421 1138l-138 39l56 231l146 144h361l146 -144l56 -231l-138 -39l-82 182h-325z" />
    <glyph glyph-name="uni0204" unicode="&#x204;" horiz-adv-x="1415" 
d="M117 0v1327h442v-526h423v-256h-423v-545h-442zM904 943v127h-275v257h691v-384h-416zM629 0v265h249v133h442v-398h-691zM974 1434l-344 165l10 143l140 44l283 -240zM450 1434l-344 165l7 139l143 48l283 -240z" />
    <glyph glyph-name="uni0205" unicode="&#x205;" horiz-adv-x="1331" 
d="M360 0l-265 265v532l265 265h177v-1062h-177zM607 426v185h233v186h-233v265h375l265 -265v-371h-640zM607 0v248h594v-115l-132 -133h-462zM921 1144l-406 227l-14 181l184 55l338 -336zM373 1144l-406 227l-14 181l184 55l338 -336z" />
    <glyph glyph-name="uni0206" unicode="&#x206;" horiz-adv-x="1415" 
d="M117 0v1327h442v-526h423v-256h-423v-545h-442zM904 943v127h-275v257h691v-384h-416zM629 0v265h249v133h442v-398h-691zM490 1445l-138 39l56 231l146 144h361l146 -144l56 -231l-138 -39l-82 182h-325z" />
    <glyph glyph-name="uni0207" unicode="&#x207;" horiz-adv-x="1331" 
d="M360 0l-265 265v532l265 265h177v-1062h-177zM607 426v185h233v186h-233v265h375l265 -265v-371h-640zM607 0v248h594v-115l-132 -133h-462zM423 1138l-138 39l56 231l146 144h361l146 -144l56 -231l-138 -39l-82 182h-325z" />
    <glyph glyph-name="uni0208" unicode="&#x208;" horiz-adv-x="902" 
d="M97 0v283h133v762h-133v282h708v-282h-133v-762h133v-283h-708zM690 1433l-344 165l10 143l140 44l283 -240zM166 1433l-344 165l7 139l143 48l283 -240z" />
    <glyph glyph-name="uni0209" unicode="&#x209;" horiz-adv-x="653" 
d="M105 0v1062h443v-1062h-443zM580 1144l-406 227l-14 181l184 55l338 -336zM32 1144l-406 227l-14 181l184 55l338 -336z" />
    <glyph glyph-name="uni020A" unicode="&#x20a;" horiz-adv-x="902" 
d="M97 0v283h133v762h-133v282h708v-282h-133v-762h133v-283h-708zM206 1444l-138 39l56 231l146 144h361l146 -144l56 -231l-138 -39l-82 182h-325z" />
    <glyph glyph-name="uni020B" unicode="&#x20b;" horiz-adv-x="653" 
d="M105 0v1062h443v-1062h-443zM82 1138l-138 39l56 231l146 144h361l146 -144l56 -231l-138 -39l-82 182h-325z" />
    <glyph glyph-name="uni020C" unicode="&#x20c;" horiz-adv-x="1463" 
d="M765 0v270h169v788h-169v269h343l268 -265v-797l-268 -265h-343zM355 0l-269 265v797l269 265h340v-269h-166v-788h166v-270h-340zM970 1434l-344 165l10 143l140 44l283 -240zM446 1434l-344 165l7 139l143 48l283 -240z" />
    <glyph glyph-name="uni020D" unicode="&#x20d;" horiz-adv-x="1383" 
d="M360 0l-265 265v532l265 265h297v-265h-115v-549h115v-248h-297zM727 0v248h110v549h-110v265h296l265 -265v-532l-265 -265h-296zM931 1144l-406 227l-14 181l184 55l338 -336zM383 1144l-406 227l-14 181l184 55l338 -336z" />
    <glyph glyph-name="uni020E" unicode="&#x20e;" horiz-adv-x="1463" 
d="M765 0v270h169v788h-169v269h343l268 -265v-797l-268 -265h-343zM355 0l-269 265v797l269 265h340v-269h-166v-788h166v-270h-340zM486 1445l-138 39l56 231l146 144h361l146 -144l56 -231l-138 -39l-82 182h-325z" />
    <glyph glyph-name="uni020F" unicode="&#x20f;" horiz-adv-x="1383" 
d="M360 0l-265 265v532l265 265h297v-265h-115v-549h115v-248h-297zM727 0v248h110v549h-110v265h296l265 -265v-532l-265 -265h-296zM433 1138l-138 39l56 231l146 144h361l146 -144l56 -231l-138 -39l-82 182h-325z" />
    <glyph glyph-name="uni0210" unicode="&#x210;" horiz-adv-x="1486" 
d="M629 398v257h332v407h-332v265h505l266 -265v-398l-206 -206l251 -458h-472l-188 398h-156zM117 0v1327h442v-1327h-442zM1019 1433l-344 165l10 143l140 44l283 -240zM495 1433l-344 165l7 139l143 48l283 -240z" />
    <glyph glyph-name="uni0211" unicode="&#x211;" horiz-adv-x="1260" 
d="M104 0v1062h442v-1062h-442zM805 539v258h-188v116l148 149h268l215 -248v-275h-443zM906 1144l-406 227l-14 181l184 55l338 -336zM358 1144l-406 227l-14 181l184 55l338 -336z" />
    <glyph glyph-name="uni0212" unicode="&#x212;" horiz-adv-x="1486" 
d="M629 398v257h332v407h-332v265h505l266 -265v-398l-206 -206l251 -458h-472l-188 398h-156zM117 0v1327h442v-1327h-442zM535 1444l-138 39l56 231l146 144h361l146 -144l56 -231l-138 -39l-82 182h-325z" />
    <glyph glyph-name="uni0213" unicode="&#x213;" horiz-adv-x="1260" 
d="M104 0v1062h442v-1062h-442zM805 539v258h-188v116l148 149h268l215 -248v-275h-443zM408 1138l-138 39l56 231l146 144h361l146 -144l56 -231l-138 -39l-82 182h-325z" />
    <glyph glyph-name="uni0214" unicode="&#x214;" horiz-adv-x="1494" 
d="M782 0v265h164v1062h442v-1062l-265 -265h-341zM372 0l-266 265v1062h443v-1062h163v-265h-340zM986 1433l-344 165l10 143l140 44l283 -240zM462 1433l-344 165l7 139l143 48l283 -240z" />
    <glyph glyph-name="uni0215" unicode="&#x215;" horiz-adv-x="1350" 
d="M361 0l-266 265v797h442v-797h197v-132l-128 -133h-245zM804 0v1062h442v-1062h-442zM923 1144l-406 227l-14 181l184 55l338 -336zM375 1144l-406 227l-14 181l184 55l338 -336z" />
    <glyph glyph-name="uni0216" unicode="&#x216;" horiz-adv-x="1494" 
d="M782 0v265h164v1062h442v-1062l-265 -265h-341zM372 0l-266 265v1062h443v-1062h163v-265h-340zM502 1444l-138 39l56 231l146 144h361l146 -144l56 -231l-138 -39l-82 182h-325z" />
    <glyph glyph-name="uni0217" unicode="&#x217;" horiz-adv-x="1350" 
d="M361 0l-266 265v797h442v-797h197v-132l-128 -133h-245zM804 0v1062h442v-1062h-442zM425 1138l-138 39l56 231l146 144h361l146 -144l56 -231l-138 -39l-82 182h-325z" />
    <glyph glyph-name="uni0218" unicode="&#x218;" horiz-adv-x="1477" 
d="M937 0v497h-574l-266 266v299l266 265h150v-471h610l257 -266v-325l-265 -265h-178zM937 955v133h-354v239h531l230 -231v-141h-407zM320 0l-223 265v133h442v-158h328v-240h-547zM615 -638l61 228h-158v292h442v-247l-167 -273h-178z" />
    <glyph glyph-name="uni0219" unicode="&#x219;" horiz-adv-x="1315" 
d="M804 0v401h-478l-230 221v202l239 238h177v-375h504l230 -232v-207l-247 -248h-195zM804 784v83h-222v195h470l158 -158v-120h-406zM279 0l-184 219v85h443v-109h196v-195h-455zM534 -638l61 228h-158v292h442v-247l-167 -273h-178z" />
    <glyph glyph-name="uni021A" unicode="&#x21a;" horiz-adv-x="1256" 
d="M52 1038v289h1152v-289h-1152zM398 0v969h460v-969h-460zM504 -638l61 228h-158v292h442v-247l-167 -273h-178z" />
    <glyph glyph-name="uni021B" unicode="&#x21b;" horiz-adv-x="931" 
d="M392 0l-266 265v532h-88v265h88v115l442 150v-1062h292v-265h-468zM638 797v265h238v-265h-238zM344 -638l61 228h-158v292h442v-247l-167 -273h-178z" />
    <glyph glyph-name="uni0228" unicode="&#x228;" horiz-adv-x="1415" 
d="M117 0v1327h442v-526h423v-256h-423v-545h-442zM904 943v127h-275v257h691v-384h-416zM629 0v265h249v133h442v-398h-691zM464 -507v282h285v163h202v-245l-175 -200h-312z" />
    <glyph glyph-name="uni0229" unicode="&#x229;" horiz-adv-x="1331" 
d="M360 0l-265 265v532l265 265h177v-1062h-177zM607 426v185h233v186h-233v265h375l265 -265v-371h-640zM607 0v248h594v-115l-132 -133h-462zM422 -507v282h285v163h202v-245l-175 -200h-312z" />
    <glyph glyph-name="uni022A" unicode="&#x22a;" horiz-adv-x="1463" 
d="M765 0v270h169v788h-169v269h343l268 -265v-797l-268 -265h-343zM355 0l-269 265v797l269 265h340v-269h-166v-788h166v-270h-340zM828 1431v221h336v-221h-336zM298 1431v221h336v-221h-336zM366 1796v170h729v-170h-729z" />
    <glyph glyph-name="uni022B" unicode="&#x22b;" horiz-adv-x="1383" 
d="M360 0l-265 265v532l265 265h297v-265h-115v-549h115v-248h-297zM727 0v248h110v549h-110v265h296l265 -265v-532l-265 -265h-296zM773 1198v281h336v-281h-336zM243 1198v281h336v-281h-336zM292 1556v197h769v-197h-769z" />
    <glyph glyph-name="uni022C" unicode="&#x22c;" horiz-adv-x="1463" 
d="M765 0v270h169v788h-169v269h343l268 -265v-797l-268 -265h-343zM355 0l-269 265v797l269 265h340v-269h-166v-788h166v-270h-340zM749 1425l-160 116h-41l-181 -106l-64 78l207 214h205l160 -117h41l181 107l64 -78l-207 -214h-205zM367 1796v170h729v-170h-729z" />
    <glyph glyph-name="uni022D" unicode="&#x22d;" horiz-adv-x="1383" 
d="M360 0l-265 265v532l265 265h297v-265h-115v-549h115v-248h-297zM727 0v248h110v549h-110v265h296l265 -265v-532l-265 -265h-296zM679 1181l-108 150h-67l-138 -114l-87 87l195 214h283l108 -151h67l138 115l87 -87l-195 -214h-283zM334 1595v197h769v-197h-769z" />
    <glyph glyph-name="uni0230" unicode="&#x230;" horiz-adv-x="1463" 
d="M765 0v270h169v788h-169v269h343l268 -265v-797l-268 -265h-343zM355 0l-269 265v797l269 265h340v-269h-166v-788h166v-270h-340zM508 1421v282h443v-282h-443zM365 1757v170h729v-170h-729z" />
    <glyph glyph-name="uni0231" unicode="&#x231;" horiz-adv-x="1383" 
d="M360 0l-265 265v532l265 265h297v-265h-115v-549h115v-248h-297zM727 0v248h110v549h-110v265h296l265 -265v-532l-265 -265h-296zM445 1194v282h443v-282h-443zM283 1526v197h769v-197h-769z" />
    <glyph glyph-name="uni0232" unicode="&#x232;" horiz-adv-x="1297" 
d="M424 0v422l-450 905h434l459 -936v-391h-443zM895 484l-215 436l218 407h425zM283 1453v170h729v-170h-729z" />
    <glyph glyph-name="uni0233" unicode="&#x233;" horiz-adv-x="1221" 
d="M272 -370l538 1432h425l-539 -1432h-424zM378 89l-392 973h441l149 -432zM236 1203v197h769v-197h-769z" />
    <glyph glyph-name="uni0237" unicode="&#x237;" horiz-adv-x="653" 
d="M-100 -354v266h205v1150h443v-1150l-266 -266h-382z" />
    <glyph glyph-name="uni0245" unicode="&#x245;" horiz-adv-x="1371" 
d="M946 0l-459 1327h430l480 -1327h-451zM-26 0l459 1287l199 -584l-214 -703h-444z" />
    <glyph glyph-name="uni0251" unicode="&#x251;" horiz-adv-x="1366" 
d="M334 0l-239 239v584l239 239h416v-265h-213v-549h213v-143l-105 -105h-311zM820 0v1062h442v-1062h-442z" />
    <glyph glyph-name="uni0254" unicode="&#x254;" horiz-adv-x="1323" 
d="M786 0v1062h177l265 -265v-532l-265 -265h-177zM78 681v116l265 265h373v-248h-196v-133h-442zM343 0l-265 265v159h442v-159h196v-265h-373z" />
    <glyph glyph-name="uni0259" unicode="&#x259;" horiz-adv-x="1331" 
d="M794 0v1062h177l265 -265v-532l-265 -265h-177zM130 814v115l132 133h462v-248h-594zM349 0l-265 265v371h640v-185h-233v-186h233v-265h-375z" />
    <glyph glyph-name="uni025B" unicode="&#x25b;" horiz-adv-x="1212" 
d="M309 0l-214 206v218l106 102l-106 110v217l214 209h146v-426h351v-212h-351v-424h-146zM772 740v108h-240v214h382l214 -214v-108h-356zM532 0v206h240v109h356v-109l-214 -206h-382z" />
    <glyph glyph-name="uni0268" unicode="&#x268;" horiz-adv-x="653" 
d="M105 0v1062h443v-1062h-443zM94 1194v282h443v-282h-443zM-34 501v170h729v-170h-729z" />
    <glyph glyph-name="uni028C" unicode="&#x28c;" horiz-adv-x="1192" 
d="M767 0l-378 1062h420l397 -1062h-439zM-14 0l358 1003l198 -562l-143 -441h-413z" />
    <glyph glyph-name="circumflex" unicode="&#x2c6;" horiz-adv-x="1240" 
d="M267 1153l-94 97l295 335h304l295 -335l-93 -97l-354 210z" />
    <glyph glyph-name="caron" unicode="&#x2c7;" horiz-adv-x="1240" 
d="M468 1153l-295 334l93 97l353 -210l354 210l94 -97l-295 -334h-304z" />
    <glyph glyph-name="breve" unicode="&#x2d8;" horiz-adv-x="1240" 
d="M442 1155l-146 144l-56 231l138 39l82 -182h325l82 182l138 -39l-56 -231l-146 -144h-361z" />
    <glyph glyph-name="dotaccent" unicode="&#x2d9;" horiz-adv-x="680" 
d="M105 1194v282h443v-282h-443z" />
    <glyph glyph-name="ring" unicode="&#x2da;" horiz-adv-x="1145" 
d="M605 1200v156h78v171h-78v155h97l139 -137v-208l-139 -137h-97zM437 1200l-137 137v208l137 137h99v-155h-77v-171h77v-156h-99z" />
    <glyph glyph-name="ogonek" unicode="&#x2db;" horiz-adv-x="1008" 
d="M570 -445l-175 200v183h202v-113h255v-270h-282z" />
    <glyph glyph-name="tilde" unicode="&#x2dc;" horiz-adv-x="1309" 
d="M616 1171l-108 150h-67l-138 -114l-87 87l195 214h283l108 -151h67l138 115l87 -87l-195 -214h-283z" />
    <glyph glyph-name="hungarumlaut" unicode="&#x2dd;" horiz-adv-x="1098" 
d="M854 1144l-102 127l338 336l184 -55l-14 -181zM306 1144l-102 127l338 336l184 -55l-14 -181z" />
    <glyph glyph-name="gravecomb" unicode="&#x300;" 
d="M730 1144l-555 167l-54 211l184 85l486 -316z" />
    <glyph glyph-name="acutecomb" unicode="&#x301;" 
d="M372 1123l-98 138l486 316l184 -85l-54 -211z" />
    <glyph glyph-name="uni0302" unicode="&#x302;" 
d="M267 1063l-94 97l295 335h304l295 -335l-93 -97l-354 210z" />
    <glyph glyph-name="tildecomb" unicode="&#x303;" 
d="M616 1181l-108 150h-67l-138 -114l-87 87l195 214h283l108 -151h67l138 115l87 -87l-195 -214h-283z" />
    <glyph glyph-name="uni0304" unicode="&#x304;" 
d="M231 1203v197h769v-197h-769z" />
    <glyph glyph-name="uni0306" unicode="&#x306;" 
d="M442 1155l-146 144l-56 231l138 39l82 -182h325l82 182l138 -39l-56 -231l-146 -144h-361z" />
    <glyph glyph-name="uni0307" unicode="&#x307;" 
d="M105 1194v282h443v-282h-443z" />
    <glyph glyph-name="uni0308" unicode="&#x308;" 
d="M804 1199v281h336v-281h-336zM274 1199v281h336v-281h-336z" />
    <glyph glyph-name="hookabovecomb" unicode="&#x309;" 
d="M645 1147v163h-285v282h312l175 -200v-245h-202z" />
    <glyph glyph-name="uni030A" unicode="&#x30a;" 
d="M605 1143v156h78v171h-78v155h117l139 -137v-208l-139 -137h-117zM417 1143l-137 137v208l137 137h119v-155h-77v-171h77v-156h-119z" />
    <glyph glyph-name="uni030B" unicode="&#x30b;" 
d="M854 1144l-102 127l338 336l184 -55l-14 -181zM306 1144l-102 127l338 336l184 -55l-14 -181z" />
    <glyph glyph-name="uni030C" unicode="&#x30c;" 
d="M468 1153l-295 334l93 97l353 -210l354 210l94 -97l-295 -334h-304z" />
    <glyph glyph-name="uni030F" unicode="&#x30f;" 
d="M1016 1144l-406 227l-14 181l184 55l338 -336zM468 1144l-406 227l-14 181l184 55l338 -336z" />
    <glyph glyph-name="uni0311" unicode="&#x311;" 
d="M378 1155l-138 39l56 231l146 144h361l146 -144l56 -231l-138 -39l-82 182h-325z" />
    <glyph glyph-name="uni0312" unicode="&#x312;" 
d="M243 1057v247l167 273h178l-61 -228h158v-292h-442z" />
    <glyph glyph-name="uni031B" unicode="&#x31b;" 
d="M173 858v202h163v285h282v-312l-200 -175h-245z" />
    <glyph glyph-name="dotbelowcomb" unicode="&#x323;" 
d="M105 -402v282h443v-282h-443z" />
    <glyph glyph-name="uni0324" unicode="&#x324;" 
d="M804 -361v221h336v-221h-336zM274 -361v221h336v-221h-336z" />
    <glyph glyph-name="uni0326" unicode="&#x326;" 
d="M340 -638l61 228h-158v292h442v-247l-167 -273h-178z" />
    <glyph glyph-name="uni0327" unicode="&#x327;" 
d="M285 -507v282h285v163h202v-245l-175 -200h-312z" />
    <glyph glyph-name="uni0328" unicode="&#x328;" 
d="M460 -507l-175 200v245h202v-163h285v-282h-312z" />
    <glyph glyph-name="uni032D" unicode="&#x32d;" 
d="M267 -548l-94 97l295 335h304l295 -335l-93 -97l-354 210z" />
    <glyph glyph-name="uni032E" unicode="&#x32e;" 
d="M442 -522l-146 144l-56 231l138 39l82 -182h325l82 182l138 -39l-56 -231l-146 -144h-361z" />
    <glyph glyph-name="uni0331" unicode="&#x331;" 
d="M251 -311v170h729v-170h-729z" />
    <glyph glyph-name="uni0335" unicode="&#x335;" 
d="M20 501v170h729v-170h-729z" />
    <glyph glyph-name="uni0394" unicode="&#x394;" horiz-adv-x="1500" 
d="M510 0l92 263h340l-410 1064h431l528 -1327h-981zM9 0l475 1267l196 -527l-244 -740h-427z" />
    <glyph glyph-name="Sigma" unicode="&#x3a3;" horiz-adv-x="1415" 
d="M118 0v225l335 433l-336 445v224h360l395 -672l-396 -655h-358zM957 929v133h-257l-152 265h772v-398h-363zM547 0l156 265h254v133h363v-398h-773z" />
    <glyph glyph-name="uni03A9" unicode="&#x3a9;" horiz-adv-x="1463" 
d="M817 0v400l116 120v542h-166v265h340l269 -265v-547l-269 -265h267v-250h-557zM88 0v250h267l-269 265v547l269 265h340v-265h-166v-542l116 -120v-400h-557z" />
    <glyph glyph-name="uni03BC" unicode="&#x3bc;" horiz-adv-x="1350" 
d="M95 -490v1552h442v-797h197v-118l-89 -100l-108 86v-623h-442zM804 0v1062h442v-1062h-442z" />
    <glyph glyph-name="pi" unicode="&#x3c0;" horiz-adv-x="1383" 
d="M95 793v269h1194v-269h-1194zM95 0v724h440v-724h-440zM850 0v724h440v-724h-440z" />
    <glyph glyph-name="uni058F" unicode="&#x58f;" horiz-adv-x="1522" 
d="M648 182v132h258v136h-258v132h258v480h-124v265h301l265 -265v-480h124v-132h-124v-136h124v-132h-124v-182h-442v182h-258zM106 767v295l266 265h340v-265h-163v-295h-443z" />
    <glyph glyph-name="uni1E03" unicode="&#x1e03;" horiz-adv-x="1349" 
d="M104 0v1467h442v-1467h-442zM616 0v248h198v549h-198v134l130 131h242l266 -265v-532l-266 -265h-372zM755 1194v282h443v-282h-443z" />
    <glyph glyph-name="uni1E04" unicode="&#x1e04;" horiz-adv-x="1495" 
d="M629 0v265h328v283h-328v231h328v283h-328v265h513l266 -265v-270l-133 -133l133 -133v-261l-266 -265h-513zM117 0v1327h442v-1327h-442zM526 -402v282h443v-282h-443z" />
    <glyph glyph-name="uni1E05" unicode="&#x1e05;" horiz-adv-x="1349" 
d="M104 0v1467h442v-1467h-442zM616 0v248h198v549h-198v134l130 131h242l266 -265v-532l-266 -265h-372zM757 -506v282h443v-282h-443z" />
    <glyph glyph-name="uni1E08" unicode="&#x1e08;" horiz-adv-x="1440" 
d="M363 0l-266 265v797l266 265h176v-1327h-176zM903 795v267h-294v265h471l265 -265v-267h-442zM609 0v265h294v194h442v-194l-265 -265h-471zM476 -507v282h285v163h202v-245l-175 -200h-312zM608 1407l-51 122l446 240l155 -78l-47 -169z" />
    <glyph glyph-name="uni1E09" unicode="&#x1e09;" horiz-adv-x="1323" 
d="M360 0l-265 265v532l265 265h177v-1062h-177zM803 638v159h-196v265h373l265 -265v-159h-442zM607 0v248h196v133h442v-116l-265 -265h-373zM285 -507v282h285v163h202v-245l-175 -200h-312zM493 1123l-98 138l486 316l184 -85l-54 -211z" />
    <glyph glyph-name="uni1E0B" unicode="&#x1e0b;" horiz-adv-x="1366" 
d="M820 0v1467h442v-1467h-442zM334 0l-239 239v584l239 239h416v-265h-213v-549h213v-143l-105 -105h-311zM112 1194v282h443v-282h-443z" />
    <glyph glyph-name="uni1E0C" unicode="&#x1e0c;" horiz-adv-x="1486" 
d="M629 0v265h328v797h-328v265h505l266 -265v-797l-266 -265h-505zM117 0v1327h442v-1327h-442zM521 -402v282h443v-282h-443z" />
    <glyph glyph-name="uni1E0D" unicode="&#x1e0d;" horiz-adv-x="1366" 
d="M820 0v1467h442v-1467h-442zM334 0l-239 239v584l239 239h416v-265h-213v-549h213v-143l-105 -105h-311zM501 -402v282h443v-282h-443z" />
    <glyph glyph-name="uni1E0E" unicode="&#x1e0e;" horiz-adv-x="1486" 
d="M629 0v265h328v797h-328v265h505l266 -265v-797l-266 -265h-505zM117 0v1327h442v-1327h-442zM378 -269v170h729v-170h-729z" />
    <glyph glyph-name="uni1E0F" unicode="&#x1e0f;" horiz-adv-x="1366" 
d="M820 0v1467h442v-1467h-442zM334 0l-239 239v584l239 239h416v-265h-213v-549h213v-143l-105 -105h-311zM358 -311v170h729v-170h-729z" />
    <glyph glyph-name="uni1E12" unicode="&#x1e12;" horiz-adv-x="1486" 
d="M629 0v265h328v797h-328v265h505l266 -265v-797l-266 -265h-505zM117 0v1327h442v-1327h-442zM390 -548l-94 97l295 335h304l295 -335l-93 -97l-354 210z" />
    <glyph glyph-name="uni1E13" unicode="&#x1e13;" horiz-adv-x="1366" 
d="M820 0v1467h442v-1467h-442zM334 0l-239 239v584l239 239h416v-265h-213v-549h213v-143l-105 -105h-311zM370 -548l-94 97l295 335h304l295 -335l-93 -97l-354 210z" />
    <glyph glyph-name="uni1E1F" unicode="&#x1e1f;" horiz-adv-x="907" 
d="M143 0v797h-105v265h105v157l267 248h496v-265h-320v-1202h-443zM653 797l3 265h250v-265h-253zM153 1542v282h443v-282h-443z" />
    <glyph glyph-name="uni1E20" unicode="&#x1e20;" horiz-adv-x="1495" 
d="M380 0l-265 265v797l265 265h177v-1062h379v-265h-556zM956 929v133h-329v265h539l232 -265v-133h-442zM1006 0v473h-215v263h607v-736h-392zM426 1454v170h729v-170h-729z" />
    <glyph glyph-name="uni1E21" unicode="&#x1e21;" horiz-adv-x="1340" 
d="M397 -372l-133 134v98h539v937h-196v265h373l265 -265v-902l-265 -267h-583zM360 0l-265 265v532l265 265h177v-814h196v-117l-132 -131h-241zM315 1203v197h769v-197h-769z" />
    <glyph glyph-name="uni1E24" unicode="&#x1e24;" horiz-adv-x="1516" 
d="M957 0v539h-328v266h325v522h446v-1327h-443zM117 0v1327h442v-1327h-442zM536 -402v282h443v-282h-443z" />
    <glyph glyph-name="uni1E25" unicode="&#x1e25;" horiz-adv-x="1355" 
d="M104 0v1467h442v-1467h-442zM811 0v797h-195v134l130 131h242l266 -265v-797h-443zM453 -402v282h443v-282h-443z" />
    <glyph glyph-name="uni1E2E" unicode="&#x1e2e;" horiz-adv-x="902" 
d="M97 0v283h133v762h-133v282h708v-282h-133v-762h133v-283h-708zM548 1430v221h336v-221h-336zM18 1430v221h336v-221h-336zM342 1748l-51 122l446 240l155 -78l-47 -169z" />
    <glyph glyph-name="uni1E2F" unicode="&#x1e2f;" horiz-adv-x="653" 
d="M105 0v1062h443v-1062h-443zM422 1198v281h336v-281h-336zM-108 1198v281h336v-281h-336zM138 1476l-98 138l486 316l184 -85l-54 -211z" />
    <glyph glyph-name="uni1E36" unicode="&#x1e36;" horiz-adv-x="1273" 
d="M117 0v1327h442v-1327h-442zM629 0v265h219v168h401v-433h-620zM412 -402v282h443v-282h-443z" />
    <glyph glyph-name="uni1E37" unicode="&#x1e37;" horiz-adv-x="753" 
d="M352 0l-248 248v1219h442v-1202h198v-265h-392zM155 -402v282h443v-282h-443z" />
    <glyph glyph-name="uni1E3A" unicode="&#x1e3a;" horiz-adv-x="1273" 
d="M117 0v1327h442v-1327h-442zM629 0v265h219v168h401v-433h-620zM269 -269v170h729v-170h-729z" />
    <glyph glyph-name="uni1E3B" unicode="&#x1e3b;" horiz-adv-x="753" 
d="M352 0l-248 248v1219h442v-1202h198v-265h-392zM12 -311v170h729v-170h-729z" />
    <glyph glyph-name="uni1E3C" unicode="&#x1e3c;" horiz-adv-x="1273" 
d="M117 0v1327h442v-1327h-442zM629 0v265h219v168h401v-433h-620zM281 -548l-94 97l295 335h304l295 -335l-93 -97l-354 210z" />
    <glyph glyph-name="uni1E3D" unicode="&#x1e3d;" horiz-adv-x="753" 
d="M352 0l-248 248v1219h442v-1202h198v-265h-392zM24 -548l-94 97l295 335h304l295 -335l-93 -97l-354 210z" />
    <glyph glyph-name="uni1E3E" unicode="&#x1e3e;" horiz-adv-x="1848" 
d="M905 0l-787 1327h470l356 -590l280 480v-668zM1289 0v1327h442v-1327h-442zM117 0v1204l413 -693v-511h-413zM818 1407l-51 122l446 240l155 -78l-47 -169z" />
    <glyph glyph-name="uni1E3F" unicode="&#x1e3f;" horiz-adv-x="2033" 
d="M797 0v797h-180v125l139 140h342l142 -142v-920h-443zM104 0v1062h443v-1062h-443zM1490 0v797h-180v123l136 142h270l216 -218v-844h-442zM839 1123l-98 138l486 316l184 -85l-54 -211z" />
    <glyph glyph-name="uni1E41" unicode="&#x1e41;" horiz-adv-x="2033" 
d="M797 0v797h-180v125l139 140h342l142 -142v-920h-443zM104 0v1062h443v-1062h-443zM1490 0v797h-180v123l136 142h270l216 -218v-844h-442zM800 1194v282h443v-282h-443z" />
    <glyph glyph-name="uni1E42" unicode="&#x1e42;" horiz-adv-x="1848" 
d="M905 0l-787 1327h470l356 -590l280 480v-668zM1289 0v1327h442v-1327h-442zM117 0v1204l413 -693v-511h-413zM702 -402v282h443v-282h-443z" />
    <glyph glyph-name="uni1E43" unicode="&#x1e43;" horiz-adv-x="2033" 
d="M797 0v797h-180v125l139 140h342l142 -142v-920h-443zM104 0v1062h443v-1062h-443zM1490 0v797h-180v123l136 142h270l216 -218v-844h-442zM785 -402v282h443v-282h-443z" />
    <glyph glyph-name="uni1E44" unicode="&#x1e44;" horiz-adv-x="1508" 
d="M921 0l-804 1327h467l807 -1327h-470zM1391 126l-385 634v567h385v-1201zM117 0v1201l385 -631v-570h-385zM521 1420v282h443v-282h-443z" />
    <glyph glyph-name="uni1E45" unicode="&#x1e45;" horiz-adv-x="1356" 
d="M812 0v797h-190v116l148 149h246l239 -239v-823h-443zM104 0v1062h446v-1062h-446zM445 1194v282h443v-282h-443z" />
    <glyph glyph-name="uni1E46" unicode="&#x1e46;" horiz-adv-x="1508" 
d="M921 0l-804 1327h467l807 -1327h-470zM1391 126l-385 634v567h385v-1201zM117 0v1201l385 -631v-570h-385zM532 -402v282h443v-282h-443z" />
    <glyph glyph-name="uni1E47" unicode="&#x1e47;" horiz-adv-x="1356" 
d="M812 0v797h-190v116l148 149h246l239 -239v-823h-443zM104 0v1062h446v-1062h-446zM456 -402v282h443v-282h-443z" />
    <glyph glyph-name="uni1E48" unicode="&#x1e48;" horiz-adv-x="1508" 
d="M921 0l-804 1327h467l807 -1327h-470zM1391 126l-385 634v567h385v-1201zM117 0v1201l385 -631v-570h-385zM389 -269v170h729v-170h-729z" />
    <glyph glyph-name="uni1E49" unicode="&#x1e49;" horiz-adv-x="1356" 
d="M812 0v797h-190v116l148 149h246l239 -239v-823h-443zM104 0v1062h446v-1062h-446zM313 -311v170h729v-170h-729z" />
    <glyph glyph-name="uni1E4A" unicode="&#x1e4a;" horiz-adv-x="1508" 
d="M921 0l-804 1327h467l807 -1327h-470zM1391 126l-385 634v567h385v-1201zM117 0v1201l385 -631v-570h-385zM401 -548l-94 97l295 335h304l295 -335l-93 -97l-354 210z" />
    <glyph glyph-name="uni1E4B" unicode="&#x1e4b;" horiz-adv-x="1356" 
d="M812 0v797h-190v116l148 149h246l239 -239v-823h-443zM104 0v1062h446v-1062h-446zM325 -548l-94 97l295 335h304l295 -335l-93 -97l-354 210z" />
    <glyph glyph-name="uni1E4C" unicode="&#x1e4c;" horiz-adv-x="1463" 
d="M765 0v270h169v788h-169v269h343l268 -265v-797l-268 -265h-343zM355 0l-269 265v797l269 265h340v-269h-166v-788h166v-270h-340zM749 1425l-160 116h-41l-181 -106l-64 78l207 214h205l160 -117h41l181 107l64 -78l-207 -214h-205zM623 1749l-51 122l446 240l155 -78
l-47 -169z" />
    <glyph glyph-name="uni1E4D" unicode="&#x1e4d;" horiz-adv-x="1383" 
d="M360 0l-265 265v532l265 265h297v-265h-115v-549h115v-248h-297zM727 0v248h110v549h-110v265h296l265 -265v-532l-265 -265h-296zM679 1181l-108 150h-67l-138 -114l-87 87l195 214h283l108 -151h67l138 115l87 -87l-195 -214h-283zM531 1515l-98 138l486 316l184 -85
l-54 -211z" />
    <glyph glyph-name="uni1E4E" unicode="&#x1e4e;" horiz-adv-x="1463" 
d="M765 0v270h169v788h-169v269h343l268 -265v-797l-268 -265h-343zM355 0l-269 265v797l269 265h340v-269h-166v-788h166v-270h-340zM749 1425l-160 116h-41l-181 -106l-64 78l207 214h205l160 -117h41l181 107l64 -78l-207 -214h-205zM829 1773v221h336v-221h-336z
M299 1773v221h336v-221h-336z" />
    <glyph glyph-name="uni1E4F" unicode="&#x1e4f;" horiz-adv-x="1383" 
d="M360 0l-265 265v532l265 265h297v-265h-115v-549h115v-248h-297zM727 0v248h110v549h-110v265h296l265 -265v-532l-265 -265h-296zM679 1181l-108 150h-67l-138 -114l-87 87l195 214h283l108 -151h67l138 115l87 -87l-195 -214h-283zM813 1590v281h336v-281h-336z
M283 1590v281h336v-281h-336z" />
    <glyph glyph-name="uni1E50" unicode="&#x1e50;" horiz-adv-x="1463" 
d="M765 0v270h169v788h-169v269h343l268 -265v-797l-268 -265h-343zM355 0l-269 265v797l269 265h340v-269h-166v-788h166v-270h-340zM366 1454v170h729v-170h-729zM839 1668l-502 115l-47 169l155 78l446 -240z" />
    <glyph glyph-name="uni1E51" unicode="&#x1e51;" horiz-adv-x="1383" 
d="M360 0l-265 265v532l265 265h297v-265h-115v-549h115v-248h-297zM727 0v248h110v549h-110v265h296l265 -265v-532l-265 -265h-296zM294 1203v197h769v-197h-769zM911 1454l-555 167l-54 211l184 85l486 -316z" />
    <glyph glyph-name="uni1E52" unicode="&#x1e52;" horiz-adv-x="1463" 
d="M765 0v270h169v788h-169v269h343l268 -265v-797l-268 -265h-343zM355 0l-269 265v797l269 265h340v-269h-166v-788h166v-270h-340zM366 1454v170h729v-170h-729zM622 1670l-51 122l446 240l155 -78l-47 -169z" />
    <glyph glyph-name="uni1E53" unicode="&#x1e53;" horiz-adv-x="1383" 
d="M360 0l-265 265v532l265 265h297v-265h-115v-549h115v-248h-297zM727 0v248h110v549h-110v265h296l265 -265v-532l-265 -265h-296zM294 1203v197h769v-197h-769zM492 1433l-98 138l486 316l184 -85l-54 -211z" />
    <glyph glyph-name="uni1E57" unicode="&#x1e57;" horiz-adv-x="1349" 
d="M616 0v248h195v549h-195v134l130 131h242l266 -265v-532l-266 -265h-372zM104 -354v1416h442v-1416h-442zM424 1194v282h443v-282h-443z" />
    <glyph glyph-name="uni1E5A" unicode="&#x1e5a;" horiz-adv-x="1486" 
d="M629 398v257h332v407h-332v265h505l266 -265v-398l-206 -206l251 -458h-472l-188 398h-156zM117 0v1327h442v-1327h-442zM521 -402v282h443v-282h-443z" />
    <glyph glyph-name="uni1E5B" unicode="&#x1e5b;" horiz-adv-x="1260" 
d="M104 0v1062h442v-1062h-442zM805 539v258h-188v116l148 149h268l215 -248v-275h-443zM103 -402v282h443v-282h-443z" />
    <glyph glyph-name="uni1E5E" unicode="&#x1e5e;" horiz-adv-x="1486" 
d="M629 398v257h332v407h-332v265h505l266 -265v-398l-206 -206l251 -458h-472l-188 398h-156zM117 0v1327h442v-1327h-442zM378 -269v170h729v-170h-729z" />
    <glyph glyph-name="uni1E5F" unicode="&#x1e5f;" horiz-adv-x="1260" 
d="M104 0v1062h442v-1062h-442zM805 539v258h-188v116l148 149h268l215 -248v-275h-443zM-40 -311v170h729v-170h-729z" />
    <glyph glyph-name="uni1E60" unicode="&#x1e60;" horiz-adv-x="1477" 
d="M937 0v497h-574l-266 266v299l266 265h150v-471h610l257 -266v-325l-265 -265h-178zM937 955v133h-354v239h531l230 -231v-141h-407zM320 0l-223 265v133h442v-158h328v-240h-547zM544 1427v282h443v-282h-443z" />
    <glyph glyph-name="uni1E61" unicode="&#x1e61;" horiz-adv-x="1315" 
d="M804 0v401h-478l-230 221v202l239 238h177v-375h504l230 -232v-207l-247 -248h-195zM804 784v83h-222v195h470l158 -158v-120h-406zM279 0l-184 219v85h443v-109h196v-195h-455zM454 1194v282h443v-282h-443z" />
    <glyph glyph-name="uni1E62" unicode="&#x1e62;" horiz-adv-x="1477" 
d="M937 0v497h-574l-266 266v299l266 265h150v-471h610l257 -266v-325l-265 -265h-178zM937 955v133h-354v239h531l230 -231v-141h-407zM320 0l-223 265v133h442v-158h328v-240h-547zM517 -402v282h443v-282h-443z" />
    <glyph glyph-name="uni1E63" unicode="&#x1e63;" horiz-adv-x="1315" 
d="M804 0v401h-478l-230 221v202l239 238h177v-375h504l230 -232v-207l-247 -248h-195zM804 784v83h-222v195h470l158 -158v-120h-406zM279 0l-184 219v85h443v-109h196v-195h-455zM436 -402v282h443v-282h-443z" />
    <glyph glyph-name="uni1E64" unicode="&#x1e64;" horiz-adv-x="1477" 
d="M937 0v497h-574l-266 266v299l266 265h150v-471h610l257 -266v-325l-265 -265h-178zM937 955v133h-354v239h531l230 -231v-141h-407zM320 0l-223 265v133h442v-158h328v-240h-547zM658 1413l-51 122l446 240l155 -78l-47 -169zM393 1666v282h443v-282h-443z" />
    <glyph glyph-name="uni1E65" unicode="&#x1e65;" horiz-adv-x="1315" 
d="M804 0v401h-478l-230 221v202l239 238h177v-375h504l230 -232v-207l-247 -248h-195zM804 784v83h-222v195h470l158 -158v-120h-406zM279 0l-184 219v85h443v-109h196v-195h-455zM493 1123l-98 138l486 316l184 -85l-54 -211zM316 1522v282h443v-282h-443z" />
    <glyph glyph-name="uni1E66" unicode="&#x1e66;" horiz-adv-x="1477" 
d="M937 0v497h-574l-266 266v299l266 265h150v-471h610l257 -266v-325l-265 -265h-178zM937 955v133h-354v239h531l230 -231v-141h-407zM320 0l-223 265v133h442v-158h328v-240h-547zM642 1429l-254 261l77 78l302 -158l306 158l78 -79l-257 -260h-252zM547 1759v282h443
v-282h-443z" />
    <glyph glyph-name="uni1E67" unicode="&#x1e67;" horiz-adv-x="1315" 
d="M804 0v401h-478l-230 221v202l239 238h177v-375h504l230 -232v-207l-247 -248h-195zM804 784v83h-222v195h470l158 -158v-120h-406zM279 0l-184 219v85h443v-109h196v-195h-455zM529 1153l-295 334l93 97l353 -210l354 210l94 -97l-295 -334h-304zM448 1555v282h443v-282
h-443z" />
    <glyph glyph-name="uni1E68" unicode="&#x1e68;" horiz-adv-x="1477" 
d="M937 0v497h-574l-266 266v299l266 265h150v-471h610l257 -266v-325l-265 -265h-178zM937 955v133h-354v239h531l230 -231v-141h-407zM320 0l-223 265v133h442v-158h328v-240h-547zM517 -402v282h443v-282h-443zM544 1427v282h443v-282h-443z" />
    <glyph glyph-name="uni1E69" unicode="&#x1e69;" horiz-adv-x="1315" 
d="M804 0v401h-478l-230 221v202l239 238h177v-375h504l230 -232v-207l-247 -248h-195zM804 784v83h-222v195h470l158 -158v-120h-406zM279 0l-184 219v85h443v-109h196v-195h-455zM436 -402v282h443v-282h-443zM447 1194v282h443v-282h-443z" />
    <glyph glyph-name="uni1E6B" unicode="&#x1e6b;" horiz-adv-x="931" 
d="M392 0l-266 265v532h-88v265h88v115l442 150v-1062h292v-265h-468zM638 797v265h238v-265h-238zM172 1368v282h443v-282h-443z" />
    <glyph glyph-name="uni1E6C" unicode="&#x1e6c;" horiz-adv-x="1256" 
d="M52 1038v289h1152v-289h-1152zM398 0v969h460v-969h-460zM406 -402v282h443v-282h-443z" />
    <glyph glyph-name="uni1E6D" unicode="&#x1e6d;" horiz-adv-x="931" 
d="M392 0l-266 265v532h-88v265h88v115l442 150v-1062h292v-265h-468zM638 797v265h238v-265h-238zM246 -402v282h443v-282h-443z" />
    <glyph glyph-name="uni1E6E" unicode="&#x1e6e;" horiz-adv-x="1256" 
d="M52 1038v289h1152v-289h-1152zM398 0v969h460v-969h-460zM263 -269v170h729v-170h-729z" />
    <glyph glyph-name="uni1E6F" unicode="&#x1e6f;" horiz-adv-x="931" 
d="M392 0l-266 265v532h-88v265h88v115l442 150v-1062h292v-265h-468zM638 797v265h238v-265h-238zM103 -311v170h729v-170h-729z" />
    <glyph glyph-name="uni1E70" unicode="&#x1e70;" horiz-adv-x="1256" 
d="M52 1038v289h1152v-289h-1152zM398 0v969h460v-969h-460zM275 -548l-94 97l295 335h304l295 -335l-93 -97l-354 210z" />
    <glyph glyph-name="uni1E71" unicode="&#x1e71;" horiz-adv-x="931" 
d="M392 0l-266 265v532h-88v265h88v115l442 150v-1062h292v-265h-468zM638 797v265h238v-265h-238zM115 -548l-94 97l295 335h304l295 -335l-93 -97l-354 210z" />
    <glyph glyph-name="uni1E78" unicode="&#x1e78;" horiz-adv-x="1494" 
d="M782 0v265h164v1062h442v-1062l-265 -265h-341zM372 0l-266 265v1062h443v-1062h163v-265h-340zM765 1424l-160 116h-41l-181 -106l-64 78l207 214h205l160 -117h41l181 107l64 -78l-207 -214h-205zM639 1748l-51 122l446 240l155 -78l-47 -169z" />
    <glyph glyph-name="uni1E79" unicode="&#x1e79;" horiz-adv-x="1350" 
d="M361 0l-266 265v797h442v-797h197v-132l-128 -133h-245zM804 0v1062h442v-1062h-442zM671 1181l-108 150h-67l-138 -114l-87 87l195 214h283l108 -151h67l138 115l87 -87l-195 -214h-283zM523 1515l-98 138l486 316l184 -85l-54 -211z" />
    <glyph glyph-name="uni1E7A" unicode="&#x1e7a;" horiz-adv-x="1494" 
d="M782 0v265h164v1062h442v-1062l-265 -265h-341zM372 0l-266 265v1062h443v-1062h163v-265h-340zM382 1453v170h729v-170h-729zM844 1693v221h336v-221h-336zM314 1693v221h336v-221h-336z" />
    <glyph glyph-name="uni1E7B" unicode="&#x1e7b;" horiz-adv-x="1350" 
d="M361 0l-266 265v797h442v-797h197v-132l-128 -133h-245zM804 0v1062h442v-1062h-442zM286 1203v197h769v-197h-769zM766 1508v281h336v-281h-336zM236 1508v281h336v-281h-336z" />
    <glyph glyph-name="Wgrave" unicode="&#x1e80;" horiz-adv-x="1928" 
d="M371 0l-397 1327h440l195 -729l133 557l173 -630l-143 -525h-401zM1125 0l-364 1327h446l340 -1327h-422zM1594 69l-180 707l137 551h403zM1117 1405l-502 115l-47 169l155 78l446 -240z" />
    <glyph glyph-name="wgrave" unicode="&#x1e81;" horiz-adv-x="1846" 
d="M367 0l-381 1062h422l173 -553l123 383l159 -489l-126 -403h-370zM1068 0l-358 1062h417l342 -1062h-401zM1513 66l-186 572l119 424h414zM1153 1144l-555 167l-54 211l184 85l486 -316z" />
    <glyph glyph-name="Wacute" unicode="&#x1e82;" horiz-adv-x="1928" 
d="M371 0l-397 1327h440l195 -729l133 557l173 -630l-143 -525h-401zM1125 0l-364 1327h446l340 -1327h-422zM1594 69l-180 707l137 551h403zM900 1407l-51 122l446 240l155 -78l-47 -169z" />
    <glyph glyph-name="wacute" unicode="&#x1e83;" horiz-adv-x="1846" 
d="M367 0l-381 1062h422l173 -553l123 383l159 -489l-126 -403h-370zM1068 0l-358 1062h417l342 -1062h-401zM1513 66l-186 572l119 424h414zM734 1123l-98 138l486 316l184 -85l-54 -211z" />
    <glyph glyph-name="Wdieresis" unicode="&#x1e84;" horiz-adv-x="1928" 
d="M371 0l-397 1327h440l195 -729l133 557l173 -630l-143 -525h-401zM1125 0l-364 1327h446l340 -1327h-422zM1594 69l-180 707l137 551h403zM1106 1431v221h336v-221h-336zM576 1431v221h336v-221h-336z" />
    <glyph glyph-name="wdieresis" unicode="&#x1e85;" horiz-adv-x="1846" 
d="M367 0l-381 1062h422l173 -553l123 383l159 -489l-126 -403h-370zM1068 0l-358 1062h417l342 -1062h-401zM1513 66l-186 572l119 424h414zM1016 1198v281h336v-281h-336zM486 1198v281h336v-281h-336z" />
    <glyph glyph-name="uni1E8E" unicode="&#x1e8e;" horiz-adv-x="1297" 
d="M424 0v422l-450 905h434l459 -936v-391h-443zM895 484l-215 436l218 407h425zM425 1420v282h443v-282h-443z" />
    <glyph glyph-name="uni1E8F" unicode="&#x1e8f;" horiz-adv-x="1221" 
d="M272 -370l538 1432h425l-539 -1432h-424zM378 89l-392 973h441l149 -432zM387 1194v282h443v-282h-443z" />
    <glyph glyph-name="uni1E92" unicode="&#x1e92;" horiz-adv-x="1271" 
d="M52 0v248l867 1079h300v-257l-876 -1070h-291zM79 1037v290h753l-251 -290h-502zM432 0l252 291h517v-291h-769zM414 -402v282h443v-282h-443z" />
    <glyph glyph-name="uni1E93" unicode="&#x1e93;" horiz-adv-x="1171" 
d="M90 0v257l690 805h305v-265l-699 -797h-296zM100 797v265h597l-229 -265h-368zM468 0l235 265h383v-265h-618zM364 -402v282h443v-282h-443z" />
    <glyph glyph-name="uni1E97" unicode="&#x1e97;" horiz-adv-x="931" 
d="M392 0l-266 265v532h-88v265h88v115l442 150v-1062h292v-265h-468zM638 797v265h238v-265h-238zM493 1372v281h336v-281h-336zM-37 1372v281h336v-281h-336z" />
    <glyph glyph-name="uni1E9E" unicode="&#x1e9e;" horiz-adv-x="1495" 
d="M729 0v265h228v283h-190v231l190 283h-338v265h699v-265l-241 -316l331 -220v-261l-266 -265h-413zM106 0v1062l266 265h177v-1327h-443z" />
    <glyph glyph-name="uni1EA0" unicode="&#x1ea0;" horiz-adv-x="1500" 
d="M1044 0l-56 145h-434l92 263h240l-355 919h431l529 -1327h-447zM9 0l474 1267l196 -527l-243 -740h-427zM528 -402v282h443v-282h-443z" />
    <glyph glyph-name="uni1EA1" unicode="&#x1ea1;" horiz-adv-x="1331" 
d="M804 0v797h-629v132l133 133h663l265 -265v-797h-432zM264 0l-178 175v266l178 177h470v-184h-228v-186h228v-117l-132 -131h-338zM444 -402v282h443v-282h-443z" />
    <glyph glyph-name="uni1EA2" unicode="&#x1ea2;" horiz-adv-x="1500" 
d="M1044 0l-56 145h-434l92 263h240l-355 919h431l529 -1327h-447zM9 0l474 1267l196 -527l-243 -740h-427zM777 1379v163h-285v282h312l175 -200v-245h-202z" />
    <glyph glyph-name="uni1EA3" unicode="&#x1ea3;" horiz-adv-x="1331" 
d="M804 0v797h-629v132l133 133h663l265 -265v-797h-432zM264 0l-178 175v266l178 177h470v-184h-228v-186h228v-117l-132 -131h-338zM696 1147v163h-285v282h312l175 -200v-245h-202z" />
    <glyph glyph-name="uni1EA4" unicode="&#x1ea4;" horiz-adv-x="1500" 
d="M1044 0l-56 145h-434l92 263h240l-355 919h431l529 -1327h-447zM9 0l474 1267l196 -527l-243 -740h-427zM1021 1636l-80 109l374 276l149 -69l-44 -171zM455 1389l-77 79l242 274h248l242 -274l-76 -79l-290 172z" />
    <glyph glyph-name="uni1EA5" unicode="&#x1ea5;" horiz-adv-x="1331" 
d="M804 0v797h-629v132l133 133h663l265 -265v-797h-432zM264 0l-178 175v266l178 177h470v-184h-228v-186h228v-117l-132 -131h-338zM990 1387l-80 109l374 276l149 -69l-44 -171zM377 1143l-77 79l242 274h248l242 -274l-76 -79l-290 172z" />
    <glyph glyph-name="uni1EA6" unicode="&#x1ea6;" horiz-adv-x="1500" 
d="M1044 0l-56 145h-434l92 263h240l-355 919h431l529 -1327h-447zM9 0l474 1267l196 -527l-243 -740h-427zM438 1633l-399 145l-44 171l149 69l374 -276zM453 1389l-77 79l242 274h248l242 -274l-76 -79l-290 172z" />
    <glyph glyph-name="uni1EA7" unicode="&#x1ea7;" horiz-adv-x="1331" 
d="M804 0v797h-629v132l133 133h663l265 -265v-797h-432zM264 0l-178 175v266l178 177h470v-184h-228v-186h228v-117l-132 -131h-338zM315 1390l-399 145l-44 171l149 69l374 -276zM377 1143l-77 79l242 274h248l242 -274l-76 -79l-290 172z" />
    <glyph glyph-name="uni1EA8" unicode="&#x1ea8;" horiz-adv-x="1500" 
d="M1044 0l-56 145h-434l92 263h240l-355 919h431l529 -1327h-447zM9 0l474 1267l196 -527l-243 -740h-427zM671 1779v116h-238v185h290l116 -116v-185h-168zM453 1389l-77 79l242 274h248l242 -274l-76 -79l-290 172z" />
    <glyph glyph-name="uni1EA9" unicode="&#x1ea9;" horiz-adv-x="1331" 
d="M804 0v797h-629v132l133 133h663l265 -265v-797h-432zM264 0l-178 175v266l178 177h470v-184h-228v-186h228v-117l-132 -131h-338zM595 1558v116h-238v185h300l106 -116v-185h-168zM377 1143l-77 79l242 274h248l242 -274l-76 -79l-290 172z" />
    <glyph glyph-name="uni1EAA" unicode="&#x1eaa;" horiz-adv-x="1500" 
d="M1044 0l-56 145h-434l92 263h240l-355 919h431l529 -1327h-447zM9 0l474 1267l196 -527l-243 -740h-427zM703 1794l-87 120h-53l-111 -91l-69 70l156 171h227l86 -121h54l110 93l70 -70l-156 -172h-227zM453 1389l-77 79l242 274h248l242 -274l-76 -79l-290 172z" />
    <glyph glyph-name="uni1EAB" unicode="&#x1eab;" horiz-adv-x="1331" 
d="M804 0v797h-629v132l133 133h663l265 -265v-797h-432zM264 0l-178 175v266l178 177h470v-184h-228v-186h228v-117l-132 -131h-338zM627 1553l-87 120h-53l-111 -91l-69 70l156 171h227l86 -121h54l110 93l70 -70l-156 -172h-227zM377 1143l-77 79l242 274h248l242 -274
l-76 -79l-290 172z" />
    <glyph glyph-name="uni1EAC" unicode="&#x1eac;" horiz-adv-x="1500" 
d="M1044 0l-56 145h-434l92 263h240l-355 919h431l529 -1327h-447zM9 0l474 1267l196 -527l-243 -740h-427zM528 -402v282h443v-282h-443zM446 1393l-77 80l256 259h252l254 -260l-76 -79l-303 159z" />
    <glyph glyph-name="uni1EAD" unicode="&#x1ead;" horiz-adv-x="1331" 
d="M804 0v797h-629v132l133 133h663l265 -265v-797h-432zM264 0l-178 175v266l178 177h470v-184h-228v-186h228v-117l-132 -131h-338zM444 -402v282h443v-282h-443zM313 1112l-94 97l295 335h304l295 -335l-93 -97l-354 210z" />
    <glyph glyph-name="uni1EAE" unicode="&#x1eae;" horiz-adv-x="1500" 
d="M1044 0l-56 145h-434l92 263h240l-355 919h431l529 -1327h-447zM9 0l474 1267l196 -527l-243 -740h-427zM720 1847l-80 109l374 276l149 -69l-44 -171zM577 1462l-136 134l-52 216l129 36l76 -170h303l76 170l129 -36l-52 -216l-136 -134h-337z" />
    <glyph glyph-name="uni1EAF" unicode="&#x1eaf;" horiz-adv-x="1331" 
d="M804 0v797h-629v132l133 133h663l265 -265v-797h-432zM264 0l-178 175v266l178 177h470v-184h-228v-186h228v-117l-132 -131h-338zM640 1540l-80 109l374 276l149 -69l-44 -171zM497 1155l-136 134l-52 216l129 36l76 -170h303l76 170l129 -36l-52 -216l-136 -134h-337z
" />
    <glyph glyph-name="uni1EB0" unicode="&#x1eb0;" horiz-adv-x="1500" 
d="M1044 0l-56 145h-434l92 263h240l-355 919h431l529 -1327h-447zM9 0l474 1267l196 -527l-243 -740h-427zM803 1847l-399 145l-44 171l149 69l374 -276zM577 1462l-136 134l-52 216l129 36l76 -170h303l76 170l129 -36l-52 -216l-136 -134h-337z" />
    <glyph glyph-name="uni1EB1" unicode="&#x1eb1;" horiz-adv-x="1331" 
d="M804 0v797h-629v132l133 133h663l265 -265v-797h-432zM264 0l-178 175v266l178 177h470v-184h-228v-186h228v-117l-132 -131h-338zM723 1540l-399 145l-44 171l149 69l374 -276zM497 1155l-136 134l-52 216l129 36l76 -170h303l76 170l129 -36l-52 -216l-136 -134h-337z
" />
    <glyph glyph-name="uni1EB2" unicode="&#x1eb2;" horiz-adv-x="1500" 
d="M1044 0l-56 145h-434l92 263h240l-355 919h431l529 -1327h-447zM9 0l474 1267l196 -527l-243 -740h-427zM672 1845v136h-238v235h260l146 -166v-205h-168zM577 1462l-136 134l-52 216l129 36l76 -170h303l76 170l129 -36l-52 -216l-136 -134h-337z" />
    <glyph glyph-name="uni1EB3" unicode="&#x1eb3;" horiz-adv-x="1331" 
d="M804 0v797h-629v132l133 133h663l265 -265v-797h-432zM264 0l-178 175v266l178 177h470v-184h-228v-186h228v-117l-132 -131h-338zM592 1538v136h-238v235h260l146 -166v-205h-168zM497 1155l-136 134l-52 216l129 36l76 -170h303l76 170l129 -36l-52 -216l-136 -134
h-337z" />
    <glyph glyph-name="uni1EB4" unicode="&#x1eb4;" horiz-adv-x="1500" 
d="M1044 0l-56 145h-434l92 263h240l-355 919h431l529 -1327h-447zM9 0l474 1267l196 -527l-243 -740h-427zM704 1860l-87 120h-53l-111 -91l-69 70l156 171h227l86 -121h54l110 93l70 -70l-156 -172h-227zM577 1422l-136 134l-52 216l129 36l76 -170h303l76 170l129 -36
l-52 -216l-136 -134h-337z" />
    <glyph glyph-name="uni1EB5" unicode="&#x1eb5;" horiz-adv-x="1331" 
d="M804 0v797h-629v132l133 133h663l265 -265v-797h-432zM264 0l-178 175v266l178 177h470v-184h-228v-186h228v-117l-132 -131h-338zM624 1593l-87 120h-53l-111 -91l-69 70l156 171h227l86 -121h54l110 93l70 -70l-156 -172h-227zM497 1155l-136 134l-52 216l129 36
l76 -170h303l76 170l129 -36l-52 -216l-136 -134h-337z" />
    <glyph glyph-name="uni1EB6" unicode="&#x1eb6;" horiz-adv-x="1500" 
d="M1044 0l-56 145h-434l92 263h240l-355 919h431l529 -1327h-447zM9 0l474 1267l196 -527l-243 -740h-427zM528 -402v282h443v-282h-443zM564 1403l-146 144l-56 231l138 39l82 -182h325l82 182l138 -39l-56 -231l-146 -144h-361z" />
    <glyph glyph-name="uni1EB7" unicode="&#x1eb7;" horiz-adv-x="1331" 
d="M804 0v797h-629v132l133 133h663l265 -265v-797h-432zM264 0l-178 175v266l178 177h470v-184h-228v-186h228v-117l-132 -131h-338zM444 -402v282h443v-282h-443zM485 1155l-146 144l-56 231l138 39l82 -182h325l82 182l138 -39l-56 -231l-146 -144h-361z" />
    <glyph glyph-name="uni1EB8" unicode="&#x1eb8;" horiz-adv-x="1415" 
d="M117 0v1327h442v-526h423v-256h-423v-545h-442zM904 943v127h-275v257h691v-384h-416zM629 0v265h249v133h442v-398h-691zM486 -402v282h443v-282h-443z" />
    <glyph glyph-name="uni1EB9" unicode="&#x1eb9;" horiz-adv-x="1331" 
d="M360 0l-265 265v532l265 265h177v-1062h-177zM607 426v185h233v186h-233v265h375l265 -265v-371h-640zM607 0v248h594v-115l-132 -133h-462zM444 -402v282h443v-282h-443z" />
    <glyph glyph-name="uni1EBA" unicode="&#x1eba;" horiz-adv-x="1415" 
d="M117 0v1327h442v-526h423v-256h-423v-545h-442zM904 943v127h-275v257h691v-384h-416zM629 0v265h249v133h442v-398h-691zM766 1379v163h-285v282h312l175 -200v-245h-202z" />
    <glyph glyph-name="uni1EBB" unicode="&#x1ebb;" horiz-adv-x="1331" 
d="M360 0l-265 265v532l265 265h177v-1062h-177zM607 426v185h233v186h-233v265h375l265 -265v-371h-640zM607 0v248h594v-115l-132 -133h-462zM698 1147v163h-285v282h312l175 -200v-245h-202z" />
    <glyph glyph-name="uni1EBC" unicode="&#x1ebc;" horiz-adv-x="1415" 
d="M117 0v1327h442v-526h423v-256h-423v-545h-442zM904 943v127h-275v257h691v-384h-416zM629 0v265h249v133h442v-398h-691zM753 1425l-160 116h-41l-181 -106l-64 78l207 214h205l160 -117h41l181 107l64 -78l-207 -214h-205z" />
    <glyph glyph-name="uni1EBD" unicode="&#x1ebd;" horiz-adv-x="1331" 
d="M360 0l-265 265v532l265 265h177v-1062h-177zM607 426v185h233v186h-233v265h375l265 -265v-371h-640zM607 0v248h594v-115l-132 -133h-462zM669 1181l-108 150h-67l-138 -114l-87 87l195 214h283l108 -151h67l138 115l87 -87l-195 -214h-283z" />
    <glyph glyph-name="uni1EBE" unicode="&#x1ebe;" horiz-adv-x="1415" 
d="M117 0v1327h442v-526h423v-256h-423v-545h-442zM904 943v127h-275v257h691v-384h-416zM629 0v265h249v133h442v-398h-691zM1010 1636l-80 109l374 276l149 -69l-44 -171zM444 1389l-77 79l242 274h248l242 -274l-76 -79l-290 172z" />
    <glyph glyph-name="uni1EBF" unicode="&#x1ebf;" horiz-adv-x="1331" 
d="M360 0l-265 265v532l265 265h177v-1062h-177zM607 426v185h233v186h-233v265h375l265 -265v-371h-640zM607 0v248h594v-115l-132 -133h-462zM992 1387l-80 109l374 276l149 -69l-44 -171zM379 1143l-77 79l242 274h248l242 -274l-76 -79l-290 172z" />
    <glyph glyph-name="uni1EC0" unicode="&#x1ec0;" horiz-adv-x="1415" 
d="M117 0v1327h442v-526h423v-256h-423v-545h-442zM904 943v127h-275v257h691v-384h-416zM629 0v265h249v133h442v-398h-691zM427 1633l-399 145l-44 171l149 69l374 -276zM442 1389l-77 79l242 274h248l242 -274l-76 -79l-290 172z" />
    <glyph glyph-name="uni1EC1" unicode="&#x1ec1;" horiz-adv-x="1331" 
d="M360 0l-265 265v532l265 265h177v-1062h-177zM607 426v185h233v186h-233v265h375l265 -265v-371h-640zM607 0v248h594v-115l-132 -133h-462zM317 1390l-399 145l-44 171l149 69l374 -276zM379 1143l-77 79l242 274h248l242 -274l-76 -79l-290 172z" />
    <glyph glyph-name="uni1EC2" unicode="&#x1ec2;" horiz-adv-x="1415" 
d="M117 0v1327h442v-526h423v-256h-423v-545h-442zM904 943v127h-275v257h691v-384h-416zM629 0v265h249v133h442v-398h-691zM660 1779v116h-238v185h290l116 -116v-185h-168zM442 1389l-77 79l242 274h248l242 -274l-76 -79l-290 172z" />
    <glyph glyph-name="uni1EC3" unicode="&#x1ec3;" horiz-adv-x="1331" 
d="M360 0l-265 265v532l265 265h177v-1062h-177zM607 426v185h233v186h-233v265h375l265 -265v-371h-640zM607 0v248h594v-115l-132 -133h-462zM597 1558v116h-238v185h300l106 -116v-185h-168zM379 1143l-77 79l242 274h248l242 -274l-76 -79l-290 172z" />
    <glyph glyph-name="uni1EC4" unicode="&#x1ec4;" horiz-adv-x="1415" 
d="M117 0v1327h442v-526h423v-256h-423v-545h-442zM904 943v127h-275v257h691v-384h-416zM629 0v265h249v133h442v-398h-691zM692 1794l-87 120h-53l-111 -91l-69 70l156 171h227l86 -121h54l110 93l70 -70l-156 -172h-227zM442 1389l-77 79l242 274h248l242 -274l-76 -79
l-290 172z" />
    <glyph glyph-name="uni1EC5" unicode="&#x1ec5;" horiz-adv-x="1331" 
d="M360 0l-265 265v532l265 265h177v-1062h-177zM607 426v185h233v186h-233v265h375l265 -265v-371h-640zM607 0v248h594v-115l-132 -133h-462zM629 1553l-87 120h-53l-111 -91l-69 70l156 171h227l86 -121h54l110 93l70 -70l-156 -172h-227zM379 1143l-77 79l242 274h248
l242 -274l-76 -79l-290 172z" />
    <glyph glyph-name="uni1EC6" unicode="&#x1ec6;" horiz-adv-x="1415" 
d="M117 0v1327h442v-526h423v-256h-423v-545h-442zM904 943v127h-275v257h691v-384h-416zM629 0v265h249v133h442v-398h-691zM486 -402v282h443v-282h-443zM435 1393l-77 80l256 259h252l254 -260l-76 -79l-303 159z" />
    <glyph glyph-name="uni1EC7" unicode="&#x1ec7;" horiz-adv-x="1331" 
d="M360 0l-265 265v532l265 265h177v-1062h-177zM607 426v185h233v186h-233v265h375l265 -265v-371h-640zM607 0v248h594v-115l-132 -133h-462zM444 -402v282h443v-282h-443zM315 1112l-94 97l295 335h304l295 -335l-93 -97l-354 210z" />
    <glyph glyph-name="uni1EC8" unicode="&#x1ec8;" horiz-adv-x="902" 
d="M97 0v283h133v762h-133v282h708v-282h-133v-762h133v-283h-708zM482 1378v163h-285v282h312l175 -200v-245h-202z" />
    <glyph glyph-name="uni1EC9" unicode="&#x1ec9;" horiz-adv-x="653" 
d="M105 0v1062h443v-1062h-443zM357 1147v163h-285v282h312l175 -200v-245h-202z" />
    <glyph glyph-name="uni1ECA" unicode="&#x1eca;" horiz-adv-x="902" 
d="M97 0v283h133v762h-133v282h708v-282h-133v-762h133v-283h-708zM229 -402v282h443v-282h-443z" />
    <glyph glyph-name="uni1ECB" unicode="&#x1ecb;" horiz-adv-x="653" 
d="M105 1194v282h443v-282h-443zM105 0v1062h443v-1062h-443zM105 -402v282h443v-282h-443z" />
    <glyph glyph-name="uni1ECC" unicode="&#x1ecc;" horiz-adv-x="1463" 
d="M765 0v270h169v788h-169v269h343l268 -265v-797l-268 -265h-343zM355 0l-269 265v797l269 265h340v-269h-166v-788h166v-270h-340zM510 -402v282h443v-282h-443z" />
    <glyph glyph-name="uni1ECD" unicode="&#x1ecd;" horiz-adv-x="1383" 
d="M360 0l-265 265v532l265 265h297v-265h-115v-549h115v-248h-297zM727 0v248h110v549h-110v265h296l265 -265v-532l-265 -265h-296zM470 -402v282h443v-282h-443z" />
    <glyph glyph-name="uni1ECE" unicode="&#x1ece;" horiz-adv-x="1463" 
d="M765 0v270h169v788h-169v269h343l268 -265v-797l-268 -265h-343zM355 0l-269 265v797l269 265h340v-269h-166v-788h166v-270h-340zM762 1379v163h-285v282h312l175 -200v-245h-202z" />
    <glyph glyph-name="uni1ECF" unicode="&#x1ecf;" horiz-adv-x="1383" 
d="M360 0l-265 265v532l265 265h297v-265h-115v-549h115v-248h-297zM727 0v248h110v549h-110v265h296l265 -265v-532l-265 -265h-296zM708 1147v163h-285v282h312l175 -200v-245h-202z" />
    <glyph glyph-name="uni1ED0" unicode="&#x1ed0;" horiz-adv-x="1463" 
d="M765 0v270h169v788h-169v269h343l268 -265v-797l-268 -265h-343zM355 0l-269 265v797l269 265h340v-269h-166v-788h166v-270h-340zM1006 1636l-80 109l374 276l149 -69l-44 -171zM440 1389l-77 79l242 274h248l242 -274l-76 -79l-290 172z" />
    <glyph glyph-name="uni1ED1" unicode="&#x1ed1;" horiz-adv-x="1383" 
d="M360 0l-265 265v532l265 265h297v-265h-115v-549h115v-248h-297zM727 0v248h110v549h-110v265h296l265 -265v-532l-265 -265h-296zM1002 1387l-80 109l374 276l149 -69l-44 -171zM389 1143l-77 79l242 274h248l242 -274l-76 -79l-290 172z" />
    <glyph glyph-name="uni1ED2" unicode="&#x1ed2;" horiz-adv-x="1463" 
d="M765 0v270h169v788h-169v269h343l268 -265v-797l-268 -265h-343zM355 0l-269 265v797l269 265h340v-269h-166v-788h166v-270h-340zM423 1633l-399 145l-44 171l149 69l374 -276zM438 1389l-77 79l242 274h248l242 -274l-76 -79l-290 172z" />
    <glyph glyph-name="uni1ED3" unicode="&#x1ed3;" horiz-adv-x="1383" 
d="M360 0l-265 265v532l265 265h297v-265h-115v-549h115v-248h-297zM727 0v248h110v549h-110v265h296l265 -265v-532l-265 -265h-296zM327 1390l-399 145l-44 171l149 69l374 -276zM389 1143l-77 79l242 274h248l242 -274l-76 -79l-290 172z" />
    <glyph glyph-name="uni1ED4" unicode="&#x1ed4;" horiz-adv-x="1463" 
d="M765 0v270h169v788h-169v269h343l268 -265v-797l-268 -265h-343zM355 0l-269 265v797l269 265h340v-269h-166v-788h166v-270h-340zM656 1779v116h-238v185h290l116 -116v-185h-168zM438 1389l-77 79l242 274h248l242 -274l-76 -79l-290 172z" />
    <glyph glyph-name="uni1ED5" unicode="&#x1ed5;" horiz-adv-x="1383" 
d="M360 0l-265 265v532l265 265h297v-265h-115v-549h115v-248h-297zM727 0v248h110v549h-110v265h296l265 -265v-532l-265 -265h-296zM607 1558v116h-238v185h300l106 -116v-185h-168zM389 1143l-77 79l242 274h248l242 -274l-76 -79l-290 172z" />
    <glyph glyph-name="uni1ED6" unicode="&#x1ed6;" horiz-adv-x="1463" 
d="M765 0v270h169v788h-169v269h343l268 -265v-797l-268 -265h-343zM355 0l-269 265v797l269 265h340v-269h-166v-788h166v-270h-340zM688 1794l-87 120h-53l-111 -91l-69 70l156 171h227l86 -121h54l110 93l70 -70l-156 -172h-227zM438 1389l-77 79l242 274h248l242 -274
l-76 -79l-290 172z" />
    <glyph glyph-name="uni1ED7" unicode="&#x1ed7;" horiz-adv-x="1383" 
d="M360 0l-265 265v532l265 265h297v-265h-115v-549h115v-248h-297zM727 0v248h110v549h-110v265h296l265 -265v-532l-265 -265h-296zM639 1553l-87 120h-53l-111 -91l-69 70l156 171h227l86 -121h54l110 93l70 -70l-156 -172h-227zM389 1143l-77 79l242 274h248l242 -274
l-76 -79l-290 172z" />
    <glyph glyph-name="uni1ED8" unicode="&#x1ed8;" horiz-adv-x="1463" 
d="M765 0v270h169v788h-169v269h343l268 -265v-797l-268 -265h-343zM355 0l-269 265v797l269 265h340v-269h-166v-788h166v-270h-340zM510 -402v282h443v-282h-443zM431 1393l-77 80l256 259h252l254 -260l-76 -79l-303 159z" />
    <glyph glyph-name="uni1ED9" unicode="&#x1ed9;" horiz-adv-x="1383" 
d="M360 0l-265 265v532l265 265h297v-265h-115v-549h115v-248h-297zM727 0v248h110v549h-110v265h296l265 -265v-532l-265 -265h-296zM470 -402v282h443v-282h-443zM325 1112l-94 97l295 335h304l295 -335l-93 -97l-354 210z" />
    <glyph glyph-name="uni1EDA" unicode="&#x1eda;" horiz-adv-x="1463" 
d="M765 0v270h169v788h-169v269h455v285h282v-312l-195 -170l69 -68v-797l-268 -265h-343zM355 0l-269 265v797l269 265h340v-269h-166v-788h166v-270h-340zM544 1430l-98 138l486 316l184 -85l-54 -211z" />
    <glyph glyph-name="uni1EDB" unicode="&#x1edb;" horiz-adv-x="1383" 
d="M727 0v248h110v549h-110v265h607v285h282v-312l-200 -175h-191l63 -63v-532l-265 -265h-296zM360 0l-265 265v532l265 265h297v-265h-115v-549h115v-248h-297zM504 1123l-98 138l486 316l184 -85l-54 -211z" />
    <glyph glyph-name="uni1EDC" unicode="&#x1edc;" horiz-adv-x="1463" 
d="M765 0v270h169v788h-169v269h455v285h282v-312l-195 -170l69 -68v-797l-268 -265h-343zM355 0l-269 265v797l269 265h340v-269h-166v-788h166v-270h-340zM963 1451l-555 167l-54 211l184 85l486 -316z" />
    <glyph glyph-name="uni1EDD" unicode="&#x1edd;" horiz-adv-x="1383" 
d="M727 0v248h110v549h-110v265h607v285h282v-312l-200 -175h-191l63 -63v-532l-265 -265h-296zM360 0l-265 265v532l265 265h297v-265h-115v-549h115v-248h-297zM923 1144l-555 167l-54 211l184 85l486 -316z" />
    <glyph glyph-name="uni1EDE" unicode="&#x1ede;" horiz-adv-x="1463" 
d="M765 0v270h169v788h-169v269h455v285h282v-312l-195 -170l69 -68v-797l-268 -265h-343zM355 0l-269 265v797l269 265h340v-269h-166v-788h166v-270h-340zM762 1379v163h-285v282h312l175 -200v-245h-202z" />
    <glyph glyph-name="uni1EDF" unicode="&#x1edf;" horiz-adv-x="1383" 
d="M727 0v248h110v549h-110v265h607v285h282v-312l-200 -175h-191l63 -63v-532l-265 -265h-296zM360 0l-265 265v532l265 265h297v-265h-115v-549h115v-248h-297zM721 1147v163h-285v282h312l175 -200v-245h-202z" />
    <glyph glyph-name="uni1EE0" unicode="&#x1ee0;" horiz-adv-x="1463" 
d="M765 0v270h169v788h-169v269h455v285h282v-312l-195 -170l69 -68v-797l-268 -265h-343zM355 0l-269 265v797l269 265h340v-269h-166v-788h166v-270h-340zM732 1488l-108 150h-67l-138 -114l-87 87l195 214h283l108 -151h67l138 115l87 -87l-195 -214h-283z" />
    <glyph glyph-name="uni1EE1" unicode="&#x1ee1;" horiz-adv-x="1383" 
d="M727 0v248h110v549h-110v265h607v285h282v-312l-200 -175h-191l63 -63v-532l-265 -265h-296zM360 0l-265 265v532l265 265h297v-265h-115v-549h115v-248h-297zM692 1181l-108 150h-67l-138 -114l-87 87l195 214h283l108 -151h67l138 115l87 -87l-195 -214h-283z" />
    <glyph glyph-name="uni1EE2" unicode="&#x1ee2;" horiz-adv-x="1463" 
d="M765 0v270h169v788h-169v269h455v285h282v-312l-195 -170l69 -68v-797l-268 -265h-343zM355 0l-269 265v797l269 265h340v-269h-166v-788h166v-270h-340zM510 -402v282h443v-282h-443z" />
    <glyph glyph-name="uni1EE3" unicode="&#x1ee3;" horiz-adv-x="1383" 
d="M727 0v248h110v549h-110v265h607v285h282v-312l-200 -175h-191l63 -63v-532l-265 -265h-296zM360 0l-265 265v532l265 265h297v-265h-115v-549h115v-248h-297zM470 -402v282h443v-282h-443z" />
    <glyph glyph-name="uni1EE4" unicode="&#x1ee4;" horiz-adv-x="1494" 
d="M782 0v265h164v1062h442v-1062l-265 -265h-341zM372 0l-266 265v1062h443v-1062h163v-265h-340zM526 -402v282h443v-282h-443z" />
    <glyph glyph-name="uni1EE5" unicode="&#x1ee5;" horiz-adv-x="1350" 
d="M361 0l-266 265v797h442v-797h197v-132l-128 -133h-245zM804 0v1062h442v-1062h-442zM453 -402v282h443v-282h-443z" />
    <glyph glyph-name="uni1EE6" unicode="&#x1ee6;" horiz-adv-x="1494" 
d="M782 0v265h164v1062h442v-1062l-265 -265h-341zM372 0l-266 265v1062h443v-1062h163v-265h-340zM778 1378v163h-285v282h312l175 -200v-245h-202z" />
    <glyph glyph-name="uni1EE7" unicode="&#x1ee7;" horiz-adv-x="1350" 
d="M361 0l-266 265v797h442v-797h197v-132l-128 -133h-245zM804 0v1062h442v-1062h-442zM700 1147v163h-285v282h312l175 -200v-245h-202z" />
    <glyph glyph-name="uni1EE8" unicode="&#x1ee8;" horiz-adv-x="1632" 
d="M793 0v265h164v1062h493v285h282v-312l-200 -175h-133v-860l-265 -265h-341zM383 0l-266 265v1062h443v-1062h163v-265h-340zM571 1429l-98 138l486 316l184 -85l-54 -211z" />
    <glyph glyph-name="uni1EE9" unicode="&#x1ee9;" horiz-adv-x="1350" 
d="M804 0v1062h521v285h282v-312l-200 -175h-161v-860h-442zM361 0l-266 265v797h442v-797h197v-132l-128 -133h-245zM483 1123l-98 138l486 316l184 -85l-54 -211z" />
    <glyph glyph-name="uni1EEA" unicode="&#x1eea;" horiz-adv-x="1632" 
d="M793 0v265h164v1062h493v285h282v-312l-200 -175h-133v-860l-265 -265h-341zM383 0l-266 265v1062h443v-1062h163v-265h-340zM990 1450l-555 167l-54 211l184 85l486 -316z" />
    <glyph glyph-name="uni1EEB" unicode="&#x1eeb;" horiz-adv-x="1350" 
d="M804 0v1062h521v285h282v-312l-200 -175h-161v-860h-442zM361 0l-266 265v797h442v-797h197v-132l-128 -133h-245zM902 1144l-555 167l-54 211l184 85l486 -316z" />
    <glyph glyph-name="uni1EEC" unicode="&#x1eec;" horiz-adv-x="1632" 
d="M793 0v265h164v1062h493v285h282v-312l-200 -175h-133v-860l-265 -265h-341zM383 0l-266 265v1062h443v-1062h163v-265h-340zM789 1378v163h-285v282h312l175 -200v-245h-202z" />
    <glyph glyph-name="uni1EED" unicode="&#x1eed;" horiz-adv-x="1350" 
d="M804 0v1062h521v285h282v-312l-200 -175h-161v-860h-442zM361 0l-266 265v797h442v-797h197v-132l-128 -133h-245zM700 1147v163h-285v282h312l175 -200v-245h-202z" />
    <glyph glyph-name="uni1EEE" unicode="&#x1eee;" horiz-adv-x="1632" 
d="M793 0v265h164v1062h493v285h282v-312l-200 -175h-133v-860l-265 -265h-341zM383 0l-266 265v1062h443v-1062h163v-265h-340zM759 1487l-108 150h-67l-138 -114l-87 87l195 214h283l108 -151h67l138 115l87 -87l-195 -214h-283z" />
    <glyph glyph-name="uni1EEF" unicode="&#x1eef;" horiz-adv-x="1350" 
d="M804 0v1062h521v285h282v-312l-200 -175h-161v-860h-442zM361 0l-266 265v797h442v-797h197v-132l-128 -133h-245zM671 1181l-108 150h-67l-138 -114l-87 87l195 214h283l108 -151h67l138 115l87 -87l-195 -214h-283z" />
    <glyph glyph-name="uni1EF0" unicode="&#x1ef0;" horiz-adv-x="1632" 
d="M793 0v265h164v1062h493v285h282v-312l-200 -175h-133v-860l-265 -265h-341zM383 0l-266 265v1062h443v-1062h163v-265h-340zM537 -402v282h443v-282h-443z" />
    <glyph glyph-name="uni1EF1" unicode="&#x1ef1;" horiz-adv-x="1350" 
d="M804 0v1062h521v285h282v-312l-200 -175h-161v-860h-442zM361 0l-266 265v797h442v-797h197v-132l-128 -133h-245zM453 -402v282h443v-282h-443z" />
    <glyph glyph-name="Ygrave" unicode="&#x1ef2;" horiz-adv-x="1297" 
d="M424 0v422l-450 905h434l459 -936v-391h-443zM895 484l-215 436l218 407h425zM756 1404l-502 115l-47 169l155 78l446 -240z" />
    <glyph glyph-name="ygrave" unicode="&#x1ef3;" horiz-adv-x="1221" 
d="M272 -370l538 1432h425l-539 -1432h-424zM378 89l-392 973h441l149 -432zM852 1144l-555 167l-54 211l184 85l486 -316z" />
    <glyph glyph-name="uni1EF4" unicode="&#x1ef4;" horiz-adv-x="1297" 
d="M424 0v422l-450 905h434l459 -936v-391h-443zM895 484l-215 436l218 407h425zM427 -402v282h443v-282h-443z" />
    <glyph glyph-name="uni1EF5" unicode="&#x1ef5;" horiz-adv-x="1221" 
d="M272 -370l538 1432h425l-539 -1432h-424zM378 89l-392 973h441l149 -432zM836 -402v282h443v-282h-443z" />
    <glyph glyph-name="uni1EF6" unicode="&#x1ef6;" horiz-adv-x="1297" 
d="M424 0v422l-450 905h434l459 -936v-391h-443zM895 484l-215 436l218 407h425zM679 1378v163h-285v282h312l175 -200v-245h-202z" />
    <glyph glyph-name="uni1EF7" unicode="&#x1ef7;" horiz-adv-x="1221" 
d="M272 -370l538 1432h425l-539 -1432h-424zM378 89l-392 973h441l149 -432zM650 1147v163h-285v282h312l175 -200v-245h-202z" />
    <glyph glyph-name="uni1EF8" unicode="&#x1ef8;" horiz-adv-x="1297" 
d="M424 0v422l-450 905h434l459 -936v-391h-443zM895 484l-215 436l218 407h425zM666 1424l-160 116h-41l-181 -106l-64 78l207 214h205l160 -117h41l181 107l64 -78l-207 -214h-205z" />
    <glyph glyph-name="uni1EF9" unicode="&#x1ef9;" horiz-adv-x="1221" 
d="M272 -370l538 1432h425l-539 -1432h-424zM378 89l-392 973h441l149 -432zM582 1171l-108 150h-67l-138 -114l-87 87l195 214h283l108 -151h67l138 115l87 -87l-195 -214h-283z" />
    <glyph glyph-name="uni2000" unicode="&#x2000;" horiz-adv-x="1024" 
 />
    <glyph glyph-name="uni2001" unicode="&#x2001;" horiz-adv-x="2048" 
 />
    <glyph glyph-name="uni2002" unicode="&#x2002;" horiz-adv-x="1024" 
 />
    <glyph glyph-name="uni2003" unicode="&#x2003;" horiz-adv-x="2048" 
 />
    <glyph glyph-name="uni2004" unicode="&#x2004;" horiz-adv-x="682" 
 />
    <glyph glyph-name="uni2005" unicode="&#x2005;" horiz-adv-x="512" 
 />
    <glyph glyph-name="uni2006" unicode="&#x2006;" horiz-adv-x="341" 
 />
    <glyph glyph-name="uni2007" unicode="&#x2007;" horiz-adv-x="1499" 
 />
    <glyph glyph-name="uni2008" unicode="&#x2008;" horiz-adv-x="736" 
 />
    <glyph glyph-name="uni2009" unicode="&#x2009;" horiz-adv-x="256" 
 />
    <glyph glyph-name="uni200A" unicode="&#x200a;" horiz-adv-x="143" 
 />
    <glyph glyph-name="uni200B" unicode="&#x200b;" 
 />
    <glyph glyph-name="uni200C" unicode="&#x200c;" 
 />
    <glyph glyph-name="uni200D" unicode="&#x200d;" 
 />
    <glyph glyph-name="endash" unicode="&#x2013;" horiz-adv-x="1623" 
d="M186 501v239h1251v-239h-1251z" />
    <glyph glyph-name="emdash" unicode="&#x2014;" horiz-adv-x="1991" 
d="M186 501v239h1619v-239h-1619z" />
    <glyph glyph-name="quoteleft" unicode="&#x2018;" horiz-adv-x="814" 
d="M164 752v310l176 265h267l-125 -265h168v-310h-486z" />
    <glyph glyph-name="quoteright" unicode="&#x2019;" horiz-adv-x="814" 
d="M650 1327v-310l-176 -265h-267l125 265h-168v310h486z" />
    <glyph glyph-name="quotesinglbase" unicode="&#x201a;" horiz-adv-x="814" 
d="M650 310v-310l-176 -265h-267l125 265h-168v310h486z" />
    <glyph glyph-name="quotedblleft" unicode="&#x201c;" horiz-adv-x="1421" 
d="M164 752v310l176 265h267l-125 -265h168v-310h-486zM773 752v310l176 265h267l-125 -265h168v-310h-486z" />
    <glyph glyph-name="quotedblright" unicode="&#x201d;" horiz-adv-x="1418" 
d="M1254 1327v-310l-176 -265h-267l125 265h-168v310h486zM650 1327v-310l-176 -265h-267l125 265h-168v310h486z" />
    <glyph glyph-name="quotedblbase" unicode="&#x201e;" horiz-adv-x="1404" 
d="M650 310v-310l-176 -265h-267l125 265h-168v310h486zM1240 310v-310l-176 -265h-267l125 265h-168v310h486z" />
    <glyph glyph-name="dagger" unicode="&#x2020;" horiz-adv-x="1507" 
d="M708 -315l-152 744l101 393l-362 -61l-134 162l134 161l365 -64l-68 396l161 135l162 -135l-68 -396l364 63l135 -162l-135 -162l-362 62l101 -391l-151 -745h-91z" />
    <glyph glyph-name="daggerdbl" unicode="&#x2021;" horiz-adv-x="1507" 
d="M753 -315l-161 134l68 396l-365 -62l-134 161l134 162l363 -62l-101 200l97 206l-359 -60l-134 162l134 161l365 -63l-68 395l161 135l162 -135l-68 -395l364 62l135 -162l-135 -161l-357 61l98 -205l-100 -201l359 60l135 -161l-135 -162l-364 64l68 -396z" />
    <glyph glyph-name="bullet" unicode="&#x2022;" horiz-adv-x="918" 
d="M326 346l-177 178v265l177 177h266l176 -177v-265l-176 -178h-266z" />
    <glyph glyph-name="ellipsis" unicode="&#x2026;" horiz-adv-x="2208" 
d="M147 0v309h442v-309h-442zM883 0v309h442v-309h-442zM1618 0v309h442v-309h-442z" />
    <glyph glyph-name="uni202F" unicode="&#x202f;" horiz-adv-x="106" 
 />
    <glyph glyph-name="perthousand" unicode="&#x2030;" horiz-adv-x="3052" 
d="M746 -196l613 1654h250l-613 -1654h-250zM364 582l-200 201v346l200 198h197v-198h-64v-349h64v-198h-197zM631 582v198h65v349h-65v198h198l200 -198v-346l-200 -201h-198zM1562 0l-199 200v347l199 197h197v-198h-64v-348h64v-198h-197zM1829 0v198h66v348h-66v198h199
l97 -95l97 95h197v-198h-64v-348h64v-198h-197l-97 97l-97 -97h-199zM2489 0v198h66v348h-66v198h199l199 -197v-347l-199 -200h-199z" />
    <glyph glyph-name="minute" unicode="&#x2032;" horiz-adv-x="773" 
d="M227 664l24 663h411l-117 -663h-318z" />
    <glyph glyph-name="second" unicode="&#x2033;" horiz-adv-x="1280" 
d="M227 664l24 663h411l-117 -663h-318zM734 664l24 663h411l-117 -663h-318z" />
    <glyph glyph-name="guilsinglleft" unicode="&#x2039;" horiz-adv-x="1090" 
d="M622 27l-420 432v154l420 432h265l-281 -509l281 -509h-265z" />
    <glyph glyph-name="guilsinglright" unicode="&#x203a;" horiz-adv-x="1090" 
d="M202 27l281 509l-281 509h265l420 -432v-154l-420 -432h-265z" />
    <glyph glyph-name="fraction" unicode="&#x2044;" horiz-adv-x="729" 
d="M0 0l480 1327h249l-479 -1327h-250z" />
    <glyph glyph-name="uni205F" unicode="&#x205f;" horiz-adv-x="455" 
 />
    <glyph glyph-name="uni2074" unicode="&#x2074;" horiz-adv-x="1044" 
d="M535 398v929h309v-620h145v-170h-145v-139h-309zM13 537v170l455 530v-368l-158 -162h158v-170h-455z" />
    <glyph glyph-name="colonmonetary" unicode="&#x20a1;" horiz-adv-x="1200" 
d="M903 795v267h-294v414h168v-149h131v149h168v-149l269 -265v-267h-442zM363 0l-266 265v797l266 265h176v-1327h-176zM609 -179v444h294v194h442v-194l-269 -265v-179h-168v179h-131v-179h-168z" />
    <glyph glyph-name="lira" unicode="&#x20a4;" horiz-adv-x="1743" 
d="M230 0v264h177v145h-169v132h169v136h-169v132h169v342l265 265h177v-607h213v-132h-213v-136h213v-132h-213v-409h-619zM1105 1020v131h-188v265h322l265 -265v-131h-399zM917 0v264h596v-264h-596z" />
    <glyph glyph-name="uni20A6" unicode="&#x20a6;" horiz-adv-x="1962" 
d="M1147 0l-804 1327h467l807 -1327h-470zM1617 126l-385 634v567h385v-484h150l-34 -265h-116v-452zM343 0v578h-148l37 265h111v358l385 -631v-570h-385z" />
    <glyph glyph-name="peseta" unicode="&#x20a7;" horiz-adv-x="1971" 
d="M845 341v266h321v455h-321v265h496l265 -265v-86h170l-34 -265h-136v-104l-265 -266h-496zM341 0v711h-146l37 265h109v351h434v-1327h-434z" />
    <glyph glyph-name="uni20A8" unicode="&#x20a8;" horiz-adv-x="2777" 
d="M629 398v257h332v407h-332v265h505l266 -265v-398l-206 -206l251 -458h-472l-188 398h-156zM117 0v1327h442v-1327h-442zM2266 0v401h-478l-230 221v202l239 238h177v-375h504l230 -232v-207l-247 -248h-195zM2266 784v83h-222v195h470l158 -158v-120h-406zM1741 0
l-184 219v85h443v-109h196v-195h-455z" />
    <glyph glyph-name="uni20A9" unicode="&#x20a9;" horiz-adv-x="2429" 
d="M597 0l-213 711h-189l37 265h73l-105 351h440l195 -729l133 557l173 -630l-143 -525h-401zM1351 0l-364 1327h446l340 -1327h-422zM1820 69l-180 707l137 551h403l-100 -351h154l-34 -265h-196z" />
    <glyph glyph-name="uni20AA" unicode="&#x20aa;" horiz-adv-x="2051" 
d="M230 0v1486l891 1l227 -245v-829h-270v785h-496v-1198h-352zM703 0v1102h270v-785h496v1169h352v-1240l-239 -246h-879z" />
    <glyph glyph-name="Euro" unicode="&#x20ac;" horiz-adv-x="1846" 
d="M599 0l-265 265v209h-139v142h139v147h-122v142h122v204l265 266h177v-470h289v-142h-289v-147h262v-142h-262v-474h-177zM1174 900v209h-331v266h508l265 -266v-209h-442zM843 0v265h331v209h442v-209l-265 -265h-508z" />
    <glyph glyph-name="uni20AD" unicode="&#x20ad;" horiz-adv-x="1839" 
d="M853 188v645l310 494h460zM343 0v578h-148l37 265h111v484h442v-1327h-442zM1166 0l-150 309l356 534h180l-34 -265l-165 -20l291 -558h-478z" />
    <glyph glyph-name="uni20B1" unicode="&#x20b1;" horiz-adv-x="1458" 
d="M115 0v571h-129v132h129v136h-129v132h129v356h434v-356h391v91h-321v265h496l265 -265v-91h123v-132h-123v-136h123v-132h-123v-92l-265 -266h-496v266h321v92h-391v-571h-434zM549 703h391v136h-391v-136z" />
    <glyph glyph-name="uni20B4" unicode="&#x20b4;" horiz-adv-x="1477" 
d="M362 0l-265 265v193h-111v132h111l131 136h-242v132h978v469h150l266 -265v-204h123v-132h-160l-136 -136h296v-132h-963v-458h-178zM133 955v141l230 231h531v-239h-354v-133h-407zM610 0v240h328v128h442v-103l-223 -265h-547z" />
    <glyph glyph-name="uni20B5" unicode="&#x20b5;" horiz-adv-x="1440" 
d="M903 795v267h-294v414h298v-149h173l265 -265v-267h-442zM363 0l-266 265v797l266 265h176v-1327h-176zM609 -179v444h294v194h442v-194l-265 -265h-173v-179h-298z" />
    <glyph glyph-name="uni20B8" unicode="&#x20b8;" horiz-adv-x="1256" 
d="M52 1038v289h1152v-289h-1152zM52 668v289h1152v-289h-1152zM398 0v599h460v-599h-460z" />
    <glyph glyph-name="uni20B9" unicode="&#x20b9;" horiz-adv-x="1442" 
d="M569 0l-174 298h-170v257h332v138h-362l37 265h325v104h-332v265h1022l-34 -265h-217v-104h205l-34 -265h-171v-59l-202 -266l247 -368h-472z" />
    <glyph glyph-name="uni20BA" unicode="&#x20ba;" horiz-adv-x="1200" 
d="M106 0v438l-146 -70v132l146 70v136l-146 -70v132l146 70v489h442v-276l236 114v-132l-236 -114v-136l236 114v-132l-236 -114v-386h124v-265h-566zM742 0v265h163v295h443v-295l-266 -265h-340z" />
    <glyph glyph-name="uni20BC" unicode="&#x20bc;" horiz-adv-x="1495" 
d="M106 0v1062l265 265h262v263h235v-263h254l266 -265v-1062h-403v1062h-125v-1062h-227v1062h-125v-1062h-402z" />
    <glyph glyph-name="uni20BD" unicode="&#x20bd;" horiz-adv-x="1200" 
d="M619 531v266h321v265h-321v265h496l265 -265v-265l-265 -266h-496zM115 0v151h-146l37 265h109v115h-146l37 265h109v531h434v-1327h-434z" />
    <glyph glyph-name="uni2116" unicode="&#x2116;" horiz-adv-x="2879" 
d="M921 0l-804 1327h467l807 -1327h-470zM1391 126l-385 634v567h385v-1201zM1856 415l-265 265v382l265 265h297v-265h-115v-399h115v-248h-297zM2223 415v248h110v399h-110v265h296l265 -265v-382l-265 -265h-296zM117 0v1201l385 -631v-570h-385zM1856 -3v239h663v-239
h-663z" />
    <glyph glyph-name="trademark" unicode="&#x2122;" horiz-adv-x="1507" 
d="M1000 737l-349 590h208l160 -265l88 153v-297zM98 1181v146h474l88 -146h-562zM1174 737v590h196v-590h-196zM273 737v383h204v-383h-204zM651 737v383h45l139 -227v-156h-184z" />
    <glyph glyph-name="uni2126" unicode="&#x2126;" horiz-adv-x="1463" 
d="M817 0v400l116 120v542h-166v265h340l269 -265v-547l-269 -265h267v-250h-557zM88 0v250h267l-269 265v547l269 265h340v-265h-166v-542l116 -120v-400h-557z" />
    <glyph glyph-name="uni2154" unicode="&#x2154;" horiz-adv-x="2705" 
d="M1043 0l479 1327h250l-479 -1327h-250zM186 398v340l186 186h384v403h124l203 -186v-217l-185 -186h-385v-340h-327zM186 1047v94l186 186h314v-186h-190v-94h-310zM1657 649v94l186 186h333v-186h-209v-94h-310zM2243 0v374h-306v184h306v371h127l186 -182v-189l-92 -95
l92 -89v-190l-186 -184h-127zM574 398v186h527v-186h-527zM1843 0l-186 184v95h310v-95h209v-184h-333z" />
    <glyph glyph-name="partialdiff" unicode="&#x2202;" horiz-adv-x="1353" 
d="M707 0v265h109v937h-109v265h285l266 -265v-937l-266 -265h-285zM111 1095v107l265 265h261v-265h-124v-107h-402zM356 0l-265 265v426l260 243h393v-248h-208v-421h101v-265h-281z" />
    <glyph glyph-name="emptyset" unicode="&#x2205;" horiz-adv-x="1377" 
d="M228 -112l-86 69l150 187q-78 77 -123.5 181.5t-45.5 223.5q0 117 44 220t121.5 181t180 122t220.5 44q86 0 165 -24.5t145 -68.5l148 184l88 -69l-149 -185q78 -77 123 -181t45 -223q0 -118 -44 -221t-121.5 -181t-180 -122t-219.5 -44q-86 0 -165 24.5t-146 68.5z
M334 549q0 -70 22.5 -133t63.5 -114l456 568q-85 56 -187 56q-101 0 -181.5 -52t-127 -138t-46.5 -187zM689 171q101 0 181 52t126.5 138.5t46.5 187.5q0 69 -22.5 132t-62.5 113l-457 -567q86 -56 188 -56z" />
    <glyph glyph-name="product" unicode="&#x220f;" horiz-adv-x="1463" 
d="M87 1058v269h1288v-269h-1288zM935 -169v1158h440v-1158h-440zM87 -169v1158h440v-1158h-440z" />
    <glyph glyph-name="summation" unicode="&#x2211;" horiz-adv-x="1415" 
d="M118 -173l-1 225l336 516l-336 535v224h360l395 -762l-396 -738h-358zM878 929v133h-207l-123 265h772v-398h-442zM545 -173l126 265h207v133h442v-398h-775z" />
    <glyph glyph-name="minus" unicode="&#x2212;" horiz-adv-x="1255" 
d="M186 501v239h883v-239h-883z" />
    <glyph glyph-name="uni2215" unicode="&#x2215;" horiz-adv-x="746" 
d="M-80 -196l612 1614h250l-613 -1614h-249z" />
    <glyph glyph-name="radical" unicode="&#x221a;" horiz-adv-x="1192" 
d="M848 59l-198 562l317 1145h413zM383 0l-397 1062h439l378 -1062h-420z" />
    <glyph glyph-name="infinity" unicode="&#x221e;" horiz-adv-x="2130" 
d="M1474 0v247h110v550h-197l-137 137l122 128h398l265 -265v-532l-265 -265h-296zM360 0l-265 265v532l265 265h296v-265h-110v-550h190l119 -119l-122 -128h-373zM1085 0l-247 247v550h-110v265h296l265 -265v-550h115v-247h-319z" />
    <glyph glyph-name="integral" unicode="&#x222b;" horiz-adv-x="1361" 
d="M139 -504v265h320v1862l267 248h496v-265h-320v-1862l-267 -248h-496z" />
    <glyph glyph-name="approxequal" unicode="&#x2248;" horiz-adv-x="1491" 
d="M750 717l-233 233h-108l-209 -144l-87 88l237 294h400l238 -238h103l208 149l88 -90l-234 -292h-403zM746 173l-233 233h-108l-209 -144l-87 88l237 294h400l238 -238h103l208 149l88 -90l-234 -292h-403z" />
    <glyph glyph-name="notequal" unicode="&#x2260;" horiz-adv-x="1439" 
d="M406 0l63 204h-283v238h356l98 319h-454v239h528l69 223h249l-69 -223h290v-239h-364l-98 -319h462v-238h-535l-62 -204h-250z" />
    <glyph glyph-name="lessequal" unicode="&#x2264;" horiz-adv-x="1360" 
d="M146 789v235l1067 292v-249zM1213 451l-1013 280l452 116l561 -148v-248zM146 -35v238h1067v-238h-1067z" />
    <glyph glyph-name="greaterequal" unicode="&#x2265;" horiz-adv-x="1365" 
d="M1213 789l-1067 278v249l1067 -292v-235zM146 451v248l561 148l452 -116zM1213 -35h-1067v238h1067v-238z" />
    <glyph glyph-name="lozenge" unicode="&#x25ca;" horiz-adv-x="1226" 
d="M767 125l-118 243l140 291l-297 609h234l324 -610zM499 48l-324 610l283 533l118 -243l-140 -291l297 -609h-234z" />
    <glyph glyph-name="uni2C6D" unicode="&#x2c6d;" horiz-adv-x="1486" 
d="M352 0l-266 265v797l266 265h505v-265h-328v-797h328v-265h-505zM927 0v1327h442v-1327h-442z" />
    <glyph glyph-name="uniA78B" unicode="&#xa78b;" horiz-adv-x="701" 
d="M210 283l-93 1044h468l-83 -1044h-292z" />
    <glyph glyph-name="uniA78C" unicode="&#xa78c;" horiz-adv-x="701" 
d="M210 178l-93 884h468l-83 -884h-292z" />
    <glyph glyph-name="uniF8FF" unicode="&#xf8ff;" horiz-adv-x="1613" 
d="M576 130l-302 302v458l302 304h459l304 -304v-458l-304 -302h-459zM1035 429h186v111h-113v446l-184 -64v-48h-39v-111h39v-223zM677 429h80l106 103v81l-91 93h-206v168h-83l-103 -104v-81l94 -93h203v-167zM677 736h171v61l-76 77h-178v-83h83v-55zM1136 763h85v111
h-85v-111zM473 429h178v82h-85v55h-186v-46z" />
    <glyph glyph-name="IJ_acutecomb" horiz-adv-x="1468" 
d="M117 0v265h805v1062h442v-1062l-265 -265h-982zM117 432v895h459v-895h-459zM207 1404l-51 122l446 240l155 -78l-47 -169zM967 1413l-51 122l446 240l155 -78l-47 -169z" />
    <glyph glyph-name="uni004A0301" horiz-adv-x="1369" 
d="M823 0v1038h-610v289h1052v-1062l-265 -265h-177zM318 0l-266 265v291h459v-291h242v-265h-435zM656 1406l-51 122l446 240l155 -78l-47 -169z" />
    <glyph glyph-name="i.loclTRK" horiz-adv-x="653" 
d="M105 0v1062h443v-1062h-443zM94 1194v282h443v-282h-443z" />
    <glyph glyph-name="ij_acutecomb" horiz-adv-x="1336" 
d="M266 1144l-62 147l376 316l184 -85l-54 -211zM882 1144l-62 147l376 316l184 -85l-54 -211zM107 -389v266h681v1185h442v-1185l-266 -266h-857zM345 0l-240 239v823h443v-1062h-203z" />
    <glyph glyph-name="uni006A0301" horiz-adv-x="653" 
d="M-100 -354v266h205v1150h443v-1150l-266 -266h-382zM140 1123l-98 138l486 316l184 -85l-54 -211z" />
    <glyph glyph-name="zero.tf" horiz-adv-x="1541" 
d="M618 0v265h331v1062h177l265 -265v-797l-265 -265h-508zM374 0l-266 265v797l266 265h507v-265h-331v-1062h-176z" />
    <glyph glyph-name="one.tf" horiz-adv-x="1541" 
d="M593 326v736h-331v132l132 133h681v-1001h-482zM262 0v265h1084v-265h-1084z" />
    <glyph glyph-name="two.tf" horiz-adv-x="1541" 
d="M108 0v476l283 266h523v585h177l265 -265v-328l-265 -265h-541v-469h-442zM108 895v167l266 265h470v-239h-294v-193h-442zM620 0v239h736v-239h-736z" />
    <glyph glyph-name="three.tf" horiz-adv-x="1541" 
d="M944 0v560h-308v231h308v536h177l266 -265v-261l-157 -133l157 -135v-269l-266 -264h-177zM104 851v211l265 265h505v-282h-328v-194h-442zM369 0l-265 265v205h442v-187h328v-283h-505z" />
    <glyph glyph-name="four.tf" horiz-adv-x="1541" 
d="M762 0v1327h425v-883h150v-259h-150v-185h-425zM118 185l-105 246l679 806v-525l-241 -268h241v-259h-574z" />
    <glyph glyph-name="five.tf" horiz-adv-x="1541" 
d="M107 594v733h1196v-265h-797v-468h-399zM922 0v594h-346v248h523l265 -266v-311l-265 -265h-177zM373 0l-266 265v149h443v-149h302v-265h-479z" />
    <glyph glyph-name="six.tf" horiz-adv-x="1541" 
d="M374 0l-266 265v797l266 265h343v-265h-167v-797h167v-265h-343zM949 965v97h-162v265h339l265 -265v-97h-442zM787 0v265h179v311h-348v248h513l260 -243v-316l-265 -265h-339z" />
    <glyph glyph-name="seven.tf" horiz-adv-x="1541" 
d="M52 860v334l131 133h1064v-265h-762v-202h-433zM346 0l445 994h424l-401 -994h-468z" />
    <glyph glyph-name="eight.tf" horiz-adv-x="1541" 
d="M374 0l-266 265v276l159 131l-159 130v260l266 265h364v-265h-192v-266h192v-248h-192v-283h192v-265h-364zM808 0v265h205v283h-205v248h205v266h-205v265h360l265 -265v-258l-158 -133l158 -133v-274l-265 -264h-360z" />
    <glyph glyph-name="nine.tf" horiz-adv-x="1541" 
d="M783 0v265h166v797h-166v265h343l265 -265v-797l-265 -265h-343zM374 496l-266 266v300l266 265h341v-265h-165v-300h331v-266h-507zM374 0l-266 265v89h442v-89h165v-265h-341z" />
    <glyph glyph-name="periodcentered.loclCAT.case" horiz-adv-x="725" 
d="M273 464l-132 132v177l132 133h177l133 -133v-177l-133 -132h-177z" />
    <glyph glyph-name="periodcentered.loclCAT" horiz-adv-x="725" 
d="M273 464l-132 132v177l132 133h177l133 -133v-177l-133 -132h-177z" />
    <glyph glyph-name="uni03000304" 
d="M730 1144l-555 167l-54 211l184 85l486 -316zM72 1587v197h769v-197h-769z" />
    <glyph glyph-name="uni03010304" 
d="M372 1123l-98 138l486 316l184 -85l-54 -211zM44 1531v197h769v-197h-769z" />
    <glyph glyph-name="uni030C.alt" 
d="M119 1102l24 365h309l-47 -365h-286z" />
    <glyph glyph-name="uni03040300" 
d="M231 1203v197h769v-197h-769zM848 1454l-555 167l-54 211l184 85l486 -316z" />
    <glyph glyph-name="uni03040301" 
d="M231 1203v197h769v-197h-769zM429 1433l-98 138l486 316l184 -85l-54 -211z" />
    <glyph glyph-name="uni0308.case" 
d="M804 1430v221h336v-221h-336zM274 1430v221h336v-221h-336z" />
    <glyph glyph-name="uni0307.case" 
d="M105 1420v282h443v-282h-443z" />
    <glyph glyph-name="gravecomb.case" 
d="M575 1404l-502 115l-47 169l155 78l446 -240z" />
    <glyph glyph-name="acutecomb.case" 
d="M207 1404l-51 122l446 240l155 -78l-47 -169z" />
    <glyph glyph-name="uni030B.case" 
d="M616 1414l-89 112l283 240l148 -48l2 -139zM92 1414l-89 112l283 240l148 -48l2 -139z" />
    <glyph glyph-name="uni0302.case" 
d="M328 1392l-77 80l256 259h252l254 -260l-76 -79l-303 159z" />
    <glyph glyph-name="uni030C.case" 
d="M507 1422l-254 261l77 78l302 -158l306 158l78 -79l-257 -260h-252z" />
    <glyph glyph-name="uni0306.case" 
d="M442 1402l-146 144l-56 231l138 39l82 -182h325l82 182l138 -39l-56 -231l-146 -144h-361z" />
    <glyph glyph-name="uni030A.case" 
d="M605 1363v156h78v171h-78v155h117l139 -137v-208l-139 -137h-117zM417 1363l-137 137v208l137 137h119v-155h-77v-171h77v-156h-119z" />
    <glyph glyph-name="tildecomb.case" 
d="M672 1424l-160 116h-41l-181 -106l-64 78l207 214h205l160 -117h41l181 107l64 -78l-207 -214h-205z" />
    <glyph glyph-name="uni0304.case" 
d="M251 1453v170h729v-170h-729z" />
    <glyph glyph-name="hookabovecomb.case" 
d="M645 1378v163h-285v282h312l175 -200v-245h-202z" />
    <glyph glyph-name="uni030F.case" 
d="M871 1408l-344 165l10 143l140 44l283 -240zM347 1408l-344 165l7 139l143 48l283 -240z" />
    <glyph glyph-name="uni032E.case" 
d="M442 -522l-146 144l-56 231l138 39l82 -182h325l82 182l138 -39l-56 -231l-146 -144h-361z" />
    <glyph glyph-name="uni0331.case" 
d="M251 -269v170h729v-170h-729z" />
    <glyph glyph-name="uni03060301" 
d="M597 1540l-80 109l374 276l149 -69l-44 -171zM454 1155l-136 134l-52 216l129 36l76 -170h303l76 170l129 -36l-52 -216l-136 -134h-337z" />
    <glyph glyph-name="uni03060300" 
d="M680 1540l-399 145l-44 171l149 69l374 -276zM454 1155l-136 134l-52 216l129 36l76 -170h303l76 170l129 -36l-52 -216l-136 -134h-337z" />
    <glyph glyph-name="uni03060309" 
d="M549 1538v136h-238v235h260l146 -166v-205h-168zM454 1155l-136 134l-52 216l129 36l76 -170h303l76 170l129 -36l-52 -216l-136 -134h-337z" />
    <glyph glyph-name="uni03060303" 
d="M581 1593l-87 120h-53l-111 -91l-69 70l156 171h227l86 -121h54l110 93l70 -70l-156 -172h-227zM454 1155l-136 134l-52 216l129 36l76 -170h303l76 170l129 -36l-52 -216l-136 -134h-337z" />
    <glyph glyph-name="uni03020301" 
d="M944 1447l-80 109l374 276l149 -69l-44 -171zM331 1203l-77 79l242 274h248l242 -274l-76 -79l-290 172z" />
    <glyph glyph-name="uni03020300" 
d="M269 1450l-399 145l-44 171l149 69l374 -276zM331 1203l-77 79l242 274h248l242 -274l-76 -79l-290 172z" />
    <glyph glyph-name="uni03020309" 
d="M549 1618v116h-238v185h300l106 -116v-185h-168zM331 1203l-77 79l242 274h248l242 -274l-76 -79l-290 172z" />
    <glyph glyph-name="uni03020303" 
d="M581 1613l-87 120h-53l-111 -91l-69 70l156 171h227l86 -121h54l110 93l70 -70l-156 -172h-227zM331 1203l-77 79l242 274h248l242 -274l-76 -79l-290 172z" />
    <glyph glyph-name="uni03060301.case" 
d="M597 1540l-80 109l374 276l149 -69l-44 -171zM454 1155l-136 134l-52 216l129 36l76 -170h303l76 170l129 -36l-52 -216l-136 -134h-337z" />
    <glyph glyph-name="uni03060300.case" 
d="M680 1540l-399 145l-44 171l149 69l374 -276zM454 1155l-136 134l-52 216l129 36l76 -170h303l76 170l129 -36l-52 -216l-136 -134h-337z" />
    <glyph glyph-name="uni03060309.case" 
d="M549 1538v136h-238v235h260l146 -166v-205h-168zM454 1155l-136 134l-52 216l129 36l76 -170h303l76 170l129 -36l-52 -216l-136 -134h-337z" />
    <glyph glyph-name="uni03060303.case" 
d="M581 1553l-87 120h-53l-111 -91l-69 70l156 171h227l86 -121h54l110 93l70 -70l-156 -172h-227zM454 1115l-136 134l-52 216l129 36l76 -170h303l76 170l129 -36l-52 -216l-136 -134h-337z" />
    <glyph glyph-name="uni03020301.case" 
d="M897 1635l-80 109l374 276l149 -69l-44 -171zM331 1388l-77 79l242 274h248l242 -274l-76 -79l-290 172z" />
    <glyph glyph-name="uni03020300.case" 
d="M316 1632l-399 145l-44 171l149 69l374 -276zM331 1388l-77 79l242 274h248l242 -274l-76 -79l-290 172z" />
    <glyph glyph-name="uni03020309.case" 
d="M549 1778v116h-238v185h290l116 -116v-185h-168zM331 1388l-77 79l242 274h248l242 -274l-76 -79l-290 172z" />
    <glyph glyph-name="uni03020303.case" 
d="M581 1793l-87 120h-53l-111 -91l-69 70l156 171h227l86 -121h54l110 93l70 -70l-156 -172h-227zM331 1388l-77 79l242 274h248l242 -274l-76 -79l-290 172z" />
    <glyph glyph-name="ringacutecomb.case" horiz-adv-x="1270" 
d="M605 1283v156h78v171h-78v155h104l129 159l126 -42l26 -117l-155 -111l26 -26v-208l-139 -137h-117zM417 1283l-137 137v208l137 137h119v-155h-77v-171h77v-156h-119z" />
    <glyph glyph-name="ringacutecomb" horiz-adv-x="1270" 
d="M605 1143v156h78v171h-78v155h104l129 159l126 -42l26 -117l-155 -111l26 -26v-208l-139 -137h-117zM417 1143l-137 137v208l137 137h119v-155h-77v-171h77v-156h-119z" />
    </font>
</defs>
</svg>
