<?xml version="1.0" standalone="no"?>
<!DOCTYPE svg PUBLIC "-//W3C//DTD SVG 1.1//EN" "http://www.w3.org/Graphics/SVG/1.1/DTD/svg11.dtd" >
<svg xmlns="http://www.w3.org/2000/svg" xmlns:xlink="http://www.w3.org/1999/xlink" version="1.1">
<metadata>
Created by FontForge 20201107 at Thu Aug  3 17:42:42 2023
 By 
Copyright 2011 The Norican Project Authors (https://github.com/googlefonts/NoricanFont)
</metadata>
<defs>
<font id="Norican-Regular" horiz-adv-x="0" >
  <font-face 
    font-family="Norican"
    font-weight="400"
    font-stretch="normal"
    units-per-em="2048"
    panose-1="0 0 0 0 0 0 0 0 0 0"
    ascent="1638"
    descent="-410"
    x-height="807"
    cap-height="1530"
    bbox="-442.632 -791 3029 2097"
    underline-thickness="102"
    underline-position="-256"
    unicode-range="U+000D-FB02"
  />
<missing-glyph horiz-adv-x="1406" 
d="M141 -353l30 150q6 33 28 131.5t54 239t68.5 300t72.5 316t66 286.5t49 212.5t21 91.5q14 63 22.5 93.5t27.5 40.5t64 10h770q72 0 72 -5l-396 -1726q-5 -24 -8.5 -54t-14.5 -51.5t-42 -21.5q-37 1 -124.5 -0.5t-199.5 -3.5t-224.5 -4t-203 -3.5t-132.5 -1.5zM318 -222
q64 3 149.5 6.5t170.5 6.5t148.5 5t82.5 2h37t35 -2q6 30 28 126.5t53.5 235t67.5 297.5t72 316t66.5 289.5t50 218.5t23.5 102l-622 -15q-90 -396 -152.5 -668.5t-102 -446.5t-61.5 -271t-31.5 -139.5t-12 -52t-2.5 -10.5z" />
    <glyph glyph-name="fi" unicode="fi" horiz-adv-x="971" 
d="M-74 -336q17 128 46 283t65 322t75 332.5t77.5 316.5t72.5 272q18 63 79 126.5t143.5 106.5t164.5 43q46 0 65.5 -23t24 -55.5t4.5 -62.5q0 -106 -36.5 -213.5t-93.5 -207.5t-121.5 -185.5t-121.5 -150t-93.5 -100.5l-36.5 -36q0 -76 18 -108.5t47 -32.5q33 0 76.5 31.5
t89.5 81.5t88 106.5t74 107.5t47 84q21 54 51.5 75.5t72.5 25.5t97 4q-10 -34 -29 -98t-41 -141.5t-42 -154.5t-33 -139t-13 -92q0 -13 6.5 -39t28.5 -26q11 0 43 19t72 46.5t76.5 54.5t56.5 44l23 -56q-34 -31 -88 -73.5t-115 -83t-118.5 -68t-98.5 -29.5q-48 0 -68 42.5
t-20 88.5q0 41 18 131t41 187q-113 -155 -192 -218t-132 -63q-51 0 -77 54q-2 -9 -11 -58.5t-22.5 -120t-27.5 -143t-26 -129.5t-18 -78h-168zM274 586q45 71 103.5 156t113 175.5t90 177.5t35.5 160q0 38 -12.5 70.5t-56.5 32.5q-38 0 -73.5 -61t-67 -157t-57 -203
t-45 -201.5t-30.5 -149.5zM881 1073q-39 0 -55.5 21.5t-16.5 50.5q0 46 36 94.5t91 48.5q54 0 77 -21t23 -50q0 -32 -21.5 -65.5t-56.5 -56t-77 -22.5z" />
    <glyph glyph-name="fl" unicode="fl" horiz-adv-x="1006" 
d="M-64 -345q17 129 46 285t65 324t75 334.5t77.5 318t72.5 273.5q18 63 79 126.5t143.5 106.5t164.5 43q46 0 65.5 -23t24 -55.5t4.5 -62.5q0 -106 -37.5 -210.5t-96.5 -202t-125 -184t-125 -157t-96.5 -122t-37.5 -78.5q0 -49 30.5 -91t72.5 -42q15 0 48 23t72 57
t73.5 68.5t53.5 57.5v-116q-32 -39 -82 -85t-101.5 -79t-88.5 -33q-29 0 -59.5 13t-44.5 49q-2 -9 -11 -59.5t-22.5 -122t-27.5 -145.5t-26 -132t-18 -79h-168zM284 586q45 71 103.5 156t113 175.5t90 177.5t35.5 160q0 38 -12.5 70.5t-56.5 32.5q-38 0 -73.5 -61t-67 -157
t-57 -203t-45 -201.5t-30.5 -149.5zM623 -29q-45 0 -64 38.5t-22.5 93.5t-3.5 104q0 131 24 278.5t67 296.5t100.5 283.5t125 239.5t140.5 166t147 61q66 0 103 -45.5t37 -114.5q0 -127 -37.5 -247t-96 -226t-124.5 -193.5t-124.5 -151t-96 -98l-37.5 -34.5l-5 -42
t-10.5 -97.5t-5.5 -94.5q0 -12 4.5 -41.5t30.5 -29.5q15 0 61 40t106 101t119.5 124.5t102.5 111.5v-112q-183 -217 -308.5 -314t-232.5 -97zM787 618q91 82 161 186t118 208.5t73 189.5t25 129q0 25 -7 55.5t-36 30.5q-58 0 -111.5 -96t-107.5 -275t-115 -428z" />
    <glyph glyph-name="f_f" unicode="ff" horiz-adv-x="983" 
d="M-74 -336l165 799q-22 1 -47 1h-51h-3q-11 0 -32.5 6t-21.5 35q0 26 29 34.5t70 10t77 3.5q38 177 77 342t73 295q18 63 79 126.5t143.5 106.5t164.5 43q46 0 65.5 -23t24 -55.5t4.5 -62.5q0 -106 -35 -210.5t-90 -202t-116.5 -183.5t-114.5 -157q64 4 130.5 7t132.5 6
q37 168 74 323t68 279q18 63 79 126.5t143.5 106.5t164.5 43q46 0 65.5 -23t24 -55.5t4.5 -62.5q0 -135 -54.5 -266t-132.5 -247.5t-149 -210.5q86 3 140 3q36 0 62.5 -13t26.5 -51q0 -23 -21 -52t-50 -29q-73 0 -144 0.5t-140 1.5l-52 -265q-2 -9 -11 -58.5t-22.5 -120
t-27.5 -143t-26 -129.5t-18 -78h-198l165 797q-49 1 -97.5 1h-95.5h-145l-54 -269q-2 -9 -11 -58.5t-22.5 -120t-27.5 -143t-26 -129.5t-18 -78h-198zM304 586q41 71 94.5 156t103 175.5t82 177.5t32.5 160q0 38 -12.5 70.5t-56.5 32.5q-34 0 -65.5 -61t-59.5 -157t-51 -203
t-40 -201.5t-27 -149.5zM834 602q41 69 94.5 152t103 170.5t82 172t32.5 155.5q0 38 -12.5 70.5t-56.5 32.5q-34 0 -65.5 -59.5t-59.5 -153.5t-51 -198.5t-40 -196t-27 -145.5z" />
    <glyph glyph-name="f_f_i" unicode="ffi" horiz-adv-x="1361" 
d="M-74 -336q17 128 46 283t65 322t75 332.5t77.5 316.5t72.5 272q18 63 79 126.5t143.5 106.5t164.5 43q46 0 65.5 -23t24 -55.5t4.5 -62.5q0 -24 -3 -48q37 50 93 93t121 69.5t128 26.5q46 0 65.5 -23t24 -55.5t4.5 -62.5q0 -106 -36.5 -213.5t-93.5 -207.5t-121.5 -185.5
t-121.5 -150t-93.5 -100.5l-36.5 -36q0 -76 18 -108.5t47 -32.5q33 0 76.5 31.5t89.5 81.5t88 106.5t74 107.5t47 84q21 54 51.5 75.5t72.5 25.5t97 4q-10 -34 -29 -98t-41 -141.5t-42 -154.5t-33 -139t-13 -92q0 -13 6.5 -39t28.5 -26q11 0 43 19t72 46.5t76.5 54.5
t56.5 44l23 -56q-34 -31 -88 -73.5t-115 -83t-118.5 -68t-98.5 -29.5q-48 0 -68 42.5t-20 88.5q0 41 18 131t41 187q-113 -155 -192 -218t-132 -63q-51 0 -77 54q-2 -9 -11 -58.5t-22.5 -120t-27.5 -143t-26 -129.5t-18 -78h-168q16 118 42 259.5t57 292.5
q-42 -35 -82.5 -60t-72.5 -25q-29 0 -59.5 13t-44.5 49q-2 -9 -11 -58.5t-22.5 -120t-27.5 -143t-26 -129.5t-18 -78h-168zM274 586q45 71 103.5 156t113 175.5t90 177.5t35.5 160q0 38 -12.5 70.5t-56.5 32.5q-38 0 -73.5 -61t-67 -157t-57 -203t-45 -201.5t-30.5 -149.5z
M707 586q45 71 103.5 156t113 175.5t90 177.5t35.5 160q0 38 -12.5 70.5t-56.5 32.5q-38 0 -73.5 -61t-67 -157t-57 -203t-45 -201.5t-30.5 -149.5zM1314 1073q-39 0 -55.5 21.5t-16.5 50.5q0 46 36 94.5t91 48.5q54 0 77 -21t23 -50q0 -32 -21 -65.5t-56.5 -56t-77.5 -22.5
zM328 238q20 0 66.5 34.5t92.5 77.5q35 157 72 311t72 292q-57 -104 -126.5 -197t-133.5 -169.5t-105 -132t-41 -83.5q0 -49 30.5 -91t72.5 -42z" />
    <glyph glyph-name="f_f_l" unicode="ffl" horiz-adv-x="1548" 
d="M-74 -336q22 166 63.5 375.5t90.5 423.5q-41 1 -87 1q-7 0 -32 4.5t-25 36.5q0 20 16.5 27.5t32.5 9.5q32 4 115 10q42 178 84 343t78 295q18 63 79 126.5t143.5 106.5t164.5 43q46 0 65.5 -23t24 -55.5t4.5 -62.5q0 -107 -35 -211.5t-90.5 -202.5t-117 -184.5
t-114.5 -156.5q124 7 252 13q40 168 80 324t74 280q18 63 79 126.5t143.5 106.5t164.5 43q46 0 65.5 -23t24 -55.5t4.5 -62.5q0 -102 -32 -201.5t-83.5 -193t-110.5 -177.5t-112 -154q59 2 109 3t87 2q40 141 99 281t131 255.5t151.5 185t160.5 69.5q80 0 110.5 -59
t30.5 -145q0 -121 -38 -222t-98.5 -181.5t-128 -141t-128 -101t-98.5 -60.5l-38 -20l-6 -28t-13.5 -71t-13.5 -87.5t-6 -77.5q0 -12 4.5 -41.5t30.5 -29.5q16 0 63.5 35t109 88t121 109t98.5 98v-115q-167 -190 -280.5 -277t-213.5 -94q-55 0 -78 40.5t-27.5 97.5t-4.5 108
q0 103 27 239h-1q-67 0 -132.5 0.5t-128.5 1.5q-41 -60 -41 -86l-34 -179q-2 -9 -11 -58.5t-22.5 -120t-27.5 -143t-26 -129.5t-18 -78h-198q22 165 63.5 374t90.5 423q-46 0 -91.5 0.5t-90.5 0.5h-48h-74q-20 -29 -31.5 -52t-11.5 -38l-34 -179q-2 -9 -11 -58.5t-22.5 -120
t-27.5 -143t-26 -129.5t-18 -78h-198zM304 586q41 71 94.5 156t103 175.5t82 177.5t32.5 160q0 38 -12.5 70.5t-56.5 32.5q-34 0 -65.5 -61t-59.5 -157t-51 -203t-40 -201.5t-27 -149.5zM834 602q41 69 94.5 152t103 170.5t82 172t32.5 155.5q0 38 -12.5 70.5t-56.5 32.5
q-34 0 -65.5 -59.5t-59.5 -153.5t-51 -198.5t-40 -196t-27 -145.5zM1318 608q103 48 175.5 130.5t118 173t67 167t21.5 112.5q0 23 -6.5 55.5t-26.5 32.5q-2 0 -10 -2q-88 -37 -167.5 -196.5t-171.5 -472.5z" />
    <glyph glyph-name=".notdef" horiz-adv-x="1406" 
d="M141 -353l30 150q6 33 28 131.5t54 239t68.5 300t72.5 316t66 286.5t49 212.5t21 91.5q14 63 22.5 93.5t27.5 40.5t64 10h770q72 0 72 -5l-396 -1726q-5 -24 -8.5 -54t-14.5 -51.5t-42 -21.5q-37 1 -124.5 -0.5t-199.5 -3.5t-224.5 -4t-203 -3.5t-132.5 -1.5zM318 -222
q64 3 149.5 6.5t170.5 6.5t148.5 5t82.5 2h37t35 -2q6 30 28 126.5t53.5 235t67.5 297.5t72 316t66.5 289.5t50 218.5t23.5 102l-622 -15q-90 -396 -152.5 -668.5t-102 -446.5t-61.5 -271t-31.5 -139.5t-12 -52t-2.5 -10.5z" />
    <glyph glyph-name=".null" 
 />
    <glyph glyph-name="nonmarkingreturn" unicode="&#xd;" horiz-adv-x="389" 
 />
    <glyph glyph-name="NULL" 
 />
    <glyph glyph-name="NULL" 
 />
    <glyph glyph-name="space" unicode=" " horiz-adv-x="389" 
 />
    <glyph glyph-name="exclam" unicode="!" horiz-adv-x="608" 
d="M317 369q-15 0 -18.5 8t-3.5 20q0 10 0.5 19t1.5 18l152 862q5 37 13.5 89.5t24 92.5t39.5 40h183q32 0 32 -54q0 -17 -20 -83t-52.5 -163.5t-71.5 -209t-78.5 -221t-72.5 -201t-53.5 -148t-21.5 -59.5q-11 -4 -31.5 -7t-22.5 -3zM224 -29q-43 0 -61.5 23.5t-18.5 54.5
q0 34 18 70.5t49.5 62t71.5 25.5q60 0 85.5 -23.5t25.5 -54.5q0 -35 -23.5 -71.5t-62 -61.5t-84.5 -25z" />
    <glyph glyph-name="quotedbl" unicode="&#x22;" horiz-adv-x="913" 
d="M634 1083q2 52 0.5 128t2 151t18.5 125.5t49 50.5q80 0 104.5 -11t24.5 -40q0 -17 -5.5 -38t-14.5 -46q-40 -92 -73 -185t-50 -135h-56zM366 1083q2 52 0.5 128t2 151t18.5 125.5t49 50.5q80 0 104.5 -11t24.5 -40q0 -31 -21 -84q-40 -92 -73 -185t-50 -135h-55z" />
    <glyph glyph-name="numbersign" unicode="#" horiz-adv-x="1069" 
d="M127 -141q-25 0 -31 17t-6 42q0 38 11 79.5t14 51.5q15 59 40.5 180.5t53.5 270.5q-28 0 -55.5 -1t-59.5 -3q-7 0 -32 4.5t-25 36.5q0 47 17 64t32 22l147 10l31 174q-31 0 -60.5 -1t-64.5 -3q-7 0 -32 4.5t-25 36.5q0 53 17 71t61.5 19.5t128.5 5.5q21 115 37 210.5
t27 155.5t14 68q23 66 37.5 106.5t34 62t55.5 29t100 7.5q12 0 24.5 -16.5t12.5 -36.5q0 -3 -1 -6t-1 -7l-156 -565q48 2 99.5 4t103.5 2q27 112 48.5 204.5t35 150t16.5 65.5q28 89 46.5 133t57 58t124.5 14q12 0 24 -16.5t12 -36.5q0 -3 -1 -6t-1 -7l-184 -557
q74 -1 125 -10t51 -31q0 -27 -30 -61.5t-70 -34.5q-32 0 -62 1t-59 1l-57 -172h24q85 0 147 -8t62 -33q0 -28 -30 -62t-70 -34q-37 0 -71 1t-66 1h-41l-156 -475q-9 -28 -20.5 -71t-29 -76t-46.5 -33q-25 0 -31 17t-6 42q0 38 12 79.5t12 51.5q20 59 54 185t71 278l-217 -6
l-127 -467q-9 -28 -20.5 -71t-29 -76t-46.5 -33zM387 647h215q11 44 21.5 86.5t19.5 85.5q-72 0 -207 -6z" />
    <glyph glyph-name="dollar" unicode="$" horiz-adv-x="1069" 
d="M307 -213q-28 0 -28 29q0 15 3 32.5t7 42.5l8 54q-10 -1 -22 -1.5t-23 -0.5q-71 0 -146 25t-125.5 78t-50.5 136q0 68 50 106.5t116 41.5l43 2q-1 -20 -2.5 -47t-1.5 -52q0 -50 7 -94.5t44.5 -73t128.5 -30.5q25 119 64 285.5t82 343.5q-71 59 -138 118t-110 119.5
t-43 122.5q0 99 43 180t115 142t161 100.5t181 56.5l8 47q16 88 27 130t22.5 54.5t26.5 12.5q5 0 19.5 -6t14.5 -31l-47 -197q35 5 62 5q53 0 112.5 -14.5t111.5 -47.5t85 -89t33 -140q0 -9 -40 -36.5t-100.5 -64.5t-124.5 -73t-114.5 -62.5t-67.5 -32.5v99q24 14 68 34
t89.5 43.5t77.5 47t32 43.5q0 113 -61 155.5t-148 42.5q-10 0 -18.5 -1t-16.5 -1l-127 -549q76 -55 152.5 -116.5t128 -136.5t51.5 -173q0 -108 -46.5 -193t-125 -147t-176 -100t-199.5 -53l-6 -33q-6 -31 -9.5 -62t-14.5 -51t-42 -20zM526 924l121 483
q-66 -17 -125.5 -55.5t-97 -95.5t-37.5 -130q0 -56 39.5 -105.5t99.5 -96.5zM399 41q73 15 144.5 54t118.5 101t47 146q0 68 -52.5 133t-126.5 129z" />
    <glyph glyph-name="percent" unicode="%" horiz-adv-x="1401" 
d="M197 -141q-27 0 -27 24q0 25 15.5 60.5t33.5 66t23 39.5q26 50 75.5 143.5t113 213.5t132.5 249.5t134.5 253.5t119.5 226t88 166t39 73q45 65 73 105.5t53.5 62t63 29.5t101.5 8q8 0 14 -10t6 -23q0 -3 -2 -15.5t-4 -17.5l-901 -1474q-17 -28 -40.5 -71t-51 -76
t-59.5 -33zM268 858q-78 0 -125.5 48.5t-68.5 116.5t-21 126q0 81 31.5 166.5t96.5 144t167 58.5q88 0 138.5 -47.5t72 -116.5t21.5 -135q0 -85 -35.5 -168t-104.5 -138t-172 -55zM248 973q45 0 81 32t61.5 81t38.5 100t13 88q0 34 -16 76.5t-59 42.5q-45 0 -76.5 -34
t-51 -85t-29 -102.5t-9.5 -86.5q0 -15 2.5 -42t12.5 -48.5t32 -21.5zM1042 -29q-77 0 -124.5 49t-69 117t-21.5 125q0 81 31.5 167.5t96.5 146t167 59.5q88 0 138.5 -47.5t72 -116.5t21.5 -135q0 -86 -34.5 -170t-103.5 -139.5t-174 -55.5zM1022 86q45 0 81.5 32t61.5 81
t38.5 100t13.5 88q0 35 -15 79t-61 44q-45 0 -76 -34.5t-50.5 -86t-28.5 -103t-9 -85.5q0 -14 2.5 -42t12 -50.5t30.5 -22.5z" />
    <glyph glyph-name="ampersand" unicode="&#x26;" horiz-adv-x="1442" 
d="M811 -526q-12 16 -12 32q0 24 36.5 51.5t85 69.5t85 106.5t36.5 162.5q0 66 -28.5 133t-57.5 125q-112 -74 -230.5 -128.5t-246.5 -54.5q-101 0 -195 41t-154 119t-60 188q0 111 49.5 197.5t128.5 155.5t171 125.5t177 107.5q-12 45 -20.5 88.5t-8.5 89.5
q0 87 43.5 165.5t114 139t155.5 95.5t167 35q80 0 163 -31t140 -92.5t57 -153.5q0 -33 -45 -66t-109 -63t-122 -53t-84 -35q-22 24 -29 57q25 14 73 34.5t88 47.5t40 60q0 77 -59.5 124.5t-131.5 47.5q-75 0 -119.5 -38t-64 -98t-19.5 -126q0 -92 31.5 -186.5t81 -187
t104.5 -179t101 -162.5q54 35 105.5 89.5t94.5 114.5t70 111q22 41 38 112t32 128l23 3q33 5 46 -8.5t13 -35.5q0 -63 -33 -149.5t-87 -176t-119 -164t-130 -114.5q38 -57 70 -137.5t32 -149.5q0 -89 -39.5 -188t-108 -185t-156 -140t-183.5 -54zM666 145q68 0 124.5 25.5
t120.5 67.5l-293 567q-67 -40 -130.5 -87t-104.5 -106.5t-41 -136.5q0 -86 45 -161.5t118.5 -122t160.5 -46.5z" />
    <glyph glyph-name="quotesingle" unicode="'" horiz-adv-x="524" 
d="M307 1083q-7 44 -12.5 106.5t-5.5 125.5q0 88 14.5 155.5t52.5 67.5q80 0 104.5 -11t24.5 -40q0 -17 -5.5 -38t-14.5 -46q-34 -92 -61 -185t-41 -135h-56z" />
    <glyph glyph-name="parenleft" unicode="(" horiz-adv-x="934" 
d="M518 -117q-162 0 -266 87t-153.5 236.5t-49.5 334.5q0 135 29.5 279.5t89 279.5t149.5 242.5t211 171t273 63.5q29 0 58.5 -2.5t60.5 -7.5l-5 -103q-36 6 -71 6q-121 0 -215 -61.5t-163 -163.5t-113 -226t-65.5 -251.5t-21.5 -237.5q0 -90 15.5 -187t54.5 -180.5
t108 -135.5t177 -52q11 0 21.5 0.5t23.5 1.5l-4 -77q-80 -17 -144 -17z" />
    <glyph glyph-name="parenright" unicode=")" horiz-adv-x="932" 
d="M145 -121q-32 0 -64.5 3.5t-66.5 11.5l4 102q38 -6 72 -6q121 0 215 61.5t163 163.5t113 226t65.5 251.5t21.5 237.5q0 90 -16 187t-55 180.5t-108 135.5t-176 52h-21t-24 -2l4 78q39 8 74.5 12t67.5 4q164 0 268 -87t153.5 -236t49.5 -334q0 -131 -29.5 -275t-88.5 -280
t-148 -246t-207.5 -175t-266.5 -65z" />
    <glyph glyph-name="asterisk" unicode="*" horiz-adv-x="870" 
d="M625 668q-22 0 -53 41t-62.5 98t-56 108t-33.5 72q-9 -20 -34.5 -70.5t-58 -107.5t-64 -98t-52.5 -41q-25 0 -56.5 29.5t-31.5 54.5q0 35 41.5 80t97.5 94t100 96q-71 17 -147 35t-128 41t-52 53q0 16 10 42.5t25.5 48.5t33.5 22t60.5 -24t91 -56t87 -59t48.5 -33
q0 11 1 21.5t1 21.5q0 56 -5 112.5t-5 102.5q0 49 10.5 79.5t44.5 30.5q22 0 46.5 -1t42.5 -11.5t18 -40.5q0 -35 -16.5 -99t-37 -128.5t-32.5 -100.5q47 24 107.5 65t115.5 74t84 33q18 0 34.5 -22t27 -48.5t10.5 -41.5q0 -25 -33.5 -41t-87.5 -28t-116.5 -23.5
t-121.5 -26.5q43 -49 99.5 -98.5t98.5 -93t42 -76.5q0 -17 -17 -37.5t-39 -34.5t-38 -14z" />
    <glyph glyph-name="plus" unicode="+" horiz-adv-x="1200" 
d="M490 306q-20 0 -26.5 10.5t-6.5 22.5q0 17 4 25l62 258l-244 -13q-6 0 -27.5 3t-21.5 26q0 54 28.5 74.5t40.5 23.5q19 3 89.5 10t164.5 11l15 55q9 47 20.5 95.5t22.5 103.5q3 15 37.5 27t62.5 12q21 0 21 -54q0 -28 -6 -69.5t-17 -85.5l-21 -80q25 2 50.5 2h50.5
q81 0 141 -7.5t60 -29.5q0 -18 -19.5 -41.5t-47.5 -41t-54 -17.5q-37 0 -71 1t-66 1h-78l-68 -273q-3 -15 -26 -32t-70 -17z" />
    <glyph glyph-name="comma" unicode="," horiz-adv-x="483" 
d="M184 -264l-57 20l11 31.5t25.5 80.5t26.5 103q-41 0 -59 23.5t-18 54.5q0 34 18 70.5t49.5 62t71.5 25.5q59 0 81.5 -31.5t22.5 -85.5q0 -30 -22 -81t-52.5 -106.5t-58 -101t-39.5 -65.5z" />
    <glyph glyph-name="hyphen" unicode="-" horiz-adv-x="862" 
d="M213 598q-7 0 -32 4.5t-25 36.5q0 47 16.5 64.5t32.5 21.5q15 3 59.5 7.5t100.5 9t106.5 7.5t75.5 3q84 0 146.5 -8.5t62.5 -32.5q0 -28 -30 -62.5t-71 -34.5q-37 0 -71 1t-66 1q-20 0 -47.5 -1t-85.5 -4.5t-172 -12.5z" />
    <glyph glyph-name="period" unicode="." horiz-adv-x="422" 
d="M158 -29q-43 0 -61.5 23.5t-18.5 54.5q0 34 18 70.5t49.5 62t71.5 25.5q60 0 85.5 -23.5t25.5 -54.5q0 -35 -23.5 -71.5t-62 -61.5t-84.5 -25z" />
    <glyph glyph-name="slash" unicode="/" horiz-adv-x="1014" 
d="M29 -223q-23 0 -23 30q0 44 26.5 80.5t43.5 79.5q20 54 67 153.5t110.5 226.5t134 265t138.5 269.5t124 239.5t90.5 176t37.5 77q26 83 50.5 127.5t61 61t97.5 16.5q8 0 14.5 -10t6.5 -23q0 -3 -2.5 -15.5t-4.5 -17.5l-778 -1556q-16 -30 -34 -72.5t-53.5 -75
t-106.5 -32.5z" />
    <glyph glyph-name="zero" unicode="0" horiz-adv-x="1210" 
d="M418 -29q-100 0 -167 51.5t-107 132.5t-58.5 172t-23.5 169q-6 110 17.5 245.5t75.5 272t131.5 251t185 184t235.5 69.5q142 0 227 -68.5t125 -178.5t47 -233q7 -124 -15 -268.5t-74.5 -285.5t-135.5 -257t-198.5 -186t-264.5 -70zM363 143q86 0 163.5 49.5t144.5 132.5
t120.5 185.5t90.5 209.5t55 205t14 171q-2 47 -15 101t-46 92t-95 38q-50 0 -93 -25.5t-81 -54.5q-125 -101 -214.5 -252.5t-135 -324t-37.5 -338.5q2 -40 12.5 -84t37.5 -74.5t79 -30.5z" />
    <glyph glyph-name="one" unicode="1" horiz-adv-x="709" 
d="M123 0q-17 0 -22 16t-5 29q0 37 9 81.5t18 84.5q29 138 68.5 277.5t74.5 275.5q44 171 71 277t41.5 163.5t20.5 80.5t9 28q-30 -24 -80.5 -62t-106.5 -76t-102.5 -64t-69.5 -26q-26 10 -26 39q0 19 19.5 37t41.5 31q143 91 271.5 169.5t265.5 147.5q15 9 28 9
q14 0 19.5 -11t5.5 -26q0 -19 -2 -29l-277 -1231q-4 -37 -10.5 -89t-20 -92t-38.5 -40h-203z" />
    <glyph glyph-name="two" unicode="2" horiz-adv-x="1149" 
d="M77 -29q-20 0 -45 8.5t-25 32.5q0 22 24.5 51t43.5 46q77 74 173.5 161t194 185t179.5 205.5t132 224t50 239.5q0 143 -41.5 214t-136.5 71q-48 0 -105.5 -24.5t-109.5 -74.5t-85.5 -127.5t-33.5 -183.5q33 -47 66.5 -66.5t56 -34t22.5 -46.5q0 -13 -10.5 -30t-38.5 -17
q-15 0 -60 26t-97 62.5t-89.5 68.5t-37.5 44q0 164 66.5 278t177.5 174t243 60q118 0 197.5 -30.5t128.5 -78.5t74.5 -101t34.5 -99t9 -72q0 -116 -49 -230.5t-127.5 -221t-169 -199.5t-176 -166t-147.5 -120.5t-82 -62.5q110 17 225 46.5t227 29.5q31 0 65.5 -4t58.5 -18.5
t24 -45.5q0 -25 -12.5 -66t-33.5 -74.5t-48 -33.5q-76 0 -145.5 13.5t-143.5 13.5q-106 0 -212 -13.5t-212 -13.5z" />
    <glyph glyph-name="three" unicode="3" horiz-adv-x="1188" 
d="M388 -29q-56 0 -123 16.5t-127.5 49.5t-99.5 83t-39 118q0 65 46 108t110 43q41 0 59 -31.5t28 -78t24 -93.5t45 -78.5t92 -31.5q70 0 129 39t103 101.5t68.5 135.5t24.5 142q0 86 -43 146t-143 60q-10 0 -21 -1t-22 -1q-25 0 -42.5 10.5t-17.5 47.5q0 38 18.5 48.5
t45 10t49.5 2.5q63 8 117.5 50.5t95 105t63.5 133.5t23 135q0 80 -39.5 135.5t-130.5 55.5q-34 0 -85.5 -29.5t-102.5 -74.5t-85 -94t-34 -89q15 -25 54 -57t65 -58q-1 -18 -11 -35.5t-28 -17.5q-13 0 -54 23t-89 54.5t-82.5 59.5t-34.5 37q0 67 38.5 132t104 118t148.5 85
t172 32q110 0 205.5 -25t154.5 -90.5t59 -188.5q0 -103 -51 -188t-128.5 -146.5t-158.5 -95.5q108 -29 172 -118t64 -187q0 -112 -51.5 -205t-137 -161t-189 -105t-208.5 -37z" />
    <glyph glyph-name="four" unicode="4" horiz-adv-x="1225" 
d="M415 0l-6 20q24 67 49 135.5t51 135.5q-58 9 -129 21t-154 28q-35 -19 -73 -31t-64 -12q-7 0 -33.5 6.5t-51 28t-24.5 65.5q0 48 25 64t59 28l111 39l293 680q43 122 76.5 189.5t85 94t149.5 26.5q14 0 27 -3t20 -16q-109 -247 -224.5 -494.5t-238.5 -510.5
q36 -11 89 -25t116 -25q35 91 72.5 183t75.5 184q8 12 37 19.5t67 7.5h92q-5 -21 -28 -85.5t-56 -150.5t-69 -174q56 0 110 9t99 34q7 2 39 20.5t73 46t76 56.5l49 -86q-78 -56 -127.5 -100.5t-90.5 -75t-92.5 -46.5t-133.5 -16q-16 0 -31.5 0.5t-32.5 1.5l-71 -176l-8 -24
t-21 -48t-29 -24h-153z" />
    <glyph glyph-name="five" unicode="5" horiz-adv-x="1152" 
d="M315 -29q-36 0 -94.5 11.5t-118.5 39.5t-101 76t-41 121q0 23 20.5 54.5t59.5 56t96 24.5q0 -40 8.5 -88t31.5 -92t66 -72t111 -28q113 0 188 43t119 110.5t62.5 141.5t18.5 135q0 64 -40 123.5t-107.5 98t-151.5 38.5q-71 0 -129 -39.5t-103 -91.5q-30 4 -41 26
q5 22 21.5 87.5t40 154t48.5 183t48 178t39.5 137.5t21.5 59q7 6 13.5 10.5t13.5 4.5h6q116 -11 204 -18t177 -7q65 0 136.5 5t160.5 15l57 -18q-3 -28 -14.5 -53.5t-24.5 -48.5q-35 -65 -56.5 -96.5t-58 -40.5t-118.5 -9q-69 0 -137 7.5t-133 39.5q-34 17 -63.5 37.5
t-70.5 20.5q-16 -50 -38 -114t-44 -128.5t-39 -117.5t-24 -81q59 32 130.5 56t143.5 24q105 0 187.5 -46t130 -127t47.5 -187q0 -128 -56 -239.5t-150.5 -196t-212 -132t-240.5 -47.5z" />
    <glyph glyph-name="six" unicode="6" horiz-adv-x="1094" 
d="M353 -29q-131 0 -208 65t-106.5 169.5t-20.5 220.5q14 156 86.5 304t173.5 285.5t202 260.5q76 92 129.5 139t108.5 47h156q-77 -80 -167.5 -179t-179.5 -213t-162 -240t-117 -260.5t-44 -274.5q0 -43 8.5 -91t43.5 -82t116 -34q50 0 101.5 36t98.5 94t84 125t59.5 130
t25.5 109q9 114 -19 162t-91 58.5t-161 10.5q29 57 67.5 73.5t96.5 16.5q163 0 254.5 -69.5t77.5 -247.5q-8 -114 -59 -223.5t-135 -198t-191.5 -141t-227.5 -52.5z" />
    <glyph glyph-name="seven" unicode="7" horiz-adv-x="1022" 
d="M115 0q42 201 138.5 399t232.5 406.5t294 439.5q-42 -24 -106 -41.5t-134 -28.5t-132 -16.5t-101 -5.5q-121 0 -169 7.5t-48 35.5q0 9 15 44t36 77t41.5 73t32.5 31q116 -13 192 -17.5t140 -4.5q77 0 139.5 6t126.5 12t143 6q5 0 28.5 -14t23.5 -39q0 -4 -4 -16
q-92 -198 -201.5 -395t-214.5 -400.5t-185 -419.5q-8 -22 -22.5 -55t-26 -58.5t-10.5 -25.5h-229z" />
    <glyph glyph-name="eight" unicode="8" horiz-adv-x="1286" 
d="M386 -57q-95 0 -178 33.5t-134 104t-51 181.5q0 71 35 134t87.5 116t105.5 94t91 69.5t43 41.5q-51 44 -95.5 86.5t-71.5 96.5t-27 130q0 88 57 174.5t155 157.5t221.5 113.5t256.5 42.5q20 0 59 -3.5t80 -13t70 -27t29 -44.5q0 -35 -17.5 -72t-43.5 -62.5t-52 -25.5
l-25.5 29t-74 58t-117.5 29q-89 0 -161.5 -37.5t-115 -103t-42.5 -149.5q0 -35 29.5 -94.5t106.5 -108.5q45 23 119.5 63t160 82.5t164 72.5t130.5 32l33 -47q-113 -64 -243 -125t-252 -162q64 -57 131 -117.5t113 -131t46 -161.5q0 -111 -59.5 -196.5t-154 -143t-202.5 -87
t-206 -29.5zM431 41q70 0 137.5 31.5t112.5 89t45 135.5q0 92 -64 182t-158 136q-14 -11 -55.5 -47.5t-89.5 -91t-82.5 -122t-34.5 -139.5t48.5 -123t140.5 -51z" />
    <glyph glyph-name="nine" unicode="9" horiz-adv-x="1094" 
d="M205 -32l-70 30q154 112 280.5 257t218 304.5t141.5 317.5t50 297q0 50 -12 103t-47 89.5t-104 36.5q-75 0 -143.5 -50t-122.5 -129.5t-85.5 -170.5t-31.5 -174q0 -95 50 -161.5t167 -66.5q15 0 32 0.5t35 1.5q-6 -54 -28.5 -78t-52 -30t-58.5 -6q-103 0 -190 41.5
t-139 121.5t-52 193q0 117 45.5 227.5t127.5 199.5t190.5 141.5t234.5 52.5q186 0 290.5 -106t104.5 -295q0 -151 -51.5 -311t-139 -309t-196 -268t-223.5 -189t-221 -70z" />
    <glyph glyph-name="colon" unicode=":" horiz-adv-x="422" 
d="M158 729q-43 0 -61.5 23.5t-18.5 54.5q0 34 18 70.5t49.5 62t71.5 25.5q60 0 85.5 -23.5t25.5 -54.5q0 -35 -23.5 -71.5t-62 -61.5t-84.5 -25zM158 -29q-43 0 -61.5 23.5t-18.5 54.5q0 34 18 70.5t49.5 62t71.5 25.5q60 0 85.5 -23.5t25.5 -54.5q0 -35 -23.5 -71.5
t-62 -61.5t-84.5 -25z" />
    <glyph glyph-name="semicolon" unicode=";" horiz-adv-x="483" 
d="M242 729q-43 0 -61.5 23.5t-18.5 54.5q0 34 18 70.5t49.5 62t71.5 25.5q60 0 85.5 -23.5t25.5 -54.5q0 -35 -23.5 -71.5t-62 -61.5t-84.5 -25zM184 -264l-57 20l11 31.5t25.5 80.5t26.5 103q-41 0 -59 23.5t-18 54.5q0 34 18 70.5t49.5 62t71.5 25.5q59 0 81.5 -31.5
t22.5 -85.5q0 -30 -22 -81t-52.5 -106.5t-58 -101t-39.5 -65.5z" />
    <glyph glyph-name="less" unicode="&#x3c;" horiz-adv-x="1200" 
d="M861 -68q-45 0 -67 16q-115 82 -201 189.5t-158 227.5t-145 239q-47 73 -47 114q0 36 32.5 70.5t92.5 102.5q123 139 204 231.5t132.5 150.5t84 92t58 54.5t55.5 38.5q11 6 29.5 11t38.5 5q34 0 62 -13t28 -42q0 -24 -29.5 -47t-78.5 -54.5t-107 -79t-115 -120.5
q-67 -88 -149 -181.5t-168 -187.5l174 -252q100 -156 182.5 -255t132.5 -158t50 -97q0 -29 -28.5 -42t-62.5 -13z" />
    <glyph glyph-name="equal" unicode="=" horiz-adv-x="1200" 
d="M266 598q-7 0 -32 4.5t-25 36.5q0 47 17 64.5t32 21.5q20 4 95.5 10.5t180 11.5t209.5 5q85 0 147 -8.5t62 -32.5q0 -28 -30 -62.5t-70 -34.5q-37 0 -71 1t-66 1q-28 0 -69.5 -1t-128.5 -4.5t-251 -12.5zM225 373q-7 0 -32 4.5t-25 36.5q0 47 17 64.5t32 21.5
q20 4 95.5 10t180 11t209.5 5q85 0 147 -8t62 -33q0 -27 -30 -61.5t-70 -34.5q-37 0 -71 1t-66 1q-28 0 -69.5 -1t-128.5 -4.5t-251 -12.5z" />
    <glyph glyph-name="greater" unicode="&#x3e;" horiz-adv-x="1200" 
d="M324 -68q-31 0 -54.5 10t-23.5 33q0 38 62.5 97t173 160t254.5 265l235 252q-63 94 -122 188.5t-105 180.5q-37 70 -81.5 116.5t-85 77.5t-66 54t-25.5 45q0 34 34.5 48.5t69.5 14.5q37 0 65 -12.5t58 -47.5t73 -101.5t110 -174.5q45 -85 101 -168t97 -146t41 -89
q0 -23 -17.5 -54t-58.5 -77q-101 -119 -202 -239t-213.5 -227.5t-247.5 -189.5q-27 -16 -72 -16z" />
    <glyph glyph-name="question" unicode="?" horiz-adv-x="999" 
d="M334 424q-32 0 -54 10.5t-22 30.5q0 77 38 144t97.5 127t126.5 117t126.5 113.5t97.5 115.5t38 124q0 71 -42.5 120t-107 74t-130.5 25q-91 0 -144.5 -28.5t-83 -73.5t-45 -96.5t-30.5 -98.5l-43 2q-52 2 -85.5 25t-33.5 72q0 12 2 25t8 26q32 83 103 136t155 78.5
t156 25.5q128 0 245 -39.5t191 -118.5t74 -197q0 -95 -39 -166t-101.5 -125t-133.5 -98t-136 -85.5t-109 -87t-51 -103.5q-10 -40 -30 -57t-37 -17zM285 -29q-43 0 -61.5 23.5t-18.5 54.5q0 34 18 70.5t49.5 62t71.5 25.5q60 0 85.5 -23.5t25.5 -54.5q0 -35 -23.5 -71.5
t-62 -61.5t-84.5 -25z" />
    <glyph glyph-name="at" unicode="@" horiz-adv-x="1587" 
d="M780 -313q-136 0 -265 36t-233 113.5t-165.5 200.5t-61.5 297q0 143 51.5 266t141 222.5t204.5 170t242 108.5t252 38q155 0 287 -64t212.5 -202t80.5 -359q0 -85 -25 -175t-73.5 -167t-121.5 -124.5t-169 -47.5q-103 0 -170.5 55t-67.5 144q-19 -65 -72 -117.5
t-121.5 -82.5t-136.5 -30q-85 0 -150 59t-65 197q0 111 52.5 220t144.5 198.5t211.5 143t253.5 53.5q43 0 84 -9.5t84 -23.5q-2 -11 -12.5 -60.5t-25 -118.5t-30 -140.5t-27.5 -127.5t-16 -79q-3 -16 -5.5 -37.5t-2.5 -42.5q0 -43 15.5 -79t64.5 -36q50 0 109 55.5
t101 151.5t42 219q0 179 -63.5 290.5t-168 163.5t-227.5 52q-126 0 -255.5 -49t-238 -138t-175 -211t-66.5 -268q0 -172 70.5 -293t194.5 -185t286 -64q121 0 256.5 28t279.5 86l60 -123q-123 -56 -272 -85t-298 -29zM678 100q49 0 104.5 45.5t98.5 126.5l114 492
q-84 0 -161 -45t-137 -117.5t-95 -157t-35 -163.5q0 -92 31.5 -136.5t79.5 -44.5z" />
    <glyph glyph-name="A" unicode="A" horiz-adv-x="1391" 
d="M422 -57q-181 0 -261.5 99t-80.5 286q0 170 71.5 340.5t195.5 323t282.5 271t334.5 187t349 68.5q39 0 105.5 -10t135 -32.5t115.5 -60.5t47 -94q0 -30 -32 -67.5t-72.5 -66.5t-67.5 -36q-31 144 -108.5 207t-182.5 63q-109 0 -233.5 -57.5t-245 -155.5t-219 -222
t-158 -259t-59.5 -264q0 -161 77.5 -244.5t209.5 -83.5q57 0 120 33t110.5 88.5t59.5 120.5q8 42 27 129t43.5 194t49.5 212.5t46 186t31 111.5q9 30 48 43t85 16t74 3q27 0 27 -33q0 -12 -3 -16q-25 -67 -51 -162t-50.5 -199.5t-45 -201.5t-35 -170.5t-20.5 -104.5
q-11 -56 -18.5 -106.5t-1 -81.5t35.5 -31q28 0 48.5 5.5t52 30.5t91 81.5t164.5 158.5v-112q-97 -102 -179.5 -190t-158.5 -142.5t-153 -54.5q-61 0 -90 35t-35.5 92t-1.5 123q-107 -111 -237 -180.5t-236 -69.5z" />
    <glyph glyph-name="B" unicode="B" horiz-adv-x="1667" 
d="M301 -57q-60 0 -127 24.5t-113.5 75t-46.5 129.5q0 54 29.5 82t74.5 38.5t93 10.5q0 -16 -1 -40t-1 -50q0 -39 6 -79t29 -66.5t75 -26.5q58 0 102 43.5t76 113t54 149t36.5 153.5t24.5 125l107 567q4 23 33 35t68.5 16.5t75 5t52.5 0.5l-5 -37t-14.5 -94t-21.5 -118.5
t-26 -110.5l-11 -55t-25.5 -126t-34.5 -160.5t-38.5 -160t-36.5 -121.5q29 -79 113.5 -133.5t181.5 -54.5q94 0 151.5 39t84 100.5t26.5 128.5q0 77 -29 157t-81 147t-123 106v116q135 7 222 70.5t87 163.5q0 90 -43 146t-113 86.5t-154 41.5t-165 11q-88 0 -191 -27
t-196 -77.5t-152 -122t-59 -160.5q0 -51 38.5 -95.5t123.5 -74.5q0 -52 -9 -101.5t-14 -64.5q-68 22 -138 65t-116.5 107t-46.5 147q0 120 70 217.5t189.5 168t270.5 108t314 37.5q151 0 280.5 -40.5t209 -127t79.5 -224.5q0 -39 -16 -90t-54.5 -99t-106.5 -80t-173 -34
q204 -104 292.5 -239t88.5 -256q0 -130 -67 -215.5t-177 -127.5t-239 -42q-155 0 -256 53.5t-164 159.5q-100 -129 -189 -171t-184 -42z" />
    <glyph glyph-name="C" unicode="C" horiz-adv-x="1268" 
d="M616 -57q-138 0 -239 52.5t-166 141t-97 198.5t-32 226q0 119 33.5 251t102 257t172.5 226.5t245.5 162t320.5 60.5q102 0 183 -48.5t128.5 -126.5t47.5 -165q0 -26 -7.5 -45.5t-29.5 -30.5q-65 -33 -152 -81.5t-174 -96t-153 -78.5q-12 -6 -23 -6q-16 0 -25.5 12.5
t-9.5 28.5q0 25 36 50t88.5 50.5t105.5 52t89 55.5t36 60q-1 0 -9 40.5t-27 93.5t-51.5 93.5t-82.5 40.5q-142 -5 -258 -74.5t-199 -180.5t-127.5 -242.5t-44.5 -260.5q0 -180 57 -298.5t156 -177t225 -58.5q152 0 326.5 82.5t341.5 243.5v-111q-193 -183 -393 -290
t-394 -107z" />
    <glyph glyph-name="D" unicode="D" horiz-adv-x="1726" 
d="M950 -57q-103 0 -197.5 44.5t-168.5 145.5q-85 -121 -179.5 -154.5t-201.5 -33.5q-75 0 -132.5 37t-90.5 92t-33 110q0 58 30 88.5t77.5 42t97.5 11.5q0 -25 -3.5 -50.5t-3.5 -54.5q0 -69 22 -124.5t97 -55.5q38 0 74.5 26t58.5 76q14 29 54.5 134t91.5 317l119 614
q6 18 31.5 26t54.5 10.5t43 2.5h94q-27 -156 -46 -314t-58 -323.5t-126 -345.5q20 -59 65.5 -105.5t104.5 -73t117 -26.5q89 0 175 49t155.5 140.5t111 219t41.5 284.5q0 128 -33 243.5t-103 205t-181.5 141t-267.5 51.5q-112 0 -220.5 -34t-197 -90t-141 -123t-52.5 -132
q0 -52 38 -99t126 -81q0 -49 -9 -98.5t-17 -63.5q-155 49 -227 138.5t-72 190.5q0 91 53.5 182t163.5 167t281 122t405 46q186 0 321 -63t221.5 -165.5t128 -223.5t41.5 -237q0 -183 -55 -343.5t-154.5 -282.5t-233 -191t-290.5 -69z" />
    <glyph glyph-name="E" unicode="E" horiz-adv-x="1403" 
d="M100 -57q-7 0 -33.5 6.5t-50.5 28t-24 65.5q0 32 29.5 54.5t65.5 38.5t58 26l256 117q19 27 48.5 126t64.5 226q-17 -2 -55.5 -12.5t-81 -17.5t-73 -1t-30.5 37q0 37 17 48t35 17q33 11 89.5 26.5t135.5 31.5q42 147 76.5 261t83 198.5t131.5 140.5q-57 5 -109 6.5
t-98 1.5q-261 0 -373 -62.5t-112 -162.5q0 -55 50.5 -105.5t145.5 -85.5q0 -34 -9 -75.5t-20 -51.5q-158 56 -236.5 135t-78.5 160q0 118 78.5 207.5t225 140t351.5 50.5h291q108 0 218 -1t201 -3.5t146.5 -8t55.5 -14.5q0 -12 -19 -31l-100 -114q-23 -16 -45.5 -25.5
t-48.5 -9.5q-89 0 -192 20.5t-201 24.5q-34 -120 -70.5 -265.5t-83.5 -295.5q59 5 119.5 7.5t124.5 2.5q53 0 107 -3t112 -3q37 0 37 -33q0 -28 -30 -62t-71 -34q-118 0 -224 -1.5t-210 -9.5q-37 -138 -90 -240t-100 -181h127q15 -5 64.5 -23.5t111 -41t115 -38.5t77.5 -16
q33 0 84 26q12 2 50 27.5t91.5 68t111 93.5t108.5 104v-110q-125 -111 -224 -198t-194.5 -137t-212.5 -50q-8 0 -19.5 7.5t-51 26t-128.5 51t-252 81.5q-84 -67 -178 -116.5t-164 -49.5z" />
    <glyph glyph-name="F" unicode="F" horiz-adv-x="1313" 
d="M252 -180q-92 0 -152 37.5t-89 90.5t-29 101q0 41 17.5 76.5t63.5 57.5t132 22q-7 -37 -9 -71.5t-2 -63.5q0 -64 22.5 -105.5t86.5 -46.5q54 0 100.5 58t87.5 156t76 219.5t66 248.5l-86 -25q-5 -1 -31.5 3t-26.5 38q0 48 17.5 64t33.5 22q20 10 53 22.5t74 25.5
q38 163 69 294t58 177q53 79 115 118q-10 0 -22 1t-23 1q-120 0 -229 -28.5t-194 -75t-134 -103t-49 -112.5q0 -55 37.5 -105t122.5 -88q0 -28 -4.5 -64.5t-11.5 -65.5t-13 -37q-166 68 -241 162t-75 192q0 122 90 226.5t258 175t402 89.5q97 7 203 9t217 2q74 0 141.5 -1
t134.5 -1l-141 -211q-98 0 -189.5 11.5t-189.5 18.5q-28 -142 -51.5 -278t-46.5 -262q38 5 78.5 7.5t83.5 2.5q102 0 219 -6q37 0 37 -33q0 -34 -30 -75.5t-71 -41.5q-92 0 -177.5 -1t-170.5 -9q-38 -183 -85.5 -333t-116 -259t-167 -168t-239.5 -59z" />
    <glyph glyph-name="G" unicode="G" horiz-adv-x="1458" 
d="M743 -467q-64 0 -133 30.5t-116.5 86t-47.5 129.5q0 43 19.5 83t62.5 50l457 133l10.5 42t23.5 98.5t19 99.5l17 86q-65 -63 -155.5 -121.5t-183 -95.5t-165.5 -37q-91 0 -159.5 46.5t-118 123t-83.5 166.5l-120 -70q-51 -29 -97.5 -56.5t-60.5 -27.5q-13 0 -21 19.5
t-8 37.5q0 16 5 29.5t16 17.5q23 14 66 37t89 48t79 44.5t34 26.5q0 191 68 363.5t190.5 306.5t286.5 211.5t356 77.5q106 0 189.5 -50t132.5 -126t49 -154q0 -76 -28.5 -97t-78.5 -42l-63 -29l-830 -434q17 -71 56.5 -138.5t98 -111t130.5 -43.5q94 0 175.5 40.5
t156.5 100.5q3 6 13.5 45t20.5 82t13 60h199l-119 -502q48 23 116 74.5t141.5 117.5t137.5 129v-110q-40 -43 -99.5 -96.5t-123 -104.5t-118 -89t-85.5 -50q-47 -229 -158 -343t-256 -114zM426 678l418 209q101 50 186.5 95t108.5 54q59 26 75.5 46t16.5 48q0 72 -29 141
t-72.5 114t-87.5 45q-130 0 -242.5 -67t-196 -177.5t-130.5 -243.5t-47 -264zM766 -408q42 0 74.5 41.5t56.5 100.5t38.5 113t18.5 79q-50 -21 -107.5 -34.5t-109 -28.5t-84 -39t-32.5 -66q0 -58 36.5 -112t108.5 -54z" />
    <glyph glyph-name="H" unicode="H" horiz-adv-x="1870" 
d="M383 -55q-118 0 -190 45t-105 104t-33 101q0 53 35.5 78.5t90 33.5t110.5 8v-59q0 -44 6 -91t27.5 -79.5t68.5 -32.5q78 0 130.5 58.5t86 149.5t55 190t37.5 180l-213 -31q4 0 -11 0t-30.5 8.5t-15.5 32.5q0 48 17.5 64t33.5 22q44 11 107.5 23t144.5 24l4 19
q24 108 54 198t81 159.5t138 115.5q-111 11 -217 36t-220 25q-40 0 -108.5 -8t-139 -28t-119 -56.5t-48.5 -93.5q0 -47 33 -83.5t78 -62t81 -41.5q0 -29 -6 -70.5t-24 -64.5q-69 27 -143 72t-124.5 109.5t-50.5 148.5q0 98 49 168t127 114t168.5 64.5t173.5 20.5
q96 0 187.5 -18l183 -36t186.5 -18q63 0 116 21t108 24q-10 -58 -39 -115t-78 -88q-79 -110 -126 -231t-93 -250q125 12 278 18q45 122 115.5 244t161.5 224t199 163.5t229 61.5q34 0 82 -11t95 -33t78 -55t31 -76q0 -19 -20 -47t-49.5 -56t-58 -47t-46.5 -20l-8 21
q-16 56 -50.5 106t-100.5 50q-87 0 -163 -50.5t-139.5 -130t-113 -169.5t-84.5 -169h74q105 0 219 -6q20 0 28.5 -10t8.5 -22q0 -28 -30 -62.5t-71 -34.5q-138 0 -270 -6q-19 -64 -31 -136t-12 -138q0 -177 43.5 -250.5t107.5 -73.5q76 0 167 51.5t183.5 132.5t174.5 168
l-2 -114q-92 -102 -201.5 -189.5t-219.5 -140.5t-204 -53q-88 0 -147.5 78.5t-59.5 267.5q0 106 14.5 214t30.5 175q-69 -4 -137 -10t-137 -13q-23 -88 -50 -186.5t-64.5 -191.5t-94.5 -168.5t-140 -120.5t-200 -45z" />
    <glyph glyph-name="I" unicode="I" horiz-adv-x="1061" 
d="M494 -57q-60 0 -127 24.5t-113.5 75t-46.5 129.5q0 54 29 82t74 38.5t93 10.5q0 -16 -1 -40t-1 -50q0 -39 6 -79t29.5 -66.5t75.5 -26.5q59 0 103 43.5t75.5 113t54 149t37 153.5t23.5 125l14 77q-167 13 -267.5 53.5t-145 94t-44.5 104.5q0 47 34 115t101 140t165.5 135
t227.5 102t288 39q63 0 115.5 21t107.5 24q-11 -67 -48.5 -131.5t-103.5 -87.5q-69 -118 -115 -248t-77 -270l-33 -146q-18 -88 -41 -185.5t-59 -189.5t-92 -166.5t-138.5 -118.5t-199.5 -44zM854 842q38 143 101 267t190 194q-168 0 -286 -45t-191.5 -108t-107.5 -120
t-34 -80q0 -40 78 -69.5t250 -38.5z" />
    <glyph glyph-name="J" unicode="J" horiz-adv-x="1077" 
d="M330 -428q-63 0 -130.5 30.5t-114 85.5t-46.5 128q0 43 19.5 88t64.5 57l418 113q16 94 41 203t51 218.5t43 204.5q-163 9 -264.5 43t-153 82t-65.5 97q-15 39 10 107t89 146.5t164.5 149t237 115.5t307.5 45q63 0 116 21t108 24q-11 -67 -48.5 -131.5t-103.5 -87.5
q-63 -109 -103 -227t-69 -244q62 0 130 5t145 17q0 -25 -6.5 -59.5t-24.5 -54.5q-73 -20 -142 -31.5t-131 -16.5l-118 -567q71 43 138.5 78t144 87.5t173.5 147.5v-112q-43 -51 -108.5 -102.5t-137.5 -97t-134.5 -78.5t-98.5 -46q-47 -218 -154 -328t-247 -110zM707 840
q34 143 92 268t170 195q-168 0 -286 -45t-191.5 -108t-107.5 -120t-34 -80q0 -41 85 -71.5t272 -38.5zM352 -356q37 0 66 31.5t50 78.5t35 96t21 84q-48 -16 -101 -26.5t-99 -22t-74.5 -32.5t-28.5 -58q0 -53 32.5 -102t98.5 -49z" />
    <glyph glyph-name="K" unicode="K" horiz-adv-x="1888" 
d="M358 -55q-117 0 -189 45t-105 104t-33 101q0 53 35.5 78.5t89.5 33.5t110 8v-59q0 -44 6 -91t28 -79.5t69 -32.5q70 0 119 47.5t82.5 124t56 164t38 169.5t29.5 140l21 95q24 108 53.5 198.5t80.5 160t138 114.5q-104 12 -205 36.5t-211 24.5q-40 0 -108.5 -8t-139 -28
t-119 -56.5t-48.5 -93.5q0 -47 32.5 -83.5t77.5 -62t82 -41.5q0 -29 -6 -70.5t-25 -64.5q-69 27 -142.5 72t-124 109.5t-50.5 148.5q0 98 49 168t127 114t168.5 64.5t173.5 20.5q92 0 180 -18t176.5 -36t180.5 -18q63 0 115.5 21t107.5 24q-9 -58 -38 -115t-79 -88
q-82 -112 -132.5 -235.5t-90.5 -257.5l-18 -62q140 142 258.5 281.5t227.5 254t220.5 183t235.5 68.5q7 0 42.5 -4t84 -14.5t96 -30.5t79 -51t31.5 -77q0 -19 -20 -47t-49.5 -56t-58 -47t-46.5 -20l-8 21q-16 56 -50.5 106t-100.5 50q-89 0 -157 -35.5t-124.5 -94.5
t-109 -130.5t-110 -145.5t-128.5 -139l209 -410q74 -135 116.5 -213.5t88.5 -62.5q46 15 133 96t229 223v-112q-86 -94 -171.5 -180.5t-155.5 -141.5t-109 -55q-66 0 -135 73.5t-154 249.5l-199 449l-194 -94q-33 -127 -71.5 -248t-96 -218.5t-145.5 -155.5t-220 -58z" />
    <glyph glyph-name="L" unicode="L" horiz-adv-x="1255" 
d="M754 -57q-8 0 -19 6.5t-49 24.5t-122.5 52.5t-239.5 90.5q-89 -58 -189 -102t-174 -44q-7 0 -33.5 7t-50.5 28.5t-24 65.5q0 32 29.5 54.5t66 38t57.5 25.5l262 119l232 828q17 60 51 89t82 64q23 17 77 54t119.5 77t126.5 68.5t97 28.5q86 0 163.5 -48.5t126 -126.5
t48.5 -165q0 -26 -8 -45.5t-29 -30.5q-65 -33 -152.5 -81.5t-174.5 -96t-153 -78.5q-12 -6 -22 -6q-17 0 -26 12.5t-9 28.5q0 25 35.5 49.5t87.5 49.5t105 51.5t89 55.5t37 60q-1 0 -9 41t-26.5 94t-51 94t-83.5 41q-38 -4 -86.5 -46t-94.5 -100.5t-78.5 -114.5t-39.5 -89
q-38 -187 -91.5 -391t-141.5 -410q22 -6 40.5 -13t41.5 -13q16 -5 68 -24t117 -41.5t122 -39t82 -16.5q11 0 39 7.5t79 37t129 94.5t189 180v-112q-88 -88 -187.5 -176.5t-208.5 -147.5t-226 -59z" />
    <glyph glyph-name="M" unicode="M" horiz-adv-x="1712" 
d="M-365 -260q-21 0 -34 29t-13 108q0 41 35 66t90 45.5t118 46.5t121 67.5t97 110.5q57 122 129.5 274.5t149.5 314.5t150 314.5t130 274.5q41 75 120 122.5t167 47.5l12 -7q-35 -264 -47 -532.5t-29 -536.5h15q49 98 84 166t68 131.5t74 144t101 200.5t150 303
q14 23 50.5 48.5t82.5 48t89.5 37t70.5 15.5q0 -1 3.5 -1.5t4.5 -2.5q-25 -131 -54 -281.5t-57 -304t-51 -297t-37 -261t-14 -193.5q0 -97 47 -97q24 0 71 32t103.5 80.5t110 98.5t90.5 86v-114q-109 -106 -213 -192t-190.5 -136.5t-145.5 -50.5q-54 0 -83.5 48.5
t-29.5 160.5q0 89 13.5 202.5t33.5 234.5t41.5 234t36.5 201q4 31 12 71t15.5 73.5t7.5 43.5q0 17 -10 17q-14 0 -18 -12q-21 -41 -64 -126t-100.5 -197t-121 -235t-125.5 -241t-115.5 -215t-90 -157t-47.5 -66q-31 9 -42 27.5t-11 31.5l28 1087h-14l-479 -997
q-30 -54 -85 -121t-124 -128.5t-141 -101.5t-136 -40z" />
    <glyph glyph-name="N" unicode="N" horiz-adv-x="1473" 
d="M1100 -57q-46 0 -73.5 32.5t-41 82.5t-18 104.5t-4.5 99.5q0 239 35 483t102 457q11 30 11 55q0 26 -11.5 43.5t-33.5 17.5q-13 0 -33 -9q-162 -82 -293.5 -218t-225 -303.5t-143.5 -345.5q-20 -71 -38 -154.5t-33 -160.5t-28 -127h-206q0 79 23 190t59 243t75.5 275
t71.5 287l82 318l-322 -228l-30 -10q-16 0 -21.5 16t-5.5 35q0 10 4.5 20.5t20.5 20.5l430 271q17 11 49 29.5t66 33.5t55 15q20 0 20 -19q0 -37 -12 -94t-27 -116t-27 -104.5t-12 -60.5l-16 -82q144 171 263 267.5t210.5 141t154 56t93.5 11.5q46 0 65 -27t19 -66
q0 -25 -17 -112t-41.5 -211.5t-49 -263t-41.5 -267.5t-17 -223q0 -43 5 -89t20 -78t44 -32q16 0 37.5 11t46.5 37l256 245l-2 -110q-4 -4 -23 -23.5t-43 -44t-43.5 -44.5t-25.5 -25q-27 -25 -73 -66t-99 -83.5t-103 -71.5t-85 -29z" />
    <glyph glyph-name="O" unicode="O" horiz-adv-x="1653" 
d="M715 -57q-162 0 -302 74t-226.5 221t-86.5 367q0 172 62 335t179.5 293.5t285.5 207.5t379 77q32 0 67 -3.5t70 -9.5l-4 -102q-26 5 -51 6.5t-48 1.5q-164 0 -295.5 -60.5t-224.5 -163.5t-142.5 -232t-49.5 -266q0 -168 73.5 -286.5t191 -180.5t249.5 -62
q133 0 239.5 45.5t185.5 122t128 168.5h-13q-136 0 -255.5 47.5t-194 143t-74.5 239.5q0 82 37.5 153.5t117 115.5t204.5 44q89 0 173.5 -50.5t139.5 -155t55 -265.5q0 -69 -12 -131q137 21 280 106v-92q-67 -53 -147.5 -88.5t-165.5 -52.5q-47 -130 -134.5 -234.5
t-200.5 -179t-239 -114t-251 -39.5zM1448 627q27 86 27 172q0 90 -31 164.5t-94.5 118.5t-159.5 44q-85 0 -122.5 -35.5t-37.5 -91.5q0 -106 54 -189.5t148.5 -132t215.5 -50.5z" />
    <glyph glyph-name="P" unicode="P" horiz-adv-x="1317" 
d="M160 -180q-74 0 -141 25.5t-109.5 77.5t-42.5 130q0 50 29 76.5t74 36.5t93 10q0 -29 -1 -58t-1 -52q0 -58 24 -103t93 -45q65 0 113.5 55.5t84.5 142t60.5 183.5t40.5 181.5t25 133.5l110 576q5 23 33.5 35t60.5 17t46 5l88 2q-5 -36 -16.5 -102.5t-27 -146.5
t-31.5 -156.5t-30 -132.5h25q170 0 284.5 53t172 135.5t57.5 171.5q0 82 -52 155.5t-157 120t-266 46.5q-85 0 -187 -21.5t-193.5 -61t-150.5 -94.5t-59 -122q0 -80 47.5 -117.5t116.5 -63.5q0 -34 -6.5 -82t-20.5 -77q-69 22 -138 65.5t-115 106.5t-46 143q0 108 71 192
t189 141t262 86.5t291 29.5q235 0 382 -59.5t216.5 -155t69.5 -203.5q0 -92 -47 -182.5t-134.5 -164.5t-211.5 -118.5t-279 -44.5q-67 0 -141 12q-35 -237 -97.5 -390t-140 -238.5t-160 -119.5t-157.5 -34z" />
    <glyph glyph-name="Q" unicode="Q" horiz-adv-x="1632" 
d="M420 -518q-64 0 -136 21.5t-122.5 71.5t-50.5 136q0 34 15 57t52 23l385 -27q12 14 33.5 63.5t47.5 116.5q-156 7 -288.5 83t-213.5 220.5t-81 357.5q0 172 62 335t179.5 293.5t285.5 207.5t379 77q32 0 67 -3.5t70 -9.5l-4 -102q-26 5 -51 6.5t-48 1.5
q-164 0 -295.5 -60.5t-224.5 -163.5t-142.5 -232t-49.5 -266q0 -152 60.5 -263t160 -177.5t216.5 -82.5q20 55 35.5 98.5t22.5 61.5q13 34 71 39.5t122 5.5l-76 -204q161 24 275.5 116t179.5 213h-13q-136 0 -255.5 47.5t-194 143t-74.5 239.5q0 82 37.5 153.5t117 115.5
t204.5 44q89 0 173.5 -50.5t139.5 -155t55 -265.5q0 -69 -12 -131q137 21 280 106v-92q-67 -53 -147.5 -88.5t-165.5 -52.5q-53 -148 -158.5 -262.5t-240.5 -189t-279 -101.5l-69 -186q40 6 99.5 16t115.5 25t86 36l10 -120q-23 -12 -68 -24.5t-97.5 -23.5t-98.5 -18.5
t-72 -9.5q-28 -66 -106 -118t-203 -52zM1409 627q27 86 27 172q0 90 -31 164.5t-94.5 118.5t-159.5 44q-85 0 -122.5 -35.5t-37.5 -91.5q0 -106 54 -189.5t148.5 -132t215.5 -50.5zM434 -424q45 0 67.5 30.5t35.5 59.5h-115q-38 0 -68.5 4.5t-52.5 5.5q-26 0 -35.5 -2.5
t-9.5 -19.5q0 -22 51 -50t127 -28z" />
    <glyph glyph-name="R" unicode="R" horiz-adv-x="1616" 
d="M215 -57q-76 0 -152 29.5t-127 87.5t-51 145q0 59 66 86.5t151 27.5q7 0 15 -4q-1 -15 -2.5 -34t-1.5 -39q0 -44 9.5 -87.5t36.5 -72.5t79 -29q51 0 95 54.5t81 145t67.5 201t54.5 224t42 214t31 171t20 92.5q8 25 19.5 46t43 34.5t99.5 13.5h30.5t36.5 -2
q-16 -139 -42 -281.5t-54 -277.5q120 0 215 38t162.5 98.5t103 129t35.5 129.5q0 78 -50.5 149t-142.5 116t-215 45q-108 0 -220 -20.5t-206.5 -60t-152.5 -96.5t-58 -131q0 -73 52 -111t110 -61q0 -38 -6 -81t-20 -78q-73 24 -141 65t-112 103.5t-44 148.5
q0 104 70.5 186.5t188.5 141t263.5 89t296.5 30.5q123 0 239.5 -28.5t210 -83t148.5 -132.5t55 -176q0 -124 -68 -207t-194 -140t-301 -102q48 -26 92 -90t83 -142.5t72.5 -151.5t60.5 -121t46 -48q28 0 80.5 40t114.5 97.5t117.5 113.5t89.5 87l2 -102q-51 -55 -112 -121.5
t-127.5 -127.5t-134 -100.5t-132.5 -39.5q-87 0 -133.5 35.5t-72.5 84t-54 87.5q-9 23 -30 75.5t-51.5 119.5t-67 134.5t-76.5 120.5q-19 -72 -44.5 -159.5t-63 -175t-94 -160.5t-137.5 -117.5t-194 -44.5z" />
    <glyph glyph-name="S" unicode="S" horiz-adv-x="1069" 
d="M252 -180q-71 0 -146 25.5t-125.5 78.5t-50.5 135q0 68 50 106.5t116 41.5l43 2q-1 -20 -2.5 -46t-1.5 -52q0 -51 7.5 -96.5t48 -74t137.5 -28.5q59 0 125 20.5t124.5 59.5t95 96.5t36.5 130.5q0 68 -39 135.5t-100.5 134t-130 133t-130 133.5t-100.5 134t-39 135
q0 117 59 209t154.5 155.5t206 96.5t213.5 33q53 0 112.5 -14.5t111.5 -47.5t85 -89t33 -140q0 -9 -40 -36.5t-100.5 -64.5t-124.5 -73t-114.5 -62.5t-67.5 -32.5v99q24 14 68 34t89.5 43.5t77.5 47t32 43.5q0 113 -61 155.5t-148 42.5q-82 0 -167.5 -35.5t-143.5 -101.5
t-58 -160q0 -66 39 -123.5t100.5 -113t130 -114t130 -125t100.5 -146.5t39 -180q0 -125 -61.5 -219.5t-161.5 -157.5t-218.5 -95t-232.5 -32z" />
    <glyph glyph-name="T" unicode="T" horiz-adv-x="1085" 
d="M256 -57q-92 0 -152 37.5t-89 90.5t-29 101q0 41 17.5 76.5t63.5 57.5t132 22q-7 -37 -9 -71.5t-2 -63.5q0 -65 22.5 -106t86.5 -46q56 0 105.5 59.5t92.5 159.5t80 223t67.5 251.5t55.5 244.5t44.5 202.5t33.5 123.5q28 30 64.5 48.5t93.5 18.5q-32 9 -66 15t-71 6
q-108 0 -206.5 -32t-174.5 -85t-120 -116.5t-44 -127.5q0 -55 37.5 -105t122.5 -87q0 -29 -4.5 -65t-11.5 -65.5t-13 -37.5q-166 68 -240.5 162t-74.5 192q0 92 56.5 179.5t157.5 158t238 112.5t297 42q91 0 192 -18.5t203.5 -37t198.5 -18.5q91 0 164.5 33t124.5 47
q-37 -126 -137 -198.5t-232 -72.5q-84 0 -160.5 31t-154.5 59q-25 -120 -53.5 -269.5t-67 -307t-92.5 -304t-129.5 -264t-178 -186.5t-239.5 -69z" />
    <glyph glyph-name="U" unicode="U" horiz-adv-x="1595" 
d="M625 -57q-145 0 -233.5 59t-128.5 162.5t-40 238.5q0 147 41.5 311t113 320t159.5 277q0 4 -5 4q-3 0 -12 -6l-114 -88q-22 -12 -93 -56.5t-166.5 -103t-189.5 -115.5v111q93 53 196.5 116.5t205 126.5t188.5 115t146.5 83.5t78.5 31.5q9 0 18 -5t9 -16t-24.5 -66
t-63 -140.5t-81.5 -191t-81.5 -220t-63 -226t-24.5 -208.5q0 -136 63.5 -223t220.5 -87q140 0 260 67.5t211.5 180t146 250.5t62.5 279q-27 5 -73 26t-93 60t-79.5 98t-32.5 139q0 58 21 121t68 107.5t126 44.5q63 0 100.5 -46t57.5 -115.5t26.5 -141.5t7 -126t0.5 -67
l62.5 18t158.5 69.5t196 149.5v-114q-43 -36 -107.5 -82.5t-144 -86.5t-167.5 -58q-24 -187 -102 -361.5t-200.5 -313.5t-281 -220.5t-343.5 -81.5zM1430 1028q0 9 1 19.5t1 19.5q0 61 -13 123.5t-38 105.5t-60 43q-34 0 -44.5 -23.5t-10.5 -49.5q0 -98 49.5 -161t114.5 -77
z" />
    <glyph glyph-name="V" unicode="V" horiz-adv-x="1415" 
d="M621 -57q-136 0 -215 70.5t-112.5 186.5t-33.5 251t25.5 273t64.5 252t80 175q13 19 32.5 52t35.5 64t16 42q0 6 -2 6q-3 0 -12 -6l-115 -88q-21 -12 -92.5 -56.5t-166.5 -103t-189 -115.5v111q93 53 196.5 116.5t205 126.5t188 115t146.5 83.5t79 31.5q6 0 16 -5t10 -16
q0 2 -17 -47t-43.5 -134.5t-57 -194t-57 -227t-43.5 -234t-17 -213.5q0 -121 35 -199t120 -78q65 0 135 50t139 132.5t130.5 181t109 197t74.5 179.5q-28 5 -74 26t-93 60t-79 98t-32 139q0 58 21 121t68 107.5t126 44.5q61 0 99.5 -41.5t60 -105.5t30.5 -133.5t10.5 -128
t1.5 -87.5l52 12t132 46.5t165 99.5v-115q-54 -35 -152.5 -82t-208.5 -65q-23 -108 -70.5 -238t-118 -260t-161.5 -238t-202 -173.5t-240 -65.5zM1296 1028q0 9 1 19.5t1 19.5q0 61 -13 123.5t-37.5 105.5t-59.5 43q-34 0 -44.5 -23.5t-10.5 -49.5q0 -98 49.5 -161
t113.5 -77z" />
    <glyph glyph-name="W" unicode="W" horiz-adv-x="1978" 
d="M1235 -57q-76 0 -128 27.5t-85.5 68t-51.5 81t-25 68l-7 27.5q-47 -63 -122.5 -125.5t-157 -103.5t-148.5 -41q-87 0 -148 43.5t-99 113.5t-55.5 149.5t-17.5 151.5q0 123 27 258.5t78.5 263t124.5 226.5q13 19 33 52.5t35.5 64.5t15.5 41q0 6 -2 6t-13 -6l-114 -88
q-21 -12 -92.5 -56.5t-166.5 -103t-190 -115.5v111q93 53 197 116.5t205.5 126.5t188 115t146 83.5t78.5 31.5q10 0 18.5 -5t8.5 -16q0 -27 -30 -102.5t-73.5 -181t-87.5 -224.5t-74 -235.5t-30 -212.5q0 -56 7.5 -120.5t29.5 -121.5t66.5 -93t117.5 -36q33 0 79.5 20
t89.5 53t65 71q-4 23 -6 54.5t-2 70.5q0 79 9.5 175t31 192.5t56 177t85.5 129.5t119 49q49 0 65.5 -34t16.5 -81q0 -64 -19 -149.5t-47 -173.5t-56.5 -163.5t-47.5 -122.5t-19 -49q0 -61 34.5 -102t89.5 -61.5t114 -20.5q83 0 160.5 48.5t143 127.5t114.5 173t76.5 187.5
t27.5 168.5q-28 5 -74 26t-93 60t-79.5 98t-32.5 139q0 58 21 121t68.5 107.5t125.5 44.5q62 0 99.5 -41.5t57 -105.5t27.5 -133.5t8.5 -128t0.5 -87.5l48.5 12t124 46.5t155.5 99.5v-115q-51 -35 -139 -82t-191 -65q-7 -109 -51 -240t-117.5 -260.5t-168.5 -237
t-204 -172.5t-225 -65zM1884 1028q0 9 1 19.5t1 19.5q0 61 -13 123.5t-37.5 105.5t-59.5 43q-34 0 -45 -23.5t-11 -49.5q0 -98 50 -161t114 -77z" />
    <glyph glyph-name="X" unicode="X" horiz-adv-x="1544" 
d="M123 -59q-55 0 -101.5 21.5t-46.5 103.5q0 50 26 65.5t65 15.5q35 0 75 -6t74 -6q50 0 131.5 69.5t181.5 181.5t203 239q-45 107 -94.5 216.5t-92.5 203.5t-71 151q-18 35 -31 61.5t-47 26.5q-43 0 -114 -45q-20 -13 -41 -23.5t-66 -34.5t-139 -79v110q146 84 233 134.5
t132 77t65.5 39t32.5 20.5q23 14 47 24.5t49 10.5q31 0 59.5 -20.5t51.5 -70.5q11 -26 44 -109t79.5 -201t97.5 -249q37 47 71 89.5t66 80.5q95 131 156.5 210t102 124.5t73 73t69.5 55.5q26 17 68 17q34 0 62 -13.5t28 -42.5q0 -35 -36.5 -69.5t-97 -81t-133.5 -116.5
t-145 -177q-50 -67 -108.5 -141.5t-120.5 -149.5l106 -268q76 -171 123.5 -247.5t96.5 -76.5q56 0 135 82t223 223l2 -112q-104 -111 -188.5 -198t-155.5 -137t-137 -50q-92 0 -181.5 117t-199.5 391l-19 43q-109 -129 -193 -224.5t-106 -119.5q-40 -46 -90.5 -94.5
t-117 -81.5t-156.5 -33z" />
    <glyph glyph-name="Y" unicode="Y" horiz-adv-x="1554" 
d="M442 -774q-66 0 -133 23t-112 69.5t-45 116.5q0 64 51 92l809 432l159 498q-81 -94 -181 -179.5t-202.5 -152t-193.5 -105t-156 -38.5q-44 0 -83.5 24t-64 82t-24.5 160q0 108 34.5 246.5t83.5 284t93 274.5l107 311l-308 -213l-10 -6q-8 -8 -12 -8q-12 0 -22.5 9
t-10.5 28q0 12 2.5 23t18.5 22l411 268q25 17 55 24t56 7q28 0 46.5 -7.5t18.5 -21.5q0 -22 -21.5 -88t-49.5 -176q-28 -112 -67.5 -241t-77.5 -252.5t-63.5 -222t-25.5 -151.5q0 -35 23.5 -72.5t54.5 -37.5q69 0 162.5 36.5t187.5 103t165.5 156t96.5 195.5l91 375
q2 11 12.5 51t24.5 93t29.5 104.5t29.5 86.5t22 38h217l-354 -1401l387 354v-112l-405 -361q-49 -128 -121 -258.5t-172 -240t-232 -176t-301 -66.5zM553 -694q51 0 112.5 38t122 101.5t108 140t69.5 154.5l36 121l-278 -162q-103 -48 -178.5 -112.5t-75.5 -133.5
q0 -72 26 -107t58 -40z" />
    <glyph glyph-name="Z" unicode="Z" horiz-adv-x="1450" 
d="M1044 -57q-7 0 -19 6.5t-53.5 24.5t-134.5 52.5t-264 90.5q-88 -58 -188 -102t-174 -44q-7 0 -33.5 7t-51 28.5t-24.5 65.5q0 37 25 64.5t57 46.5t52 28l247 111q47 61 109 143.5t129 189.5l446 721q-78 8 -172.5 12.5t-208.5 4.5q-103 0 -201 -19t-161.5 -45t-63.5 -49
q0 -52 14 -101.5t48 -78.5q0 -13 -24 -23.5t-44 -15.5q-123 46 -180 130t-57 179q0 51 193 99.5t608 48.5q101 0 179 -6.5t150.5 -15.5t157.5 -15l43 -97q-54 -84 -131.5 -220t-174 -295.5t-208.5 -318.5t-236 -290q43 -13 118.5 -36.5t159.5 -47.5t154 -40.5t101 -16.5
q33 0 84 26q7 3 39 21t73.5 45.5t75.5 56.5v-100q-82 -47 -155 -99.5t-146.5 -89t-157.5 -36.5z" />
    <glyph glyph-name="bracketleft" unicode="[" horiz-adv-x="983" 
d="M57 -199q-9 0 -16.5 12t-7.5 25q0 6 0.5 15.5t1.5 13.5l403 1612q10 35 31 46t49 11h426q16 0 24.5 -16t8.5 -33t-14 -34.5t-35 -22.5q-21 0 -75 -2.5t-111 -4.5t-89 -2l-15.5 -61.5t-42 -165.5t-59.5 -234.5t-68.5 -270.5t-68.5 -272.5t-60 -241t-43 -176t-17 -75.5
q32 0 89 0.5t111.5 1t75.5 0.5q14 -3 20.5 -14.5t6.5 -24.5q0 -16 -20 -34.5t-42 -32.5q-113 -3 -216.5 -5.5t-217.5 -4.5q-18 -9 -29 -9z" />
    <glyph glyph-name="backslash" unicode="\" horiz-adv-x="821" 
d="M907 -182q-70 0 -106 32.5t-54 75t-34 72.5l-779 1556l-3.5 17.5t-2.5 15.5q0 13 7 23t14 10q62 0 98 -16.5t60.5 -61t50.5 -127.5q3 -9 37.5 -77t90.5 -176t124 -239.5t138.5 -269.5t134 -265t110.5 -226.5t67 -153.5q17 -43 43.5 -79.5t26.5 -80.5q0 -30 -23 -30z" />
    <glyph glyph-name="bracketright" unicode="]" horiz-adv-x="989" 
d="M496 -197q-10 0 -25 9q-112 2 -212.5 4.5t-213.5 5.5q-15 14 -25.5 32.5t-3.5 34.5q7 13 18.5 24.5t26.5 14.5q22 0 75.5 -0.5t110.5 -1t89 -0.5q-4 1 10 62.5t40 166t59.5 235t69.5 270.5t70.5 272t62.5 240t45 175.5t18 75.5q-32 0 -89.5 -0.5t-111.5 -1t-76 -0.5
q-13 3 -19.5 15t-6.5 24q0 17 19.5 35.5t41.5 32.5q114 3 217.5 6t216.5 4q20 8 29 8t16.5 -11.5t7.5 -25.5v-14.5t-2 -13.5l-403 -1612q0 -4 -4.5 -13.5t-7.5 -15.5q-7 -13 -20.5 -25t-22.5 -12z" />
    <glyph glyph-name="asciicircum" unicode="^" horiz-adv-x="1706" 
d="M1403 709q-9 13 -35 58t-60 107.5t-70.5 128.5t-67.5 122.5t-50 88.5q-31 -32 -82 -87.5t-109.5 -120.5t-114 -126t-96 -105.5t-54.5 -57.5l-60 43q26 46 81.5 122.5t124 162.5t137 162.5t123 125.5t79.5 49q16 0 46 -45t66.5 -116.5t74 -151.5t69 -152t51 -118.5
t19.5 -48.5z" />
    <glyph glyph-name="underscore" unicode="_" horiz-adv-x="930" 
d="M129 -90q-7 0 -32 4.5t-25 36.5q0 47 16.5 64.5t32.5 21.5q18 2 68.5 5.5t118 7t138 6.5t130 5t92.5 2q84 0 146.5 -8t62.5 -32q0 -28 -30.5 -62.5t-70.5 -34.5q-37 0 -71 1t-66 1q-23 0 -54 -0.5t-84.5 -2t-143 -5t-228.5 -10.5z" />
    <glyph glyph-name="grave" unicode="`" horiz-adv-x="1706" 
d="M604 910q-36 13 -100 35t-142 50t-156 58l-88 35q-18 5 -18 29q0 20 16.5 43.5t41.5 41t48 17.5q42 -2 99.5 -29.5t118.5 -68t114.5 -82.5t87.5 -74z" />
    <glyph glyph-name="a" unicode="a" horiz-adv-x="928" 
d="M150 -29q-63 0 -96.5 42t-45.5 101t-12 111q0 111 52.5 220t144.5 198.5t211.5 143t252.5 53.5q45 0 85 -9.5t83 -23.5q-2 -12 -14 -64.5t-28 -125.5t-31.5 -148t-26 -134.5t-10.5 -84.5q0 -64 30 -64q27 0 73.5 37t106.5 98t126 134v-115q-24 -29 -69.5 -74.5
t-102.5 -96.5t-114.5 -96t-107 -73.5t-79.5 -28.5q-45 0 -60.5 40.5t-15.5 90.5q0 26 2.5 51.5t5.5 45.5q-41 -53 -98 -106t-124 -87.5t-138 -34.5zM307 131q31 0 70.5 23t78.5 56t66 62l115 492q-84 0 -161 -45t-137 -117.5t-95 -157t-35 -163.5q0 -58 21.5 -104t76.5 -46z
" />
    <glyph glyph-name="b" unicode="b" horiz-adv-x="986" 
d="M291 -57q-93 0 -138.5 27.5t-60 71t-14.5 91.5q0 144 29.5 293.5t77.5 317.5t102 364q20 72 63.5 154t104.5 154.5t134 118.5t152 46q85 0 119.5 -36t34.5 -95q0 -69 -45 -169t-154 -235.5t-301 -312.5q-18 -75 -42 -164t-42 -176t-18 -157q0 -71 25.5 -115.5t91.5 -44.5
q54 0 111.5 34t106.5 88.5t79 117.5t30 120q0 72 -57 118t-199 46q10 36 48.5 77t87 70t85.5 29q111 0 161 -64t50 -165q0 -59 -12.5 -132.5t-43.5 -142.5t-89 -116q45 26 103.5 74.5t117.5 104t103 101.5l-12 -128q-40 -45 -109 -106.5t-167.5 -121t-226.5 -98.5t-286 -39z
M430 924q51 32 106 91.5t102.5 130.5t77 138t29.5 115q0 67 -67 67q-21 0 -52 -48t-65 -121.5t-64 -151t-48.5 -138.5t-18.5 -83z" />
    <glyph glyph-name="c" unicode="c" horiz-adv-x="713" 
d="M227 -29q-121 0 -176 75.5t-55 184.5q0 96 37.5 202t106.5 198.5t162.5 150.5t205.5 58q35 0 82 -8t82 -34t35 -81q0 -43 -37.5 -72t-94.5 -29q-21 0 -33.5 19t-25 44.5t-31.5 44.5t-53 19q-45 0 -84.5 -38t-69.5 -98.5t-46.5 -131.5t-16.5 -137q0 -82 30 -139.5
t99 -57.5q103 0 232 81.5t247 219.5v-112q-49 -66 -120 -130t-152.5 -115.5t-165 -82.5t-158.5 -31z" />
    <glyph glyph-name="d" unicode="d" horiz-adv-x="923" 
d="M147 -29q-58 0 -87.5 35.5t-39.5 84.5t-10 91q0 108 48 223.5t126.5 214t173 159.5t187.5 61q49 0 80 -7.5t51 -13.5l133 475q17 68 33 104t55.5 49t124.5 13h35q-1 -13 -12.5 -58.5t-22.5 -80.5q-16 -48 -42.5 -136t-58.5 -197.5t-63.5 -224.5t-58 -218.5t-42.5 -178.5
t-16 -104q0 -38 7.5 -50.5t23.5 -12.5q25 0 97 72t167 172v-114q-51 -58 -112 -120.5t-122 -116.5t-112.5 -87.5t-83.5 -33.5q-46 0 -64 38.5t-18 94.5q0 64 17 134q-114 -133 -222.5 -200t-171.5 -67zM303 158q35 0 78.5 21.5t84.5 53t70 62.5t33 49l88 387q-1 5 -25 22
t-69 17q-67 0 -128.5 -46t-109.5 -120t-76 -158t-28 -161q0 -71 22.5 -99t59.5 -28z" />
    <glyph glyph-name="e" unicode="e" horiz-adv-x="744" 
d="M292 -31q-121 0 -193 80t-72 209q0 108 35.5 212t101 187.5t155.5 133t199 49.5q98 0 167 -38t69 -138q0 -77 -43.5 -141.5t-111.5 -103t-144 -38.5q-42 0 -92.5 25t-88.5 83q-43 -90 -43 -176q0 -60 14.5 -112.5t51.5 -85.5t102 -33q47 0 105 38t120 95.5t121 117.5
t107 105v-110q-138 -162 -275.5 -260.5t-284.5 -98.5zM471 467q59 0 101 58t42 128q0 57 -25 77t-69 20q-59 0 -104 -34t-73.5 -77.5t-39.5 -73.5q35 -46 79.5 -72t88.5 -26z" />
    <glyph glyph-name="f" unicode="f" horiz-adv-x="463" 
d="M-74 -345q17 129 46 285t65 324t75 334.5t77.5 318t72.5 273.5q18 63 79 126.5t143.5 106.5t164.5 43q46 0 65.5 -23t24 -55.5t4.5 -62.5q0 -106 -37.5 -210.5t-96.5 -202t-125 -184t-125 -157t-96.5 -122t-37.5 -78.5q0 -49 30.5 -91t72.5 -42q15 0 48 23t72 57
t73.5 68.5t53.5 57.5v-116q-32 -39 -82 -85t-101.5 -79t-88.5 -33q-29 0 -59.5 13t-44.5 49q-2 -9 -11 -59.5t-22.5 -122t-27.5 -145.5t-26 -132t-18 -79h-168zM274 586q45 71 103.5 156t113 175.5t90 177.5t35.5 160q0 38 -12.5 70.5t-56.5 32.5q-38 0 -73.5 -61t-67 -157
t-57 -203t-45 -201.5t-30.5 -149.5z" />
    <glyph glyph-name="g" unicode="g" horiz-adv-x="938" 
d="M293 -547q-42 0 -85.5 15.5t-73.5 47.5t-30 81q0 55 48 96.5t108 87.5l277 213l32 170q-91 -81 -157.5 -122.5t-119.5 -56t-106 -14.5q-44 0 -74 30.5t-45.5 77t-15.5 93.5q0 112 41 229.5t116 217t178 160.5t226 61q62 0 148.5 -13.5t150.5 -25.5l-153 -647
q63 59 110 103.5t90.5 88t92.5 99.5v-116q-74 -82 -154.5 -158.5t-159.5 -147.5q-31 -176 -105 -304t-165 -197t-174 -69zM367 131q86 0 217 148l116 487q-37 9 -58 13.5t-40 4.5q-70 0 -130 -43t-105.5 -112t-71 -149.5t-25.5 -155.5q0 -98 26 -145.5t71 -47.5zM324 -492
q56 0 96.5 50t66 135t37.5 190l-164 -139q-35 -29 -72.5 -62.5t-37.5 -105.5q0 -40 18.5 -54t55.5 -14z" />
    <glyph glyph-name="h" unicode="h" horiz-adv-x="881" 
d="M587 -29q-38 0 -51 23.5t-13 52.5q0 9 1.5 20.5t2.5 20.5q3 27 20.5 86t39 134t37.5 151.5t16 138.5q0 57 -57 57q-46 0 -95 -36.5t-94 -96t-80 -130.5t-53 -140q-25 -98 -47 -160.5t-57 -91.5h-156q4 28 22.5 106.5t46 188.5t60 233.5t64.5 243t58 217.5t42 156.5
l16 58.5q26 95 46 147.5t43 76t56.5 29t86.5 5.5q12 0 25 -0.5t20 -3.5l-262 -948q47 87 117 162.5t151 121.5t160 46q98 0 98 -117q0 -35 -19.5 -96t-45 -133t-45 -141t-19.5 -120l2.5 -15t16.5 -15q8 0 34.5 25t64.5 63.5t80 79.5t79 73v-112q-36 -41 -91 -101.5
t-115.5 -120t-115.5 -99.5t-90 -40z" />
    <glyph glyph-name="i" unicode="i" horiz-adv-x="469" 
d="M106 -29q-48 0 -68 42.5t-20 88.5q0 32 11.5 95.5t29 140t37 152t36 133t25.5 79.5q21 54 51.5 75.5t72.5 25.5t97 4q-10 -34 -29 -96t-41 -137.5t-42 -150t-33 -134.5t-13 -90q0 -14 6.5 -40t28.5 -26q12 0 54.5 37t96.5 89.5t102 102.5t71 76v-112q-169 -166 -275 -258
t-198 -97zM375 1044q-42 0 -60 23.5t-18 54.5q0 34 17.5 70.5t49 62t72.5 25.5q59 0 85 -23.5t26 -54.5q0 -34 -24 -71t-63 -62t-85 -25z" />
    <glyph glyph-name="j" unicode="j" horiz-adv-x="442" 
d="M-346 -791q-46 0 -68 33.5t-26.5 80.5t0.5 89q15 88 62.5 173.5t108 160.5t118 132.5t95.5 90.5l38 33l38 135q10 53 28 137t39 173t39 159t28 96q21 54 51 75.5t72.5 25.5t97.5 4q-10 -34 -31 -105.5t-46.5 -160.5t-49 -177.5t-38.5 -158t-15 -99.5q11 5 67.5 52
t138 121.5t166.5 160.5v-112q-110 -112 -211 -205t-198 -139q-20 -96 -33.5 -159t-24.5 -112t-24.5 -101t-34.5 -126q-17 -62 -78.5 -126.5t-144 -107.5t-164.5 -43zM-244 -682q38 0 68.5 40t54 105.5t41.5 141.5t32 149.5t25 128.5q-90 -107 -143.5 -178t-82 -119
t-41.5 -86t-23 -80q-10 -35 7.5 -68.5t61.5 -33.5zM371 1044q-42 0 -60 23.5t-18 54.5q0 34 17.5 70.5t49 62t72.5 25.5q59 0 85 -23.5t26 -54.5q0 -34 -24 -71t-63 -62t-85 -25z" />
    <glyph glyph-name="k" unicode="k" horiz-adv-x="905" 
d="M590 -29q-57 0 -75.5 42.5t-18.5 99.5q0 50 7 102.5t7 87.5q0 27 -16 45.5t-63.5 28.5t-141.5 10l-6 -27q-1 -7 -12 -53.5t-29.5 -108.5t-43 -117.5t-53.5 -80.5h-155q3 28 21.5 106.5t46.5 188.5t60.5 233.5t64 243t58 217.5t42.5 156.5l16 58.5q26 95 45.5 147.5
t42.5 76t56.5 29t86.5 5.5q13 0 25.5 -0.5t19.5 -3.5q-18 -64 -46 -162.5t-59.5 -206t-59.5 -202t-45.5 -154t-16.5 -59.5q77 91 167 128.5t181 37.5q60 0 96.5 -41.5t36.5 -100.5q0 -86 -39 -134t-108.5 -77.5t-159.5 -62.5q73 0 108 -24t45.5 -61t10.5 -77q0 -19 -1 -38
t-1 -36q0 -24 4 -45.5t14 -21.5q7 0 17 10q5 5 40 39.5t84.5 83.5t99.5 99t85 87v-112q-111 -109 -182 -179t-116.5 -108.5t-77 -54t-62.5 -15.5zM295 457h67q39 0 88.5 11t95.5 33.5t75.5 58.5t29.5 87q0 94 -78 94q-27 0 -71 -27t-90 -70.5t-79 -93t-38 -93.5z" />
    <glyph glyph-name="l" unicode="l" horiz-adv-x="593" 
d="M160 -29q-45 0 -64 38.5t-22.5 93.5t-3.5 104q0 131 24 278.5t67 296.5t100.5 283.5t125 239.5t140.5 166t147 61q66 0 103 -45.5t37 -114.5q0 -127 -37.5 -247t-96 -226t-124.5 -193.5t-124.5 -151t-96 -98l-37.5 -34.5l-5 -42t-10.5 -97.5t-5.5 -94.5q0 -12 4.5 -41.5
t30.5 -29.5q15 0 61 40t106 101t119.5 124.5t102.5 111.5v-112q-183 -217 -308.5 -314t-232.5 -97zM324 618q91 82 161 186t118 208.5t73 189.5t25 129q0 25 -7 55.5t-36 30.5q-58 0 -111.5 -96t-107.5 -275t-115 -428z" />
    <glyph glyph-name="m" unicode="m" horiz-adv-x="1348" 
d="M1013 -31q-59 0 -59 88q0 69 21 137t48.5 133.5t48.5 129.5t21 125q0 26 -18.5 49.5t-47.5 23.5q-52 0 -102 -53.5t-95 -136.5t-82.5 -174.5t-63.5 -170t-38 -120.5h-192q0 100 25 196.5t56 192t48 189.5q2 6 2 12v10q0 29 -14.5 44t-32.5 15q-9 0 -21 -4
q-56 -26 -105.5 -87.5t-92 -142t-75.5 -163.5t-55 -153t-32 -109h-191q3 45 15.5 124.5t31.5 174t42 186.5t46.5 165.5t45.5 107.5q20 34 66 41.5t140 7.5q-18 -91 -51.5 -185t-58.5 -182q34 59 80.5 128t104 130.5t125 100.5t143.5 39q30 0 46.5 -23.5t23.5 -54.5t7 -55
q0 -67 -17 -135t-36 -130q32 64 81.5 133.5t110.5 130t128.5 98.5t134.5 38q66 0 89 -44t23 -110q0 -67 -13.5 -137.5t-32 -132t-33.5 -103.5t-17 -53q-1 -9 -2.5 -16.5t-1.5 -12.5q0 -22 12 -22q26 0 94 67t166 164v-113q-49 -57 -114 -119.5t-131 -116.5t-120 -88t-81 -34
z" />
    <glyph glyph-name="n" unicode="n" horiz-adv-x="838" 
d="M508 -29q-52 0 -66 27t-14 49q0 80 22.5 162t52.5 157t52.5 136t22.5 98q0 26 -12 40.5t-27 14.5q-49 0 -99 -52t-96.5 -134t-85 -173t-65 -170.5t-37.5 -125.5h-191q1 46 12.5 120t31 160.5t41.5 172.5t44 158.5t39 115.5q20 53 59 66.5t91 13.5h67l-11.5 -40t-29 -100
t-36 -120.5t-31.5 -102.5q30 56 80.5 124t114.5 130t134 102t138 40q98 0 98 -117q0 -31 -14 -85t-35 -117.5t-42.5 -125t-35.5 -108t-14 -64.5t12 -18q13 0 35 14q13 9 44 37.5t68.5 64.5t71 68t51.5 47v-112q-24 -24 -68 -66.5t-98 -92t-107.5 -93.5t-98 -72.5
t-68.5 -28.5z" />
    <glyph glyph-name="o" unicode="o" horiz-adv-x="867" 
d="M336 -29q-109 0 -175 52.5t-95.5 132.5t-29.5 161q0 171 79 293t221.5 187t330.5 65q20 0 22 -13q0 -15 -2.5 -23.5t-19.5 -19.5q-145 0 -238.5 -61.5t-138.5 -161.5t-45 -216q0 -118 56.5 -177t129.5 -59q47 0 98 29t100 93q-73 45 -111 114.5t-38 136.5q0 74 45.5 126
t147.5 52q90 0 129 -52t39 -124q0 -58 -26.5 -118t-73.5 -104h7q59 0 118 51.5t132 126.5v-110q-59 -80 -129.5 -111t-119.5 -31q-16 0 -49 4q-154 -243 -364 -243zM686 320q20 22 40 76.5t20 97.5q0 38 -17.5 65t-64.5 27q-43 0 -62 -28t-19 -69q0 -42 29.5 -91t73.5 -78z
" />
    <glyph glyph-name="p" unicode="p" horiz-adv-x="836" 
d="M-157 -433q54 189 92.5 387t83 394t114.5 379q22 57 58.5 68.5t91.5 11.5h67q-52 -181 -108 -363q27 55 74.5 122.5t108 130t128.5 103t135 40.5q69 0 99 -43t30 -109t-25 -146t-66.5 -158.5t-93 -142t-104.5 -96.5q25 0 58 7.5t83.5 38t126.5 99t187 191.5v-115
q-106 -117 -195.5 -202.5t-182.5 -132.5t-210 -47q-35 0 -47 16.5t-12 43.5t26 59.5t54 64.5q38 44 79.5 118t70 152t28.5 135q0 38 -15.5 60t-50.5 22q-59 0 -111 -49.5t-97 -132t-83.5 -184t-70.5 -205.5l-27 -86q-40 -137 -69.5 -253t-46.5 -178h-180z" />
    <glyph glyph-name="q" unicode="q" horiz-adv-x="897" 
d="M521 -510l-190 61l150 402q-28 -4 -55 -6t-53 -2q-89 0 -161 28.5t-114.5 97t-42.5 187.5q0 97 34 199t99.5 189t160 140.5t216.5 53.5q41 0 94.5 -13t107.5 -31.5t97 -35.5l-153 -609q67 75 117.5 121t96.5 87t98 100l-1 -117l-337 -373q-5 -20 -20 -69t-35 -111.5
t-41 -124.5t-39 -109t-29 -65zM424 61q15 0 33.5 2t38.5 9l157 694q-37 9 -58 13.5t-40 4.5q-61 0 -114 -47t-93.5 -122t-63 -160.5t-22.5 -163.5q0 -100 37 -165t125 -65z" />
    <glyph glyph-name="r" unicode="r" horiz-adv-x="639" 
d="M269 -29q-47 0 -67.5 42.5t-20.5 88.5q0 32 23 99.5t55.5 146.5t62 146t41.5 96q-45 -50 -76.5 -82t-58.5 -58.5t-59 -60t-80 -87.5v116l203 229q-102 25 -134 63t-32 54q0 66 51 121t143 55q45 0 45 -53q0 -29 -17.5 -66t-43.5 -51q26 -23 67.5 -32t90.5 -9q23 0 59 7
t61 7q29 0 29 -14q0 -8 -2 -12q-18 -43 -54.5 -118.5t-76 -160.5t-67 -158.5t-27.5 -111.5q0 -11 4 -21t17 -10q14 0 59.5 37t102.5 89.5t108 102.5t75 75v-114q-57 -67 -124.5 -130.5t-135 -114.5t-125.5 -81t-96 -30z" />
    <glyph glyph-name="s" unicode="s" horiz-adv-x="645" 
d="M190 -29q-55 0 -119.5 14.5t-110.5 52t-46 105.5q0 42 27 89t67 94.5t79.5 89t64.5 72.5q-27 67 -27 135q0 96 85 167.5t272 71.5q15 0 39 -6t24 -29q0 -45 -39 -74t-94 -43t-105 -14q23 -63 62 -110t79.5 -84t68.5 -69t28 -66q0 -74 -70 -170q74 64 148.5 120t148.5 143
v-116q-37 -46 -104.5 -109.5t-151 -123.5t-169 -100t-157.5 -40zM201 47q62 0 104.5 22t42.5 66q0 48 -25.5 96.5t-61 94.5t-66.5 84q-21 -23 -64 -63.5t-79 -84.5t-36 -78q0 -42 28.5 -72.5t71 -47.5t85.5 -17z" />
    <glyph glyph-name="t" unicode="t" horiz-adv-x="545" 
d="M144 -29q-71 0 -95 49.5t-24 116.5q0 56 10 109.5t16 85.5q11 55 18.5 89t16.5 68.5t23 90.5t37 155q-31 0 -62 3t-31 40q0 11 4.5 17.5t32.5 9.5l84 8q36 118 75 215t100 155t163 58l4 -4q0 -4 -16 -49t-39.5 -112t-47 -138t-38.5 -125l305 14l-22 -36
q-11 -21 -64.5 -31t-119.5 -12.5t-115 -2.5q-1 0 -13 -44.5t-30 -112.5t-36 -140.5t-30 -131.5t-12 -83q0 -37 7 -64.5t42 -27.5q19 0 73 40t134 110.5t174 159.5v-111q-54 -58 -120 -122.5t-136.5 -120.5t-139 -91t-128.5 -35z" />
    <glyph glyph-name="u" unicode="u" horiz-adv-x="993" 
d="M146 -29q-68 0 -92.5 52.5t-24.5 115.5q0 29 4 58.5t10 52.5q25 94 68.5 235.5t97.5 296.5q2 13 36.5 18t73 6t52.5 1h35q0 -3 -16.5 -55t-41 -130t-49 -160.5t-41 -149t-16.5 -93.5q0 -41 19.5 -57.5t47.5 -16.5q42 0 95 25t95 55.5t50 46.5l108 416q17 63 39 87.5
t51 28t64 3.5h68l-13 -47.5t-33 -120.5t-41.5 -152t-38.5 -144.5t-24 -96.5q-1 -14 -4.5 -39t-3.5 -51q0 -14 4 -20.5t21 -6.5q22 0 75 41t127 112.5t158 160.5v-113q-52 -62 -116 -125.5t-132 -116.5t-131 -85t-114 -32t-68.5 40.5t-17.5 90.5q0 55 10 93
q-58 -56 -125.5 -107.5t-136 -84t-129.5 -32.5z" />
    <glyph glyph-name="v" unicode="v" horiz-adv-x="778" 
d="M235 -29q-63 0 -105.5 81.5t-64 212.5t-21.5 278q0 28 1.5 88t11.5 127q2 18 26.5 28.5t55 14.5t53.5 5t22 1h80q-6 -32 -13 -88t-12.5 -120t-5.5 -120q0 -97 15 -179.5t38.5 -132.5t47.5 -50q15 0 35.5 25t43 60t41.5 68t29 49q-2 0 -2 29q0 68 9.5 152t29 161.5t51 128
t76.5 50.5q28 0 39.5 -26.5t11.5 -70.5q0 -57 -15 -132t-35 -147.5t-38 -126.5t-24 -69l20 -55q32 6 96 69.5t164 163.5v-112q-50 -52 -99.5 -101.5t-93 -81.5t-75.5 -32q-20 0 -41 30.5t-35 61.5q-43 -77 -82 -130.5t-93 -81.5t-142 -28z" />
    <glyph glyph-name="w" unicode="w" horiz-adv-x="1133" 
d="M213 -29q-90 0 -140 60t-50 143q0 74 36 220t99 335q14 40 46 56t65 19t47 3h59q-8 -34 -30 -98.5t-46.5 -145t-42.5 -163.5t-18 -154q0 -70 26 -108t70 -38q61 0 127 60v14q0 29 7.5 83.5t23 117.5t39 120t55 93.5t70.5 36.5q28 0 39.5 -20t11.5 -52q0 -48 -18 -112
t-36 -119t-18 -76q0 -70 26 -108t71 -38q26 0 57.5 27.5t57 72.5t32.5 97q6 28 10.5 91t13 139.5t25 148t46.5 118t79 46.5q17 0 28 -34t17 -79.5t6 -79.5q0 -42 -14 -98.5t-33 -109.5t-33 -88.5l-14 -35.5q15 -36 39 -36q25 0 68.5 38t128.5 125v-113q-59 -67 -109.5 -111
t-91.5 -44q-38 0 -76 55q-28 -67 -73.5 -126t-106.5 -95.5t-137 -36.5q-63 0 -107 29.5t-65 77.5q-51 -48 -118 -77.5t-149 -29.5z" />
    <glyph glyph-name="x" unicode="x" horiz-adv-x="903" 
d="M78 -55q-29 0 -46 18t-17 47q0 18 26.5 35t61 38.5t57.5 49.5l186 223l-149 289q-4 9 -11 17t-18 8t-48 -29t-77 -65.5t-61 -59.5l-23 55q31 38 73.5 84t90 87.5t93 68.5t81.5 27q54 0 78 -41q9 -17 43 -91.5t80 -166.5l139 168q54 72 102.5 102.5t82.5 30.5
q29 0 46 -18.5t17 -47.5q0 -19 -27 -36.5t-61 -37.5t-57 -49q-34 -43 -82.5 -100.5t-104.5 -122.5q42 -82 81.5 -151t70.5 -101q2 -2 6 -2q15 0 50.5 27t81.5 69.5t92 89t81 84.5v-116q-57 -61 -118.5 -124t-120 -115.5t-106.5 -85t-79 -32.5q-34 0 -60 37.5t-55 93.5
l-75 146q-37 -43 -72.5 -86.5t-67.5 -83.5q-56 -72 -102.5 -102.5t-81.5 -30.5z" />
    <glyph glyph-name="y" unicode="y" horiz-adv-x="860" 
d="M195 -489q-42 0 -85.5 19t-73.5 54t-30 84q0 56 45 97.5t111 78.5l301 191l33 160q-58 -56 -126 -107.5t-136.5 -84t-130.5 -32.5q-67 0 -92 52.5t-25 115.5q0 59 24.5 156.5t65.5 222t90 264.5q2 13 36.5 18t73 6t52.5 1h35q0 -3 -16.5 -55t-41 -130t-49 -160.5
t-41 -149t-16.5 -93.5q0 -41 19.5 -57.5t47.5 -16.5q42 0 95 25t95 55.5t50 46.5l109 416q16 63 38 87.5t51 28t64 3.5h68q-10 -29 -31 -101.5t-46 -163t-48 -176t-38.5 -142.5t-16.5 -60l12 10q67 56 116 97t93 80t96 89v-112q-76 -82 -163.5 -154t-170.5 -147v-4
q-31 -176 -105 -289.5t-165 -168t-174 -54.5zM230 -420q94 0 147.5 96.5t73.5 235.5l-185 -117q-38 -23 -74 -54t-36 -79q0 -82 74 -82z" />
    <glyph glyph-name="z" unicode="z" horiz-adv-x="737" 
d="M106 -535q-85 0 -143 49t-58 139q0 145 124.5 244.5t348.5 172.5q-24 6 -58.5 12.5t-60.5 14t-26 14.5q0 17 19 64t49 112t63.5 136.5t62.5 137.5l-61 14q-24 -24 -68.5 -66.5t-96 -91.5t-97.5 -95v110l194 205q-32 17 -52.5 46t-20.5 87q0 34 22 73.5t64 68t102 28.5
q15 0 33 -10.5t18 -38.5q0 -43 -15 -69t-30.5 -38l-15.5 -12q23 -23 63 -33t92 -10q22 0 58 7t61 7q16 0 21.5 -10.5t5.5 -19.5q0 -11 -2 -13l-135 -282q-28 -64 -54 -117t-43 -88q47 -17 55.5 -39l8.5 -22q46 30 105 83.5t117.5 113t104.5 104.5l41 -66
q-155 -177 -246.5 -250.5l-91.5 -73.5q-13 -163 -70 -299t-154.5 -217.5t-233.5 -81.5zM163 -428q40 0 87 40t89 104.5t70 138.5t31 141q-81 -43 -148.5 -71t-117.5 -55.5t-77.5 -68.5t-27.5 -112q0 -38 22.5 -77.5t71.5 -39.5z" />
    <glyph glyph-name="braceleft" unicode="{" horiz-adv-x="813" 
d="M369 -131q-97 0 -160 62.5t-93 165.5t-30 222q0 11 1 21t1 20q3 67 16.5 131.5t16.5 137.5q0 55 -12 67.5t-31.5 9.5t-42.5 5l26 176q23 -1 39.5 -1.5t38.5 -0.5q45 0 53.5 46t26.5 116q40 151 104 274.5t162 197.5t238 74q38 0 78 -6l-21 -114q-24 8 -49 8
q-64 0 -118 -48.5t-97 -125t-73.5 -162t-45.5 -160.5q-17 -81 -41.5 -121t-57 -56t-73.5 -26q56 -32 75 -65.5t19 -77.5q0 -72 -14 -168t-14 -190q0 -83 12.5 -154t42.5 -114.5t82 -43.5q12 0 26 2t27 9l-12 -95q-28 -9 -52.5 -12.5t-47.5 -3.5z" />
    <glyph glyph-name="bar" unicode="|" horiz-adv-x="739" 
d="M90 -170l5 24.5t12 57t12 55.5q7 33 28.5 122.5t51.5 214.5t64.5 266.5t68 279.5t61.5 253.5t46 188.5t20 82q14 63 22.5 93.5t27.5 40.5t64 10q72 0 72 -5l-377 -1556q-6 -24 -9 -54t-14 -51.5t-42 -21.5h-113z" />
    <glyph glyph-name="braceright" unicode="}" horiz-adv-x="813" 
d="M90 -131q-37 0 -78 6l21 115q24 -8 49 -8q64 0 118 48.5t96.5 125t73 162t46.5 159.5q17 81 41.5 121.5t57 56.5t73.5 25q-55 32 -74.5 65t-19.5 76q0 74 14 170.5t14 190.5q0 83 -12.5 154t-42.5 114t-82 43q-12 0 -25.5 -2t-27.5 -8l12 94q28 9 53 12.5t47 3.5
q98 0 160 -62.5t91.5 -165t29.5 -222.5v-41q-3 -66 -16.5 -131t-16.5 -137q0 -55 12 -68t32 -9.5t42 -4.5l-26 -177q-23 2 -39 2.5t-39 0.5q-45 0 -53.5 -46.5t-26.5 -115.5q-40 -150 -104 -274.5t-161.5 -198.5t-238.5 -74z" />
    <glyph glyph-name="asciitilde" unicode="~" horiz-adv-x="1200" 
d="M937 901q-7 71 -27.5 100t-48.5 29q-67 0 -146.5 -31t-167.5 -62.5t-184 -31.5q-67 0 -103 37.5t-51 87.5t-17.5 90.5t-4.5 46.5l109 21q6 -72 28 -97.5t54 -25.5q72 0 159.5 29t178 58.5t170.5 29.5q68 0 103.5 -37.5t50.5 -87.5t18 -90.5t4 -46.5z" />
    <glyph glyph-name="uni00A0" unicode="&#xa0;" horiz-adv-x="389" 
 />
    <glyph glyph-name="exclamdown" unicode="&#xa1;" horiz-adv-x="608" 
d="M582 1311q-60 0 -85.5 23.5t-25.5 54.5q0 35 23.5 71t62 61t84.5 25q43 0 61.5 -23.5t18.5 -54.5q0 -33 -18 -69.5t-49.5 -62t-71.5 -25.5zM156 0q-33 0 -33 53q0 17 20 83t52.5 163.5t72 209t78.5 221.5t72.5 201t54 147.5t21.5 60.5q11 5 31.5 7.5t21.5 2.5
q15 0 18.5 -8t3.5 -21v-18t-2 -19l-151 -862q-5 -37 -14 -89t-24 -92t-40 -40h-182z" />
    <glyph glyph-name="cent" unicode="&#xa2;" horiz-adv-x="778" 
d="M170 -494q-29 0 -29 29q0 16 3 33t8 43l8 53q15 75 41 191.5t55 240.5q-130 8 -189 82t-59 178q0 86 33 180.5t93.5 181t144 149t184.5 85.5l78 318q22 87 32.5 128.5t19 54.5t23.5 13q5 0 20 -6t15 -30l-108 -467q5 0 9.5 1t8.5 1q35 0 82 -8t82 -34t35 -81
q0 -43 -37 -72t-94 -29q-23 0 -37 24.5t-29.5 53t-44.5 41.5l-137 -594h16q66 0 144 41.5t157 102.5l41 -80q-95 -83 -196 -147t-201 -81l-106 -462q-7 -32 -10.5 -63t-14 -51t-41.5 -20zM301 291q5 25 10.5 47.5t12.5 44.5l116 477q-61 -19 -109.5 -84t-76 -149.5
t-27.5 -163.5q0 -55 17 -100.5t57 -71.5z" />
    <glyph glyph-name="sterling" unicode="&#xa3;" horiz-adv-x="1368" 
d="M733 -57q-7 0 -19 6.5t-53.5 24.5t-134.5 52.5t-264 90.5q-89 -58 -188.5 -102t-173.5 -44q-7 0 -34 7t-51 28.5t-24 65.5q0 32 29.5 54.5t66.5 38t58 25.5l262 119l31 111l-144 -6q-7 0 -32 4.5t-25 36.5q0 47 17 64.5t32 21.5q15 3 66.5 7.5t123.5 8.5l25 90l-166 -8
q-7 0 -32 4.5t-25 36.5q0 47 16.5 64.5t32.5 21.5q15 3 74 8.5t139 9.5l98 353q17 60 51.5 89t81.5 64q23 17 77 54t120 77t126.5 68.5t96.5 28.5q86 0 163.5 -48.5t126 -126.5t48.5 -165q0 -26 -7.5 -45.5t-29.5 -30.5q-65 -33 -152 -81.5t-174 -96t-153 -78.5
q-12 -6 -22 -6q-17 0 -26 12.5t-9 28.5q0 25 35.5 49.5t87.5 49.5t105 51.5t89 55.5t37 60q-1 0 -9 41t-26.5 94t-51 94t-83.5 41q-38 -4 -86.5 -46t-94.5 -100.5t-78.5 -114.5t-39.5 -89q-13 -66 -28.5 -134.5t-32.5 -139.5h32q85 0 147 -8.5t62 -32.5q0 -28 -30 -62.5
t-70 -34.5q-37 0 -71 1t-66 1h-41q-13 -48 -27 -92q25 2 48.5 2h47.5q85 0 147 -8t62 -33q0 -28 -30 -62t-70 -34q-37 0 -71 1t-66 1h-46t-67 -2q-13 -41 -29.5 -81.5t-33.5 -82.5q21 -6 40 -13t41 -13q18 -5 75.5 -24t129.5 -41.5t135 -39t91 -16.5q33 0 84 26q7 3 39 21
t73 45.5t76 56.5v-100q-82 -47 -155 -99.5t-146.5 -89t-157.5 -36.5z" />
    <glyph glyph-name="currency" unicode="&#xa4;" horiz-adv-x="1176" 
d="M946 270q-21 0 -43 10.5t-39 32.5l-145 191q-97 -47 -205 -47q-49 0 -97 11t-91 34l-76 -90q-28 -34 -66.5 -75.5t-72.5 -41.5q-13 0 -40.5 13.5t-27.5 35.5q0 31 9 45.5t24 27.5t33 40q32 49 106 141q-29 41 -46 96.5t-17 124.5q0 85 30 167t88 144l-96 127
q-2 2 -16.5 17t-28.5 38t-14 48q0 15 15.5 43.5t49.5 28.5q28 0 77 -54t130 -161q44 21 95.5 34t111.5 13q56 0 103 -13t87 -34q12 13 38 45t51.5 65t33.5 49q0 2 23.5 29t64.5 27q43 0 95 -46q0 -1 -4 -14t-9 -18l-192 -228q71 -95 71 -225q0 -100 -34 -180.5t-93 -136.5
q45 -59 71.5 -91.5t43 -52.5t33 -39.5t41.5 -54.5q6 -9 6 -20q0 -22 -23.5 -39t-54.5 -17zM522 608q84 0 143.5 43t91 109t31.5 133q0 88 -47 153.5t-157 65.5q-83 0 -140 -43.5t-86.5 -110.5t-29.5 -137q0 -52 18.5 -101t61.5 -80.5t114 -31.5z" />
    <glyph glyph-name="yen" unicode="&#xa5;" horiz-adv-x="1546" 
d="M430 -436q-16 0 -21.5 15.5t-5.5 29.5q0 37 9 81.5t18 84.5q6 49 15 98.5t18 99.5l-213 -10q-7 0 -32 4.5t-25 36.5q0 48 16.5 65t32.5 21q20 3 88 7.5t162 8.5l18 91l-219 -9q-7 0 -32.5 4.5t-25.5 36.5q0 48 17 65t33 21q17 3 70 7t126 8q-29 116 -64.5 249.5
t-52.5 260.5q-15 71 -28 149.5t-24.5 148.5t-22.5 113l-31 -18q-10 -6 -26.5 -16.5t-41.5 -24.5v111q119 89 179 138.5t88 69t51 19.5q6 0 16 -5t10 -16q0 2 6 -40.5t17 -114.5t25.5 -160t31 -178.5t33.5 -167.5q21 -134 42.5 -238t36.5 -163.5l15 -59.5l44 40t111.5 105
t139.5 142.5t130 153t81 135.5q-28 5 -74 26t-93 60t-79 98t-32 139q0 58 21 121t68 107.5t126 44.5q61 0 99.5 -41.5t60 -105.5t30.5 -133.5t10.5 -128t1.5 -87.5l37 10.5t96 40t123 86.5v-115q-41 -31 -112 -71t-156 -56q-16 -67 -65 -146t-118 -162t-145 -162t-147 -146
h14q85 0 147 -8t62 -33q0 -28 -30 -62t-70 -34q-37 0 -71 1t-66 1h-90l-21 -92q25 0 49.5 1t48.5 1q85 0 147 -8t62 -33q0 -28 -30 -62t-70 -34q-37 0 -71 1t-66 1q-19 0 -42 1t-57 -1l-41 -197q-8 -36 -20.5 -88t-30.5 -92.5t-43 -40.5h-178zM1255 1069q0 9 1 19.5t1 19.5
q0 61 -13 123.5t-37.5 105.5t-59.5 43q-34 0 -44.5 -23.5t-10.5 -49.5q0 -97 49.5 -160.5t113.5 -77.5z" />
    <glyph glyph-name="brokenbar" unicode="&#xa6;" horiz-adv-x="739" 
d="M467 858q-91 0 -110 7.5t-19 15.5l121 493q15 63 23 93.5t26.5 40.5t64.5 10q72 0 72 -5l-153 -632q-5 -23 -25 -23zM203 -170q-55 0 -77.5 6t-26 12t-3.5 7l166 716q6 29 49 29q32 0 68 -11t37 -18l-148 -614q-9 -37 -24 -82t-41 -45z" />
    <glyph glyph-name="section" unicode="&#xa7;" horiz-adv-x="1069" 
d="M356 -57q-61 0 -125 22t-107.5 68t-43.5 117q0 58 43 91.5t100 34.5l37 3q-1 -17 -2.5 -39t-1.5 -45q0 -44 6.5 -83.5t41 -64t118.5 -24.5q45 0 103.5 26t101.5 74t43 115q0 64 -47.5 115.5t-117.5 95t-140.5 84t-118 81t-47.5 86.5q0 108 57 190t145 136q-44 37 -72 77
t-28 85q0 95 53.5 166t137.5 118t179 71t179 24q61 0 129.5 -22.5t117 -77t48.5 -150.5q0 -8 -34.5 -32.5t-86.5 -56t-107.5 -62.5t-98.5 -53.5t-58 -27.5v84q21 12 58.5 29.5t76.5 37.5t66.5 40.5t27.5 38.5q0 97 -52.5 133.5t-127.5 36.5q-66 0 -141 -26.5t-128 -76.5
t-53 -122q0 -56 47.5 -99t117.5 -81.5t139.5 -79.5t117 -93t47.5 -123q0 -107 -52.5 -187t-135.5 -136q52 -55 63 -119q7 -22 7 -51q0 -85 -46.5 -150.5t-120 -109t-157 -66t-158.5 -22.5zM692 526q34 32 55 74t21 94t-44.5 97.5t-111 89t-133.5 88.5q-41 -34 -67.5 -79.5
t-26.5 -101.5q0 -53 49.5 -95t121 -81.5t136.5 -85.5z" />
    <glyph glyph-name="dieresis" unicode="&#xa8;" horiz-adv-x="1706" 
d="M642 954q-43 0 -61.5 23.5t-18.5 54.5q0 34 18 70.5t49.5 62t71.5 25.5q60 0 85.5 -23.5t25.5 -54.5q0 -34 -23.5 -71t-62 -62t-84.5 -25zM198 954q-42 0 -60 23.5t-18 54.5q0 34 17.5 70.5t49 62t72.5 25.5q59 0 85 -23.5t26 -54.5q0 -34 -24 -71t-63 -62t-85 -25z" />
    <glyph glyph-name="copyright" unicode="&#xa9;" horiz-adv-x="1819" 
d="M852 -57q-129 0 -259.5 43.5t-240 136t-175.5 238.5t-66 350q0 142 56.5 284.5t165.5 261t267 190t361 71.5q183 0 322.5 -64.5t234 -174t142.5 -246.5t48 -281q0 -151 -52 -295t-158 -260t-267 -185t-379 -69zM862 37q140 0 269.5 50.5t232 145t162 227.5t59.5 298
q-4 131 -47 250.5t-123 213.5t-196 148.5t-265 54.5q-133 0 -263.5 -48.5t-236.5 -139t-169.5 -219t-63.5 -289.5q0 -182 57 -313t151 -215t207 -124t226 -40zM811 266q-113 0 -190 56t-115.5 147t-38.5 195q0 119 40 228t114 195t176.5 135.5t226.5 49.5q60 0 113 -29
t86.5 -78.5t33.5 -111.5q0 -20 -4.5 -33.5t-21.5 -24.5t-66.5 -37.5t-106.5 -55.5t-100.5 -50t-48.5 -21q-13 0 -20.5 11t-7.5 24q0 25 33.5 46.5t78 41.5t78 40t33.5 42t-13 60t-35 69t-50 31q-85 0 -156.5 -43.5t-123 -113.5t-80 -152t-28.5 -160q0 -86 27 -161t86 -121
t154 -46q81 0 158 32t146 81.5t124 103.5v-94q-65 -62 -145.5 -121t-171 -97t-185.5 -38z" />
    <glyph glyph-name="ordfeminine" unicode="&#xaa;" horiz-adv-x="885" 
d="M168 805q-47 0 -72 31.5t-34 76.5t-9 84q0 84 39.5 166.5t109 150t160 108t191.5 40.5q34 0 63.5 -6.5t63.5 -17.5q-2 -9 -11 -49t-21 -95t-24 -112t-20 -102.5t-8 -63.5q0 -47 25 -47q29 0 91.5 55.5t137.5 134.5v-84q-22 -24 -69 -68t-103 -90.5t-106.5 -79
t-79.5 -32.5q-34 0 -46 31t-12 69q0 20 2.5 39t3.5 33q-46 -61 -119 -116.5t-153 -55.5zM289 926q34 0 82.5 37t77.5 69l90 373q-64 0 -123 -34t-104.5 -89t-72 -119t-26.5 -123q0 -46 17 -80t59 -34z" />
    <glyph glyph-name="guillemotleft" unicode="&#xab;" horiz-adv-x="1122" 
d="M506 35q-32 0 -63 28.5t-56 59.5q-58 73 -117 149t-107.5 145t-78 121.5t-29.5 77.5q0 36 33.5 71.5t93.5 103.5l156 174q31 34 65.5 81t78 83t98.5 36q18 0 36.5 -10.5t18.5 -42.5q0 -22 -37.5 -55.5t-95.5 -88t-121 -139.5l-154 -180l140 -211l92 -125q59 -72 93 -127
t34 -90q0 -21 -19.5 -41t-60.5 -20zM879 76q-32 0 -63 28.5t-56 59.5q-73 89 -144.5 181.5t-119 166t-47.5 104.5q0 36 33.5 71.5t92.5 103.5l156 174q31 34 66 81t78 83t98 36q18 0 36.5 -10.5t18.5 -42.5q0 -22 -37.5 -55.5t-95.5 -88t-121 -139.5l-153 -180l210 -295
q59 -72 93 -127t34 -90q0 -21 -19 -41t-60 -20z" />
    <glyph glyph-name="registered" unicode="&#xae;" horiz-adv-x="1819" 
d="M852 -57q-129 0 -259.5 43.5t-240 136t-175.5 238.5t-66 350q0 142 56.5 284.5t165.5 261t267 190t361 71.5q183 0 322.5 -64.5t234 -174t142.5 -246.5t48 -281q0 -151 -52 -295t-158 -260t-267 -185t-379 -69zM862 37q140 0 269.5 50.5t232 145t162 227.5t59.5 298
q-4 131 -47 250.5t-123 213.5t-196 148.5t-265 54.5q-133 0 -263.5 -48.5t-236.5 -139t-169.5 -219t-63.5 -289.5q0 -182 57 -313t151 -215t207 -124t226 -40zM535 297q-50 0 -99 19t-80.5 57t-31.5 94q0 33 25 50t58.5 23.5t57.5 6.5l20 -2q-1 -13 -3.5 -28.5t-2.5 -31.5
q0 -38 14.5 -71t55.5 -33q36 0 66.5 50t55 126.5t43.5 159t31 149.5t17 95q8 50 12.5 84.5t28 52.5t86.5 18h49q-10 -86 -25 -172t-32 -172q63 1 132.5 30t118 81.5t48.5 124.5q0 60 -39.5 100t-96.5 60t-108 20q-37 0 -100.5 -8.5t-128.5 -28.5t-109.5 -55t-44.5 -88
q0 -42 34 -64t66 -35q0 -29 -3.5 -58t-14.5 -56q-47 14 -92.5 41t-75 67.5t-29.5 95.5q0 64 37.5 111t97.5 80t129.5 52.5t135 28.5t112.5 9q58 0 128 -14.5t134 -45.5t105 -81.5t41 -122.5q0 -91 -53.5 -145.5t-130.5 -84.5t-150 -49q45 -39 74.5 -93t54 -112t53.5 -108
q2 -3 6 -9.5t9 -6.5q15 0 51 28.5t78.5 68t78 75t50.5 49.5v-84q-25 -30 -62 -72t-81 -82t-89.5 -67t-87.5 -27q-59 0 -102 45.5t-76 111.5t-60 132t-55 106q-18 -65 -41.5 -134.5t-59.5 -128.5t-92 -95.5t-138 -36.5z" />
    <glyph glyph-name="macron" unicode="&#xaf;" horiz-adv-x="1038" 
d="M157 963q-7 0 -32 4.5t-25 36.5q0 47 16.5 64t32.5 22q15 4 74 10t141.5 11t167.5 5t147 -8t62 -33q0 -28 -30 -62t-70 -34q-35 0 -70.5 1t-67.5 1q-22 0 -53.5 -1t-98 -4.5t-194.5 -12.5z" />
    <glyph glyph-name="degree" unicode="&#xb0;" horiz-adv-x="682" 
d="M313 973q-61 0 -119.5 27t-96.5 83t-38 144q0 76 35 147t104 117.5t171 46.5q85 0 141.5 -36t84.5 -94t28 -124q0 -97 -44.5 -166.5t-115.5 -107t-150 -37.5zM319 1079q59 0 100.5 30t64 76t22.5 93q0 62 -33.5 108t-110.5 46q-58 0 -98 -30.5t-61 -77.5t-21 -95
q0 -55 31 -102.5t106 -47.5z" />
    <glyph glyph-name="plusminus" unicode="&#xb1;" horiz-adv-x="1200" 
d="M534 314q-19 0 -26 10t-7 22q0 18 5 25l47 201l-244 -13q-6 0 -27.5 3t-21.5 26q0 54 28.5 74.5t40.5 23.5q19 3 89.5 10t164.5 11l15 55q9 47 20.5 95.5t22.5 103.5q3 15 37.5 27t62.5 12q21 0 21 -54q0 -28 -6 -69.5t-17 -85.5l-21 -80q25 2 50.5 2h50.5q81 0 141 -7.5
t60 -29.5q0 -18 -19.5 -41.5t-47.5 -41t-54 -17.5q-37 0 -71 1t-66 1h-78l-54 -215q-3 -16 -25.5 -32.5t-70.5 -16.5zM297 86q-8 0 -33 4.5t-25 36.5q0 48 17 65t32 21q15 3 59.5 7.5t101 9t106.5 7.5t75 3q85 0 147 -8t62 -33q0 -28 -30 -62t-70 -34q-37 0 -71 1t-66 1
q-20 0 -47.5 -1t-85.5 -4.5t-172 -13.5z" />
    <glyph glyph-name="uni00B2" unicode="&#xb2;" horiz-adv-x="817" 
d="M94 -20q-13 0 -30 6t-17 22t17 35.5t30 32.5q68 65 154.5 144t168 169t134.5 190t53 207q0 101 -29.5 151t-95.5 50q-45 0 -99.5 -30.5t-94 -94t-39.5 -162.5q23 -33 46.5 -47t39.5 -24t16 -33q0 -9 -8 -21t-27 -12q-10 0 -42 18.5t-68.5 44t-63 48t-26.5 31.5
q0 115 47 194.5t125 121.5t170 42q103 0 165 -32.5t93.5 -78.5t42 -90t10.5 -67q0 -97 -48 -192.5t-121 -181.5t-149 -155t-133.5 -113.5t-74.5 -56.5q77 13 158 33.5t159 20.5q32 0 67 -8t35 -40q0 -17 -8.5 -46t-23 -52.5t-33.5 -23.5q-52 0 -101 9t-102 9q-73 0 -147 -9
t-150 -9z" />
    <glyph glyph-name="uni00B3" unicode="&#xb3;" horiz-adv-x="842" 
d="M311 -20q-52 0 -115.5 20.5t-110 62t-46.5 103.5q0 46 32 76t76 30q28 0 41 -22t20 -54.5t17 -65.5t32 -55t65 -22q65 0 116 46.5t81 114.5t30 132q0 60 -30 101.5t-101 41.5h-29q-18 0 -30.5 7t-12.5 32q0 41 27.5 40.5t52.5 2.5q59 8 106 56.5t75 114.5t28 126
q0 57 -28 95t-91 38q-24 0 -60 -20t-71.5 -51.5t-59.5 -65.5t-24 -63q11 -17 38 -39.5t44 -40.5q0 -12 -6.5 -24.5t-20.5 -12.5q-9 0 -38 16t-62 38t-57.5 41.5t-24.5 25.5q0 63 46.5 122t120.5 97.5t157 38.5q77 0 144 -17.5t109 -63.5t42 -132q0 -72 -35.5 -131.5
t-90 -102.5t-112.5 -67q75 -20 120.5 -82t45.5 -131q0 -105 -62 -185t-156 -125.5t-192 -45.5z" />
    <glyph glyph-name="acute" unicode="&#xb4;" horiz-adv-x="1706" 
d="M123 940l-23 55q34 32 88 74t115 82.5t118.5 68t98.5 29.5q24 0 48.5 -17.5t41.5 -41t17 -43.5q0 -24 -19 -29l-88 -35q-77 -30 -155 -58.5t-142 -50t-100 -34.5z" />
    <glyph glyph-name="uni03BC" unicode="&#xb5;" horiz-adv-x="993" 
d="M-25 -295q-31 0 -53 18t-22 52q0 8 0.5 15.5t3.5 14.5q4 15 20.5 64.5t40.5 122t50.5 154.5t50.5 161q27 94 66 218t85 257q2 13 36.5 18t73 6t52.5 1h35q0 -3 -16.5 -55t-41 -130t-49 -160.5t-41 -149t-16.5 -93.5q0 -41 19.5 -57.5t47.5 -16.5q42 0 95 25t95 55.5
t50 46.5l109 416q16 63 38 87.5t51 28t64 3.5h68l-13 -47.5t-33 -120.5t-41.5 -152t-38.5 -144.5t-24 -96.5q-1 -14 -4.5 -39t-3.5 -51q0 -14 4 -20.5t21 -6.5q22 0 75 43.5t127 114t158 151.5v-112q-62 -57 -127.5 -119t-130.5 -115.5t-124.5 -87t-110.5 -33.5t-68.5 40.5
t-17.5 90.5q0 26 5 59.5l5 33.5q-26 -41 -79.5 -93.5t-119 -91.5t-129.5 -39q-31 0 -59.5 11.5t-53.5 40.5l-22 -216q-6 -52 -37.5 -77t-69.5 -25z" />
    <glyph glyph-name="paragraph" unicode="&#xb6;" horiz-adv-x="1217" 
d="M186 -29q15 69 37.5 164.5t48.5 203.5t53 217t50 204q-127 21 -206 105.5t-79 195.5q0 123 84.5 227t260 167t446.5 63q87 0 170 -3t141 -8l-37 -116q-44 2 -107 2h-126q24 -8 40.5 -19.5t16.5 -34.5l-174 -725q-15 -53 -37 -138t-45.5 -181t-44.5 -182t-35 -142h-164
q13 67 33.5 158.5t43 185.5t41.5 171t28 116q26 111 54 228.5t55.5 227.5t50.5 197t38 136q-31 -1 -61 -5.5t-57 -9.5q-88 -352 -149 -597.5t-101 -405t-64 -254.5t-37 -148h-168z" />
    <glyph glyph-name="periodcentered" unicode="&#xb7;" horiz-adv-x="422" 
d="M158 569q-43 0 -61.5 23.5t-18.5 54.5q0 34 18 70.5t49.5 62t71.5 25.5q60 0 85.5 -23.5t25.5 -54.5q0 -35 -23.5 -71.5t-62 -61.5t-84.5 -25z" />
    <glyph glyph-name="cedilla" unicode="&#xb8;" horiz-adv-x="709" 
d="M116 -492l-16 62l21 28t42 84.5t21 143.5q-40 12 -59 35.5t-19 48.5q0 34 35 62t104 28q59 0 82 -31.5t23 -85.5q0 -31 -13.5 -88t-41.5 -118.5t-72.5 -109t-106.5 -59.5z" />
    <glyph glyph-name="uni00B9" unicode="&#xb9;" horiz-adv-x="502" 
d="M88 0q-12 0 -15 10.5t-3 20.5q0 26 6 57.5t12 58.5q20 97 48 195t52 193q41 159 61.5 239.5t28 110.5t9.5 35q-21 -17 -56.5 -44t-74 -53.5t-71.5 -44.5t-48 -18q-19 5 -19 26q0 14 14 26t29 22q101 65 190.5 119.5t184.5 103.5q12 6 21 6q16 0 16 -27v-20l-194 -860
q-3 -27 -8 -63.5t-14.5 -64.5t-27.5 -28h-141z" />
    <glyph glyph-name="ordmasculine" unicode="&#xba;" horiz-adv-x="838" 
d="M264 803q-74 0 -120 39.5t-66.5 100t-20.5 122.5q0 124 60 213t168.5 136.5t251.5 47.5q15 0 18 -8q0 -12 -2 -18.5t-16 -16.5q-103 0 -170.5 -40t-100.5 -104t-33 -136q0 -92 45 -152.5t111 -60.5q29 0 61.5 16t63.5 51q-60 38 -89.5 97t-29.5 116t34.5 96t111.5 39
q69 0 99 -38.5t30 -94.5q0 -49 -19.5 -100.5t-50.5 -89.5q8 -3 14.5 -5.5t16.5 -2.5q38 0 79.5 43.5t104.5 107.5v-86q-54 -53 -95.5 -87t-90.5 -34q-14 0 -29.5 2t-32.5 9q-53 -68 -133.5 -115t-169.5 -47zM551 1049q12 20 28.5 65.5t16.5 85.5q0 28 -13 49t-48 21
q-32 0 -47 -22.5t-15 -51.5q0 -37 20.5 -78.5t57.5 -68.5z" />
    <glyph glyph-name="guillemotright" unicode="&#xbb;" horiz-adv-x="1544" 
d="M743 106q-18 0 -35 11t-16 43q2 23 42.5 56t103.5 87t133 139l168 181l-121 211l-82 124q-52 73 -82 127.5t-27 90.5q0 20 62 20q32 0 60.5 -28.5t49.5 -59.5q53 -73 105 -149.5t95 -145.5t68 -121t23 -78q-1 -25 -32 -52.5t-84 -80.5l-173 -174q-32 -33 -71 -80.5
t-85 -84t-102 -36.5zM338 137q-19 0 -35.5 10.5t-13.5 42.5q1 23 41 56.5t102.5 87.5t132.5 139l170 180l-186 295q-52 72 -82 127t-27 90q0 21 60 21q32 0 61 -28.5t51 -59.5q66 -89 130 -181.5t105 -166t38 -105.5q-1 -26 -31 -53t-86 -80l-170 -174q-34 -34 -73 -81.5
t-85 -83.5t-102 -36z" />
    <glyph glyph-name="onequarter" unicode="&#xbc;" horiz-adv-x="1630" 
d="M197 -141q-25 0 -25 24q0 25 15.5 60.5t33.5 66t23 39.5q26 50 75.5 143.5t113 213.5t132.5 249.5t134.5 253.5t119.5 226t88 166t39 73q48 87 73 131t57 59t100 15q8 0 14 -10t6 -23q0 -3 -2 -15.5t-4 -17.5l-840 -1474q-16 -28 -40 -71t-52.5 -76t-60.5 -33zM123 473
q-12 0 -15 10.5t-3 20.5q0 26 6 57.5t12 58.5q20 97 48 195t52 193q41 159 61.5 239.5t28 110.5t9.5 35q-21 -17 -56.5 -44t-74 -53.5t-71.5 -44.5t-48 -18q-19 5 -19 26q0 14 14 26t29 22q101 65 190.5 119.5t184.5 103.5q12 6 21 6q16 0 16 -27v-20l-194 -860
q-3 -27 -8 -63.5t-14.5 -64.5t-27.5 -28h-141zM1052 0l-4 14q17 47 35 95t37 94q-41 8 -90.5 16t-108.5 19q-24 -13 -50.5 -22t-45.5 -9q-5 0 -23.5 5t-35.5 20.5t-17 46.5q0 32 17.5 44t42.5 19l76 29l206 475q30 85 53 132t59.5 66t104.5 19q10 0 19.5 -2.5t13.5 -11.5
q-76 -172 -156.5 -346t-166.5 -357q24 -7 61.5 -17t81.5 -18q25 63 51 127.5t51 128.5q13 19 74 19h64q-3 -14 -19.5 -59t-39.5 -105.5t-48 -122.5q40 0 77.5 7t68.5 24q8 2 52 28.5t81 57.5l34 -60q-55 -40 -89.5 -71t-63.5 -52.5t-64.5 -33t-93.5 -11.5q-10 0 -21 0.5
t-24 1.5l-51 -122l-5.5 -17t-14 -34t-19.5 -17h-109z" />
    <glyph glyph-name="onehalf" unicode="&#xbd;" horiz-adv-x="1640" 
d="M172 -141q-25 0 -25 24q0 25 16 60.5t33.5 66t22.5 39.5q26 50 75.5 143.5t113 213.5t132.5 249.5t134.5 253.5t120 226t88.5 166t39 73q48 87 73 131t57 59t99 15q8 0 14 -10t6 -23q0 -3 -2 -15.5t-4 -17.5l-839 -1474q-16 -28 -40 -71t-53 -76t-61 -33zM125 473
q-12 0 -15 10.5t-3 20.5q0 26 6 57.5t12 58.5q20 97 48 195t52 193q41 159 61.5 239.5t28 110.5t9.5 35q-21 -17 -56.5 -44t-74 -53.5t-71.5 -44.5t-48 -18q-19 5 -19 26q0 14 14 26t29 22q101 65 190.5 119.5t184.5 103.5q12 6 21 6q16 0 16 -27v-20l-194 -860
q-3 -27 -8 -63.5t-14.5 -64.5t-27.5 -28h-141zM932 -20q-13 0 -30 6t-17 22t17 35.5t30 32.5q68 65 154.5 144t168 169t134.5 190t53 207q0 101 -29.5 151t-95.5 50q-45 0 -99.5 -30.5t-94 -94t-39.5 -162.5q23 -33 46.5 -47t39.5 -24t16 -33q0 -9 -8 -21t-27 -12
q-10 0 -42 18.5t-68.5 44t-63 48t-26.5 31.5q0 115 47 194.5t125 121.5t170 42q103 0 165 -32.5t93.5 -78.5t42 -90t10.5 -67q0 -97 -48 -192.5t-121 -181.5t-149 -155t-133.5 -113.5t-74.5 -56.5q77 13 158 33.5t159 20.5q32 0 67 -8t35 -40q0 -17 -8.5 -46t-23 -52.5
t-33.5 -23.5q-52 0 -101 9t-102 9q-73 0 -147 -9t-150 -9z" />
    <glyph glyph-name="threequarters" unicode="&#xbe;" horiz-adv-x="1833" 
d="M459 -141q-25 0 -25 24q0 25 16 60.5t33.5 66t22.5 39.5q26 50 75.5 143.5t113 213.5t132.5 249.5t134.5 253.5t119.5 226t88 166t39 73q49 87 74 131t57 59t99 15q8 0 14 -10t6 -23q0 -3 -2 -15.5t-4 -17.5l-840 -1474q-16 -28 -40 -71t-52.5 -76t-60.5 -33zM311 453
q-52 0 -115.5 20.5t-110 62t-46.5 103.5q0 46 32 76t76 30q28 0 41 -22t20 -54.5t17 -65.5t32 -55t65 -22q65 0 116 46.5t81 114.5t30 132q0 60 -30 101.5t-101 41.5h-29q-18 0 -30.5 7t-12.5 32q0 41 27.5 40.5t52.5 2.5q59 8 106 56.5t75 114.5t28 126q0 57 -28 95t-91 38
q-24 0 -60 -20t-71.5 -51.5t-59.5 -65.5t-24 -63q11 -17 38 -39.5t44 -40.5q0 -12 -6.5 -24.5t-20.5 -12.5q-9 0 -38 16t-62 38t-57.5 41.5t-24.5 25.5q0 63 46.5 122t120.5 97.5t157 38.5q77 0 144 -17.5t109 -63.5t42 -132q0 -72 -35.5 -131.5t-90 -102.5t-112.5 -67
q75 -20 120.5 -82t45.5 -131q0 -104 -62 -184.5t-156 -126t-192 -45.5zM1249 0l-4 14q17 47 35 95t37 94q-41 8 -90.5 16t-108.5 19q-24 -13 -50.5 -22t-45.5 -9q-5 0 -23.5 5t-35.5 20.5t-17 46.5q0 32 17.5 44t42.5 19l76 29l206 475q30 85 53 132t59.5 66t104.5 19
q10 0 19.5 -2.5t13.5 -11.5q-76 -172 -156.5 -346t-166.5 -357q24 -7 61.5 -17t81.5 -18q25 63 51 127.5t51 128.5q13 19 74 19h64q-3 -14 -19.5 -59t-39.5 -105.5t-48 -122.5q40 0 77.5 7t68.5 24q8 2 52 28.5t81 57.5l34 -60q-55 -40 -89.5 -71t-63.5 -52.5t-64.5 -33
t-93.5 -11.5q-10 0 -21 0.5t-24 1.5l-51 -122l-5.5 -17t-14 -34t-19.5 -17h-109z" />
    <glyph glyph-name="questiondown" unicode="&#xbf;" horiz-adv-x="999" 
d="M674 1065q32 0 54 -10.5t22 -30.5q0 -77 -38 -144t-97.5 -127t-126.5 -117t-126.5 -113.5t-97.5 -115.5t-38 -124q0 -71 42.5 -120t107.5 -74t130 -25q91 0 144.5 28.5t83 73.5t45 96.5t30.5 98.5l43 -2q53 -2 86 -24.5t33 -72.5q0 -12 -2 -24.5t-8 -26.5
q-32 -83 -103 -136t-155 -78.5t-156 -25.5q-128 0 -245 39.5t-191 118.5t-74 197q0 95 39 166t101.5 125t133.5 98t136 85.5t109 87t51 103.5q11 41 31 57.5t36 16.5zM723 1518q44 0 62 -23.5t18 -54.5q0 -34 -18 -70.5t-49.5 -62t-71.5 -25.5q-60 0 -85.5 23.5t-25.5 54.5
q0 35 23.5 71.5t62 61.5t84.5 25z" />
    <glyph glyph-name="Agrave" unicode="&#xc0;" horiz-adv-x="1391" 
d="M422 -57q-181 0 -261.5 99t-80.5 286q0 170 71.5 340.5t195.5 323t282.5 271t334.5 187t349 68.5q39 0 105.5 -10t135 -32.5t115.5 -60.5t47 -94q0 -30 -32 -67.5t-72.5 -66.5t-67.5 -36q-31 144 -108.5 207t-182.5 63q-109 0 -233.5 -57.5t-245 -155.5t-219 -222
t-158 -259t-59.5 -264q0 -161 77.5 -244.5t209.5 -83.5q57 0 120 33t110.5 88.5t59.5 120.5q8 42 27 129t43.5 194t49.5 212.5t46 186t31 111.5q9 30 48 43t85 16t74 3q27 0 27 -33q0 -12 -3 -16q-25 -67 -51 -162t-50.5 -199.5t-45 -201.5t-35 -170.5t-20.5 -104.5
q-11 -56 -18.5 -106.5t-1 -81.5t35.5 -31q28 0 48.5 5.5t52 30.5t91 81.5t164.5 158.5v-112q-97 -102 -179.5 -190t-158.5 -142.5t-153 -54.5q-61 0 -90 35t-35.5 92t-1.5 123q-107 -111 -237 -180.5t-236 -69.5zM1547 1618q-36 13 -100 35t-142 50t-156 58l-88 35
q-18 5 -18 29q0 20 16.5 43.5t41.5 41t48 17.5q42 -2 99.5 -29.5t118.5 -68t114.5 -82.5t87.5 -74z" />
    <glyph glyph-name="Aacute" unicode="&#xc1;" horiz-adv-x="1391" 
d="M422 -57q-181 0 -261.5 99t-80.5 286q0 170 71.5 340.5t195.5 323t282.5 271t334.5 187t349 68.5q39 0 105.5 -10t135 -32.5t115.5 -60.5t47 -94q0 -30 -32 -67.5t-72.5 -66.5t-67.5 -36q-31 144 -108.5 207t-182.5 63q-109 0 -233.5 -57.5t-245 -155.5t-219 -222
t-158 -259t-59.5 -264q0 -161 77.5 -244.5t209.5 -83.5q57 0 120 33t110.5 88.5t59.5 120.5q8 42 27 129t43.5 194t49.5 212.5t46 186t31 111.5q9 30 48 43t85 16t74 3q27 0 27 -33q0 -12 -3 -16q-25 -67 -51 -162t-50.5 -199.5t-45 -201.5t-35 -170.5t-20.5 -104.5
q-11 -56 -18.5 -106.5t-1 -81.5t35.5 -31q28 0 48.5 5.5t52 30.5t91 81.5t164.5 158.5v-112q-97 -102 -179.5 -190t-158.5 -142.5t-153 -54.5q-61 0 -90 35t-35.5 92t-1.5 123q-107 -111 -237 -180.5t-236 -69.5zM1065 1618l-23 55q34 32 88 74t115 82.5t118.5 68t98.5 29.5
q24 0 48.5 -17.5t41.5 -41t17 -43.5q0 -24 -19 -29l-88 -35q-77 -30 -155 -58.5t-142 -50t-100 -34.5z" />
    <glyph glyph-name="Acircumflex" unicode="&#xc2;" horiz-adv-x="1391" 
d="M422 -57q-181 0 -261.5 99t-80.5 286q0 170 71.5 340.5t195.5 323t282.5 271t334.5 187t349 68.5q39 0 105.5 -10t135 -32.5t115.5 -60.5t47 -94q0 -30 -32 -67.5t-72.5 -66.5t-67.5 -36q-31 144 -108.5 207t-182.5 63q-109 0 -233.5 -57.5t-245 -155.5t-219 -222
t-158 -259t-59.5 -264q0 -161 77.5 -244.5t209.5 -83.5q57 0 120 33t110.5 88.5t59.5 120.5q8 42 27 129t43.5 194t49.5 212.5t46 186t31 111.5q9 30 48 43t85 16t74 3q27 0 27 -33q0 -12 -3 -16q-25 -67 -51 -162t-50.5 -199.5t-45 -201.5t-35 -170.5t-20.5 -104.5
q-11 -56 -18.5 -106.5t-1 -81.5t35.5 -31q28 0 48.5 5.5t52 30.5t91 81.5t164.5 158.5v-112q-97 -102 -179.5 -190t-158.5 -142.5t-153 -54.5q-61 0 -90 35t-35.5 92t-1.5 123q-107 -111 -237 -180.5t-236 -69.5zM1060 1622l-59 43q33 58 79.5 126t97 129.5t96.5 100.5
t77 39q19 0 45 -39.5t52.5 -97.5t49.5 -117t37 -100t15 -43l-72 -41q-23 32 -66 111.5t-90 158.5q-52 -53 -103.5 -107t-93 -97.5t-65.5 -65.5z" />
    <glyph glyph-name="Atilde" unicode="&#xc3;" horiz-adv-x="1391" 
d="M422 -57q-181 0 -261.5 99t-80.5 286q0 170 71.5 340.5t195.5 323t282.5 271t334.5 187t349 68.5q39 0 105.5 -10t135 -32.5t115.5 -60.5t47 -94q0 -30 -32 -67.5t-72.5 -66.5t-67.5 -36q-31 144 -108.5 207t-182.5 63q-109 0 -233.5 -57.5t-245 -155.5t-219 -222
t-158 -259t-59.5 -264q0 -161 77.5 -244.5t209.5 -83.5q57 0 120 33t110.5 88.5t59.5 120.5q8 42 27 129t43.5 194t49.5 212.5t46 186t31 111.5q9 30 48 43t85 16t74 3q27 0 27 -33q0 -12 -3 -16q-25 -67 -51 -162t-50.5 -199.5t-45 -201.5t-35 -170.5t-20.5 -104.5
q-11 -56 -18.5 -106.5t-1 -81.5t35.5 -31q28 0 48.5 5.5t52 30.5t91 81.5t164.5 158.5v-112q-97 -102 -179.5 -190t-158.5 -142.5t-153 -54.5q-61 0 -90 35t-35.5 92t-1.5 123q-107 -111 -237 -180.5t-236 -69.5zM1515 1650q-9 50 -28.5 69t-46.5 19q-37 0 -84.5 -21
t-101 -42t-107.5 -21q-67 0 -103 32t-51 74t-17.5 76.5t-4.5 38.5l108 21q6 -48 28 -65t54 -17q41 0 93 19t106.5 38t103.5 19q68 0 103.5 -32t50.5 -74t18 -76t4 -39z" />
    <glyph glyph-name="Adieresis" unicode="&#xc4;" horiz-adv-x="1391" 
d="M422 -57q-181 0 -261.5 99t-80.5 286q0 170 71.5 340.5t195.5 323t282.5 271t334.5 187t349 68.5q39 0 105.5 -10t135 -32.5t115.5 -60.5t47 -94q0 -30 -32 -67.5t-72.5 -66.5t-67.5 -36q-31 144 -108.5 207t-182.5 63q-109 0 -233.5 -57.5t-245 -155.5t-219 -222
t-158 -259t-59.5 -264q0 -161 77.5 -244.5t209.5 -83.5q57 0 120 33t110.5 88.5t59.5 120.5q8 42 27 129t43.5 194t49.5 212.5t46 186t31 111.5q9 30 48 43t85 16t74 3q27 0 27 -33q0 -12 -3 -16q-25 -67 -51 -162t-50.5 -199.5t-45 -201.5t-35 -170.5t-20.5 -104.5
q-11 -56 -18.5 -106.5t-1 -81.5t35.5 -31q28 0 48.5 5.5t52 30.5t91 81.5t164.5 158.5v-112q-97 -102 -179.5 -190t-158.5 -142.5t-153 -54.5q-61 0 -90 35t-35.5 92t-1.5 123q-107 -111 -237 -180.5t-236 -69.5zM1482 1662q-43 0 -61.5 23.5t-18.5 54.5q0 34 18 70.5
t49.5 62t71.5 25.5q60 0 85.5 -23.5t25.5 -54.5q0 -34 -23.5 -71t-62 -62t-84.5 -25zM1038 1662q-42 0 -60 23.5t-18 54.5q0 34 17.5 70.5t49 62t72.5 25.5q59 0 85 -23.5t26 -54.5q0 -34 -24 -71t-63 -62t-85 -25z" />
    <glyph glyph-name="Aring" unicode="&#xc5;" horiz-adv-x="1391" 
d="M422 -57q-181 0 -261.5 99t-80.5 286q0 170 71.5 340.5t195.5 323t282.5 271t334.5 187t349 68.5q39 0 105.5 -10t135 -32.5t115.5 -60.5t47 -94q0 -30 -32 -67.5t-72.5 -66.5t-67.5 -36q-31 144 -108.5 207t-182.5 63q-109 0 -233.5 -57.5t-245 -155.5t-219 -222
t-158 -259t-59.5 -264q0 -161 77.5 -244.5t209.5 -83.5q57 0 120 33t110.5 88.5t59.5 120.5q8 42 27 129t43.5 194t49.5 212.5t46 186t31 111.5q9 30 48 43t85 16t74 3q27 0 27 -33q0 -12 -3 -16q-25 -67 -51 -162t-50.5 -199.5t-45 -201.5t-35 -170.5t-20.5 -104.5
q-11 -56 -18.5 -106.5t-1 -81.5t35.5 -31q28 0 48.5 5.5t52 30.5t91 81.5t164.5 158.5v-112q-97 -102 -179.5 -190t-158.5 -142.5t-153 -54.5q-61 0 -90 35t-35.5 92t-1.5 123q-107 -111 -237 -180.5t-236 -69.5zM1288 1608q-58 0 -109 38.5t-51 121.5q0 72 49 134t146 62
q80 0 120 -49t40 -111q0 -91 -60.5 -143.5t-134.5 -52.5zM1292 1675q56 0 86.5 40.5t30.5 84.5q0 39 -20.5 68t-69.5 29q-55 0 -84 -40.5t-29 -86.5q0 -36 19.5 -65.5t66.5 -29.5z" />
    <glyph glyph-name="AE" unicode="&#xc6;" horiz-adv-x="1878" 
d="M422 -57q-181 0 -261.5 99t-80.5 286q0 170 69 340.5t193 323t292.5 271t369 187t419.5 68.5q108 0 218 -1t201 -3.5t146.5 -8t55.5 -14.5q0 -12 -19 -31l-100 -114q-23 -16 -45.5 -25.5t-48.5 -9.5q-89 0 -192 20.5t-201 24.5q-34 -120 -70 -265.5t-84 -295.5
q59 5 119.5 7.5t124.5 2.5q102 0 219 -6q37 0 37 -33q0 -28 -30 -62t-71 -34q-118 0 -223.5 -1.5t-210.5 -9.5q-37 -138 -89 -239.5t-101 -181.5q72 13 137 -3t126 -43.5t118.5 -50t113.5 -22.5q9 0 38 7t82.5 36.5t133.5 94.5t191 181v-110q-125 -111 -223.5 -198
t-194.5 -137t-213 -50q-7 0 -18.5 7.5t-51 26t-128.5 51t-252 81.5l-21 86q-73 -73 -157 -130t-166 -89.5t-152 -32.5zM625 135q60 0 130.5 41t121.5 100q9 15 26 66.5t36 114.5t33 113t17 61q-43 -6 -89 -15t-93 -20q-1 0 -3 -1t-5 -1q-13 0 -31 7.5t-18 35.5q0 59 72 78
t204 45q30 104 61 203t63 178t62 121q22 31 49.5 55t55.5 43l41 61q-141 -1 -285.5 -59t-276 -156.5t-235 -222t-163.5 -258t-60 -262.5q0 -161 77.5 -244.5t209.5 -83.5z" />
    <glyph glyph-name="Ccedilla" unicode="&#xc7;" horiz-adv-x="1268" 
d="M616 -57q-138 0 -239 52.5t-166 141t-97 198.5t-32 226q0 119 33.5 251t102 257t172.5 226.5t245.5 162t320.5 60.5q102 0 183 -48.5t128.5 -126.5t47.5 -165q0 -26 -7.5 -45.5t-29.5 -30.5q-65 -33 -152 -81.5t-174 -96t-153 -78.5q-12 -6 -23 -6q-16 0 -25.5 12.5
t-9.5 28.5q0 25 36 50t88.5 50.5t105.5 52t89 55.5t36 60q-1 0 -9 40.5t-27 93.5t-51.5 93.5t-82.5 40.5q-142 -5 -258 -74.5t-199 -180.5t-127.5 -242.5t-44.5 -260.5q0 -180 57 -298.5t156 -177t225 -58.5q152 0 326.5 82.5t341.5 243.5v-111q-193 -183 -393 -290
t-394 -107zM525 -492l-16 62l21 28t42 84.5t21 143.5q-40 12 -59 35.5t-19 48.5q0 34 35 62t104 28q59 0 82 -31.5t23 -85.5q0 -31 -13.5 -88t-41.5 -118.5t-72.5 -109t-106.5 -59.5z" />
    <glyph glyph-name="Egrave" unicode="&#xc8;" horiz-adv-x="1403" 
d="M100 -57q-7 0 -33.5 6.5t-50.5 28t-24 65.5q0 32 29.5 54.5t65.5 38.5t58 26l256 117q19 27 48.5 126t64.5 226q-17 -2 -55.5 -12.5t-81 -17.5t-73 -1t-30.5 37q0 37 17 48t35 17q33 11 89.5 26.5t135.5 31.5q42 147 76.5 261t83 198.5t131.5 140.5q-57 5 -109 6.5
t-98 1.5q-261 0 -373 -62.5t-112 -162.5q0 -55 50.5 -105.5t145.5 -85.5q0 -34 -9 -75.5t-20 -51.5q-158 56 -236.5 135t-78.5 160q0 118 78.5 207.5t225 140t351.5 50.5h291q108 0 218 -1t201 -3.5t146.5 -8t55.5 -14.5q0 -12 -19 -31l-100 -114q-23 -16 -45.5 -25.5
t-48.5 -9.5q-89 0 -192 20.5t-201 24.5q-34 -120 -70.5 -265.5t-83.5 -295.5q59 5 119.5 7.5t124.5 2.5q53 0 107 -3t112 -3q37 0 37 -33q0 -28 -30 -62t-71 -34q-118 0 -224 -1.5t-210 -9.5q-37 -138 -90 -240t-100 -181h127q15 -5 64.5 -23.5t111 -41t115 -38.5t77.5 -16
q33 0 84 26q12 2 50 27.5t91.5 68t111 93.5t108.5 104v-110q-125 -111 -224 -198t-194.5 -137t-212.5 -50q-8 0 -19.5 7.5t-51 26t-128.5 51t-252 81.5q-84 -67 -178 -116.5t-164 -49.5zM1243 1618q-36 13 -100 35t-142 50t-156 58l-88 35q-18 5 -18 29q0 20 16.5 43.5
t41.5 41t48 17.5q42 -2 99.5 -29.5t118.5 -68t114.5 -82.5t87.5 -74z" />
    <glyph glyph-name="Eacute" unicode="&#xc9;" horiz-adv-x="1403" 
d="M100 -57q-7 0 -33.5 6.5t-50.5 28t-24 65.5q0 32 29.5 54.5t65.5 38.5t58 26l256 117q19 27 48.5 126t64.5 226q-17 -2 -55.5 -12.5t-81 -17.5t-73 -1t-30.5 37q0 37 17 48t35 17q33 11 89.5 26.5t135.5 31.5q42 147 76.5 261t83 198.5t131.5 140.5q-57 5 -109 6.5
t-98 1.5q-261 0 -373 -62.5t-112 -162.5q0 -55 50.5 -105.5t145.5 -85.5q0 -34 -9 -75.5t-20 -51.5q-158 56 -236.5 135t-78.5 160q0 118 78.5 207.5t225 140t351.5 50.5h291q108 0 218 -1t201 -3.5t146.5 -8t55.5 -14.5q0 -12 -19 -31l-100 -114q-23 -16 -45.5 -25.5
t-48.5 -9.5q-89 0 -192 20.5t-201 24.5q-34 -120 -70.5 -265.5t-83.5 -295.5q59 5 119.5 7.5t124.5 2.5q53 0 107 -3t112 -3q37 0 37 -33q0 -28 -30 -62t-71 -34q-118 0 -224 -1.5t-210 -9.5q-37 -138 -90 -240t-100 -181h127q15 -5 64.5 -23.5t111 -41t115 -38.5t77.5 -16
q33 0 84 26q12 2 50 27.5t91.5 68t111 93.5t108.5 104v-110q-125 -111 -224 -198t-194.5 -137t-212.5 -50q-8 0 -19.5 7.5t-51 26t-128.5 51t-252 81.5q-84 -67 -178 -116.5t-164 -49.5zM761 1618l-23 55q34 32 88 74t115 82.5t118.5 68t98.5 29.5q24 0 48.5 -17.5t41.5 -41
t17 -43.5q0 -24 -19 -29l-88 -35q-77 -30 -155 -58.5t-142 -50t-100 -34.5z" />
    <glyph glyph-name="Ecircumflex" unicode="&#xca;" horiz-adv-x="1403" 
d="M100 -57q-7 0 -33.5 6.5t-50.5 28t-24 65.5q0 32 29.5 54.5t65.5 38.5t58 26l256 117q19 27 48.5 126t64.5 226q-17 -2 -55.5 -12.5t-81 -17.5t-73 -1t-30.5 37q0 37 17 48t35 17q33 11 89.5 26.5t135.5 31.5q42 147 76.5 261t83 198.5t131.5 140.5q-57 5 -109 6.5
t-98 1.5q-261 0 -373 -62.5t-112 -162.5q0 -55 50.5 -105.5t145.5 -85.5q0 -34 -9 -75.5t-20 -51.5q-158 56 -236.5 135t-78.5 160q0 118 78.5 207.5t225 140t351.5 50.5h291q108 0 218 -1t201 -3.5t146.5 -8t55.5 -14.5q0 -12 -19 -31l-100 -114q-23 -16 -45.5 -25.5
t-48.5 -9.5q-89 0 -192 20.5t-201 24.5q-34 -120 -70.5 -265.5t-83.5 -295.5q59 5 119.5 7.5t124.5 2.5q53 0 107 -3t112 -3q37 0 37 -33q0 -28 -30 -62t-71 -34q-118 0 -224 -1.5t-210 -9.5q-37 -138 -90 -240t-100 -181h127q15 -5 64.5 -23.5t111 -41t115 -38.5t77.5 -16
q33 0 84 26q12 2 50 27.5t91.5 68t111 93.5t108.5 104v-110q-125 -111 -224 -198t-194.5 -137t-212.5 -50q-8 0 -19.5 7.5t-51 26t-128.5 51t-252 81.5q-84 -67 -178 -116.5t-164 -49.5zM756 1622l-59 43q33 58 79.5 126t97 129.5t96.5 100.5t77 39q19 0 45 -39.5
t52.5 -97.5t49.5 -117t37 -100t15 -43l-72 -41q-23 32 -66 111.5t-90 158.5q-52 -53 -103.5 -107t-93 -97.5t-65.5 -65.5z" />
    <glyph glyph-name="Edieresis" unicode="&#xcb;" horiz-adv-x="1403" 
d="M100 -57q-7 0 -33.5 6.5t-50.5 28t-24 65.5q0 32 29.5 54.5t65.5 38.5t58 26l256 117q19 27 48.5 126t64.5 226q-17 -2 -55.5 -12.5t-81 -17.5t-73 -1t-30.5 37q0 37 17 48t35 17q33 11 89.5 26.5t135.5 31.5q42 147 76.5 261t83 198.5t131.5 140.5q-57 5 -109 6.5
t-98 1.5q-261 0 -373 -62.5t-112 -162.5q0 -55 50.5 -105.5t145.5 -85.5q0 -34 -9 -75.5t-20 -51.5q-158 56 -236.5 135t-78.5 160q0 118 78.5 207.5t225 140t351.5 50.5h291q108 0 218 -1t201 -3.5t146.5 -8t55.5 -14.5q0 -12 -19 -31l-100 -114q-23 -16 -45.5 -25.5
t-48.5 -9.5q-89 0 -192 20.5t-201 24.5q-34 -120 -70.5 -265.5t-83.5 -295.5q59 5 119.5 7.5t124.5 2.5q53 0 107 -3t112 -3q37 0 37 -33q0 -28 -30 -62t-71 -34q-118 0 -224 -1.5t-210 -9.5q-37 -138 -90 -240t-100 -181h127q15 -5 64.5 -23.5t111 -41t115 -38.5t77.5 -16
q33 0 84 26q12 2 50 27.5t91.5 68t111 93.5t108.5 104v-110q-125 -111 -224 -198t-194.5 -137t-212.5 -50q-8 0 -19.5 7.5t-51 26t-128.5 51t-252 81.5q-84 -67 -178 -116.5t-164 -49.5zM1178 1662q-43 0 -61.5 23.5t-18.5 54.5q0 34 18 70.5t49.5 62t71.5 25.5
q60 0 85.5 -23.5t25.5 -54.5q0 -34 -23.5 -71t-62 -62t-84.5 -25zM734 1662q-42 0 -60 23.5t-18 54.5q0 34 17.5 70.5t49 62t72.5 25.5q59 0 85 -23.5t26 -54.5q0 -34 -24 -71t-63 -62t-85 -25z" />
    <glyph glyph-name="Igrave" unicode="&#xcc;" horiz-adv-x="1061" 
d="M494 -57q-60 0 -127 24.5t-113.5 75t-46.5 129.5q0 54 29 82t74 38.5t93 10.5q0 -16 -1 -40t-1 -50q0 -39 6 -79t29.5 -66.5t75.5 -26.5q59 0 103 43.5t75.5 113t54 149t37 153.5t23.5 125l14 77q-167 13 -267.5 53.5t-145 94t-44.5 104.5q0 47 34 115t101 140t165.5 135
t227.5 102t288 39q63 0 115.5 21t107.5 24q-11 -67 -48.5 -131.5t-103.5 -87.5q-69 -118 -115 -248t-77 -270l-33 -146q-18 -88 -41 -185.5t-59 -189.5t-92 -166.5t-138.5 -118.5t-199.5 -44zM854 842q38 143 101 267t190 194q-168 0 -286 -45t-191.5 -108t-107.5 -120
t-34 -80q0 -40 78 -69.5t250 -38.5zM1472 1618q-36 13 -100 35t-142 50t-156 58l-88 35q-18 5 -18 29q0 20 16.5 43.5t41.5 41t48 17.5q42 -2 99.5 -29.5t118.5 -68t114.5 -82.5t87.5 -74z" />
    <glyph glyph-name="Iacute" unicode="&#xcd;" horiz-adv-x="1061" 
d="M494 -57q-60 0 -127 24.5t-113.5 75t-46.5 129.5q0 54 29 82t74 38.5t93 10.5q0 -16 -1 -40t-1 -50q0 -39 6 -79t29.5 -66.5t75.5 -26.5q59 0 103 43.5t75.5 113t54 149t37 153.5t23.5 125l14 77q-167 13 -267.5 53.5t-145 94t-44.5 104.5q0 47 34 115t101 140t165.5 135
t227.5 102t288 39q63 0 115.5 21t107.5 24q-11 -67 -48.5 -131.5t-103.5 -87.5q-69 -118 -115 -248t-77 -270l-33 -146q-18 -88 -41 -185.5t-59 -189.5t-92 -166.5t-138.5 -118.5t-199.5 -44zM854 842q38 143 101 267t190 194q-168 0 -286 -45t-191.5 -108t-107.5 -120
t-34 -80q0 -40 78 -69.5t250 -38.5zM990 1618l-23 55q34 32 88 74t115 82.5t118.5 68t98.5 29.5q24 0 48.5 -17.5t41.5 -41t17 -43.5q0 -24 -19 -29l-88 -35q-77 -30 -155 -58.5t-142 -50t-100 -34.5z" />
    <glyph glyph-name="Icircumflex" unicode="&#xce;" horiz-adv-x="1061" 
d="M494 -57q-60 0 -127 24.5t-113.5 75t-46.5 129.5q0 54 29 82t74 38.5t93 10.5q0 -16 -1 -40t-1 -50q0 -39 6 -79t29.5 -66.5t75.5 -26.5q59 0 103 43.5t75.5 113t54 149t37 153.5t23.5 125l14 77q-167 13 -267.5 53.5t-145 94t-44.5 104.5q0 47 34 115t101 140t165.5 135
t227.5 102t288 39q63 0 115.5 21t107.5 24q-11 -67 -48.5 -131.5t-103.5 -87.5q-69 -118 -115 -248t-77 -270l-33 -146q-18 -88 -41 -185.5t-59 -189.5t-92 -166.5t-138.5 -118.5t-199.5 -44zM854 842q38 143 101 267t190 194q-168 0 -286 -45t-191.5 -108t-107.5 -120
t-34 -80q0 -40 78 -69.5t250 -38.5zM985 1622l-59 43q33 58 79.5 126t97 129.5t96.5 100.5t77 39q19 0 45 -39.5t52.5 -97.5t49.5 -117t37 -100t15 -43l-72 -41q-23 32 -66 111.5t-90 158.5q-52 -53 -103.5 -107t-93 -97.5t-65.5 -65.5z" />
    <glyph glyph-name="Idieresis" unicode="&#xcf;" horiz-adv-x="1061" 
d="M494 -57q-60 0 -127 24.5t-113.5 75t-46.5 129.5q0 54 29 82t74 38.5t93 10.5q0 -16 -1 -40t-1 -50q0 -39 6 -79t29.5 -66.5t75.5 -26.5q59 0 103 43.5t75.5 113t54 149t37 153.5t23.5 125l14 77q-167 13 -267.5 53.5t-145 94t-44.5 104.5q0 47 34 115t101 140t165.5 135
t227.5 102t288 39q63 0 115.5 21t107.5 24q-11 -67 -48.5 -131.5t-103.5 -87.5q-69 -118 -115 -248t-77 -270l-33 -146q-18 -88 -41 -185.5t-59 -189.5t-92 -166.5t-138.5 -118.5t-199.5 -44zM854 842q38 143 101 267t190 194q-168 0 -286 -45t-191.5 -108t-107.5 -120
t-34 -80q0 -40 78 -69.5t250 -38.5zM1407 1662q-43 0 -61.5 23.5t-18.5 54.5q0 34 18 70.5t49.5 62t71.5 25.5q60 0 85.5 -23.5t25.5 -54.5q0 -34 -23.5 -71t-62 -62t-84.5 -25zM963 1662q-42 0 -60 23.5t-18 54.5q0 34 17.5 70.5t49 62t72.5 25.5q59 0 85 -23.5t26 -54.5
q0 -34 -24 -71t-63 -62t-85 -25z" />
    <glyph glyph-name="Eth" unicode="&#xd0;" horiz-adv-x="1780" 
d="M950 -57q-103 0 -197.5 44.5t-168.5 145.5q-85 -121 -179.5 -154.5t-201.5 -33.5q-75 0 -132.5 37t-90.5 92t-33 110q0 58 30 88.5t77.5 42t97.5 11.5q0 -25 -3.5 -50.5t-3.5 -54.5q0 -69 22 -124.5t97 -55.5q38 0 74.5 26t58.5 76q13 26 47 112t78 255l-84 -6
q-7 0 -32 4.5t-25 36.5q0 47 16.5 64.5t32.5 21.5q23 8 123 14l109 563q6 18 31.5 26t54.5 10.5t43 2.5h94q-25 -145 -42 -291.5t-52 -298.5h22q85 0 147 -8t62 -33q0 -27 -30 -61.5t-70 -34.5q-36 0 -71 1t-67 1h-28q-19 -63 -44 -127.5t-57 -130.5q20 -59 65.5 -105.5
t104.5 -73t117 -26.5q89 0 175 49t155.5 140.5t111 219t41.5 284.5q0 128 -33 243.5t-103 205t-181.5 141t-267.5 51.5q-112 0 -220.5 -34t-197 -90t-141 -123t-52.5 -132q0 -52 38 -99t126 -81q0 -49 -9 -98.5t-17 -63.5q-155 49 -227 138.5t-72 190.5q0 91 53.5 182
t163.5 167t281 122t405 46q186 0 321 -63t221.5 -165.5t128 -223.5t41.5 -237q0 -183 -55 -343.5t-154.5 -282.5t-233 -191t-290.5 -69z" />
    <glyph glyph-name="Ntilde" unicode="&#xd1;" horiz-adv-x="1473" 
d="M1100 -57q-46 0 -73.5 32.5t-41 82.5t-18 104.5t-4.5 99.5q0 239 35 483t102 457q11 30 11 55q0 26 -11.5 43.5t-33.5 17.5q-13 0 -33 -9q-162 -82 -293.5 -218t-225 -303.5t-143.5 -345.5q-20 -71 -38 -154.5t-33 -160.5t-28 -127h-206q0 79 23 190t59 243t75.5 275
t71.5 287l82 318l-322 -228l-30 -10q-16 0 -21.5 16t-5.5 35q0 10 4.5 20.5t20.5 20.5l430 271q17 11 49 29.5t66 33.5t55 15q20 0 20 -19q0 -37 -12 -94t-27 -116t-27 -104.5t-12 -60.5l-16 -82q144 171 263 267.5t210.5 141t154 56t93.5 11.5q46 0 65 -27t19 -66
q0 -25 -17 -112t-41.5 -211.5t-49 -263t-41.5 -267.5t-17 -223q0 -43 5 -89t20 -78t44 -32q16 0 37.5 11t46.5 37l256 245l-2 -110q-4 -4 -23 -23.5t-43 -44t-43.5 -44.5t-25.5 -25q-27 -25 -73 -66t-99 -83.5t-103 -71.5t-85 -29zM1296 1650q-9 50 -28.5 69t-46.5 19
q-37 0 -84.5 -21t-101 -42t-107.5 -21q-67 0 -103 32t-51 74t-17.5 76.5t-4.5 38.5l108 21q6 -48 28 -65t54 -17q41 0 93 19t106.5 38t103.5 19q68 0 103.5 -32t50.5 -74t18 -76t4 -39z" />
    <glyph glyph-name="Ograve" unicode="&#xd2;" horiz-adv-x="1653" 
d="M715 -57q-162 0 -302 74t-226.5 221t-86.5 367q0 172 62 335t179.5 293.5t285.5 207.5t379 77q32 0 67 -3.5t70 -9.5l-4 -102q-26 5 -51 6.5t-48 1.5q-164 0 -295.5 -60.5t-224.5 -163.5t-142.5 -232t-49.5 -266q0 -168 73.5 -286.5t191 -180.5t249.5 -62
q133 0 239.5 45.5t185.5 122t128 168.5h-13q-136 0 -255.5 47.5t-194 143t-74.5 239.5q0 82 37.5 153.5t117 115.5t204.5 44q89 0 173.5 -50.5t139.5 -155t55 -265.5q0 -69 -12 -131q137 21 280 106v-92q-67 -53 -147.5 -88.5t-165.5 -52.5q-47 -130 -134.5 -234.5
t-200.5 -179t-239 -114t-251 -39.5zM1448 627q27 86 27 172q0 90 -31 164.5t-94.5 118.5t-159.5 44q-85 0 -122.5 -35.5t-37.5 -91.5q0 -106 54 -189.5t148.5 -132t215.5 -50.5zM1418 1618q-36 13 -100 35t-142 50t-156 58l-88 35q-18 5 -18 29q0 20 16.5 43.5t41.5 41
t48 17.5q42 -2 99.5 -29.5t118.5 -68t114.5 -82.5t87.5 -74z" />
    <glyph glyph-name="Oacute" unicode="&#xd3;" horiz-adv-x="1653" 
d="M715 -57q-162 0 -302 74t-226.5 221t-86.5 367q0 172 62 335t179.5 293.5t285.5 207.5t379 77q32 0 67 -3.5t70 -9.5l-4 -102q-26 5 -51 6.5t-48 1.5q-164 0 -295.5 -60.5t-224.5 -163.5t-142.5 -232t-49.5 -266q0 -168 73.5 -286.5t191 -180.5t249.5 -62
q133 0 239.5 45.5t185.5 122t128 168.5h-13q-136 0 -255.5 47.5t-194 143t-74.5 239.5q0 82 37.5 153.5t117 115.5t204.5 44q89 0 173.5 -50.5t139.5 -155t55 -265.5q0 -69 -12 -131q137 21 280 106v-92q-67 -53 -147.5 -88.5t-165.5 -52.5q-47 -130 -134.5 -234.5
t-200.5 -179t-239 -114t-251 -39.5zM1448 627q27 86 27 172q0 90 -31 164.5t-94.5 118.5t-159.5 44q-85 0 -122.5 -35.5t-37.5 -91.5q0 -106 54 -189.5t148.5 -132t215.5 -50.5zM936 1618l-23 55q34 32 88 74t115 82.5t118.5 68t98.5 29.5q24 0 48.5 -17.5t41.5 -41
t17 -43.5q0 -24 -19 -29l-88 -35q-77 -30 -155 -58.5t-142 -50t-100 -34.5z" />
    <glyph glyph-name="Ocircumflex" unicode="&#xd4;" horiz-adv-x="1653" 
d="M715 -57q-162 0 -302 74t-226.5 221t-86.5 367q0 172 62 335t179.5 293.5t285.5 207.5t379 77q32 0 67 -3.5t70 -9.5l-4 -102q-26 5 -51 6.5t-48 1.5q-164 0 -295.5 -60.5t-224.5 -163.5t-142.5 -232t-49.5 -266q0 -168 73.5 -286.5t191 -180.5t249.5 -62
q133 0 239.5 45.5t185.5 122t128 168.5h-13q-136 0 -255.5 47.5t-194 143t-74.5 239.5q0 82 37.5 153.5t117 115.5t204.5 44q89 0 173.5 -50.5t139.5 -155t55 -265.5q0 -69 -12 -131q137 21 280 106v-92q-67 -53 -147.5 -88.5t-165.5 -52.5q-47 -130 -134.5 -234.5
t-200.5 -179t-239 -114t-251 -39.5zM1448 627q27 86 27 172q0 90 -31 164.5t-94.5 118.5t-159.5 44q-85 0 -122.5 -35.5t-37.5 -91.5q0 -106 54 -189.5t148.5 -132t215.5 -50.5zM931 1622l-59 43q33 58 79.5 126t97 129.5t96.5 100.5t77 39q19 0 45 -39.5t52.5 -97.5
t49.5 -117t37 -100t15 -43l-72 -41q-23 32 -66 111.5t-90 158.5q-52 -53 -103.5 -107t-93 -97.5t-65.5 -65.5z" />
    <glyph glyph-name="Otilde" unicode="&#xd5;" horiz-adv-x="1653" 
d="M715 -57q-162 0 -302 74t-226.5 221t-86.5 367q0 172 62 335t179.5 293.5t285.5 207.5t379 77q32 0 67 -3.5t70 -9.5l-4 -102q-26 5 -51 6.5t-48 1.5q-164 0 -295.5 -60.5t-224.5 -163.5t-142.5 -232t-49.5 -266q0 -168 73.5 -286.5t191 -180.5t249.5 -62
q133 0 239.5 45.5t185.5 122t128 168.5h-13q-136 0 -255.5 47.5t-194 143t-74.5 239.5q0 82 37.5 153.5t117 115.5t204.5 44q89 0 173.5 -50.5t139.5 -155t55 -265.5q0 -69 -12 -131q137 21 280 106v-92q-67 -53 -147.5 -88.5t-165.5 -52.5q-47 -130 -134.5 -234.5
t-200.5 -179t-239 -114t-251 -39.5zM1448 627q27 86 27 172q0 90 -31 164.5t-94.5 118.5t-159.5 44q-85 0 -122.5 -35.5t-37.5 -91.5q0 -106 54 -189.5t148.5 -132t215.5 -50.5zM1386 1650q-9 50 -28.5 69t-46.5 19q-37 0 -84.5 -21t-101 -42t-107.5 -21q-67 0 -103 32
t-51 74t-17.5 76.5t-4.5 38.5l108 21q6 -48 28 -65t54 -17q41 0 93 19t106.5 38t103.5 19q68 0 103.5 -32t50.5 -74t18 -76t4 -39z" />
    <glyph glyph-name="Odieresis" unicode="&#xd6;" horiz-adv-x="1653" 
d="M715 -57q-162 0 -302 74t-226.5 221t-86.5 367q0 172 62 335t179.5 293.5t285.5 207.5t379 77q32 0 67 -3.5t70 -9.5l-4 -102q-26 5 -51 6.5t-48 1.5q-164 0 -295.5 -60.5t-224.5 -163.5t-142.5 -232t-49.5 -266q0 -168 73.5 -286.5t191 -180.5t249.5 -62
q133 0 239.5 45.5t185.5 122t128 168.5h-13q-136 0 -255.5 47.5t-194 143t-74.5 239.5q0 82 37.5 153.5t117 115.5t204.5 44q89 0 173.5 -50.5t139.5 -155t55 -265.5q0 -69 -12 -131q137 21 280 106v-92q-67 -53 -147.5 -88.5t-165.5 -52.5q-47 -130 -134.5 -234.5
t-200.5 -179t-239 -114t-251 -39.5zM1448 627q27 86 27 172q0 90 -31 164.5t-94.5 118.5t-159.5 44q-85 0 -122.5 -35.5t-37.5 -91.5q0 -106 54 -189.5t148.5 -132t215.5 -50.5zM1353 1662q-43 0 -61.5 23.5t-18.5 54.5q0 34 18 70.5t49.5 62t71.5 25.5q60 0 85.5 -23.5
t25.5 -54.5q0 -34 -23.5 -71t-62 -62t-84.5 -25zM909 1662q-42 0 -60 23.5t-18 54.5q0 34 17.5 70.5t49 62t72.5 25.5q59 0 85 -23.5t26 -54.5q0 -34 -24 -71t-63 -62t-85 -25z" />
    <glyph glyph-name="multiply" unicode="&#xd7;" horiz-adv-x="1200" 
d="M380 381q-35 32 -41.5 50t0.5 32q10 15 55.5 71.5t106.5 129.5q-32 31 -74.5 68t-101.5 89q-6 5 -20.5 25t8.5 43q32 35 56 35t38 -6q15 -11 66 -52.5t118 -101.5l74 82q59 62 107 102t67 23q20 -20 24 -66t-22 -74l-96 -98l-56 -59q22 -19 43.5 -38.5t40.5 -39.5
q60 -58 90 -97.5t13 -56.5q-20 -19 -52.5 -33.5t-60.5 13.5q-26 26 -53.5 50.5t-50.5 47.5l-58 53l-151 -180q-6 -4 -26.5 -19.5t-43.5 7.5z" />
    <glyph glyph-name="Oslash" unicode="&#xd8;" horiz-adv-x="1653" 
d="M252 -162q-12 0 -27.5 5t-15.5 18q0 21 29 53t45 59q9 13 25.5 34.5t38.5 50.5q-111 83 -179 232.5t-68 373.5q0 146 62 296t179.5 276.5t285.5 204t379 77.5q32 0 67 -3.5t70 -9.5l-4 -102q-26 5 -51 6.5t-48 1.5q-164 0 -295.5 -61t-224.5 -159.5t-142.5 -215
t-49.5 -227.5q0 -167 51.5 -285t135.5 -189l377 482q-34 77 -34 170q0 82 37.5 153.5t117 115.5t204.5 44q28 0 51 -4l125 158q43 53 65.5 84.5t41.5 45t50 13.5q10 0 31 -1t21 -26q0 -17 -11 -32l-217 -279q88 -48 149.5 -154t61.5 -276q0 -69 -12 -131q137 21 280 106v-92
q-67 -53 -147.5 -88.5t-165.5 -52.5q-47 -130 -134.5 -234.5t-200.5 -179t-239 -114t-251 -39.5q-149 0 -272 58l-42 -54l-21.5 -27t-55.5 -54.5t-72 -27.5zM1448 627q27 86 27 172q0 90 -31 164.5t-94.5 118.5t-159.5 44q-85 0 -122.5 -35.5t-37.5 -91.5q0 -106 54 -189.5
t148.5 -132t215.5 -50.5zM842 160q133 0 239.5 45.5t185.5 122t128 168.5h-13q-127 0 -240 41t-187 123l-347 -447q106 -53 234 -53z" />
    <glyph glyph-name="Ugrave" unicode="&#xd9;" horiz-adv-x="1595" 
d="M625 -57q-145 0 -233.5 59t-128.5 162.5t-40 238.5q0 147 41.5 311t113 320t159.5 277q0 4 -5 4q-3 0 -12 -6l-114 -88q-22 -12 -93 -56.5t-166.5 -103t-189.5 -115.5v111q93 53 196.5 116.5t205 126.5t188.5 115t146.5 83.5t78.5 31.5q9 0 18 -5t9 -16t-24.5 -66
t-63 -140.5t-81.5 -191t-81.5 -220t-63 -226t-24.5 -208.5q0 -136 63.5 -223t220.5 -87q140 0 260 67.5t211.5 180t146 250.5t62.5 279q-27 5 -73 26t-93 60t-79.5 98t-32.5 139q0 58 21 121t68 107.5t126 44.5q63 0 100.5 -46t57.5 -115.5t26.5 -141.5t7 -126t0.5 -67
l62.5 18t158.5 69.5t196 149.5v-114q-43 -36 -107.5 -82.5t-144 -86.5t-167.5 -58q-24 -187 -102 -361.5t-200.5 -313.5t-281 -220.5t-343.5 -81.5zM1430 1028q0 9 1 19.5t1 19.5q0 61 -13 123.5t-38 105.5t-60 43q-34 0 -44.5 -23.5t-10.5 -49.5q0 -98 49.5 -161t114.5 -77
zM1366 1618q-36 13 -100 35t-142 50t-156 58l-88 35q-18 5 -18 29q0 20 16.5 43.5t41.5 41t48 17.5q42 -2 99.5 -29.5t118.5 -68t114.5 -82.5t87.5 -74z" />
    <glyph glyph-name="Uacute" unicode="&#xda;" horiz-adv-x="1595" 
d="M625 -57q-145 0 -233.5 59t-128.5 162.5t-40 238.5q0 147 41.5 311t113 320t159.5 277q0 4 -5 4q-3 0 -12 -6l-114 -88q-22 -12 -93 -56.5t-166.5 -103t-189.5 -115.5v111q93 53 196.5 116.5t205 126.5t188.5 115t146.5 83.5t78.5 31.5q9 0 18 -5t9 -16t-24.5 -66
t-63 -140.5t-81.5 -191t-81.5 -220t-63 -226t-24.5 -208.5q0 -136 63.5 -223t220.5 -87q140 0 260 67.5t211.5 180t146 250.5t62.5 279q-27 5 -73 26t-93 60t-79.5 98t-32.5 139q0 58 21 121t68 107.5t126 44.5q63 0 100.5 -46t57.5 -115.5t26.5 -141.5t7 -126t0.5 -67
l62.5 18t158.5 69.5t196 149.5v-114q-43 -36 -107.5 -82.5t-144 -86.5t-167.5 -58q-24 -187 -102 -361.5t-200.5 -313.5t-281 -220.5t-343.5 -81.5zM1430 1028q0 9 1 19.5t1 19.5q0 61 -13 123.5t-38 105.5t-60 43q-34 0 -44.5 -23.5t-10.5 -49.5q0 -98 49.5 -161t114.5 -77
zM884 1618l-23 55q34 32 88 74t115 82.5t118.5 68t98.5 29.5q24 0 48.5 -17.5t41.5 -41t17 -43.5q0 -24 -19 -29l-88 -35q-77 -30 -155 -58.5t-142 -50t-100 -34.5z" />
    <glyph glyph-name="Ucircumflex" unicode="&#xdb;" horiz-adv-x="1595" 
d="M625 -57q-145 0 -233.5 59t-128.5 162.5t-40 238.5q0 147 41.5 311t113 320t159.5 277q0 4 -5 4q-3 0 -12 -6l-114 -88q-22 -12 -93 -56.5t-166.5 -103t-189.5 -115.5v111q93 53 196.5 116.5t205 126.5t188.5 115t146.5 83.5t78.5 31.5q9 0 18 -5t9 -16t-24.5 -66
t-63 -140.5t-81.5 -191t-81.5 -220t-63 -226t-24.5 -208.5q0 -136 63.5 -223t220.5 -87q140 0 260 67.5t211.5 180t146 250.5t62.5 279q-27 5 -73 26t-93 60t-79.5 98t-32.5 139q0 58 21 121t68 107.5t126 44.5q63 0 100.5 -46t57.5 -115.5t26.5 -141.5t7 -126t0.5 -67
l62.5 18t158.5 69.5t196 149.5v-114q-43 -36 -107.5 -82.5t-144 -86.5t-167.5 -58q-24 -187 -102 -361.5t-200.5 -313.5t-281 -220.5t-343.5 -81.5zM1430 1028q0 9 1 19.5t1 19.5q0 61 -13 123.5t-38 105.5t-60 43q-34 0 -44.5 -23.5t-10.5 -49.5q0 -98 49.5 -161t114.5 -77
zM879 1622l-59 43q33 58 79.5 126t97 129.5t96.5 100.5t77 39q19 0 45 -39.5t52.5 -97.5t49.5 -117t37 -100t15 -43l-72 -41q-23 32 -66 111.5t-90 158.5q-52 -53 -103.5 -107t-93 -97.5t-65.5 -65.5z" />
    <glyph glyph-name="Udieresis" unicode="&#xdc;" horiz-adv-x="1595" 
d="M625 -57q-145 0 -233.5 59t-128.5 162.5t-40 238.5q0 147 41.5 311t113 320t159.5 277q0 4 -5 4q-3 0 -12 -6l-114 -88q-22 -12 -93 -56.5t-166.5 -103t-189.5 -115.5v111q93 53 196.5 116.5t205 126.5t188.5 115t146.5 83.5t78.5 31.5q9 0 18 -5t9 -16t-24.5 -66
t-63 -140.5t-81.5 -191t-81.5 -220t-63 -226t-24.5 -208.5q0 -136 63.5 -223t220.5 -87q140 0 260 67.5t211.5 180t146 250.5t62.5 279q-27 5 -73 26t-93 60t-79.5 98t-32.5 139q0 58 21 121t68 107.5t126 44.5q63 0 100.5 -46t57.5 -115.5t26.5 -141.5t7 -126t0.5 -67
l62.5 18t158.5 69.5t196 149.5v-114q-43 -36 -107.5 -82.5t-144 -86.5t-167.5 -58q-24 -187 -102 -361.5t-200.5 -313.5t-281 -220.5t-343.5 -81.5zM1430 1028q0 9 1 19.5t1 19.5q0 61 -13 123.5t-38 105.5t-60 43q-34 0 -44.5 -23.5t-10.5 -49.5q0 -98 49.5 -161t114.5 -77
zM1301 1662q-43 0 -61.5 23.5t-18.5 54.5q0 34 18 70.5t49.5 62t71.5 25.5q60 0 85.5 -23.5t25.5 -54.5q0 -34 -23.5 -71t-62 -62t-84.5 -25zM857 1662q-42 0 -60 23.5t-18 54.5q0 34 17.5 70.5t49 62t72.5 25.5q59 0 85 -23.5t26 -54.5q0 -34 -24 -71t-63 -62t-85 -25z" />
    <glyph glyph-name="Yacute" unicode="&#xdd;" horiz-adv-x="1554" 
d="M442 -774q-66 0 -133 23t-112 69.5t-45 116.5q0 64 51 92l809 432l159 498q-81 -94 -181 -179.5t-202.5 -152t-193.5 -105t-156 -38.5q-44 0 -83.5 24t-64 82t-24.5 160q0 108 34.5 246.5t83.5 284t93 274.5l107 311l-308 -213l-10 -6q-8 -8 -12 -8q-12 0 -22.5 9
t-10.5 28q0 12 2.5 23t18.5 22l411 268q25 17 55 24t56 7q28 0 46.5 -7.5t18.5 -21.5q0 -22 -21.5 -88t-49.5 -176q-28 -112 -67.5 -241t-77.5 -252.5t-63.5 -222t-25.5 -151.5q0 -35 23.5 -72.5t54.5 -37.5q69 0 162.5 36.5t187.5 103t165.5 156t96.5 195.5l91 375
q2 11 12.5 51t24.5 93t29.5 104.5t29.5 86.5t22 38h217l-354 -1401l387 354v-112l-405 -361q-49 -128 -121 -258.5t-172 -240t-232 -176t-301 -66.5zM553 -694q51 0 112.5 38t122 101.5t108 140t69.5 154.5l36 121l-278 -162q-103 -48 -178.5 -112.5t-75.5 -133.5
q0 -72 26 -107t58 -40zM996 1618l-23 55q34 32 88 74t115 82.5t118.5 68t98.5 29.5q24 0 48.5 -17.5t41.5 -41t17 -43.5q0 -24 -19 -29l-88 -35q-77 -30 -155 -58.5t-142 -50t-100 -34.5z" />
    <glyph glyph-name="Thorn" unicode="&#xde;" horiz-adv-x="1554" 
d="M160 -180q-74 0 -141 25.5t-109.5 77.5t-42.5 130q0 50 29 76.5t74 36.5t93 10q0 -29 -1 -58t-1 -52q0 -58 24 -103t93 -45q65 0 113.5 55.5t84.5 142t60.5 183.5t40.5 181.5t25 133.5l147 789q4 23 35.5 35.5t67 18t49.5 5.5h76l-33 -196q20 2 39.5 2h38.5
q216 0 354.5 -60t205 -156t66.5 -204q0 -116 -75 -225t-218.5 -179.5t-349.5 -70.5q-108 0 -231 24q-57 -230 -142.5 -355t-182.5 -173.5t-189 -48.5zM864 496q178 0 293 45.5t171 117.5t56 152q0 83 -58 159.5t-171 125.5t-278 49h-28t-28 -2q-22 -119 -47 -246t-46 -232.5
t-34 -158.5q47 -6 88.5 -8t81.5 -2z" />
    <glyph glyph-name="germandbls" unicode="&#xdf;" horiz-adv-x="983" 
d="M-45 -184q-2 8 -2 30q0 55 15.5 143t39.5 187.5t49 192.5t44.5 162t25.5 94q65 263 138 436t152 273t161 142t165 42q89 0 150 -42t93 -110t32 -147q0 -86 -44.5 -172t-136.5 -148.5t-235 -79.5q115 -44 190 -123t112.5 -175.5t37.5 -192.5q0 -102 -41 -190t-121 -142.5
t-198 -54.5q-82 0 -159.5 25t-139.5 77l49 113q43 -34 93.5 -51t100.5 -17q100 0 147.5 72t47.5 172q0 81 -29 165.5t-85 154t-136 104.5v116q125 0 207.5 56.5t123 138.5t40.5 158q0 71 -30.5 120.5t-92.5 49.5q-56 0 -119 -50t-118 -161t-87 -295q0 -3 -13 -65t-34 -162
t-46 -219.5t-51 -239.5t-49.5 -222t-39.5 -165h-207z" />
    <glyph glyph-name="agrave" unicode="&#xe0;" horiz-adv-x="928" 
d="M150 -29q-63 0 -96.5 42t-45.5 101t-12 111q0 111 52.5 220t144.5 198.5t211.5 143t252.5 53.5q45 0 85 -9.5t83 -23.5q-2 -12 -14 -64.5t-28 -125.5t-31.5 -148t-26 -134.5t-10.5 -84.5q0 -64 30 -64q27 0 73.5 37t106.5 98t126 134v-115q-24 -29 -69.5 -74.5
t-102.5 -96.5t-114.5 -96t-107 -73.5t-79.5 -28.5q-45 0 -60.5 40.5t-15.5 90.5q0 26 2.5 51.5t5.5 45.5q-41 -53 -98 -106t-124 -87.5t-138 -34.5zM307 131q31 0 70.5 23t78.5 56t66 62l115 492q-84 0 -161 -45t-137 -117.5t-95 -157t-35 -163.5q0 -58 21.5 -104t76.5 -46z
M919 948q-36 13 -100 35t-142 50t-156 58l-88 35q-18 5 -18 29q0 20 16.5 43.5t41.5 41t48 17.5q42 -2 99.5 -29.5t118.5 -68t114.5 -82.5t87.5 -74z" />
    <glyph glyph-name="aacute" unicode="&#xe1;" horiz-adv-x="928" 
d="M150 -29q-63 0 -96.5 42t-45.5 101t-12 111q0 111 52.5 220t144.5 198.5t211.5 143t252.5 53.5q45 0 85 -9.5t83 -23.5q-2 -12 -14 -64.5t-28 -125.5t-31.5 -148t-26 -134.5t-10.5 -84.5q0 -64 30 -64q27 0 73.5 37t106.5 98t126 134v-115q-24 -29 -69.5 -74.5
t-102.5 -96.5t-114.5 -96t-107 -73.5t-79.5 -28.5q-45 0 -60.5 40.5t-15.5 90.5q0 26 2.5 51.5t5.5 45.5q-41 -53 -98 -106t-124 -87.5t-138 -34.5zM307 131q31 0 70.5 23t78.5 56t66 62l115 492q-84 0 -161 -45t-137 -117.5t-95 -157t-35 -163.5q0 -58 21.5 -104t76.5 -46z
M437 948l-23 55q34 32 88 74t115 82.5t118.5 68t98.5 29.5q24 0 48.5 -17.5t41.5 -41t17 -43.5q0 -24 -19 -29l-88 -35q-77 -30 -155 -58.5t-142 -50t-100 -34.5z" />
    <glyph glyph-name="acircumflex" unicode="&#xe2;" horiz-adv-x="928" 
d="M150 -29q-63 0 -96.5 42t-45.5 101t-12 111q0 111 52.5 220t144.5 198.5t211.5 143t252.5 53.5q45 0 85 -9.5t83 -23.5q-2 -12 -14 -64.5t-28 -125.5t-31.5 -148t-26 -134.5t-10.5 -84.5q0 -64 30 -64q27 0 73.5 37t106.5 98t126 134v-115q-24 -29 -69.5 -74.5
t-102.5 -96.5t-114.5 -96t-107 -73.5t-79.5 -28.5q-45 0 -60.5 40.5t-15.5 90.5q0 26 2.5 51.5t5.5 45.5q-41 -53 -98 -106t-124 -87.5t-138 -34.5zM307 131q31 0 70.5 23t78.5 56t66 62l115 492q-84 0 -161 -45t-137 -117.5t-95 -157t-35 -163.5q0 -58 21.5 -104t76.5 -46z
M432 952l-59 43q33 58 79.5 126t97 129.5t96.5 100.5t77 39q19 0 45 -39.5t52.5 -97.5t49.5 -117t37 -100t15 -43l-72 -41q-23 32 -66 111.5t-90 158.5q-52 -53 -103.5 -107t-93 -97.5t-65.5 -65.5z" />
    <glyph glyph-name="atilde" unicode="&#xe3;" horiz-adv-x="928" 
d="M150 -29q-63 0 -96.5 42t-45.5 101t-12 111q0 111 52.5 220t144.5 198.5t211.5 143t252.5 53.5q45 0 85 -9.5t83 -23.5q-2 -12 -14 -64.5t-28 -125.5t-31.5 -148t-26 -134.5t-10.5 -84.5q0 -64 30 -64q27 0 73.5 37t106.5 98t126 134v-115q-24 -29 -69.5 -74.5
t-102.5 -96.5t-114.5 -96t-107 -73.5t-79.5 -28.5q-45 0 -60.5 40.5t-15.5 90.5q0 26 2.5 51.5t5.5 45.5q-41 -53 -98 -106t-124 -87.5t-138 -34.5zM307 131q31 0 70.5 23t78.5 56t66 62l115 492q-84 0 -161 -45t-137 -117.5t-95 -157t-35 -163.5q0 -58 21.5 -104t76.5 -46z
M887 980q-9 50 -28.5 69t-46.5 19q-37 0 -84.5 -21t-101 -42t-107.5 -21q-67 0 -103 32t-51 74t-17.5 76.5t-4.5 38.5l108 21q6 -48 28 -65t54 -17q41 0 93 19t106.5 38t103.5 19q68 0 103.5 -32t50.5 -74t18 -76t4 -39z" />
    <glyph glyph-name="adieresis" unicode="&#xe4;" horiz-adv-x="928" 
d="M150 -29q-63 0 -96.5 42t-45.5 101t-12 111q0 111 52.5 220t144.5 198.5t211.5 143t252.5 53.5q45 0 85 -9.5t83 -23.5q-2 -12 -14 -64.5t-28 -125.5t-31.5 -148t-26 -134.5t-10.5 -84.5q0 -64 30 -64q27 0 73.5 37t106.5 98t126 134v-115q-24 -29 -69.5 -74.5
t-102.5 -96.5t-114.5 -96t-107 -73.5t-79.5 -28.5q-45 0 -60.5 40.5t-15.5 90.5q0 26 2.5 51.5t5.5 45.5q-41 -53 -98 -106t-124 -87.5t-138 -34.5zM307 131q31 0 70.5 23t78.5 56t66 62l115 492q-84 0 -161 -45t-137 -117.5t-95 -157t-35 -163.5q0 -58 21.5 -104t76.5 -46z
M854 992q-43 0 -61.5 23.5t-18.5 54.5q0 34 18 70.5t49.5 62t71.5 25.5q60 0 85.5 -23.5t25.5 -54.5q0 -34 -23.5 -71t-62 -62t-84.5 -25zM410 992q-42 0 -60 23.5t-18 54.5q0 34 17.5 70.5t49 62t72.5 25.5q59 0 85 -23.5t26 -54.5q0 -34 -24 -71t-63 -62t-85 -25z" />
    <glyph glyph-name="aring" unicode="&#xe5;" horiz-adv-x="928" 
d="M150 -29q-63 0 -96.5 42t-45.5 101t-12 111q0 111 52.5 220t144.5 198.5t211.5 143t252.5 53.5q45 0 85 -9.5t83 -23.5q-2 -12 -14 -64.5t-28 -125.5t-31.5 -148t-26 -134.5t-10.5 -84.5q0 -64 30 -64q27 0 73.5 37t106.5 98t126 134v-115q-24 -29 -69.5 -74.5
t-102.5 -96.5t-114.5 -96t-107 -73.5t-79.5 -28.5q-45 0 -60.5 40.5t-15.5 90.5q0 26 2.5 51.5t5.5 45.5q-41 -53 -98 -106t-124 -87.5t-138 -34.5zM307 131q31 0 70.5 23t78.5 56t66 62l115 492q-84 0 -161 -45t-137 -117.5t-95 -157t-35 -163.5q0 -58 21.5 -104t76.5 -46z
M660 938q-58 0 -109 38.5t-51 121.5q0 72 49 134t146 62q80 0 120 -49t40 -111q0 -91 -60.5 -143.5t-134.5 -52.5zM664 1005q56 0 86.5 40.5t30.5 84.5q0 39 -20.5 68t-69.5 29q-55 0 -84 -40.5t-29 -86.5q0 -36 19.5 -65.5t66.5 -29.5z" />
    <glyph glyph-name="ae" unicode="&#xe6;" horiz-adv-x="1219" 
d="M209 -29q-107 0 -160 75t-53 179q0 111 57.5 220t164.5 198.5t257.5 143t337.5 53.5l-20 -92q50 44 117.5 68t131.5 24q80 0 139.5 -41.5t59.5 -130.5q0 -77 -43 -141.5t-111.5 -103t-144.5 -38.5q-41 0 -92 25.5t-88 83.5q-23 -48 -33 -91.5t-10 -85.5
q0 -60 14.5 -112.5t51.5 -85.5t102 -33q47 0 105 39t119.5 97.5t120.5 119.5t107 105v-110q-154 -171 -285.5 -268.5t-265.5 -97.5q-76 0 -145.5 40.5t-95.5 117.5q-40 -54 -101 -89t-125 -52t-112 -17zM307 131q51 0 116.5 34.5t111.5 80.5l118 518q-139 -31 -238.5 -105
t-152.5 -173t-53 -205q0 -58 20.5 -104t77.5 -46zM958 471q59 0 101.5 58t42.5 128q0 57 -25.5 77t-68.5 20q-59 0 -104.5 -34t-74 -77.5t-38.5 -73.5q35 -46 79 -72t88 -26z" />
    <glyph glyph-name="ccedilla" unicode="&#xe7;" horiz-adv-x="713" 
d="M227 -29q-121 0 -176 75.5t-55 184.5q0 96 37.5 202t106.5 198.5t162.5 150.5t205.5 58q35 0 82 -8t82 -34t35 -81q0 -43 -37.5 -72t-94.5 -29q-21 0 -33.5 19t-25 44.5t-31.5 44.5t-53 19q-45 0 -84.5 -38t-69.5 -98.5t-46.5 -131.5t-16.5 -137q0 -82 30 -139.5
t99 -57.5q103 0 232 81.5t247 219.5v-112q-49 -66 -120 -130t-152.5 -115.5t-165 -82.5t-158.5 -31zM99 -492l-16 62l21 28t42 84.5t21 143.5q-40 12 -59 35.5t-19 48.5q0 34 35 62t104 28q59 0 82 -31.5t23 -85.5q0 -31 -13.5 -88t-41.5 -118.5t-72.5 -109t-106.5 -59.5z
" />
    <glyph glyph-name="egrave" unicode="&#xe8;" horiz-adv-x="744" 
d="M292 -31q-121 0 -193 80t-72 209q0 108 35.5 212t101 187.5t155.5 133t199 49.5q98 0 167 -38t69 -138q0 -77 -43.5 -141.5t-111.5 -103t-144 -38.5q-42 0 -92.5 25t-88.5 83q-43 -90 -43 -176q0 -60 14.5 -112.5t51.5 -85.5t102 -33q47 0 105 38t120 95.5t121 117.5
t107 105v-110q-138 -162 -275.5 -260.5t-284.5 -98.5zM471 467q59 0 101 58t42 128q0 57 -25 77t-69 20q-59 0 -104 -34t-73.5 -77.5t-39.5 -73.5q35 -46 79.5 -72t88.5 -26zM839 940q-36 13 -100 35t-142 50t-156 58l-88 35q-18 5 -18 29q0 20 16.5 43.5t41.5 41t48 17.5
q42 -2 99.5 -29.5t118.5 -68t114.5 -82.5t87.5 -74z" />
    <glyph glyph-name="eacute" unicode="&#xe9;" horiz-adv-x="744" 
d="M292 -31q-121 0 -193 80t-72 209q0 108 35.5 212t101 187.5t155.5 133t199 49.5q98 0 167 -38t69 -138q0 -77 -43.5 -141.5t-111.5 -103t-144 -38.5q-42 0 -92.5 25t-88.5 83q-43 -90 -43 -176q0 -60 14.5 -112.5t51.5 -85.5t102 -33q47 0 105 38t120 95.5t121 117.5
t107 105v-110q-138 -162 -275.5 -260.5t-284.5 -98.5zM471 467q59 0 101 58t42 128q0 57 -25 77t-69 20q-59 0 -104 -34t-73.5 -77.5t-39.5 -73.5q35 -46 79.5 -72t88.5 -26zM357 940l-23 55q34 32 88 74t115 82.5t118.5 68t98.5 29.5q24 0 48.5 -17.5t41.5 -41t17 -43.5
q0 -24 -19 -29l-88 -35q-77 -30 -155 -58.5t-142 -50t-100 -34.5z" />
    <glyph glyph-name="ecircumflex" unicode="&#xea;" horiz-adv-x="744" 
d="M292 -31q-121 0 -193 80t-72 209q0 108 35.5 212t101 187.5t155.5 133t199 49.5q98 0 167 -38t69 -138q0 -77 -43.5 -141.5t-111.5 -103t-144 -38.5q-42 0 -92.5 25t-88.5 83q-43 -90 -43 -176q0 -60 14.5 -112.5t51.5 -85.5t102 -33q47 0 105 38t120 95.5t121 117.5
t107 105v-110q-138 -162 -275.5 -260.5t-284.5 -98.5zM471 467q59 0 101 58t42 128q0 57 -25 77t-69 20q-59 0 -104 -34t-73.5 -77.5t-39.5 -73.5q35 -46 79.5 -72t88.5 -26zM352 944l-59 43q33 58 79.5 126t97 129.5t96.5 100.5t77 39q19 0 45 -39.5t52.5 -97.5t49.5 -117
t37 -100t15 -43l-72 -41q-23 32 -66 111.5t-90 158.5q-52 -53 -103.5 -107t-93 -97.5t-65.5 -65.5z" />
    <glyph glyph-name="edieresis" unicode="&#xeb;" horiz-adv-x="744" 
d="M292 -31q-121 0 -193 80t-72 209q0 108 35.5 212t101 187.5t155.5 133t199 49.5q98 0 167 -38t69 -138q0 -77 -43.5 -141.5t-111.5 -103t-144 -38.5q-42 0 -92.5 25t-88.5 83q-43 -90 -43 -176q0 -60 14.5 -112.5t51.5 -85.5t102 -33q47 0 105 38t120 95.5t121 117.5
t107 105v-110q-138 -162 -275.5 -260.5t-284.5 -98.5zM471 467q59 0 101 58t42 128q0 57 -25 77t-69 20q-59 0 -104 -34t-73.5 -77.5t-39.5 -73.5q35 -46 79.5 -72t88.5 -26zM774 984q-43 0 -61.5 23.5t-18.5 54.5q0 34 18 70.5t49.5 62t71.5 25.5q60 0 85.5 -23.5
t25.5 -54.5q0 -34 -23.5 -71t-62 -62t-84.5 -25zM330 984q-42 0 -60 23.5t-18 54.5q0 34 17.5 70.5t49 62t72.5 25.5q59 0 85 -23.5t26 -54.5q0 -34 -24 -71t-63 -62t-85 -25z" />
    <glyph glyph-name="igrave" unicode="&#xec;" horiz-adv-x="469" 
d="M106 -29q-48 0 -68 42.5t-20 88.5q0 32 11.5 95.5t29 140t37 152t36 133t25.5 79.5q21 54 51.5 75.5t72.5 25.5t97 4q-10 -34 -29 -96t-41 -137.5t-42 -150t-33 -134.5t-13 -90q0 -14 6.5 -40t28.5 -26q12 0 54.5 37t96.5 89.5t102 102.5t71 76v-112q-169 -166 -275 -258
t-198 -97zM663 940q-36 13 -100 35t-142 50t-156 58l-88 35q-18 5 -18 29q0 20 16.5 43.5t41.5 41t48 17.5q42 -2 99.5 -29.5t118.5 -68t114.5 -82.5t87.5 -74z" />
    <glyph glyph-name="iacute" unicode="&#xed;" horiz-adv-x="469" 
d="M106 -29q-48 0 -68 42.5t-20 88.5q0 32 11.5 95.5t29 140t37 152t36 133t25.5 79.5q21 54 51.5 75.5t72.5 25.5t97 4q-10 -34 -29 -96t-41 -137.5t-42 -150t-33 -134.5t-13 -90q0 -14 6.5 -40t28.5 -26q12 0 54.5 37t96.5 89.5t102 102.5t71 76v-112q-169 -166 -275 -258
t-198 -97zM181 940l-23 55q34 32 88 74t115 82.5t118.5 68t98.5 29.5q24 0 48.5 -17.5t41.5 -41t17 -43.5q0 -24 -19 -29l-88 -35q-77 -30 -155 -58.5t-142 -50t-100 -34.5z" />
    <glyph glyph-name="icircumflex" unicode="&#xee;" horiz-adv-x="469" 
d="M106 -29q-48 0 -68 42.5t-20 88.5q0 32 11.5 95.5t29 140t37 152t36 133t25.5 79.5q21 54 51.5 75.5t72.5 25.5t97 4q-10 -34 -29 -96t-41 -137.5t-42 -150t-33 -134.5t-13 -90q0 -14 6.5 -40t28.5 -26q12 0 54.5 37t96.5 89.5t102 102.5t71 76v-112q-169 -166 -275 -258
t-198 -97zM176 944l-59 43q33 58 79.5 126t97 129.5t96.5 100.5t77 39q19 0 45 -39.5t52.5 -97.5t49.5 -117t37 -100t15 -43l-72 -41q-23 32 -66 111.5t-90 158.5q-52 -53 -103.5 -107t-93 -97.5t-65.5 -65.5z" />
    <glyph glyph-name="idieresis" unicode="&#xef;" horiz-adv-x="469" 
d="M106 -29q-48 0 -68 42.5t-20 88.5q0 32 11.5 95.5t29 140t37 152t36 133t25.5 79.5q21 54 51.5 75.5t72.5 25.5t97 4q-10 -34 -29 -96t-41 -137.5t-42 -150t-33 -134.5t-13 -90q0 -14 6.5 -40t28.5 -26q12 0 54.5 37t96.5 89.5t102 102.5t71 76v-112q-169 -166 -275 -258
t-198 -97zM598 984q-43 0 -61.5 23.5t-18.5 54.5q0 34 18 70.5t49.5 62t71.5 25.5q60 0 85.5 -23.5t25.5 -54.5q0 -34 -23.5 -71t-62 -62t-84.5 -25zM154 984q-42 0 -60 23.5t-18 54.5q0 34 17.5 70.5t49 62t72.5 25.5q59 0 85 -23.5t26 -54.5q0 -34 -24 -71t-63 -62
t-85 -25z" />
    <glyph glyph-name="eth" unicode="&#xf0;" horiz-adv-x="1036" 
d="M581 -14q-103 0 -193.5 40.5t-159 109.5t-107 155t-38.5 176q0 114 45 193.5t120 121t166 41.5q39 0 93 -11t94.5 -35t40.5 -63q0 -15 -9 -35q-69 31 -139 31q-72 0 -123.5 -59t-51.5 -168q0 -101 42 -187t105 -138.5t125 -52.5q80 0 119 36.5t52 102.5t13 154
q0 154 -74 330t-180 346l-145 -70q-4 -1 -14.5 -5.5t-22.5 -4.5q-26 0 -37.5 29.5t-11.5 45.5q0 18 7.5 29.5t16.5 18.5q10 7 46 26.5t88 45.5q-64 95 -129.5 182t-123.5 160h140q78 0 161.5 -68t160.5 -177l59 24q59 26 110 44t80 18q23 0 29 -12.5t6 -29.5
q0 -27 -15.5 -57t-45.5 -42q-34 -13 -68.5 -28t-66.5 -29l-13 -6q70 -119 125 -255t87 -266.5t32 -236.5q0 -192 -101.5 -308t-293.5 -116z" />
    <glyph glyph-name="ntilde" unicode="&#xf1;" horiz-adv-x="838" 
d="M508 -29q-52 0 -66 27t-14 49q0 80 22.5 162t52.5 157t52.5 136t22.5 98q0 26 -12 40.5t-27 14.5q-49 0 -99 -52t-96.5 -134t-85 -173t-65 -170.5t-37.5 -125.5h-191q1 46 12.5 120t31 160.5t41.5 172.5t44 158.5t39 115.5q20 53 59 66.5t91 13.5h67l-11.5 -40t-29 -100
t-36 -120.5t-31.5 -102.5q30 56 80.5 124t114.5 130t134 102t138 40q98 0 98 -117q0 -31 -14 -85t-35 -117.5t-42.5 -125t-35.5 -108t-14 -64.5t12 -18q13 0 35 14q13 9 44 37.5t68.5 64.5t71 68t51.5 47v-112q-24 -24 -68 -66.5t-98 -92t-107.5 -93.5t-98 -72.5
t-68.5 -28.5zM808 972q-9 50 -28.5 69t-46.5 19q-37 0 -84.5 -21t-101 -42t-107.5 -21q-67 0 -103 32t-51 74t-17.5 76.5t-4.5 38.5l108 21q6 -48 28 -65t54 -17q41 0 93 19t106.5 38t103.5 19q68 0 103.5 -32t50.5 -74t18 -76t4 -39z" />
    <glyph glyph-name="ograve" unicode="&#xf2;" horiz-adv-x="867" 
d="M336 -29q-109 0 -175 52.5t-95.5 132.5t-29.5 161q0 171 79 293t221.5 187t330.5 65q20 0 22 -13q0 -15 -2.5 -23.5t-19.5 -19.5q-145 0 -238.5 -61.5t-138.5 -161.5t-45 -216q0 -118 56.5 -177t129.5 -59q47 0 98 29t100 93q-73 45 -111 114.5t-38 136.5q0 74 45.5 126
t147.5 52q90 0 129 -52t39 -124q0 -58 -26.5 -118t-73.5 -104h7q59 0 118 51.5t132 126.5v-110q-59 -80 -129.5 -111t-119.5 -31q-16 0 -49 4q-154 -243 -364 -243zM686 320q20 22 40 76.5t20 97.5q0 38 -17.5 65t-64.5 27q-43 0 -62 -28t-19 -69q0 -42 29.5 -91t73.5 -78z
M905 940q-36 13 -100 35t-142 50t-156 58l-88 35q-18 5 -18 29q0 20 16.5 43.5t41.5 41t48 17.5q42 -2 99.5 -29.5t118.5 -68t114.5 -82.5t87.5 -74z" />
    <glyph glyph-name="oacute" unicode="&#xf3;" horiz-adv-x="867" 
d="M336 -29q-109 0 -175 52.5t-95.5 132.5t-29.5 161q0 171 79 293t221.5 187t330.5 65q20 0 22 -13q0 -15 -2.5 -23.5t-19.5 -19.5q-145 0 -238.5 -61.5t-138.5 -161.5t-45 -216q0 -118 56.5 -177t129.5 -59q47 0 98 29t100 93q-73 45 -111 114.5t-38 136.5q0 74 45.5 126
t147.5 52q90 0 129 -52t39 -124q0 -58 -26.5 -118t-73.5 -104h7q59 0 118 51.5t132 126.5v-110q-59 -80 -129.5 -111t-119.5 -31q-16 0 -49 4q-154 -243 -364 -243zM686 320q20 22 40 76.5t20 97.5q0 38 -17.5 65t-64.5 27q-43 0 -62 -28t-19 -69q0 -42 29.5 -91t73.5 -78z
M423 940l-23 55q34 32 88 74t115 82.5t118.5 68t98.5 29.5q24 0 48.5 -17.5t41.5 -41t17 -43.5q0 -24 -19 -29l-88 -35q-77 -30 -155 -58.5t-142 -50t-100 -34.5z" />
    <glyph glyph-name="ocircumflex" unicode="&#xf4;" horiz-adv-x="867" 
d="M336 -29q-109 0 -175 52.5t-95.5 132.5t-29.5 161q0 171 79 293t221.5 187t330.5 65q20 0 22 -13q0 -15 -2.5 -23.5t-19.5 -19.5q-145 0 -238.5 -61.5t-138.5 -161.5t-45 -216q0 -118 56.5 -177t129.5 -59q47 0 98 29t100 93q-73 45 -111 114.5t-38 136.5q0 74 45.5 126
t147.5 52q90 0 129 -52t39 -124q0 -58 -26.5 -118t-73.5 -104h7q59 0 118 51.5t132 126.5v-110q-59 -80 -129.5 -111t-119.5 -31q-16 0 -49 4q-154 -243 -364 -243zM686 320q20 22 40 76.5t20 97.5q0 38 -17.5 65t-64.5 27q-43 0 -62 -28t-19 -69q0 -42 29.5 -91t73.5 -78z
M418 944l-59 43q33 58 79.5 126t97 129.5t96.5 100.5t77 39q19 0 45 -39.5t52.5 -97.5t49.5 -117t37 -100t15 -43l-72 -41q-23 32 -66 111.5t-90 158.5q-52 -53 -103.5 -107t-93 -97.5t-65.5 -65.5z" />
    <glyph glyph-name="otilde" unicode="&#xf5;" horiz-adv-x="867" 
d="M336 -29q-109 0 -175 52.5t-95.5 132.5t-29.5 161q0 171 79 293t221.5 187t330.5 65q20 0 22 -13q0 -15 -2.5 -23.5t-19.5 -19.5q-145 0 -238.5 -61.5t-138.5 -161.5t-45 -216q0 -118 56.5 -177t129.5 -59q47 0 98 29t100 93q-73 45 -111 114.5t-38 136.5q0 74 45.5 126
t147.5 52q90 0 129 -52t39 -124q0 -58 -26.5 -118t-73.5 -104h7q59 0 118 51.5t132 126.5v-110q-59 -80 -129.5 -111t-119.5 -31q-16 0 -49 4q-154 -243 -364 -243zM686 320q20 22 40 76.5t20 97.5q0 38 -17.5 65t-64.5 27q-43 0 -62 -28t-19 -69q0 -42 29.5 -91t73.5 -78z
M873 972q-9 50 -28.5 69t-46.5 19q-37 0 -84.5 -21t-101 -42t-107.5 -21q-67 0 -103 32t-51 74t-17.5 76.5t-4.5 38.5l108 21q6 -48 28 -65t54 -17q41 0 93 19t106.5 38t103.5 19q68 0 103.5 -32t50.5 -74t18 -76t4 -39z" />
    <glyph glyph-name="odieresis" unicode="&#xf6;" horiz-adv-x="867" 
d="M336 -29q-109 0 -175 52.5t-95.5 132.5t-29.5 161q0 171 79 293t221.5 187t330.5 65q20 0 22 -13q0 -15 -2.5 -23.5t-19.5 -19.5q-145 0 -238.5 -61.5t-138.5 -161.5t-45 -216q0 -118 56.5 -177t129.5 -59q47 0 98 29t100 93q-73 45 -111 114.5t-38 136.5q0 74 45.5 126
t147.5 52q90 0 129 -52t39 -124q0 -58 -26.5 -118t-73.5 -104h7q59 0 118 51.5t132 126.5v-110q-59 -80 -129.5 -111t-119.5 -31q-16 0 -49 4q-154 -243 -364 -243zM686 320q20 22 40 76.5t20 97.5q0 38 -17.5 65t-64.5 27q-43 0 -62 -28t-19 -69q0 -42 29.5 -91t73.5 -78z
M840 984q-43 0 -61.5 23.5t-18.5 54.5q0 34 18 70.5t49.5 62t71.5 25.5q60 0 85.5 -23.5t25.5 -54.5q0 -34 -23.5 -71t-62 -62t-84.5 -25zM396 984q-42 0 -60 23.5t-18 54.5q0 34 17.5 70.5t49 62t72.5 25.5q59 0 85 -23.5t26 -54.5q0 -34 -24 -71t-63 -62t-85 -25z" />
    <glyph glyph-name="divide" unicode="&#xf7;" horiz-adv-x="1200" 
d="M613 864q-53 0 -76.5 23.5t-23.5 54.5q0 34 15.5 70.5t42.5 62t61 25.5q60 0 85 -23.5t25 -54.5q0 -35 -17.5 -71.5t-47 -61.5t-64.5 -25zM302 598q-7 0 -32 4.5t-25 36.5q0 47 16.5 64.5t32.5 21.5q16 3 66 7.5t113 9t119.5 7.5t84.5 3q72 0 133.5 -3.5t99 -12.5
t37.5 -25q0 -28 -30 -62.5t-70 -34.5q-55 0 -103.5 1t-95.5 1q-22 0 -53.5 -1t-98 -4.5t-194.5 -12.5zM511 254q-43 0 -61.5 23.5t-18.5 54.5q0 34 18 70t49.5 61.5t71.5 25.5q60 0 85.5 -23t25.5 -54q0 -35 -23.5 -71.5t-62 -61.5t-84.5 -25z" />
    <glyph glyph-name="oslash" unicode="&#xf8;" horiz-adv-x="907" 
d="M87 -211q-20 3 -20 18q0 17 15 37t26 41q6 14 23.5 44.5t41.5 70.5q-81 41 -116 132.5t-35 184.5q0 91 48.5 183t129.5 169t180 124t201 47q54 0 110 -17l72 113q37 53 54.5 83t45.5 30q5 0 21 -4.5t16 -24.5q0 -8 -6 -14l-133 -213q61 -36 119 -109q0 -15 -4.5 -30
t-36.5 -27q-59 68 -119 100l-354 -567q37 -27 90 -27q40 0 83.5 22.5t84.5 69.5q-31 34 -45.5 76.5t-14.5 83.5q0 63 31.5 111.5t91.5 48.5q62 0 85.5 -33.5t23.5 -77.5q0 -54 -21 -108t-36 -74q19 -8 36 -8q51 0 105 57t139 141v-110q-70 -74 -125 -118t-121 -44
q-18 0 -41.5 3t-35.5 13q-73 -88 -179 -151.5t-225 -63.5q-10 0 -21 1.5t-20 2.5l-61 -100q1 1 -12.5 -19.5t-37 -42.5t-53.5 -24zM308 217q83 134 175.5 279t162.5 256q-27 6 -51 6q-69 0 -131 -32t-110 -84t-75.5 -112.5t-27.5 -117.5q0 -117 57 -195zM683 283
q10 20 26.5 61.5t16.5 73.5q0 18 -8.5 30.5t-28.5 12.5q-22 0 -34.5 -25t-12.5 -57q0 -29 11 -56.5t30 -39.5z" />
    <glyph glyph-name="ugrave" unicode="&#xf9;" horiz-adv-x="993" 
d="M146 -29q-68 0 -92.5 52.5t-24.5 115.5q0 29 4 58.5t10 52.5q25 94 68.5 235.5t97.5 296.5q2 13 36.5 18t73 6t52.5 1h35q0 -3 -16.5 -55t-41 -130t-49 -160.5t-41 -149t-16.5 -93.5q0 -41 19.5 -57.5t47.5 -16.5q42 0 95 25t95 55.5t50 46.5l108 416q17 63 39 87.5
t51 28t64 3.5h68l-13 -47.5t-33 -120.5t-41.5 -152t-38.5 -144.5t-24 -96.5q-1 -14 -4.5 -39t-3.5 -51q0 -14 4 -20.5t21 -6.5q22 0 75 41t127 112.5t158 160.5v-113q-52 -62 -116 -125.5t-132 -116.5t-131 -85t-114 -32t-68.5 40.5t-17.5 90.5q0 55 10 93
q-58 -56 -125.5 -107.5t-136 -84t-129.5 -32.5zM868 940q-36 13 -100 35t-142 50t-156 58l-88 35q-18 5 -18 29q0 20 16.5 43.5t41.5 41t48 17.5q42 -2 99.5 -29.5t118.5 -68t114.5 -82.5t87.5 -74z" />
    <glyph glyph-name="uacute" unicode="&#xfa;" horiz-adv-x="993" 
d="M146 -29q-68 0 -92.5 52.5t-24.5 115.5q0 29 4 58.5t10 52.5q25 94 68.5 235.5t97.5 296.5q2 13 36.5 18t73 6t52.5 1h35q0 -3 -16.5 -55t-41 -130t-49 -160.5t-41 -149t-16.5 -93.5q0 -41 19.5 -57.5t47.5 -16.5q42 0 95 25t95 55.5t50 46.5l108 416q17 63 39 87.5
t51 28t64 3.5h68l-13 -47.5t-33 -120.5t-41.5 -152t-38.5 -144.5t-24 -96.5q-1 -14 -4.5 -39t-3.5 -51q0 -14 4 -20.5t21 -6.5q22 0 75 41t127 112.5t158 160.5v-113q-52 -62 -116 -125.5t-132 -116.5t-131 -85t-114 -32t-68.5 40.5t-17.5 90.5q0 55 10 93
q-58 -56 -125.5 -107.5t-136 -84t-129.5 -32.5zM386 940l-23 55q34 32 88 74t115 82.5t118.5 68t98.5 29.5q24 0 48.5 -17.5t41.5 -41t17 -43.5q0 -24 -19 -29l-88 -35q-77 -30 -155 -58.5t-142 -50t-100 -34.5z" />
    <glyph glyph-name="ucircumflex" unicode="&#xfb;" horiz-adv-x="993" 
d="M146 -29q-68 0 -92.5 52.5t-24.5 115.5q0 29 4 58.5t10 52.5q25 94 68.5 235.5t97.5 296.5q2 13 36.5 18t73 6t52.5 1h35q0 -3 -16.5 -55t-41 -130t-49 -160.5t-41 -149t-16.5 -93.5q0 -41 19.5 -57.5t47.5 -16.5q42 0 95 25t95 55.5t50 46.5l108 416q17 63 39 87.5
t51 28t64 3.5h68l-13 -47.5t-33 -120.5t-41.5 -152t-38.5 -144.5t-24 -96.5q-1 -14 -4.5 -39t-3.5 -51q0 -14 4 -20.5t21 -6.5q22 0 75 41t127 112.5t158 160.5v-113q-52 -62 -116 -125.5t-132 -116.5t-131 -85t-114 -32t-68.5 40.5t-17.5 90.5q0 55 10 93
q-58 -56 -125.5 -107.5t-136 -84t-129.5 -32.5zM381 944l-59 43q33 58 79.5 126t97 129.5t96.5 100.5t77 39q19 0 45 -39.5t52.5 -97.5t49.5 -117t37 -100t15 -43l-72 -41q-23 32 -66 111.5t-90 158.5q-52 -53 -103.5 -107t-93 -97.5t-65.5 -65.5z" />
    <glyph glyph-name="udieresis" unicode="&#xfc;" horiz-adv-x="993" 
d="M146 -29q-68 0 -92.5 52.5t-24.5 115.5q0 29 4 58.5t10 52.5q25 94 68.5 235.5t97.5 296.5q2 13 36.5 18t73 6t52.5 1h35q0 -3 -16.5 -55t-41 -130t-49 -160.5t-41 -149t-16.5 -93.5q0 -41 19.5 -57.5t47.5 -16.5q42 0 95 25t95 55.5t50 46.5l108 416q17 63 39 87.5
t51 28t64 3.5h68l-13 -47.5t-33 -120.5t-41.5 -152t-38.5 -144.5t-24 -96.5q-1 -14 -4.5 -39t-3.5 -51q0 -14 4 -20.5t21 -6.5q22 0 75 41t127 112.5t158 160.5v-113q-52 -62 -116 -125.5t-132 -116.5t-131 -85t-114 -32t-68.5 40.5t-17.5 90.5q0 55 10 93
q-58 -56 -125.5 -107.5t-136 -84t-129.5 -32.5zM803 984q-43 0 -61.5 23.5t-18.5 54.5q0 34 18 70.5t49.5 62t71.5 25.5q60 0 85.5 -23.5t25.5 -54.5q0 -34 -23.5 -71t-62 -62t-84.5 -25zM359 984q-42 0 -60 23.5t-18 54.5q0 34 17.5 70.5t49 62t72.5 25.5q59 0 85 -23.5
t26 -54.5q0 -34 -24 -71t-63 -62t-85 -25z" />
    <glyph glyph-name="yacute" unicode="&#xfd;" horiz-adv-x="860" 
d="M195 -489q-42 0 -85.5 19t-73.5 54t-30 84q0 56 45 97.5t111 78.5l301 191l33 160q-58 -56 -126 -107.5t-136.5 -84t-130.5 -32.5q-67 0 -92 52.5t-25 115.5q0 59 24.5 156.5t65.5 222t90 264.5q2 13 36.5 18t73 6t52.5 1h35q0 -3 -16.5 -55t-41 -130t-49 -160.5
t-41 -149t-16.5 -93.5q0 -41 19.5 -57.5t47.5 -16.5q42 0 95 25t95 55.5t50 46.5l109 416q16 63 38 87.5t51 28t64 3.5h68q-10 -29 -31 -101.5t-46 -163t-48 -176t-38.5 -142.5t-16.5 -60l12 10q67 56 116 97t93 80t96 89v-112q-76 -82 -163.5 -154t-170.5 -147v-4
q-31 -176 -105 -289.5t-165 -168t-174 -54.5zM230 -420q94 0 147.5 96.5t73.5 235.5l-185 -117q-38 -23 -74 -54t-36 -79q0 -82 74 -82zM339 940l-23 55q34 32 88 74t115 82.5t118.5 68t98.5 29.5q24 0 48.5 -17.5t41.5 -41t17 -43.5q0 -24 -19 -29l-88 -35
q-77 -30 -155 -58.5t-142 -50t-100 -34.5z" />
    <glyph glyph-name="thorn" unicode="&#xfe;" horiz-adv-x="836" 
d="M-137 -389q75 294 138 593t132.5 595.5t163.5 582.5q22 57 63.5 68.5t96.5 11.5h67q-13 -45 -26 -96.5t-34.5 -133t-59 -215t-99.5 -343.5q-9 -32 -22 -78.5t-23 -82.5l-10 -36q25 44 71 105t106 120t127 98.5t134 39.5q69 0 99 -43t30 -109t-25 -146t-66.5 -158.5
t-93 -142t-104.5 -96.5q25 0 58 9t83.5 41t126.5 99.5t187 184.5v-112q-102 -117 -191.5 -203t-184.5 -133t-212 -47q-35 0 -47 17t-12 48q0 23 26 55t54 64q38 44 79.5 118t70 152t28.5 135q0 38 -15.5 60t-50.5 22q-59 0 -111 -49.5t-97 -132t-83.5 -184t-70.5 -205.5
l-27 -86q-34 -123 -58 -227t-38 -160h-180z" />
    <glyph glyph-name="ydieresis" unicode="&#xff;" horiz-adv-x="860" 
d="M195 -489q-42 0 -85.5 19t-73.5 54t-30 84q0 56 45 97.5t111 78.5l301 191l33 160q-58 -56 -126 -107.5t-136.5 -84t-130.5 -32.5q-67 0 -92 52.5t-25 115.5q0 59 24.5 156.5t65.5 222t90 264.5q2 13 36.5 18t73 6t52.5 1h35q0 -3 -16.5 -55t-41 -130t-49 -160.5
t-41 -149t-16.5 -93.5q0 -41 19.5 -57.5t47.5 -16.5q42 0 95 25t95 55.5t50 46.5l109 416q16 63 38 87.5t51 28t64 3.5h68q-10 -29 -31 -101.5t-46 -163t-48 -176t-38.5 -142.5t-16.5 -60l12 10q67 56 116 97t93 80t96 89v-112q-76 -82 -163.5 -154t-170.5 -147v-4
q-31 -176 -105 -289.5t-165 -168t-174 -54.5zM230 -420q94 0 147.5 96.5t73.5 235.5l-185 -117q-38 -23 -74 -54t-36 -79q0 -82 74 -82zM756 984q-43 0 -61.5 23.5t-18.5 54.5q0 34 18 70.5t49.5 62t71.5 25.5q60 0 85.5 -23.5t25.5 -54.5q0 -34 -23.5 -71t-62 -62
t-84.5 -25zM312 984q-42 0 -60 23.5t-18 54.5q0 34 17.5 70.5t49 62t72.5 25.5q59 0 85 -23.5t26 -54.5q0 -34 -24 -71t-63 -62t-85 -25z" />
    <glyph glyph-name="Amacron" unicode="&#x100;" horiz-adv-x="1391" 
d="M422 -57q-181 0 -261.5 99t-80.5 286q0 170 71.5 340.5t195.5 323t282.5 271t334.5 187t349 68.5q39 0 105.5 -10t135 -32.5t115.5 -60.5t47 -94q0 -30 -32 -67.5t-72.5 -66.5t-67.5 -36q-31 144 -108.5 207t-182.5 63q-109 0 -233.5 -57.5t-245 -155.5t-219 -222
t-158 -259t-59.5 -264q0 -161 77.5 -244.5t209.5 -83.5q57 0 120 33t110.5 88.5t59.5 120.5q8 42 27 129t43.5 194t49.5 212.5t46 186t31 111.5q9 30 48 43t85 16t74 3q27 0 27 -33q0 -12 -3 -16q-25 -67 -51 -162t-50.5 -199.5t-45 -201.5t-35 -170.5t-20.5 -104.5
q-11 -56 -18.5 -106.5t-1 -81.5t35.5 -31q28 0 48.5 5.5t52 30.5t91 81.5t164.5 158.5v-112q-97 -102 -179.5 -190t-158.5 -142.5t-153 -54.5q-61 0 -90 35t-35.5 92t-1.5 123q-107 -111 -237 -180.5t-236 -69.5zM1042 1641q-7 0 -32 4.5t-25 36.5q0 47 16.5 64t32.5 22
q15 4 74 10t141.5 11t167.5 5t147 -8t62 -33q0 -28 -30 -62t-70 -34q-35 0 -70.5 1t-67.5 1q-22 0 -53.5 -1t-98 -4.5t-194.5 -12.5z" />
    <glyph glyph-name="amacron" unicode="&#x101;" horiz-adv-x="928" 
d="M150 -29q-63 0 -96.5 42t-45.5 101t-12 111q0 111 52.5 220t144.5 198.5t211.5 143t252.5 53.5q45 0 85 -9.5t83 -23.5q-2 -12 -14 -64.5t-28 -125.5t-31.5 -148t-26 -134.5t-10.5 -84.5q0 -64 30 -64q27 0 73.5 37t106.5 98t126 134v-115q-24 -29 -69.5 -74.5
t-102.5 -96.5t-114.5 -96t-107 -73.5t-79.5 -28.5q-45 0 -60.5 40.5t-15.5 90.5q0 26 2.5 51.5t5.5 45.5q-41 -53 -98 -106t-124 -87.5t-138 -34.5zM307 131q31 0 70.5 23t78.5 56t66 62l115 492q-84 0 -161 -45t-137 -117.5t-95 -157t-35 -163.5q0 -58 21.5 -104t76.5 -46z
M414 971q-7 0 -32 4.5t-25 36.5q0 47 16.5 64t32.5 22q15 4 74 10t141.5 11t167.5 5t147 -8t62 -33q0 -28 -30 -62t-70 -34q-35 0 -70.5 1t-67.5 1q-22 0 -53.5 -1t-98 -4.5t-194.5 -12.5z" />
    <glyph glyph-name="Abreve" unicode="&#x102;" horiz-adv-x="1391" 
d="M422 -57q-181 0 -261.5 99t-80.5 286q0 170 71.5 340.5t195.5 323t282.5 271t334.5 187t349 68.5q39 0 105.5 -10t135 -32.5t115.5 -60.5t47 -94q0 -30 -32 -67.5t-72.5 -66.5t-67.5 -36q-31 144 -108.5 207t-182.5 63q-109 0 -233.5 -57.5t-245 -155.5t-219 -222
t-158 -259t-59.5 -264q0 -161 77.5 -244.5t209.5 -83.5q57 0 120 33t110.5 88.5t59.5 120.5q8 42 27 129t43.5 194t49.5 212.5t46 186t31 111.5q9 30 48 43t85 16t74 3q27 0 27 -33q0 -12 -3 -16q-25 -67 -51 -162t-50.5 -199.5t-45 -201.5t-35 -170.5t-20.5 -104.5
q-11 -56 -18.5 -106.5t-1 -81.5t35.5 -31q28 0 48.5 5.5t52 30.5t91 81.5t164.5 158.5v-112q-97 -102 -179.5 -190t-158.5 -142.5t-153 -54.5q-61 0 -90 35t-35.5 92t-1.5 123q-107 -111 -237 -180.5t-236 -69.5zM1266 1626q-77 0 -124.5 30t-73 74.5t-36.5 90t-13.5 78
t-4.5 36.5l121 25q0 -1 2.5 -28.5t14.5 -63.5t40.5 -63t79.5 -27q53 0 94 27.5t70.5 63.5t44.5 63.5l15 27.5l102 -25q-11 -61 -49.5 -133t-108 -124t-174.5 -52z" />
    <glyph glyph-name="abreve" unicode="&#x103;" horiz-adv-x="928" 
d="M150 -29q-63 0 -96.5 42t-45.5 101t-12 111q0 111 52.5 220t144.5 198.5t211.5 143t252.5 53.5q45 0 85 -9.5t83 -23.5q-2 -12 -14 -64.5t-28 -125.5t-31.5 -148t-26 -134.5t-10.5 -84.5q0 -64 30 -64q27 0 73.5 37t106.5 98t126 134v-115q-24 -29 -69.5 -74.5
t-102.5 -96.5t-114.5 -96t-107 -73.5t-79.5 -28.5q-45 0 -60.5 40.5t-15.5 90.5q0 26 2.5 51.5t5.5 45.5q-41 -53 -98 -106t-124 -87.5t-138 -34.5zM307 131q31 0 70.5 23t78.5 56t66 62l115 492q-84 0 -161 -45t-137 -117.5t-95 -157t-35 -163.5q0 -58 21.5 -104t76.5 -46z
M638 956q-77 0 -124.5 30t-73 74.5t-36.5 90t-13.5 78t-4.5 36.5l121 25q0 -1 2.5 -28.5t14.5 -63.5t40.5 -63t79.5 -27q53 0 94 27.5t70.5 63.5t44.5 63.5l15 27.5l102 -25q-11 -61 -49.5 -133t-108 -124t-174.5 -52z" />
    <glyph glyph-name="Aogonek" unicode="&#x104;" horiz-adv-x="1391" 
d="M422 -57q-181 0 -261.5 99t-80.5 286q0 170 71.5 340.5t195.5 323t282.5 271t334.5 187t349 68.5q39 0 105.5 -10t135 -32.5t115.5 -60.5t47 -94q0 -30 -32 -67.5t-72.5 -66.5t-67.5 -36q-31 144 -108.5 207t-182.5 63q-109 0 -233.5 -57.5t-245 -155.5t-219 -222
t-158 -259t-59.5 -264q0 -161 77.5 -244.5t209.5 -83.5q57 0 120 33t110.5 88.5t59.5 120.5q8 42 27 129t43.5 194t49.5 212.5t46 186t31 111.5q9 30 48 43t85 16t74 3q27 0 27 -33q0 -12 -3 -16q-25 -67 -51 -162t-50.5 -199.5t-45 -201.5t-35 -170.5t-20.5 -104.5
q-11 -56 -18.5 -106.5t-1 -81.5t35.5 -31q28 0 48.5 5.5t52 30.5t91 81.5t164.5 158.5v-112q-97 -102 -179.5 -190t-158.5 -142.5t-153 -54.5q-61 0 -90 35t-35.5 92t-1.5 123q-107 -111 -237 -180.5t-236 -69.5zM1110 -543q-44 0 -98 12.5t-104 42t-82 79t-32 124.5
q0 78 36 132t84 88t86.5 52t43.5 23h148q-1 0 -38.5 -16t-86.5 -47.5t-86 -79t-37 -111.5q0 -63 35 -100.5t82 -56.5t84 -25t41 -6v-105q-34 -6 -76 -6z" />
    <glyph glyph-name="aogonek" unicode="&#x105;" horiz-adv-x="928" 
d="M150 -29q-63 0 -96.5 42t-45.5 101t-12 111q0 111 52.5 220t144.5 198.5t211.5 143t252.5 53.5q45 0 85 -9.5t83 -23.5q-2 -12 -14 -64.5t-28 -125.5t-31.5 -148t-26 -134.5t-10.5 -84.5q0 -64 30 -64q27 0 73.5 37t106.5 98t126 134v-115q-24 -29 -69.5 -74.5
t-102.5 -96.5t-114.5 -96t-107 -73.5t-79.5 -28.5q-45 0 -60.5 40.5t-15.5 90.5q0 26 2.5 51.5t5.5 45.5q-41 -53 -98 -106t-124 -87.5t-138 -34.5zM307 131q31 0 70.5 23t78.5 56t66 62l115 492q-84 0 -161 -45t-137 -117.5t-95 -157t-35 -163.5q0 -58 21.5 -104t76.5 -46z
M593 -543q-44 0 -98 12.5t-104 42t-82 79t-32 124.5q0 78 36 132t84 88t86.5 52t43.5 23h148q-1 0 -38.5 -16t-86.5 -47.5t-86 -79t-37 -111.5q0 -63 35 -100.5t82 -56.5t84 -25t41 -6v-105q-34 -6 -76 -6z" />
    <glyph glyph-name="Cacute" unicode="&#x106;" horiz-adv-x="1268" 
d="M616 -57q-138 0 -239 52.5t-166 141t-97 198.5t-32 226q0 119 33.5 251t102 257t172.5 226.5t245.5 162t320.5 60.5q102 0 183 -48.5t128.5 -126.5t47.5 -165q0 -26 -7.5 -45.5t-29.5 -30.5q-65 -33 -152 -81.5t-174 -96t-153 -78.5q-12 -6 -23 -6q-16 0 -25.5 12.5
t-9.5 28.5q0 25 36 50t88.5 50.5t105.5 52t89 55.5t36 60q-1 0 -9 40.5t-27 93.5t-51.5 93.5t-82.5 40.5q-142 -5 -258 -74.5t-199 -180.5t-127.5 -242.5t-44.5 -260.5q0 -180 57 -298.5t156 -177t225 -58.5q152 0 326.5 82.5t341.5 243.5v-111q-193 -183 -393 -290
t-394 -107zM783 1618l-23 55q34 32 88 74t115 82.5t118.5 68t98.5 29.5q24 0 48.5 -17.5t41.5 -41t17 -43.5q0 -24 -19 -29l-88 -35q-77 -30 -155 -58.5t-142 -50t-100 -34.5z" />
    <glyph glyph-name="cacute" unicode="&#x107;" horiz-adv-x="713" 
d="M227 -29q-121 0 -176 75.5t-55 184.5q0 96 37.5 202t106.5 198.5t162.5 150.5t205.5 58q35 0 82 -8t82 -34t35 -81q0 -43 -37.5 -72t-94.5 -29q-21 0 -33.5 19t-25 44.5t-31.5 44.5t-53 19q-45 0 -84.5 -38t-69.5 -98.5t-46.5 -131.5t-16.5 -137q0 -82 30 -139.5
t99 -57.5q103 0 232 81.5t247 219.5v-112q-49 -66 -120 -130t-152.5 -115.5t-165 -82.5t-158.5 -31zM311 940l-23 55q34 32 88 74t115 82.5t118.5 68t98.5 29.5q24 0 48.5 -17.5t41.5 -41t17 -43.5q0 -24 -19 -29l-88 -35q-77 -30 -155 -58.5t-142 -50t-100 -34.5z" />
    <glyph glyph-name="Ccircumflex" unicode="&#x108;" horiz-adv-x="1268" 
d="M616 -57q-138 0 -239 52.5t-166 141t-97 198.5t-32 226q0 119 33.5 251t102 257t172.5 226.5t245.5 162t320.5 60.5q102 0 183 -48.5t128.5 -126.5t47.5 -165q0 -26 -7.5 -45.5t-29.5 -30.5q-65 -33 -152 -81.5t-174 -96t-153 -78.5q-12 -6 -23 -6q-16 0 -25.5 12.5
t-9.5 28.5q0 25 36 50t88.5 50.5t105.5 52t89 55.5t36 60q-1 0 -9 40.5t-27 93.5t-51.5 93.5t-82.5 40.5q-142 -5 -258 -74.5t-199 -180.5t-127.5 -242.5t-44.5 -260.5q0 -180 57 -298.5t156 -177t225 -58.5q152 0 326.5 82.5t341.5 243.5v-111q-193 -183 -393 -290
t-394 -107zM778 1622l-59 43q33 58 79.5 126t97 129.5t96.5 100.5t77 39q19 0 45 -39.5t52.5 -97.5t49.5 -117t37 -100t15 -43l-72 -41q-23 32 -66 111.5t-90 158.5q-52 -53 -103.5 -107t-93 -97.5t-65.5 -65.5z" />
    <glyph glyph-name="ccircumflex" unicode="&#x109;" horiz-adv-x="713" 
d="M227 -29q-121 0 -176 75.5t-55 184.5q0 96 37.5 202t106.5 198.5t162.5 150.5t205.5 58q35 0 82 -8t82 -34t35 -81q0 -43 -37.5 -72t-94.5 -29q-21 0 -33.5 19t-25 44.5t-31.5 44.5t-53 19q-45 0 -84.5 -38t-69.5 -98.5t-46.5 -131.5t-16.5 -137q0 -82 30 -139.5
t99 -57.5q103 0 232 81.5t247 219.5v-112q-49 -66 -120 -130t-152.5 -115.5t-165 -82.5t-158.5 -31zM306 944l-59 43q33 58 79.5 126t97 129.5t96.5 100.5t77 39q19 0 45 -39.5t52.5 -97.5t49.5 -117t37 -100t15 -43l-72 -41q-23 32 -66 111.5t-90 158.5
q-52 -53 -103.5 -107t-93 -97.5t-65.5 -65.5z" />
    <glyph glyph-name="Cdotaccent" unicode="&#x10a;" horiz-adv-x="1268" 
d="M616 -57q-138 0 -239 52.5t-166 141t-97 198.5t-32 226q0 119 33.5 251t102 257t172.5 226.5t245.5 162t320.5 60.5q102 0 183 -48.5t128.5 -126.5t47.5 -165q0 -26 -7.5 -45.5t-29.5 -30.5q-65 -33 -152 -81.5t-174 -96t-153 -78.5q-12 -6 -23 -6q-16 0 -25.5 12.5
t-9.5 28.5q0 25 36 50t88.5 50.5t105.5 52t89 55.5t36 60q-1 0 -9 40.5t-27 93.5t-51.5 93.5t-82.5 40.5q-142 -5 -258 -74.5t-199 -180.5t-127.5 -242.5t-44.5 -260.5q0 -180 57 -298.5t156 -177t225 -58.5q152 0 326.5 82.5t341.5 243.5v-111q-193 -183 -393 -290
t-394 -107zM977 1722q-42 0 -60 23.5t-18 54.5q0 34 17.5 70.5t49 62t72.5 25.5q59 0 85 -23.5t26 -54.5q0 -34 -24 -71t-63 -62t-85 -25z" />
    <glyph glyph-name="cdotaccent" unicode="&#x10b;" horiz-adv-x="713" 
d="M227 -29q-121 0 -176 75.5t-55 184.5q0 96 37.5 202t106.5 198.5t162.5 150.5t205.5 58q35 0 82 -8t82 -34t35 -81q0 -43 -37.5 -72t-94.5 -29q-21 0 -33.5 19t-25 44.5t-31.5 44.5t-53 19q-45 0 -84.5 -38t-69.5 -98.5t-46.5 -131.5t-16.5 -137q0 -82 30 -139.5
t99 -57.5q103 0 232 81.5t247 219.5v-112q-49 -66 -120 -130t-152.5 -115.5t-165 -82.5t-158.5 -31zM505 1044q-42 0 -60 23.5t-18 54.5q0 34 17.5 70.5t49 62t72.5 25.5q59 0 85 -23.5t26 -54.5q0 -34 -24 -71t-63 -62t-85 -25z" />
    <glyph glyph-name="Ccaron" unicode="&#x10c;" horiz-adv-x="1268" 
d="M616 -57q-138 0 -239 52.5t-166 141t-97 198.5t-32 226q0 119 33.5 251t102 257t172.5 226.5t245.5 162t320.5 60.5q102 0 183 -48.5t128.5 -126.5t47.5 -165q0 -26 -7.5 -45.5t-29.5 -30.5q-65 -33 -152 -81.5t-174 -96t-153 -78.5q-12 -6 -23 -6q-16 0 -25.5 12.5
t-9.5 28.5q0 25 36 50t88.5 50.5t105.5 52t89 55.5t36 60q-1 0 -9 40.5t-27 93.5t-51.5 93.5t-82.5 40.5q-142 -5 -258 -74.5t-199 -180.5t-127.5 -242.5t-44.5 -260.5q0 -180 57 -298.5t156 -177t225 -58.5q152 0 326.5 82.5t341.5 243.5v-111q-193 -183 -393 -290
t-394 -107zM950 1622q-22 0 -48 39t-52.5 97t-48.5 116.5t-35.5 99.5t-14.5 43l113 23l19.5 -45.5l46.5 -108.5t49 -116q33 40 71 86.5t72.5 88.5t56 68.5l21.5 26.5l96 -23q-33 -57 -79 -125t-95.5 -129.5t-94.5 -101t-77 -39.5z" />
    <glyph glyph-name="ccaron" unicode="&#x10d;" horiz-adv-x="713" 
d="M227 -29q-121 0 -176 75.5t-55 184.5q0 96 37.5 202t106.5 198.5t162.5 150.5t205.5 58q35 0 82 -8t82 -34t35 -81q0 -43 -37.5 -72t-94.5 -29q-21 0 -33.5 19t-25 44.5t-31.5 44.5t-53 19q-45 0 -84.5 -38t-69.5 -98.5t-46.5 -131.5t-16.5 -137q0 -82 30 -139.5
t99 -57.5q103 0 232 81.5t247 219.5v-112q-49 -66 -120 -130t-152.5 -115.5t-165 -82.5t-158.5 -31zM478 944q-22 0 -48 39t-52.5 97t-48.5 116.5t-35.5 99.5t-14.5 43l113 23l19.5 -45.5l46.5 -108.5t49 -116q33 40 71 86.5t72.5 88.5t56 68.5l21.5 26.5l96 -23
q-33 -57 -79 -125t-95.5 -129.5t-94.5 -101t-77 -39.5z" />
    <glyph glyph-name="Dcaron" unicode="&#x10e;" horiz-adv-x="1726" 
d="M950 -57q-103 0 -197.5 44.5t-168.5 145.5q-85 -121 -179.5 -154.5t-201.5 -33.5q-75 0 -132.5 37t-90.5 92t-33 110q0 58 30 88.5t77.5 42t97.5 11.5q0 -25 -3.5 -50.5t-3.5 -54.5q0 -69 22 -124.5t97 -55.5q38 0 74.5 26t58.5 76q14 29 54.5 134t91.5 317l119 614
q6 18 31.5 26t54.5 10.5t43 2.5h94q-27 -156 -46 -314t-58 -323.5t-126 -345.5q20 -59 65.5 -105.5t104.5 -73t117 -26.5q89 0 175 49t155.5 140.5t111 219t41.5 284.5q0 128 -33 243.5t-103 205t-181.5 141t-267.5 51.5q-112 0 -220.5 -34t-197 -90t-141 -123t-52.5 -132
q0 -52 38 -99t126 -81q0 -49 -9 -98.5t-17 -63.5q-155 49 -227 138.5t-72 190.5q0 91 53.5 182t163.5 167t281 122t405 46q186 0 321 -63t221.5 -165.5t128 -223.5t41.5 -237q0 -183 -55 -343.5t-154.5 -282.5t-233 -191t-290.5 -69zM989 1622q-22 0 -48 39t-52.5 97
t-48.5 116.5t-35.5 99.5t-14.5 43l113 23l19.5 -45.5l46.5 -108.5t49 -116q33 40 71 86.5t72.5 88.5t56 68.5l21.5 26.5l96 -23q-33 -57 -79 -125t-95.5 -129.5t-94.5 -101t-77 -39.5z" />
    <glyph glyph-name="dcaron" unicode="&#x10f;" horiz-adv-x="923" 
d="M147 -29q-58 0 -87.5 35.5t-39.5 84.5t-10 91q0 108 48 223.5t126.5 214t173 159.5t187.5 61q49 0 80 -7.5t51 -13.5l133 475q17 68 33 104t55.5 49t124.5 13h35q-1 -13 -12.5 -58.5t-22.5 -80.5q-16 -48 -42.5 -136t-58.5 -197.5t-63.5 -224.5t-58 -218.5t-42.5 -178.5
t-16 -104q0 -38 7.5 -50.5t23.5 -12.5q25 0 97 72t167 172v-114q-51 -58 -112 -120.5t-122 -116.5t-112.5 -87.5t-83.5 -33.5q-46 0 -64 38.5t-18 94.5q0 64 17 134q-114 -133 -222.5 -200t-171.5 -67zM303 158q35 0 78.5 21.5t84.5 53t70 62.5t33 49l88 387q-1 5 -25 22
t-69 17q-67 0 -128.5 -46t-109.5 -120t-76 -158t-28 -161q0 -71 22.5 -99t59.5 -28zM1191 999q-7 44 -12.5 106.5t-5.5 125.5q0 88 14.5 155.5t52.5 67.5q80 0 104.5 -11t24.5 -40q0 -17 -5.5 -38t-14.5 -46q-34 -92 -61 -185t-41 -135h-56z" />
    <glyph glyph-name="Dcroat" unicode="&#x110;" horiz-adv-x="1780" 
d="M950 -57q-103 0 -197.5 44.5t-168.5 145.5q-85 -121 -179.5 -154.5t-201.5 -33.5q-75 0 -132.5 37t-90.5 92t-33 110q0 58 30 88.5t77.5 42t97.5 11.5q0 -25 -3.5 -50.5t-3.5 -54.5q0 -69 22 -124.5t97 -55.5q38 0 74.5 26t58.5 76q13 26 47 112t78 255l-84 -6
q-7 0 -32 4.5t-25 36.5q0 47 16.5 64.5t32.5 21.5q23 8 123 14l109 563q6 18 31.5 26t54.5 10.5t43 2.5h94q-25 -145 -42 -291.5t-52 -298.5h22q85 0 147 -8t62 -33q0 -27 -30 -61.5t-70 -34.5q-36 0 -71 1t-67 1h-28q-19 -63 -44 -127.5t-57 -130.5q20 -59 65.5 -105.5
t104.5 -73t117 -26.5q89 0 175 49t155.5 140.5t111 219t41.5 284.5q0 128 -33 243.5t-103 205t-181.5 141t-267.5 51.5q-112 0 -220.5 -34t-197 -90t-141 -123t-52.5 -132q0 -52 38 -99t126 -81q0 -49 -9 -98.5t-17 -63.5q-155 49 -227 138.5t-72 190.5q0 91 53.5 182
t163.5 167t281 122t405 46q186 0 321 -63t221.5 -165.5t128 -223.5t41.5 -237q0 -183 -55 -343.5t-154.5 -282.5t-233 -191t-290.5 -69z" />
    <glyph glyph-name="dcroat" unicode="&#x111;" horiz-adv-x="923" 
d="M147 -29q-58 0 -87.5 35.5t-39.5 84.5t-10 91q0 108 48 223.5t126.5 214t173 159.5t187.5 61q49 0 80 -7.5t51 -13.5l68 242q-35 -2 -83.5 -4.5t-114.5 -6.5q-8 0 -36.5 4t-28.5 30q0 40 19 54t37 18q21 3 92 8t146 9l34 121q17 68 33 104t55.5 49t124.5 13h35
q-1 -13 -12.5 -58.5t-22.5 -80.5q-17 -50 -45 -143q80 -2 135.5 -9t55.5 -25q0 -22 -34.5 -51t-80.5 -29q-29 0 -56.5 0.5t-53.5 0.5q-32 -112 -67.5 -238t-66 -243.5t-49.5 -204t-19 -117.5q0 -38 7.5 -50.5t23.5 -12.5q25 0 97 72t167 172v-114q-51 -58 -112 -120.5
t-122 -116.5t-112.5 -87.5t-83.5 -33.5q-46 0 -64 38.5t-18 94.5q0 64 17 134q-114 -133 -222.5 -200t-171.5 -67zM303 158q35 0 78.5 21.5t84.5 53t70 62.5t33 49l88 387q-1 5 -25 22t-69 17q-67 0 -128.5 -46t-109.5 -120t-76 -158t-28 -161q0 -71 22.5 -99t59.5 -28z" />
    <glyph glyph-name="Emacron" unicode="&#x112;" horiz-adv-x="1403" 
d="M100 -57q-7 0 -33.5 6.5t-50.5 28t-24 65.5q0 32 29.5 54.5t65.5 38.5t58 26l256 117q19 27 48.5 126t64.5 226q-17 -2 -55.5 -12.5t-81 -17.5t-73 -1t-30.5 37q0 37 17 48t35 17q33 11 89.5 26.5t135.5 31.5q42 147 76.5 261t83 198.5t131.5 140.5q-57 5 -109 6.5
t-98 1.5q-261 0 -373 -62.5t-112 -162.5q0 -55 50.5 -105.5t145.5 -85.5q0 -34 -9 -75.5t-20 -51.5q-158 56 -236.5 135t-78.5 160q0 118 78.5 207.5t225 140t351.5 50.5h291q108 0 218 -1t201 -3.5t146.5 -8t55.5 -14.5q0 -12 -19 -31l-100 -114q-23 -16 -45.5 -25.5
t-48.5 -9.5q-89 0 -192 20.5t-201 24.5q-34 -120 -70.5 -265.5t-83.5 -295.5q59 5 119.5 7.5t124.5 2.5q53 0 107 -3t112 -3q37 0 37 -33q0 -28 -30 -62t-71 -34q-118 0 -224 -1.5t-210 -9.5q-37 -138 -90 -240t-100 -181h127q15 -5 64.5 -23.5t111 -41t115 -38.5t77.5 -16
q33 0 84 26q12 2 50 27.5t91.5 68t111 93.5t108.5 104v-110q-125 -111 -224 -198t-194.5 -137t-212.5 -50q-8 0 -19.5 7.5t-51 26t-128.5 51t-252 81.5q-84 -67 -178 -116.5t-164 -49.5zM738 1641q-7 0 -32 4.5t-25 36.5q0 47 16.5 64t32.5 22q15 4 74 10t141.5 11t167.5 5
t147 -8t62 -33q0 -28 -30 -62t-70 -34q-35 0 -70.5 1t-67.5 1q-22 0 -53.5 -1t-98 -4.5t-194.5 -12.5z" />
    <glyph glyph-name="emacron" unicode="&#x113;" horiz-adv-x="744" 
d="M292 -31q-121 0 -193 80t-72 209q0 108 35.5 212t101 187.5t155.5 133t199 49.5q98 0 167 -38t69 -138q0 -77 -43.5 -141.5t-111.5 -103t-144 -38.5q-42 0 -92.5 25t-88.5 83q-43 -90 -43 -176q0 -60 14.5 -112.5t51.5 -85.5t102 -33q47 0 105 38t120 95.5t121 117.5
t107 105v-110q-138 -162 -275.5 -260.5t-284.5 -98.5zM471 467q59 0 101 58t42 128q0 57 -25 77t-69 20q-59 0 -104 -34t-73.5 -77.5t-39.5 -73.5q35 -46 79.5 -72t88.5 -26zM334 963q-7 0 -32 4.5t-25 36.5q0 47 16.5 64t32.5 22q15 4 74 10t141.5 11t167.5 5t147 -8
t62 -33q0 -28 -30 -62t-70 -34q-35 0 -70.5 1t-67.5 1q-22 0 -53.5 -1t-98 -4.5t-194.5 -12.5z" />
    <glyph glyph-name="Edotaccent" unicode="&#x116;" horiz-adv-x="1403" 
d="M100 -57q-7 0 -33.5 6.5t-50.5 28t-24 65.5q0 32 29.5 54.5t65.5 38.5t58 26l256 117q19 27 48.5 126t64.5 226q-17 -2 -55.5 -12.5t-81 -17.5t-73 -1t-30.5 37q0 37 17 48t35 17q33 11 89.5 26.5t135.5 31.5q42 147 76.5 261t83 198.5t131.5 140.5q-57 5 -109 6.5
t-98 1.5q-261 0 -373 -62.5t-112 -162.5q0 -55 50.5 -105.5t145.5 -85.5q0 -34 -9 -75.5t-20 -51.5q-158 56 -236.5 135t-78.5 160q0 118 78.5 207.5t225 140t351.5 50.5h291q108 0 218 -1t201 -3.5t146.5 -8t55.5 -14.5q0 -12 -19 -31l-100 -114q-23 -16 -45.5 -25.5
t-48.5 -9.5q-89 0 -192 20.5t-201 24.5q-34 -120 -70.5 -265.5t-83.5 -295.5q59 5 119.5 7.5t124.5 2.5q53 0 107 -3t112 -3q37 0 37 -33q0 -28 -30 -62t-71 -34q-118 0 -224 -1.5t-210 -9.5q-37 -138 -90 -240t-100 -181h127q15 -5 64.5 -23.5t111 -41t115 -38.5t77.5 -16
q33 0 84 26q12 2 50 27.5t91.5 68t111 93.5t108.5 104v-110q-125 -111 -224 -198t-194.5 -137t-212.5 -50q-8 0 -19.5 7.5t-51 26t-128.5 51t-252 81.5q-84 -67 -178 -116.5t-164 -49.5zM955 1722q-42 0 -60 23.5t-18 54.5q0 34 17.5 70.5t49 62t72.5 25.5q59 0 85 -23.5
t26 -54.5q0 -34 -24 -71t-63 -62t-85 -25z" />
    <glyph glyph-name="edotaccent" unicode="&#x117;" horiz-adv-x="744" 
d="M292 -31q-121 0 -193 80t-72 209q0 108 35.5 212t101 187.5t155.5 133t199 49.5q98 0 167 -38t69 -138q0 -77 -43.5 -141.5t-111.5 -103t-144 -38.5q-42 0 -92.5 25t-88.5 83q-43 -90 -43 -176q0 -60 14.5 -112.5t51.5 -85.5t102 -33q47 0 105 38t120 95.5t121 117.5
t107 105v-110q-138 -162 -275.5 -260.5t-284.5 -98.5zM471 467q59 0 101 58t42 128q0 57 -25 77t-69 20q-59 0 -104 -34t-73.5 -77.5t-39.5 -73.5q35 -46 79.5 -72t88.5 -26zM551 1044q-42 0 -60 23.5t-18 54.5q0 34 17.5 70.5t49 62t72.5 25.5q59 0 85 -23.5t26 -54.5
q0 -34 -24 -71t-63 -62t-85 -25z" />
    <glyph glyph-name="Eogonek" unicode="&#x118;" horiz-adv-x="1403" 
d="M100 -57q-7 0 -33.5 6.5t-50.5 28t-24 65.5q0 32 29.5 54.5t65.5 38.5t58 26l256 117q19 27 48.5 126t64.5 226q-17 -2 -55.5 -12.5t-81 -17.5t-73 -1t-30.5 37q0 37 17 48t35 17q33 11 89.5 26.5t135.5 31.5q42 147 76.5 261t83 198.5t131.5 140.5q-57 5 -109 6.5
t-98 1.5q-261 0 -373 -62.5t-112 -162.5q0 -55 50.5 -105.5t145.5 -85.5q0 -34 -9 -75.5t-20 -51.5q-158 56 -236.5 135t-78.5 160q0 118 78.5 207.5t225 140t351.5 50.5h291q108 0 218 -1t201 -3.5t146.5 -8t55.5 -14.5q0 -12 -19 -31l-100 -114q-23 -16 -45.5 -25.5
t-48.5 -9.5q-89 0 -192 20.5t-201 24.5q-34 -120 -70.5 -265.5t-83.5 -295.5q59 5 119.5 7.5t124.5 2.5q53 0 107 -3t112 -3q37 0 37 -33q0 -28 -30 -62t-71 -34q-118 0 -224 -1.5t-210 -9.5q-37 -138 -90 -240t-100 -181h127q15 -5 64.5 -23.5t111 -41t115 -38.5t77.5 -16
q33 0 84 26q12 2 50 27.5t91.5 68t111 93.5t108.5 104v-110q-125 -111 -224 -198t-194.5 -137t-212.5 -50q-8 0 -19.5 7.5t-51 26t-128.5 51t-252 81.5q-84 -67 -178 -116.5t-164 -49.5zM1051 -543q-44 0 -98 12.5t-104 42t-82 79t-32 124.5q0 78 36 132t84 88t86.5 52
t43.5 23h148q-1 0 -38.5 -16t-86.5 -47.5t-86 -79t-37 -111.5q0 -63 35 -100.5t82 -56.5t84 -25t41 -6v-105q-34 -6 -76 -6z" />
    <glyph glyph-name="eogonek" unicode="&#x119;" horiz-adv-x="744" 
d="M292 -31q-121 0 -193 80t-72 209q0 108 35.5 212t101 187.5t155.5 133t199 49.5q98 0 167 -38t69 -138q0 -77 -43.5 -141.5t-111.5 -103t-144 -38.5q-42 0 -92.5 25t-88.5 83q-43 -90 -43 -176q0 -60 14.5 -112.5t51.5 -85.5t102 -33q47 0 105 38t120 95.5t121 117.5
t107 105v-110q-138 -162 -275.5 -260.5t-284.5 -98.5zM471 467q59 0 101 58t42 128q0 57 -25 77t-69 20q-59 0 -104 -34t-73.5 -77.5t-39.5 -73.5q35 -46 79.5 -72t88.5 -26zM390 -543q-44 0 -98 12.5t-104 42t-82 79t-32 124.5q0 78 36 132t84 88t86.5 52t43.5 23h148
q-1 0 -38.5 -16t-86.5 -47.5t-86 -79t-37 -111.5q0 -63 35 -100.5t82 -56.5t84 -25t41 -6v-105q-34 -6 -76 -6z" />
    <glyph glyph-name="Ecaron" unicode="&#x11a;" horiz-adv-x="1403" 
d="M100 -57q-7 0 -33.5 6.5t-50.5 28t-24 65.5q0 32 29.5 54.5t65.5 38.5t58 26l256 117q19 27 48.5 126t64.5 226q-17 -2 -55.5 -12.5t-81 -17.5t-73 -1t-30.5 37q0 37 17 48t35 17q33 11 89.5 26.5t135.5 31.5q42 147 76.5 261t83 198.5t131.5 140.5q-57 5 -109 6.5
t-98 1.5q-261 0 -373 -62.5t-112 -162.5q0 -55 50.5 -105.5t145.5 -85.5q0 -34 -9 -75.5t-20 -51.5q-158 56 -236.5 135t-78.5 160q0 118 78.5 207.5t225 140t351.5 50.5h291q108 0 218 -1t201 -3.5t146.5 -8t55.5 -14.5q0 -12 -19 -31l-100 -114q-23 -16 -45.5 -25.5
t-48.5 -9.5q-89 0 -192 20.5t-201 24.5q-34 -120 -70.5 -265.5t-83.5 -295.5q59 5 119.5 7.5t124.5 2.5q53 0 107 -3t112 -3q37 0 37 -33q0 -28 -30 -62t-71 -34q-118 0 -224 -1.5t-210 -9.5q-37 -138 -90 -240t-100 -181h127q15 -5 64.5 -23.5t111 -41t115 -38.5t77.5 -16
q33 0 84 26q12 2 50 27.5t91.5 68t111 93.5t108.5 104v-110q-125 -111 -224 -198t-194.5 -137t-212.5 -50q-8 0 -19.5 7.5t-51 26t-128.5 51t-252 81.5q-84 -67 -178 -116.5t-164 -49.5zM928 1622q-22 0 -48 39t-52.5 97t-48.5 116.5t-35.5 99.5t-14.5 43l113 23l19.5 -45.5
l46.5 -108.5t49 -116q33 40 71 86.5t72.5 88.5t56 68.5l21.5 26.5l96 -23q-33 -57 -79 -125t-95.5 -129.5t-94.5 -101t-77 -39.5z" />
    <glyph glyph-name="ecaron" unicode="&#x11b;" horiz-adv-x="744" 
d="M292 -31q-121 0 -193 80t-72 209q0 108 35.5 212t101 187.5t155.5 133t199 49.5q98 0 167 -38t69 -138q0 -77 -43.5 -141.5t-111.5 -103t-144 -38.5q-42 0 -92.5 25t-88.5 83q-43 -90 -43 -176q0 -60 14.5 -112.5t51.5 -85.5t102 -33q47 0 105 38t120 95.5t121 117.5
t107 105v-110q-138 -162 -275.5 -260.5t-284.5 -98.5zM471 467q59 0 101 58t42 128q0 57 -25 77t-69 20q-59 0 -104 -34t-73.5 -77.5t-39.5 -73.5q35 -46 79.5 -72t88.5 -26zM524 944q-22 0 -48 39t-52.5 97t-48.5 116.5t-35.5 99.5t-14.5 43l113 23l19.5 -45.5l46.5 -108.5
t49 -116q33 40 71 86.5t72.5 88.5t56 68.5l21.5 26.5l96 -23q-33 -57 -79 -125t-95.5 -129.5t-94.5 -101t-77 -39.5z" />
    <glyph glyph-name="Gbreve" unicode="&#x11e;" horiz-adv-x="1458" 
d="M743 -467q-64 0 -133 30.5t-116.5 86t-47.5 129.5q0 43 19.5 83t62.5 50l457 133l10.5 42t23.5 98.5t19 99.5l17 86q-65 -63 -155.5 -121.5t-183 -95.5t-165.5 -37q-91 0 -159.5 46.5t-118 123t-83.5 166.5l-120 -70q-51 -29 -97.5 -56.5t-60.5 -27.5q-13 0 -21 19.5
t-8 37.5q0 16 5 29.5t16 17.5q23 14 66 37t89 48t79 44.5t34 26.5q0 191 68 363.5t190.5 306.5t286.5 211.5t356 77.5q106 0 189.5 -50t132.5 -126t49 -154q0 -76 -28.5 -97t-78.5 -42l-63 -29l-830 -434q17 -71 56.5 -138.5t98 -111t130.5 -43.5q94 0 175.5 40.5
t156.5 100.5q3 6 13.5 45t20.5 82t13 60h199l-119 -502q48 23 116 74.5t141.5 117.5t137.5 129v-110q-40 -43 -99.5 -96.5t-123 -104.5t-118 -89t-85.5 -50q-47 -229 -158 -343t-256 -114zM426 678l418 209q101 50 186.5 95t108.5 54q59 26 75.5 46t16.5 48q0 72 -29 141
t-72.5 114t-87.5 45q-130 0 -242.5 -67t-196 -177.5t-130.5 -243.5t-47 -264zM766 -408q42 0 74.5 41.5t56.5 100.5t38.5 113t18.5 79q-50 -21 -107.5 -34.5t-109 -28.5t-84 -39t-32.5 -66q0 -58 36.5 -112t108.5 -54zM999 1626q-77 0 -124.5 30t-73 74.5t-36.5 90t-13.5 78
t-4.5 36.5l121 25q0 -1 2.5 -28.5t14.5 -63.5t40.5 -63t79.5 -27q53 0 94 27.5t70.5 63.5t44.5 63.5l15 27.5l102 -25q-11 -61 -49.5 -133t-108 -124t-174.5 -52z" />
    <glyph glyph-name="gbreve" unicode="&#x11f;" horiz-adv-x="938" 
d="M293 -547q-42 0 -85.5 15.5t-73.5 47.5t-30 81q0 55 48 96.5t108 87.5l277 213l32 170q-91 -81 -157.5 -122.5t-119.5 -56t-106 -14.5q-44 0 -74 30.5t-45.5 77t-15.5 93.5q0 112 41 229.5t116 217t178 160.5t226 61q62 0 148.5 -13.5t150.5 -25.5l-153 -647
q63 59 110 103.5t90.5 88t92.5 99.5v-116q-74 -82 -154.5 -158.5t-159.5 -147.5q-31 -176 -105 -304t-165 -197t-174 -69zM367 131q86 0 217 148l116 487q-37 9 -58 13.5t-40 4.5q-70 0 -130 -43t-105.5 -112t-71 -149.5t-25.5 -155.5q0 -98 26 -145.5t71 -47.5zM324 -492
q56 0 96.5 50t66 135t37.5 190l-164 -139q-35 -29 -72.5 -62.5t-37.5 -105.5q0 -40 18.5 -54t55.5 -14zM684 948q-77 0 -124.5 30t-73 74.5t-36.5 90t-13.5 78t-4.5 36.5l121 25q0 -1 2.5 -28.5t14.5 -63.5t40.5 -63t79.5 -27q53 0 94 27.5t70.5 63.5t44.5 63.5l15 27.5
l102 -25q-11 -61 -49.5 -133t-108 -124t-174.5 -52z" />
    <glyph glyph-name="Gdotaccent" unicode="&#x120;" horiz-adv-x="1458" 
d="M743 -467q-64 0 -133 30.5t-116.5 86t-47.5 129.5q0 43 19.5 83t62.5 50l457 133l10.5 42t23.5 98.5t19 99.5l17 86q-65 -63 -155.5 -121.5t-183 -95.5t-165.5 -37q-91 0 -159.5 46.5t-118 123t-83.5 166.5l-120 -70q-51 -29 -97.5 -56.5t-60.5 -27.5q-13 0 -21 19.5
t-8 37.5q0 16 5 29.5t16 17.5q23 14 66 37t89 48t79 44.5t34 26.5q0 191 68 363.5t190.5 306.5t286.5 211.5t356 77.5q106 0 189.5 -50t132.5 -126t49 -154q0 -76 -28.5 -97t-78.5 -42l-63 -29l-830 -434q17 -71 56.5 -138.5t98 -111t130.5 -43.5q94 0 175.5 40.5
t156.5 100.5q3 6 13.5 45t20.5 82t13 60h199l-119 -502q48 23 116 74.5t141.5 117.5t137.5 129v-110q-40 -43 -99.5 -96.5t-123 -104.5t-118 -89t-85.5 -50q-47 -229 -158 -343t-256 -114zM426 678l418 209q101 50 186.5 95t108.5 54q59 26 75.5 46t16.5 48q0 72 -29 141
t-72.5 114t-87.5 45q-130 0 -242.5 -67t-196 -177.5t-130.5 -243.5t-47 -264zM766 -408q42 0 74.5 41.5t56.5 100.5t38.5 113t18.5 79q-50 -21 -107.5 -34.5t-109 -28.5t-84 -39t-32.5 -66q0 -58 36.5 -112t108.5 -54zM992 1722q-42 0 -60 23.5t-18 54.5q0 34 17.5 70.5
t49 62t72.5 25.5q59 0 85 -23.5t26 -54.5q0 -34 -24 -71t-63 -62t-85 -25z" />
    <glyph glyph-name="gdotaccent" unicode="&#x121;" horiz-adv-x="938" 
d="M293 -547q-42 0 -85.5 15.5t-73.5 47.5t-30 81q0 55 48 96.5t108 87.5l277 213l32 170q-91 -81 -157.5 -122.5t-119.5 -56t-106 -14.5q-44 0 -74 30.5t-45.5 77t-15.5 93.5q0 112 41 229.5t116 217t178 160.5t226 61q62 0 148.5 -13.5t150.5 -25.5l-153 -647
q63 59 110 103.5t90.5 88t92.5 99.5v-116q-74 -82 -154.5 -158.5t-159.5 -147.5q-31 -176 -105 -304t-165 -197t-174 -69zM367 131q86 0 217 148l116 487q-37 9 -58 13.5t-40 4.5q-70 0 -130 -43t-105.5 -112t-71 -149.5t-25.5 -155.5q0 -98 26 -145.5t71 -47.5zM324 -492
q56 0 96.5 50t66 135t37.5 190l-164 -139q-35 -29 -72.5 -62.5t-37.5 -105.5q0 -40 18.5 -54t55.5 -14zM677 1044q-42 0 -60 23.5t-18 54.5q0 34 17.5 70.5t49 62t72.5 25.5q59 0 85 -23.5t26 -54.5q0 -34 -24 -71t-63 -62t-85 -25z" />
    <glyph glyph-name="uni0122" unicode="&#x122;" horiz-adv-x="1458" 
d="M743 -467q-64 0 -133 30.5t-116.5 86t-47.5 129.5q0 43 19.5 83t62.5 50l457 133l10.5 42t23.5 98.5t19 99.5l17 86q-65 -63 -155.5 -121.5t-183 -95.5t-165.5 -37q-91 0 -159.5 46.5t-118 123t-83.5 166.5l-120 -70q-51 -29 -97.5 -56.5t-60.5 -27.5q-13 0 -21 19.5
t-8 37.5q0 16 5 29.5t16 17.5q23 14 66 37t89 48t79 44.5t34 26.5q0 191 68 363.5t190.5 306.5t286.5 211.5t356 77.5q106 0 189.5 -50t132.5 -126t49 -154q0 -76 -28.5 -97t-78.5 -42l-63 -29l-830 -434q17 -71 56.5 -138.5t98 -111t130.5 -43.5q94 0 175.5 40.5
t156.5 100.5q3 6 13.5 45t20.5 82t13 60h199l-119 -502q48 23 116 74.5t141.5 117.5t137.5 129v-110q-40 -43 -99.5 -96.5t-123 -104.5t-118 -89t-85.5 -50q-47 -229 -158 -343t-256 -114zM426 678l418 209q101 50 186.5 95t108.5 54q59 26 75.5 46t16.5 48q0 72 -29 141
t-72.5 114t-87.5 45q-130 0 -242.5 -67t-196 -177.5t-130.5 -243.5t-47 -264zM766 -408q42 0 74.5 41.5t56.5 100.5t38.5 113t18.5 79q-50 -21 -107.5 -34.5t-109 -28.5t-84 -39t-32.5 -66q0 -58 36.5 -112t108.5 -54zM290 -541l-58 21l8.5 60.5t14.5 133.5
q-41 0 -59.5 23.5t-18.5 54.5q0 34 18.5 70.5t50 62t70.5 25.5q59 0 82 -20.5t23 -55.5q0 -31 -17 -85t-40.5 -112.5t-44.5 -107t-29 -70.5z" />
    <glyph glyph-name="uni0123" unicode="&#x123;" horiz-adv-x="938" 
d="M293 -547q-42 0 -85.5 15.5t-73.5 47.5t-30 81q0 55 48 96.5t108 87.5l277 213l32 170q-91 -81 -157.5 -122.5t-119.5 -56t-106 -14.5q-44 0 -74 30.5t-45.5 77t-15.5 93.5q0 112 41 229.5t116 217t178 160.5t226 61q62 0 148.5 -13.5t150.5 -25.5l-153 -647
q63 59 110 103.5t90.5 88t92.5 99.5v-116q-74 -82 -154.5 -158.5t-159.5 -147.5q-31 -176 -105 -304t-165 -197t-174 -69zM367 131q86 0 217 148l116 487q-37 9 -58 13.5t-40 4.5q-70 0 -130 -43t-105.5 -112t-71 -149.5t-25.5 -155.5q0 -98 26 -145.5t71 -47.5zM324 -492
q56 0 96.5 50t66 135t37.5 190l-164 -139q-35 -29 -72.5 -62.5t-37.5 -105.5q0 -40 18.5 -54t55.5 -14zM746 976q-58 0 -81 31t-23 80q0 32 22 84t52.5 108t58 102t39.5 66l57 -20l-63 -215q41 0 59 -23.5t18 -54.5q0 -34 -18 -70.5t-49.5 -62t-71.5 -25.5z" />
    <glyph glyph-name="Hbar" unicode="&#x126;" horiz-adv-x="1870" 
d="M383 -55q-118 0 -190 45t-105 104t-33 101q0 53 35.5 78.5t90 33.5t110.5 8v-59q0 -44 6 -91t27.5 -79.5t68.5 -32.5q78 0 130.5 58.5t86 149.5t55 190t37.5 180l-213 -31q4 0 -11 0t-30.5 8.5t-15.5 32.5q0 48 17.5 64t33.5 22q44 11 107.5 23t144.5 24l4 19
q11 49 22.5 94.5t24.5 86.5q-57 -2 -123 -4q-11 0 -41 1.5t-56.5 10t-26.5 29.5q0 47 36.5 64.5t70.5 21.5q21 2 75 5t125 6q29 49 69.5 88.5t96.5 69.5q-111 11 -217 36t-220 25q-40 0 -108.5 -8t-139 -28t-119 -56.5t-48.5 -93.5q0 -47 33 -83.5t78 -62t81 -41.5
q0 -29 -6 -70.5t-24 -64.5q-69 27 -143 72t-124.5 109.5t-50.5 148.5q0 98 49 168t127 114t168.5 64.5t173.5 20.5q96 0 187.5 -18l183 -36t186.5 -18q63 0 116 21t108 24q-10 -58 -39 -115t-78 -88q-29 -41 -53.5 -83t-44.5 -86q93 3 174 5t125 2h8q69 108 156 197
t187.5 142t211.5 53q34 0 82 -11t95 -33t78 -55t31 -76q0 -19 -20 -47t-49.5 -56t-58 -47t-46.5 -20l-8 21q-16 56 -50.5 106t-100.5 50q-99 0 -184 -66t-154 -160q120 -3 198 -12t78 -27t-30.5 -41t-80 -39.5t-108.5 -16.5q-37 0 -72 0.5t-70 0.5q-22 -41 -41.5 -81
t-35.5 -77h74q105 0 219 -6q20 0 28.5 -10t8.5 -22q0 -28 -30 -62.5t-71 -34.5q-138 0 -270 -6q-19 -64 -31 -136t-12 -138q0 -177 43.5 -250.5t107.5 -73.5q76 0 167 51.5t183.5 132.5t174.5 168l-2 -114q-92 -102 -201.5 -189.5t-219.5 -140.5t-204 -53q-88 0 -147.5 78.5
t-59.5 267.5q0 106 14.5 214t30.5 175q-69 -4 -137 -10t-137 -13q-23 -88 -50 -186.5t-64.5 -191.5t-94.5 -168.5t-140 -120.5t-200 -45zM1245 823q31 84 72 165q-28 0 -61.5 -0.5t-86 -1.5t-138.5 -3q-17 -44 -32.5 -88.5t-31.5 -89.5q125 12 278 18z" />
    <glyph glyph-name="hbar" unicode="&#x127;" horiz-adv-x="881" 
d="M586 -29q-38 0 -51 23.5t-13 52.5q0 9 2 20.5t3 20.5q3 27 20.5 86t38.5 134t37 151.5t16 138.5q0 57 -57 57q-46 0 -95 -36.5t-94 -96t-80 -130.5t-53 -140q-25 -98 -47 -160.5t-57 -91.5h-156q4 28 21.5 104t44.5 183t58.5 227.5t63 238.5t57.5 215q-18 -1 -36.5 -2
t-40.5 -3q-7 0 -32 4.5t-25 36.5q0 47 16.5 64t32.5 22q10 2 42.5 6.5t79.5 8.5q12 46 19.5 72.5l7.5 26.5q26 95 46 147.5t43 76t56.5 29t86.5 5.5q12 0 25 -0.5t20 -3.5l-95 -343q13 1 26 1h26q85 0 147 -8t62 -33q0 -28 -30 -62t-70 -34q-35 0 -70.5 1t-67.5 1h-26.5
t-33.5 -1l-130 -470q47 87 117 162.5t151 121.5t160 46q98 0 98 -117q0 -35 -19.5 -96t-45 -133t-45 -141t-19.5 -120l2.5 -15t16.5 -15q8 0 34.5 25t64.5 63.5t80 79.5t79 73v-112q-36 -41 -91 -101.5t-115.5 -120t-115.5 -99.5t-90 -40z" />
    <glyph glyph-name="Itilde" unicode="&#x128;" horiz-adv-x="1061" 
d="M494 -57q-60 0 -127 24.5t-113.5 75t-46.5 129.5q0 54 29 82t74 38.5t93 10.5q0 -16 -1 -40t-1 -50q0 -39 6 -79t29.5 -66.5t75.5 -26.5q59 0 103 43.5t75.5 113t54 149t37 153.5t23.5 125l14 77q-167 13 -267.5 53.5t-145 94t-44.5 104.5q0 47 34 115t101 140t165.5 135
t227.5 102t288 39q63 0 115.5 21t107.5 24q-11 -67 -48.5 -131.5t-103.5 -87.5q-69 -118 -115 -248t-77 -270l-33 -146q-18 -88 -41 -185.5t-59 -189.5t-92 -166.5t-138.5 -118.5t-199.5 -44zM854 842q38 143 101 267t190 194q-168 0 -286 -45t-191.5 -108t-107.5 -120
t-34 -80q0 -40 78 -69.5t250 -38.5zM1440 1650q-9 50 -28.5 69t-46.5 19q-37 0 -84.5 -21t-101 -42t-107.5 -21q-67 0 -103 32t-51 74t-17.5 76.5t-4.5 38.5l108 21q6 -48 28 -65t54 -17q41 0 93 19t106.5 38t103.5 19q68 0 103.5 -32t50.5 -74t18 -76t4 -39z" />
    <glyph glyph-name="itilde" unicode="&#x129;" horiz-adv-x="469" 
d="M106 -29q-48 0 -68 42.5t-20 88.5q0 32 11.5 95.5t29 140t37 152t36 133t25.5 79.5q21 54 51.5 75.5t72.5 25.5t97 4q-10 -34 -29 -96t-41 -137.5t-42 -150t-33 -134.5t-13 -90q0 -14 6.5 -40t28.5 -26q12 0 54.5 37t96.5 89.5t102 102.5t71 76v-112q-169 -166 -275 -258
t-198 -97zM631 972q-9 50 -28.5 69t-46.5 19q-37 0 -84.5 -21t-101 -42t-107.5 -21q-67 0 -103 32t-51 74t-17.5 76.5t-4.5 38.5l108 21q6 -48 28 -65t54 -17q41 0 93 19t106.5 38t103.5 19q68 0 103.5 -32t50.5 -74t18 -76t4 -39z" />
    <glyph glyph-name="Imacron" unicode="&#x12a;" horiz-adv-x="1061" 
d="M494 -57q-60 0 -127 24.5t-113.5 75t-46.5 129.5q0 54 29 82t74 38.5t93 10.5q0 -16 -1 -40t-1 -50q0 -39 6 -79t29.5 -66.5t75.5 -26.5q59 0 103 43.5t75.5 113t54 149t37 153.5t23.5 125l14 77q-167 13 -267.5 53.5t-145 94t-44.5 104.5q0 47 34 115t101 140t165.5 135
t227.5 102t288 39q63 0 115.5 21t107.5 24q-11 -67 -48.5 -131.5t-103.5 -87.5q-69 -118 -115 -248t-77 -270l-33 -146q-18 -88 -41 -185.5t-59 -189.5t-92 -166.5t-138.5 -118.5t-199.5 -44zM854 842q38 143 101 267t190 194q-168 0 -286 -45t-191.5 -108t-107.5 -120
t-34 -80q0 -40 78 -69.5t250 -38.5zM967 1641q-7 0 -32 4.5t-25 36.5q0 47 16.5 64t32.5 22q15 4 74 10t141.5 11t167.5 5t147 -8t62 -33q0 -28 -30 -62t-70 -34q-35 0 -70.5 1t-67.5 1q-22 0 -53.5 -1t-98 -4.5t-194.5 -12.5z" />
    <glyph glyph-name="imacron" unicode="&#x12b;" horiz-adv-x="469" 
d="M106 -29q-48 0 -68 42.5t-20 88.5q0 32 11.5 95.5t29 140t37 152t36 133t25.5 79.5q21 54 51.5 75.5t72.5 25.5t97 4q-10 -34 -29 -96t-41 -137.5t-42 -150t-33 -134.5t-13 -90q0 -14 6.5 -40t28.5 -26q12 0 54.5 37t96.5 89.5t102 102.5t71 76v-112q-169 -166 -275 -258
t-198 -97zM158 963q-7 0 -32 4.5t-25 36.5q0 47 16.5 64t32.5 22q15 4 74 10t141.5 11t167.5 5t147 -8t62 -33q0 -28 -30 -62t-70 -34q-35 0 -70.5 1t-67.5 1q-22 0 -53.5 -1t-98 -4.5t-194.5 -12.5z" />
    <glyph glyph-name="Iogonek" unicode="&#x12e;" horiz-adv-x="1061" 
d="M494 -57q-60 0 -127 24.5t-113.5 75t-46.5 129.5q0 54 29 82t74 38.5t93 10.5q0 -16 -1 -40t-1 -50q0 -39 6 -79t29.5 -66.5t75.5 -26.5q59 0 103 43.5t75.5 113t54 149t37 153.5t23.5 125l14 77q-167 13 -267.5 53.5t-145 94t-44.5 104.5q0 47 34 115t101 140t165.5 135
t227.5 102t288 39q63 0 115.5 21t107.5 24q-11 -67 -48.5 -131.5t-103.5 -87.5q-69 -118 -115 -248t-77 -270l-33 -146q-18 -88 -41 -185.5t-59 -189.5t-92 -166.5t-138.5 -118.5t-199.5 -44zM854 842q38 143 101 267t190 194q-168 0 -286 -45t-191.5 -108t-107.5 -120
t-34 -80q0 -40 78 -69.5t250 -38.5zM613 -543q-44 0 -98 12.5t-104 42t-82 79t-32 124.5q0 78 36 132t84 88t86.5 52t43.5 23h148q-1 0 -38.5 -16t-86.5 -47.5t-86 -79t-37 -111.5q0 -63 35 -100.5t82 -56.5t84 -25t41 -6v-105q-34 -6 -76 -6z" />
    <glyph glyph-name="iogonek" unicode="&#x12f;" horiz-adv-x="469" 
d="M106 -29q-48 0 -68 42.5t-20 88.5q0 32 11.5 95.5t29 140t37 152t36 133t25.5 79.5q21 54 51.5 75.5t72.5 25.5t97 4q-10 -34 -29 -96t-41 -137.5t-42 -150t-33 -134.5t-13 -90q0 -14 6.5 -40t28.5 -26q12 0 54.5 37t96.5 89.5t102 102.5t71 76v-112q-169 -166 -275 -258
t-198 -97zM375 1044q-42 0 -60 23.5t-18 54.5q0 34 17.5 70.5t49 62t72.5 25.5q59 0 85 -23.5t26 -54.5q0 -34 -24 -71t-63 -62t-85 -25zM130 -553q-44 0 -98 12.5t-104 42t-82 79t-32 124.5q0 78 36 132t84 88t86.5 52t43.5 23h148q-1 0 -38.5 -16t-86.5 -47.5t-86 -79
t-37 -111.5q0 -63 35 -100.5t82 -56.5t84 -25t41 -6v-105q-34 -6 -76 -6z" />
    <glyph glyph-name="Idotaccent" unicode="&#x130;" horiz-adv-x="1061" 
d="M494 -57q-60 0 -127 24.5t-113.5 75t-46.5 129.5q0 54 29 82t74 38.5t93 10.5q0 -16 -1 -40t-1 -50q0 -39 6 -79t29.5 -66.5t75.5 -26.5q59 0 103 43.5t75.5 113t54 149t37 153.5t23.5 125l14 77q-167 13 -267.5 53.5t-145 94t-44.5 104.5q0 47 34 115t101 140t165.5 135
t227.5 102t288 39q63 0 115.5 21t107.5 24q-11 -67 -48.5 -131.5t-103.5 -87.5q-69 -118 -115 -248t-77 -270l-33 -146q-18 -88 -41 -185.5t-59 -189.5t-92 -166.5t-138.5 -118.5t-199.5 -44zM854 842q38 143 101 267t190 194q-168 0 -286 -45t-191.5 -108t-107.5 -120
t-34 -80q0 -40 78 -69.5t250 -38.5zM1184 1722q-42 0 -60 23.5t-18 54.5q0 34 17.5 70.5t49 62t72.5 25.5q59 0 85 -23.5t26 -54.5q0 -34 -24 -71t-63 -62t-85 -25z" />
    <glyph glyph-name="dotlessi" unicode="&#x131;" horiz-adv-x="469" 
d="M106 -29q-48 0 -68 42.5t-20 88.5q0 32 11.5 95.5t29 140t37 152t36 133t25.5 79.5q21 54 51.5 75.5t72.5 25.5t97 4q-10 -34 -29 -96t-41 -137.5t-42 -150t-33 -134.5t-13 -90q0 -14 6.5 -40t28.5 -26q12 0 54.5 37t96.5 89.5t102 102.5t71 76v-112q-169 -166 -275 -258
t-198 -97z" />
    <glyph glyph-name="IJ" unicode="&#x132;" horiz-adv-x="2138" 
d="M1104 -428q-63 0 -130.5 30.5t-114 85.5t-46.5 128q0 43 20 88t64 57l418 113q17 97 44.5 225t59.5 268.5t62 272.5q31 143 90.5 268t171.5 195q-146 0 -267.5 1t-228.5 5q-64 -111 -108.5 -232t-75.5 -250q50 0 124 7.5t150 19.5q0 -25 -6 -60t-24 -55
q-74 -19 -142.5 -30.5t-130.5 -16.5l-10 -45q-18 -88 -41 -185.5t-59 -189.5t-92 -166.5t-138.5 -118.5t-199.5 -44q-60 0 -127 24.5t-113.5 75t-46.5 129.5q0 54 29 82t74 38.5t93 10.5q0 -16 -1 -40t-1 -50q0 -39 6 -79t29.5 -66.5t75.5 -26.5q59 0 103 43.5t75.5 113
t54 149t37 153.5t23.5 125l14 77q-167 13 -267.5 53.5t-145 94t-44.5 104.5q0 47 34 115t101 140t165.5 135t227.5 102t288 39h23.5t21.5 -2q121 2 257 2h296q63 0 115.5 21t107.5 24q-10 -67 -48 -131.5t-104 -87.5q-63 -109 -103 -227t-69 -244l-147 -707q71 43 138.5 78
t144.5 87.5t174 147.5v-112q-43 -51 -109 -102.5t-138 -97t-134.5 -78.5t-98.5 -46q-47 -218 -154 -328t-247 -110zM854 842q38 143 101 267t190 194q-168 0 -286 -45t-191.5 -108t-107.5 -120t-34 -80q0 -40 78 -69.5t250 -38.5zM1126 -356q37 0 66 31.5t50 78.5t35 96
t21 84q-48 -16 -101 -26.5t-99 -22t-74.5 -32.5t-28.5 -58q0 -53 32.5 -102t98.5 -49z" />
    <glyph glyph-name="ij" unicode="&#x133;" horiz-adv-x="911" 
d="M106 -29q-48 0 -68 42.5t-20 88.5q0 32 11.5 95.5t29 140t37 152t36 133t25.5 79.5q21 54 51.5 75.5t72.5 25.5t97 4q-10 -34 -29 -96t-41 -137.5t-42 -150t-33 -134.5t-13 -90q0 -14 6.5 -40t28.5 -26q12 0 54.5 37t96.5 89.5t102 102.5t71 76v-112q-169 -166 -275 -258
t-198 -97zM375 1044q-42 0 -60 23.5t-18 54.5q0 34 17.5 70.5t49 62t72.5 25.5q59 0 85 -23.5t26 -54.5q0 -34 -24 -71t-63 -62t-85 -25zM123 -791q-46 0 -68 33.5t-26.5 80.5t0.5 89q15 88 62.5 173.5t108 160.5t118 132.5t95.5 90.5l38 33l38 135q10 53 28 137t39 173
t39 159t28 96q21 54 51 75.5t72.5 25.5t97.5 4q-10 -34 -31 -105.5t-46.5 -160.5t-49 -177.5t-38.5 -158t-15 -99.5q11 5 67.5 52t138 121.5t166.5 160.5v-112q-110 -112 -211 -205t-198 -139q-20 -96 -33.5 -159t-24.5 -112t-24.5 -101t-34.5 -126q-17 -62 -78.5 -126.5
t-144 -107.5t-164.5 -43zM225 -682q38 0 68.5 40t54 105.5t41.5 141.5t32 149.5t25 128.5q-90 -107 -143.5 -178t-82 -119t-41.5 -86t-23 -80q-10 -35 7.5 -68.5t61.5 -33.5zM840 1044q-42 0 -60 23.5t-18 54.5q0 34 17.5 70.5t49 62t72.5 25.5q59 0 85 -23.5t26 -54.5
q0 -34 -24 -71t-63 -62t-85 -25z" />
    <glyph glyph-name="Jcircumflex" unicode="&#x134;" horiz-adv-x="1077" 
d="M330 -428q-63 0 -130.5 30.5t-114 85.5t-46.5 128q0 43 19.5 88t64.5 57l418 113q16 94 41 203t51 218.5t43 204.5q-163 9 -264.5 43t-153 82t-65.5 97q-15 39 10 107t89 146.5t164.5 149t237 115.5t307.5 45q63 0 116 21t108 24q-11 -67 -48.5 -131.5t-103.5 -87.5
q-63 -109 -103 -227t-69 -244q62 0 130 5t145 17q0 -25 -6.5 -59.5t-24.5 -54.5q-73 -20 -142 -31.5t-131 -16.5l-118 -567q71 43 138.5 78t144 87.5t173.5 147.5v-112q-43 -51 -108.5 -102.5t-137.5 -97t-134.5 -78.5t-98.5 -46q-47 -218 -154 -328t-247 -110zM707 840
q34 143 92 268t170 195q-168 0 -286 -45t-191.5 -108t-107.5 -120t-34 -80q0 -41 85 -71.5t272 -38.5zM352 -356q37 0 66 31.5t50 78.5t35 96t21 84q-48 -16 -101 -26.5t-99 -22t-74.5 -32.5t-28.5 -58q0 -53 32.5 -102t98.5 -49zM623 1622l-59 43q33 58 79.5 126t97 129.5
t96.5 100.5t77 39q19 0 45 -39.5t52.5 -97.5t49.5 -117t37 -100t15 -43l-72 -41q-23 32 -66 111.5t-90 158.5q-52 -53 -103.5 -107t-93 -97.5t-65.5 -65.5z" />
    <glyph glyph-name="jcircumflex" unicode="&#x135;" horiz-adv-x="442" 
d="M-346 -791q-46 0 -68 33.5t-26.5 80.5t0.5 89q15 88 62.5 173.5t108 160.5t118 132.5t95.5 90.5l38 33l38 135q10 53 28 137t39 173t39 159t28 96q21 54 51 75.5t72.5 25.5t97.5 4q-10 -34 -31 -105.5t-46.5 -160.5t-49 -177.5t-38.5 -158t-15 -99.5q11 5 67.5 52
t138 121.5t166.5 160.5v-112q-110 -112 -211 -205t-198 -139q-20 -96 -33.5 -159t-24.5 -112t-24.5 -101t-34.5 -126q-17 -62 -78.5 -126.5t-144 -107.5t-164.5 -43zM-244 -682q38 0 68.5 40t54 105.5t41.5 141.5t32 149.5t25 128.5q-90 -107 -143.5 -178t-82 -119
t-41.5 -86t-23 -80q-10 -35 7.5 -68.5t61.5 -33.5zM172 944l-59 43q33 58 79.5 126t97 129.5t96.5 100.5t77 39q19 0 45 -39.5t52.5 -97.5t49.5 -117t37 -100t15 -43l-72 -41q-23 32 -66 111.5t-90 158.5q-52 -53 -103.5 -107t-93 -97.5t-65.5 -65.5z" />
    <glyph glyph-name="uni0136" unicode="&#x136;" horiz-adv-x="1888" 
d="M358 -55q-117 0 -189 45t-105 104t-33 101q0 53 35.5 78.5t89.5 33.5t110 8v-59q0 -44 6 -91t28 -79.5t69 -32.5q70 0 119 47.5t82.5 124t56 164t38 169.5t29.5 140l21 95q24 108 53.5 198.5t80.5 160t138 114.5q-104 12 -205 36.5t-211 24.5q-40 0 -108.5 -8t-139 -28
t-119 -56.5t-48.5 -93.5q0 -47 32.5 -83.5t77.5 -62t82 -41.5q0 -29 -6 -70.5t-25 -64.5q-69 27 -142.5 72t-124 109.5t-50.5 148.5q0 98 49 168t127 114t168.5 64.5t173.5 20.5q92 0 180 -18t176.5 -36t180.5 -18q63 0 115.5 21t107.5 24q-9 -58 -38 -115t-79 -88
q-82 -112 -132.5 -235.5t-90.5 -257.5l-18 -62q140 142 258.5 281.5t227.5 254t220.5 183t235.5 68.5q7 0 42.5 -4t84 -14.5t96 -30.5t79 -51t31.5 -77q0 -19 -20 -47t-49.5 -56t-58 -47t-46.5 -20l-8 21q-16 56 -50.5 106t-100.5 50q-89 0 -157 -35.5t-124.5 -94.5
t-109 -130.5t-110 -145.5t-128.5 -139l209 -410q74 -135 116.5 -213.5t88.5 -62.5q46 15 133 96t229 223v-112q-86 -94 -171.5 -180.5t-155.5 -141.5t-109 -55q-66 0 -135 73.5t-154 249.5l-199 449l-194 -94q-33 -127 -71.5 -248t-96 -218.5t-145.5 -155.5t-220 -58z
M935 -541l-58 21l8.5 60.5t14.5 133.5q-41 0 -59.5 23.5t-18.5 54.5q0 34 18.5 70.5t50 62t70.5 25.5q59 0 82 -20.5t23 -55.5q0 -31 -17 -85t-40.5 -112.5t-44.5 -107t-29 -70.5z" />
    <glyph glyph-name="uni0137" unicode="&#x137;" horiz-adv-x="905" 
d="M590 -29q-57 0 -75.5 42.5t-18.5 99.5q0 50 7 102.5t7 87.5q0 27 -16 45.5t-63.5 28.5t-141.5 10l-6 -27q-1 -7 -12 -53.5t-29.5 -108.5t-43 -117.5t-53.5 -80.5h-155q3 28 21.5 106.5t46.5 188.5t60.5 233.5t64 243t58 217.5t42.5 156.5l16 58.5q26 95 45.5 147.5
t42.5 76t56.5 29t86.5 5.5q13 0 25.5 -0.5t19.5 -3.5q-18 -64 -46 -162.5t-59.5 -206t-59.5 -202t-45.5 -154t-16.5 -59.5q77 91 167 128.5t181 37.5q60 0 96.5 -41.5t36.5 -100.5q0 -86 -39 -134t-108.5 -77.5t-159.5 -62.5q73 0 108 -24t45.5 -61t10.5 -77q0 -19 -1 -38
t-1 -36q0 -24 4 -45.5t14 -21.5q7 0 17 10q5 5 40 39.5t84.5 83.5t99.5 99t85 87v-112q-111 -109 -182 -179t-116.5 -108.5t-77 -54t-62.5 -15.5zM295 457h67q39 0 88.5 11t95.5 33.5t75.5 58.5t29.5 87q0 94 -78 94q-27 0 -71 -27t-90 -70.5t-79 -93t-38 -93.5zM324 -541
l-58 21l8.5 60.5t14.5 133.5q-41 0 -59.5 23.5t-18.5 54.5q0 34 18.5 70.5t50 62t70.5 25.5q59 0 82 -20.5t23 -55.5q0 -31 -17 -85t-40.5 -112.5t-44.5 -107t-29 -70.5z" />
    <glyph glyph-name="kgreenlandic" unicode="&#x138;" horiz-adv-x="905" 
d="M590 -29q-57 0 -75.5 42.5t-18.5 99.5q0 50 7 102.5t7 87.5q0 29 -11.5 52t-51.5 32h-158l-6 -27q-1 -7 -12 -53.5t-29.5 -108.5t-43 -117.5t-53.5 -80.5h-155q5 39 25 120t45.5 178t50 185.5t41 146l16.5 57.5q20 85 59.5 103t87.5 18h39t33 -5q-9 -34 -20 -71.5
t-27.5 -100.5t-44.5 -174q29 -3 53.5 -5t43.5 -2q55 0 84.5 17t53.5 57t62.5 108.5t111.5 172.5l175 1q-33 -52 -67 -116.5t-69 -124t-72.5 -100t-78.5 -44.5q62 -10 78 -57.5t16 -101.5q0 -19 -1 -38t-1 -36q0 -24 4 -45.5t14 -21.5q7 0 17 10q5 5 40 39.5t84.5 83.5
t99.5 99t85 87v-112q-111 -109 -182 -179t-116.5 -108.5t-77 -54t-62.5 -15.5z" />
    <glyph glyph-name="Lacute" unicode="&#x139;" horiz-adv-x="1255" 
d="M754 -57q-8 0 -19 6.5t-49 24.5t-122.5 52.5t-239.5 90.5q-89 -58 -189 -102t-174 -44q-7 0 -33.5 7t-50.5 28.5t-24 65.5q0 32 29.5 54.5t66 38t57.5 25.5l262 119l232 828q17 60 51 89t82 64q23 17 77 54t119.5 77t126.5 68.5t97 28.5q86 0 163.5 -48.5t126 -126.5
t48.5 -165q0 -26 -8 -45.5t-29 -30.5q-65 -33 -152.5 -81.5t-174.5 -96t-153 -78.5q-12 -6 -22 -6q-17 0 -26 12.5t-9 28.5q0 25 35.5 49.5t87.5 49.5t105 51.5t89 55.5t37 60q-1 0 -9 41t-26.5 94t-51 94t-83.5 41q-38 -4 -86.5 -46t-94.5 -100.5t-78.5 -114.5t-39.5 -89
q-38 -187 -91.5 -391t-141.5 -410q22 -6 40.5 -13t41.5 -13q16 -5 68 -24t117 -41.5t122 -39t82 -16.5q11 0 39 7.5t79 37t129 94.5t189 180v-112q-88 -88 -187.5 -176.5t-208.5 -147.5t-226 -59zM797 1618l-23 55q34 32 88 74t115 82.5t118.5 68t98.5 29.5q24 0 48.5 -17.5
t41.5 -41t17 -43.5q0 -24 -19 -29l-88 -35q-77 -30 -155 -58.5t-142 -50t-100 -34.5z" />
    <glyph glyph-name="lacute" unicode="&#x13a;" horiz-adv-x="593" 
d="M160 -29q-45 0 -64 38.5t-22.5 93.5t-3.5 104q0 131 24 278.5t67 296.5t100.5 283.5t125 239.5t140.5 166t147 61q66 0 103 -45.5t37 -114.5q0 -127 -37.5 -247t-96 -226t-124.5 -193.5t-124.5 -151t-96 -98l-37.5 -34.5l-5 -42t-10.5 -97.5t-5.5 -94.5q0 -12 4.5 -41.5
t30.5 -29.5q15 0 61 40t106 101t119.5 124.5t102.5 111.5v-112q-183 -217 -308.5 -314t-232.5 -97zM324 618q91 82 161 186t118 208.5t73 189.5t25 129q0 25 -7 55.5t-36 30.5q-58 0 -111.5 -96t-107.5 -275t-115 -428zM550 1681l-23 55q34 32 88 74t115 82.5t118.5 68
t98.5 29.5q24 0 48.5 -17.5t41.5 -41t17 -43.5q0 -24 -19 -29l-88 -35q-77 -30 -155 -58.5t-142 -50t-100 -34.5z" />
    <glyph glyph-name="uni013B" unicode="&#x13b;" horiz-adv-x="1255" 
d="M754 -57q-8 0 -19 6.5t-49 24.5t-122.5 52.5t-239.5 90.5q-89 -58 -189 -102t-174 -44q-7 0 -33.5 7t-50.5 28.5t-24 65.5q0 32 29.5 54.5t66 38t57.5 25.5l262 119l232 828q17 60 51 89t82 64q23 17 77 54t119.5 77t126.5 68.5t97 28.5q86 0 163.5 -48.5t126 -126.5
t48.5 -165q0 -26 -8 -45.5t-29 -30.5q-65 -33 -152.5 -81.5t-174.5 -96t-153 -78.5q-12 -6 -22 -6q-17 0 -26 12.5t-9 28.5q0 25 35.5 49.5t87.5 49.5t105 51.5t89 55.5t37 60q-1 0 -9 41t-26.5 94t-51 94t-83.5 41q-38 -4 -86.5 -46t-94.5 -100.5t-78.5 -114.5t-39.5 -89
q-38 -187 -91.5 -391t-141.5 -410q22 -6 40.5 -13t41.5 -13q16 -5 68 -24t117 -41.5t122 -39t82 -16.5q11 0 39 7.5t79 37t129 94.5t189 180v-112q-88 -88 -187.5 -176.5t-208.5 -147.5t-226 -59zM619 -541l-58 21l8.5 60.5t14.5 133.5q-41 0 -59.5 23.5t-18.5 54.5
q0 34 18.5 70.5t50 62t70.5 25.5q59 0 82 -20.5t23 -55.5q0 -31 -17 -85t-40.5 -112.5t-44.5 -107t-29 -70.5z" />
    <glyph glyph-name="uni013C" unicode="&#x13c;" horiz-adv-x="593" 
d="M160 -29q-45 0 -64 38.5t-22.5 93.5t-3.5 104q0 131 24 278.5t67 296.5t100.5 283.5t125 239.5t140.5 166t147 61q66 0 103 -45.5t37 -114.5q0 -127 -37.5 -247t-96 -226t-124.5 -193.5t-124.5 -151t-96 -98l-37.5 -34.5l-5 -42t-10.5 -97.5t-5.5 -94.5q0 -12 4.5 -41.5
t30.5 -29.5q15 0 61 40t106 101t119.5 124.5t102.5 111.5v-112q-183 -217 -308.5 -314t-232.5 -97zM324 618q91 82 161 186t118 208.5t73 189.5t25 129q0 25 -7 55.5t-36 30.5q-58 0 -111.5 -96t-107.5 -275t-115 -428zM323 -541l-58 21l8.5 60.5t14.5 133.5
q-41 0 -59.5 23.5t-18.5 54.5q0 34 18.5 70.5t50 62t70.5 25.5q59 0 82 -20.5t23 -55.5q0 -31 -17 -85t-40.5 -112.5t-44.5 -107t-29 -70.5z" />
    <glyph glyph-name="Lcaron" unicode="&#x13d;" horiz-adv-x="1255" 
d="M754 -57q-8 0 -19 6.5t-49 24.5t-122.5 52.5t-239.5 90.5q-89 -58 -189 -102t-174 -44q-7 0 -33.5 7t-50.5 28.5t-24 65.5q0 32 29.5 54.5t66 38t57.5 25.5l262 119l232 828q17 60 51 89t82 64q23 17 77 54t119.5 77t126.5 68.5t97 28.5q86 0 163.5 -48.5t126 -126.5
t48.5 -165q0 -26 -8 -45.5t-29 -30.5q-65 -33 -152.5 -81.5t-174.5 -96t-153 -78.5q-12 -6 -22 -6q-17 0 -26 12.5t-9 28.5q0 25 35.5 49.5t87.5 49.5t105 51.5t89 55.5t37 60q-1 0 -9 41t-26.5 94t-51 94t-83.5 41q-38 -4 -86.5 -46t-94.5 -100.5t-78.5 -114.5t-39.5 -89
q-38 -187 -91.5 -391t-141.5 -410q22 -6 40.5 -13t41.5 -13q16 -5 68 -24t117 -41.5t122 -39t82 -16.5q11 0 39 7.5t79 37t129 94.5t189 180v-112q-88 -88 -187.5 -176.5t-208.5 -147.5t-226 -59zM1507 985q-7 44 -12.5 106.5t-5.5 125.5q0 88 14.5 155.5t52.5 67.5
q80 0 104.5 -11t24.5 -40q0 -17 -5.5 -38t-14.5 -46q-34 -92 -61 -185t-41 -135h-56z" />
    <glyph glyph-name="lcaron" unicode="&#x13e;" horiz-adv-x="593" 
d="M160 -29q-45 0 -64 38.5t-22.5 93.5t-3.5 104q0 131 24 278.5t67 296.5t100.5 283.5t125 239.5t140.5 166t147 61q66 0 103 -45.5t37 -114.5q0 -127 -37.5 -247t-96 -226t-124.5 -193.5t-124.5 -151t-96 -98l-37.5 -34.5l-5 -42t-10.5 -97.5t-5.5 -94.5q0 -12 4.5 -41.5
t30.5 -29.5q15 0 61 40t106 101t119.5 124.5t102.5 111.5v-112q-183 -217 -308.5 -314t-232.5 -97zM324 618q91 82 161 186t118 208.5t73 189.5t25 129q0 25 -7 55.5t-36 30.5q-58 0 -111.5 -96t-107.5 -275t-115 -428zM966 1066q-7 44 -12.5 106.5t-5.5 125.5
q0 88 14.5 155.5t52.5 67.5q80 0 104.5 -11t24.5 -40q0 -17 -5.5 -38t-14.5 -46q-34 -92 -61 -185t-41 -135h-56z" />
    <glyph glyph-name="Ldotaccent" unicode="&#x13f;" horiz-adv-x="1255" 
d="M754 -57q-8 0 -19 6.5t-49 24.5t-122.5 52.5t-239.5 90.5q-89 -58 -189 -102t-174 -44q-7 0 -33.5 7t-50.5 28.5t-24 65.5q0 32 29.5 54.5t66 38t57.5 25.5l262 119l232 828q17 60 51 89t82 64q23 17 77 54t119.5 77t126.5 68.5t97 28.5q86 0 163.5 -48.5t126 -126.5
t48.5 -165q0 -26 -8 -45.5t-29 -30.5q-65 -33 -152.5 -81.5t-174.5 -96t-153 -78.5q-12 -6 -22 -6q-17 0 -26 12.5t-9 28.5q0 25 35.5 49.5t87.5 49.5t105 51.5t89 55.5t37 60q-1 0 -9 41t-26.5 94t-51 94t-83.5 41q-38 -4 -86.5 -46t-94.5 -100.5t-78.5 -114.5t-39.5 -89
q-38 -187 -91.5 -391t-141.5 -410q22 -6 40.5 -13t41.5 -13q16 -5 68 -24t117 -41.5t122 -39t82 -16.5q11 0 39 7.5t79 37t129 94.5t189 180v-112q-88 -88 -187.5 -176.5t-208.5 -147.5t-226 -59zM1069 569q-43 0 -61.5 23.5t-18.5 54.5q0 34 18 70.5t49.5 62t71.5 25.5
q60 0 85.5 -23.5t25.5 -54.5q0 -35 -23.5 -71.5t-62 -61.5t-84.5 -25z" />
    <glyph glyph-name="ldot" unicode="&#x140;" horiz-adv-x="790" 
d="M249 -29q-89 0 -126.5 38.5t-45 93.5t-7.5 104q0 131 24 278.5t67 296.5t100.5 283.5t125 239.5t140.5 166t147 61q66 0 103 -45.5t37 -114.5q0 -127 -37.5 -247t-96 -226t-124.5 -193.5t-124.5 -151t-96 -98l-37.5 -34.5l-5 -30.5t-10.5 -68.5t-5.5 -62q0 -23 3.5 -57.5
t19.5 -60.5t53 -26q33 0 92 26.5t129.5 70.5t141.5 97.5t130.5 108t93.5 101.5v-120q-114 -140 -243.5 -236t-247.5 -145t-200 -49zM324 618q91 82 161 186t118 208.5t73 189.5t25 129q0 25 -7 55.5t-36 30.5q-58 0 -111.5 -96t-107.5 -275t-115 -428zM698 569
q-43 0 -61.5 23.5t-18.5 54.5q0 34 18 70.5t49.5 62t71.5 25.5q60 0 85.5 -23.5t25.5 -54.5q0 -35 -23.5 -71.5t-62 -61.5t-84.5 -25z" />
    <glyph glyph-name="Lslash" unicode="&#x141;" horiz-adv-x="1368" 
d="M693 -57q-8 0 -19 6.5t-49 24.5t-122.5 52.5t-239.5 90.5q-89 -58 -189 -102t-174 -44q-7 0 -33.5 7t-50.5 28.5t-24 65.5q0 32 29.5 54.5t66 38t57.5 25.5l262 119l173 619l-149 -43q-3 -1 -10.5 -3t-15.5 -2q-22 0 -30 21t-8 39q0 20 8.5 31t17.5 18q17 7 78.5 26.5
t145.5 44.5l22 77q17 60 50.5 89t82.5 64q23 17 77 54t119.5 77t126.5 68.5t97 28.5q86 0 163.5 -48.5t126 -126.5t48.5 -165q0 -26 -8 -45.5t-29 -30.5q-65 -33 -152.5 -81.5t-174.5 -96t-153 -78.5q-12 -6 -22 -6q-17 0 -26 12.5t-9 28.5q0 25 35.5 49.5t87.5 49.5
t105 51.5t89 55.5t37 60q-1 0 -9 41t-26.5 94t-51 94t-83.5 41q-42 -5 -95.5 -54t-102.5 -114.5t-77 -120.5q3 0 9 2q46 15 86.5 24t66.5 9q22 0 28.5 -6.5t6.5 -20.5q0 -25 -17 -55t-46 -39q-29 -10 -58 -17.5t-55 -14.5l-60 -15q-37 -172 -87.5 -357t-130.5 -372
q22 -7 40.5 -13t41.5 -13q16 -4 68 -23t116.5 -42t121.5 -39.5t83 -16.5q11 0 39 7.5t79 37t129 94.5t189 180v-112q-88 -88 -187.5 -176.5t-208.5 -147.5t-226 -59z" />
    <glyph glyph-name="lslash" unicode="&#x142;" horiz-adv-x="553" 
d="M170 -29q-45 0 -64 38.5t-22.5 93.5t-3.5 104q0 43 3 88t7 92l-69 -18q-6 -1 -28 -4.5t-30 22.5q-13 40 -3.5 58.5t22.5 27.5q11 5 45 15.5t82 25.5q25 144 68.5 289.5t100.5 276.5t123.5 232.5t138.5 160.5t144 59q66 0 103 -45.5t37 -114.5q0 -113 -32.5 -228.5
t-87 -219.5t-120 -185t-131.5 -125q116 29 189 49t89 -8q7 -22 -10 -59.5t-51 -48.5q-31 -7 -59 -17.5t-54 -15.5q-14 -2 -46 -10t-67.5 -17t-61 -15.5l-25.5 -6.5q-5 -21 -22.5 -72.5t-32.5 -108.5t-15 -96q0 -12 4.5 -41.5t30.5 -29.5q14 0 55.5 35.5t95 89t105.5 108.5
t86 93v-117q-167 -180 -280.5 -264t-213.5 -91zM400 680q75 75 133 170t97.5 191t60 173.5t20.5 116.5q0 25 -7 55.5t-36 30.5q-70 0 -133 -195.5t-135 -541.5z" />
    <glyph glyph-name="Nacute" unicode="&#x143;" horiz-adv-x="1473" 
d="M1100 -57q-46 0 -73.5 32.5t-41 82.5t-18 104.5t-4.5 99.5q0 239 35 483t102 457q11 30 11 55q0 26 -11.5 43.5t-33.5 17.5q-13 0 -33 -9q-162 -82 -293.5 -218t-225 -303.5t-143.5 -345.5q-20 -71 -38 -154.5t-33 -160.5t-28 -127h-206q0 79 23 190t59 243t75.5 275
t71.5 287l82 318l-322 -228l-30 -10q-16 0 -21.5 16t-5.5 35q0 10 4.5 20.5t20.5 20.5l430 271q17 11 49 29.5t66 33.5t55 15q20 0 20 -19q0 -37 -12 -94t-27 -116t-27 -104.5t-12 -60.5l-16 -82q144 171 263 267.5t210.5 141t154 56t93.5 11.5q46 0 65 -27t19 -66
q0 -25 -17 -112t-41.5 -211.5t-49 -263t-41.5 -267.5t-17 -223q0 -43 5 -89t20 -78t44 -32q16 0 37.5 11t46.5 37l256 245l-2 -110q-4 -4 -23 -23.5t-43 -44t-43.5 -44.5t-25.5 -25q-27 -25 -73 -66t-99 -83.5t-103 -71.5t-85 -29zM846 1618l-23 55q34 32 88 74t115 82.5
t118.5 68t98.5 29.5q24 0 48.5 -17.5t41.5 -41t17 -43.5q0 -24 -19 -29l-88 -35q-77 -30 -155 -58.5t-142 -50t-100 -34.5z" />
    <glyph glyph-name="nacute" unicode="&#x144;" horiz-adv-x="838" 
d="M508 -29q-52 0 -66 27t-14 49q0 80 22.5 162t52.5 157t52.5 136t22.5 98q0 26 -12 40.5t-27 14.5q-49 0 -99 -52t-96.5 -134t-85 -173t-65 -170.5t-37.5 -125.5h-191q1 46 12.5 120t31 160.5t41.5 172.5t44 158.5t39 115.5q20 53 59 66.5t91 13.5h67l-11.5 -40t-29 -100
t-36 -120.5t-31.5 -102.5q30 56 80.5 124t114.5 130t134 102t138 40q98 0 98 -117q0 -31 -14 -85t-35 -117.5t-42.5 -125t-35.5 -108t-14 -64.5t12 -18q13 0 35 14q13 9 44 37.5t68.5 64.5t71 68t51.5 47v-112q-24 -24 -68 -66.5t-98 -92t-107.5 -93.5t-98 -72.5
t-68.5 -28.5zM358 940l-23 55q34 32 88 74t115 82.5t118.5 68t98.5 29.5q24 0 48.5 -17.5t41.5 -41t17 -43.5q0 -24 -19 -29l-88 -35q-77 -30 -155 -58.5t-142 -50t-100 -34.5z" />
    <glyph glyph-name="uni0145" unicode="&#x145;" horiz-adv-x="1473" 
d="M1100 -57q-46 0 -73.5 32.5t-41 82.5t-18 104.5t-4.5 99.5q0 239 35 483t102 457q11 30 11 55q0 26 -11.5 43.5t-33.5 17.5q-13 0 -33 -9q-162 -82 -293.5 -218t-225 -303.5t-143.5 -345.5q-20 -71 -38 -154.5t-33 -160.5t-28 -127h-206q0 79 23 190t59 243t75.5 275
t71.5 287l82 318l-322 -228l-30 -10q-16 0 -21.5 16t-5.5 35q0 10 4.5 20.5t20.5 20.5l430 271q17 11 49 29.5t66 33.5t55 15q20 0 20 -19q0 -37 -12 -94t-27 -116t-27 -104.5t-12 -60.5l-16 -82q144 171 263 267.5t210.5 141t154 56t93.5 11.5q46 0 65 -27t19 -66
q0 -25 -17 -112t-41.5 -211.5t-49 -263t-41.5 -267.5t-17 -223q0 -43 5 -89t20 -78t44 -32q16 0 37.5 11t46.5 37l256 245l-2 -110q-4 -4 -23 -23.5t-43 -44t-43.5 -44.5t-25.5 -25q-27 -25 -73 -66t-99 -83.5t-103 -71.5t-85 -29zM628 -541l-58 21l8.5 60.5t14.5 133.5
q-41 0 -59.5 23.5t-18.5 54.5q0 34 18.5 70.5t50 62t70.5 25.5q59 0 82 -20.5t23 -55.5q0 -31 -17 -85t-40.5 -112.5t-44.5 -107t-29 -70.5z" />
    <glyph glyph-name="uni0146" unicode="&#x146;" horiz-adv-x="838" 
d="M508 -29q-52 0 -66 27t-14 49q0 80 22.5 162t52.5 157t52.5 136t22.5 98q0 26 -12 40.5t-27 14.5q-49 0 -99 -52t-96.5 -134t-85 -173t-65 -170.5t-37.5 -125.5h-191q1 46 12.5 120t31 160.5t41.5 172.5t44 158.5t39 115.5q20 53 59 66.5t91 13.5h67l-11.5 -40t-29 -100
t-36 -120.5t-31.5 -102.5q30 56 80.5 124t114.5 130t134 102t138 40q98 0 98 -117q0 -31 -14 -85t-35 -117.5t-42.5 -125t-35.5 -108t-14 -64.5t12 -18q13 0 35 14q13 9 44 37.5t68.5 64.5t71 68t51.5 47v-112q-24 -24 -68 -66.5t-98 -92t-107.5 -93.5t-98 -72.5
t-68.5 -28.5zM330 -541l-58 21l8.5 60.5t14.5 133.5q-41 0 -59.5 23.5t-18.5 54.5q0 34 18.5 70.5t50 62t70.5 25.5q59 0 82 -20.5t23 -55.5q0 -31 -17 -85t-40.5 -112.5t-44.5 -107t-29 -70.5z" />
    <glyph glyph-name="Ncaron" unicode="&#x147;" horiz-adv-x="1473" 
d="M1100 -57q-46 0 -73.5 32.5t-41 82.5t-18 104.5t-4.5 99.5q0 239 35 483t102 457q11 30 11 55q0 26 -11.5 43.5t-33.5 17.5q-13 0 -33 -9q-162 -82 -293.5 -218t-225 -303.5t-143.5 -345.5q-20 -71 -38 -154.5t-33 -160.5t-28 -127h-206q0 79 23 190t59 243t75.5 275
t71.5 287l82 318l-322 -228l-30 -10q-16 0 -21.5 16t-5.5 35q0 10 4.5 20.5t20.5 20.5l430 271q17 11 49 29.5t66 33.5t55 15q20 0 20 -19q0 -37 -12 -94t-27 -116t-27 -104.5t-12 -60.5l-16 -82q144 171 263 267.5t210.5 141t154 56t93.5 11.5q46 0 65 -27t19 -66
q0 -25 -17 -112t-41.5 -211.5t-49 -263t-41.5 -267.5t-17 -223q0 -43 5 -89t20 -78t44 -32q16 0 37.5 11t46.5 37l256 245l-2 -110q-4 -4 -23 -23.5t-43 -44t-43.5 -44.5t-25.5 -25q-27 -25 -73 -66t-99 -83.5t-103 -71.5t-85 -29zM1013 1622q-22 0 -48 39t-52.5 97
t-48.5 116.5t-35.5 99.5t-14.5 43l113 23l19.5 -45.5l46.5 -108.5t49 -116q33 40 71 86.5t72.5 88.5t56 68.5l21.5 26.5l96 -23q-33 -57 -79 -125t-95.5 -129.5t-94.5 -101t-77 -39.5z" />
    <glyph glyph-name="ncaron" unicode="&#x148;" horiz-adv-x="838" 
d="M508 -29q-52 0 -66 27t-14 49q0 80 22.5 162t52.5 157t52.5 136t22.5 98q0 26 -12 40.5t-27 14.5q-49 0 -99 -52t-96.5 -134t-85 -173t-65 -170.5t-37.5 -125.5h-191q1 46 12.5 120t31 160.5t41.5 172.5t44 158.5t39 115.5q20 53 59 66.5t91 13.5h67l-11.5 -40t-29 -100
t-36 -120.5t-31.5 -102.5q30 56 80.5 124t114.5 130t134 102t138 40q98 0 98 -117q0 -31 -14 -85t-35 -117.5t-42.5 -125t-35.5 -108t-14 -64.5t12 -18q13 0 35 14q13 9 44 37.5t68.5 64.5t71 68t51.5 47v-112q-24 -24 -68 -66.5t-98 -92t-107.5 -93.5t-98 -72.5
t-68.5 -28.5zM525 944q-22 0 -48 39t-52.5 97t-48.5 116.5t-35.5 99.5t-14.5 43l113 23l19.5 -45.5l46.5 -108.5t49 -116q33 40 71 86.5t72.5 88.5t56 68.5l21.5 26.5l96 -23q-33 -57 -79 -125t-95.5 -129.5t-94.5 -101t-77 -39.5z" />
    <glyph glyph-name="Eng" unicode="&#x14a;" horiz-adv-x="1404" 
d="M531 -681q-56 0 -98.5 35t-52.5 83.5t28 88.5q22 23 54.5 31.5t58.5 -2.5t26 -49q0 -49 27 -63.5t52 -14.5q50 0 84.5 63.5t60.5 168t49 229.5t50 248q8 36 25 119t40 192.5t47.5 228t47.5 226.5t41.5 188t28.5 111q11 30 11 55q0 26 -11.5 43.5t-33.5 17.5q-13 0 -33 -9
q-162 -82 -293.5 -218t-225 -303.5t-143.5 -345.5q-20 -71 -38 -154.5t-33 -160.5t-28 -127h-206q0 79 23 190t59 243t75.5 275t71.5 287l82 318l-322 -228l-30 -10q-16 0 -21.5 16t-5.5 35q0 10 4.5 20.5t20.5 20.5l430 271q17 11 49 29.5t66 33.5t55 15q20 0 20 -19
q0 -37 -12 -94t-27 -116t-27 -104.5t-12 -60.5l-16 -82q144 171 263 267.5t210.5 141t154 56t93.5 11.5q46 0 65 -27t19 -66q0 -40 -17.5 -143t-47.5 -248t-66.5 -310.5t-75 -332t-73.5 -313.5t-61.5 -254t-38.5 -152q-13 -47 -60 -107t-113 -115.5t-137 -92t-133 -36.5z
" />
    <glyph glyph-name="eng" unicode="&#x14b;" horiz-adv-x="838" 
d="M186 -511q-56 0 -98.5 35t-52.5 83.5t28 88.5q22 23 54.5 31.5t58.5 -2.5t26 -49q0 -49 27 -63.5t52 -14.5q50 0 87.5 64t68 168.5t59 229.5t59.5 247q23 88 33 155.5t10 109.5q0 32 -10 57.5t-39 25.5q-49 0 -99 -52t-96.5 -134t-85 -173t-65 -170.5t-37.5 -125.5h-191
q1 46 12.5 120t31 160.5t41.5 172.5t44 158.5t39 115.5q20 53 59 66.5t91 13.5h67l-108 -363q30 56 80.5 124t114.5 130t134 102t138 40q98 0 98 -117q0 -35 -15 -101.5t-35 -142.5t-36 -141l-95 -390q-21 -88 -70.5 -170t-114.5 -147.5t-134 -103.5t-131 -38z" />
    <glyph glyph-name="Omacron" unicode="&#x14c;" horiz-adv-x="1653" 
d="M715 -57q-162 0 -302 74t-226.5 221t-86.5 367q0 172 62 335t179.5 293.5t285.5 207.5t379 77q32 0 67 -3.5t70 -9.5l-4 -102q-26 5 -51 6.5t-48 1.5q-164 0 -295.5 -60.5t-224.5 -163.5t-142.5 -232t-49.5 -266q0 -168 73.5 -286.5t191 -180.5t249.5 -62
q133 0 239.5 45.5t185.5 122t128 168.5h-13q-136 0 -255.5 47.5t-194 143t-74.5 239.5q0 82 37.5 153.5t117 115.5t204.5 44q89 0 173.5 -50.5t139.5 -155t55 -265.5q0 -69 -12 -131q137 21 280 106v-92q-67 -53 -147.5 -88.5t-165.5 -52.5q-47 -130 -134.5 -234.5
t-200.5 -179t-239 -114t-251 -39.5zM1448 627q27 86 27 172q0 90 -31 164.5t-94.5 118.5t-159.5 44q-85 0 -122.5 -35.5t-37.5 -91.5q0 -106 54 -189.5t148.5 -132t215.5 -50.5zM913 1641q-7 0 -32 4.5t-25 36.5q0 47 16.5 64t32.5 22q15 4 74 10t141.5 11t167.5 5t147 -8
t62 -33q0 -28 -30 -62t-70 -34q-35 0 -70.5 1t-67.5 1q-22 0 -53.5 -1t-98 -4.5t-194.5 -12.5z" />
    <glyph glyph-name="omacron" unicode="&#x14d;" horiz-adv-x="867" 
d="M336 -29q-109 0 -175 52.5t-95.5 132.5t-29.5 161q0 171 79 293t221.5 187t330.5 65q20 0 22 -13q0 -15 -2.5 -23.5t-19.5 -19.5q-145 0 -238.5 -61.5t-138.5 -161.5t-45 -216q0 -118 56.5 -177t129.5 -59q47 0 98 29t100 93q-73 45 -111 114.5t-38 136.5q0 74 45.5 126
t147.5 52q90 0 129 -52t39 -124q0 -58 -26.5 -118t-73.5 -104h7q59 0 118 51.5t132 126.5v-110q-59 -80 -129.5 -111t-119.5 -31q-16 0 -49 4q-154 -243 -364 -243zM686 320q20 22 40 76.5t20 97.5q0 38 -17.5 65t-64.5 27q-43 0 -62 -28t-19 -69q0 -42 29.5 -91t73.5 -78z
M400 963q-7 0 -32 4.5t-25 36.5q0 47 16.5 64t32.5 22q15 4 74 10t141.5 11t167.5 5t147 -8t62 -33q0 -28 -30 -62t-70 -34q-35 0 -70.5 1t-67.5 1q-22 0 -53.5 -1t-98 -4.5t-194.5 -12.5z" />
    <glyph glyph-name="Ohungarumlaut" unicode="&#x150;" horiz-adv-x="1653" 
d="M715 -57q-162 0 -302 74t-226.5 221t-86.5 367q0 172 62 335t179.5 293.5t285.5 207.5t379 77q32 0 67 -3.5t70 -9.5l-4 -102q-26 5 -51 6.5t-48 1.5q-164 0 -295.5 -60.5t-224.5 -163.5t-142.5 -232t-49.5 -266q0 -168 73.5 -286.5t191 -180.5t249.5 -62
q133 0 239.5 45.5t185.5 122t128 168.5h-13q-136 0 -255.5 47.5t-194 143t-74.5 239.5q0 82 37.5 153.5t117 115.5t204.5 44q89 0 173.5 -50.5t139.5 -155t55 -265.5q0 -69 -12 -131q137 21 280 106v-92q-67 -53 -147.5 -88.5t-165.5 -52.5q-47 -130 -134.5 -234.5
t-200.5 -179t-239 -114t-251 -39.5zM1448 627q27 86 27 172q0 90 -31 164.5t-94.5 118.5t-159.5 44q-85 0 -122.5 -35.5t-37.5 -91.5q0 -106 54 -189.5t148.5 -132t215.5 -50.5zM1040 1642l-45 39q13 49 39 119t59.5 138t69.5 113.5t69 45.5q57 0 82 -11.5t25 -34.5
q0 -18 -18.5 -46.5t-47.5 -63.5q-48 -57 -93.5 -116.5t-82 -108t-57.5 -74.5zM1290 1652l-43 43q20 43 59 109t86.5 131.5t94.5 110t83 44.5q37 0 76 -23.5t39 -49.5q0 -16 -10 -21l-70 -63q-61 -56 -122.5 -112t-112 -100.5t-80.5 -68.5z" />
    <glyph glyph-name="ohungarumlaut" unicode="&#x151;" horiz-adv-x="867" 
d="M336 -29q-109 0 -175 52.5t-95.5 132.5t-29.5 161q0 171 79 293t221.5 187t330.5 65q20 0 22 -13q0 -15 -2.5 -23.5t-19.5 -19.5q-145 0 -238.5 -61.5t-138.5 -161.5t-45 -216q0 -118 56.5 -177t129.5 -59q47 0 98 29t100 93q-73 45 -111 114.5t-38 136.5q0 74 45.5 126
t147.5 52q90 0 129 -52t39 -124q0 -58 -26.5 -118t-73.5 -104h7q59 0 118 51.5t132 126.5v-110q-59 -80 -129.5 -111t-119.5 -31q-16 0 -49 4q-154 -243 -364 -243zM686 320q20 22 40 76.5t20 97.5q0 38 -17.5 65t-64.5 27q-43 0 -62 -28t-19 -69q0 -42 29.5 -91t73.5 -78z
M527 964l-45 39q13 49 39 119t59.5 138t69.5 113.5t69 45.5q57 0 82 -11.5t25 -34.5q0 -18 -18.5 -46.5t-47.5 -63.5q-48 -57 -93.5 -116.5t-82 -108t-57.5 -74.5zM777 974l-43 43q20 43 59 109t86.5 131.5t94.5 110t83 44.5q37 0 76 -23.5t39 -49.5q0 -16 -10 -21l-70 -63
q-61 -56 -122.5 -112t-112 -100.5t-80.5 -68.5z" />
    <glyph glyph-name="OE" unicode="&#x152;" horiz-adv-x="2105" 
d="M623 -57q-177 0 -293 78.5t-173 208.5t-57 284q0 135 36.5 276.5t111.5 271.5t189 233t268.5 163t351.5 60h594q108 0 217.5 -1t200.5 -3.5t146.5 -8t55.5 -14.5q0 -11 -18 -31l-101 -114q-22 -16 -45 -25.5t-49 -9.5q-89 0 -192 20.5t-201 24.5q-34 -120 -70 -265.5
t-84 -295.5q59 5 120 7.5t124 2.5q54 0 107.5 -3t111.5 -3q37 0 37 -33q0 -28 -30 -62t-70 -34q-78 0 -126.5 0.5t-88.5 0.5t-89.5 -3t-129.5 -11q-32 -118 -83.5 -222.5t-107.5 -196.5h127q15 -5 64.5 -23.5t111 -41t115.5 -38.5t78 -16q8 0 36.5 7t82 36.5t134 94.5
t191.5 181v-110q-125 -111 -223.5 -198t-194.5 -137t-213 -50q-7 0 -18.5 7.5t-51 26t-128.5 51t-252 81.5l-35 10q-98 -83 -228.5 -129.5t-258.5 -46.5zM750 160q118 0 203.5 31.5t148.5 80.5q9 15 26 65.5t35.5 111.5t33.5 112.5t20 69.5q-43 -6 -89 -15t-94 -20
q-1 0 -3 -1t-5 -1q-12 0 -30.5 7.5t-18.5 35.5q0 59 72 78t204 45q71 249 132.5 391.5t158.5 208.5q-7 1 -57 4.5t-119.5 8t-139.5 8.5t-120 7t-57 3q-181 0 -317 -70.5t-227 -185t-136 -250.5t-45 -267q0 -124 46.5 -228t141 -167t236.5 -63z" />
    <glyph glyph-name="oe" unicode="&#x153;" horiz-adv-x="1333" 
d="M294 -29q-98 0 -157.5 52.5t-86 132.5t-26.5 161q0 108 44 203t115.5 167t155 112.5t162.5 40.5q86 0 155.5 -44t100.5 -141q66 83 156.5 134t199.5 51q98 0 167 -38t69 -138q0 -77 -43.5 -141.5t-111.5 -103t-144 -38.5q-42 0 -92.5 25t-87.5 83q-23 -47 -33 -90.5
t-10 -85.5q0 -60 14.5 -112.5t51 -85.5t101.5 -33q47 0 105 38t120 95.5t121 117.5t107 105v-110q-142 -157 -271 -257t-251 -100q-103 0 -178 32.5t-107 121.5q-69 -67 -158.5 -110.5t-187.5 -43.5zM458 133q75 0 123.5 35.5t76 90t39 114.5t11.5 108q0 143 -56 207
t-139 64q-59 0 -119.5 -44.5t-100.5 -121.5t-40 -174q0 -120 60 -199.5t145 -79.5zM1066 467q59 0 101.5 58t42.5 128q0 57 -25.5 77t-69.5 20q-59 0 -104 -34t-73.5 -77.5t-39.5 -73.5q35 -46 79.5 -72t88.5 -26z" />
    </font>
</defs>
</svg>
